%TF.GenerationSoftware,KiCad,Pcbnew,6.0.11+dfsg-1~bpo11+1*%
%TF.CreationDate,2023-08-28T18:41:00-05:00*%
%TF.ProjectId,Gauntl33tVoltageRegulator,4761756e-746c-4333-9374-566f6c746167,rev?*%
%TF.SameCoordinates,Original*%
%TF.FileFunction,Paste,Top*%
%TF.FilePolarity,Positive*%
%FSLAX46Y46*%
G04 Gerber Fmt 4.6, Leading zero omitted, Abs format (unit mm)*
G04 Created by KiCad (PCBNEW 6.0.11+dfsg-1~bpo11+1) date 2023-08-28 18:41:00*
%MOMM*%
%LPD*%
G01*
G04 APERTURE LIST*
G04 Aperture macros list*
%AMRoundRect*
0 Rectangle with rounded corners*
0 $1 Rounding radius*
0 $2 $3 $4 $5 $6 $7 $8 $9 X,Y pos of 4 corners*
0 Add a 4 corners polygon primitive as box body*
4,1,4,$2,$3,$4,$5,$6,$7,$8,$9,$2,$3,0*
0 Add four circle primitives for the rounded corners*
1,1,$1+$1,$2,$3*
1,1,$1+$1,$4,$5*
1,1,$1+$1,$6,$7*
1,1,$1+$1,$8,$9*
0 Add four rect primitives between the rounded corners*
20,1,$1+$1,$2,$3,$4,$5,0*
20,1,$1+$1,$4,$5,$6,$7,0*
20,1,$1+$1,$6,$7,$8,$9,0*
20,1,$1+$1,$8,$9,$2,$3,0*%
G04 Aperture macros list end*
%ADD10R,2.700000X3.600000*%
%ADD11RoundRect,0.250000X-0.412500X-1.100000X0.412500X-1.100000X0.412500X1.100000X-0.412500X1.100000X0*%
%ADD12RoundRect,0.250000X0.412500X1.100000X-0.412500X1.100000X-0.412500X-1.100000X0.412500X-1.100000X0*%
%ADD13RoundRect,0.160000X-0.197500X-0.160000X0.197500X-0.160000X0.197500X0.160000X-0.197500X0.160000X0*%
%ADD14RoundRect,0.250001X0.624999X-0.462499X0.624999X0.462499X-0.624999X0.462499X-0.624999X-0.462499X0*%
%ADD15R,0.300000X0.550000*%
%ADD16R,0.450000X0.300000*%
%ADD17R,0.730000X0.300000*%
%ADD18R,0.300000X0.725000*%
%ADD19R,0.725000X0.300000*%
%ADD20R,1.050000X1.575000*%
%ADD21R,1.050000X1.150000*%
%ADD22R,1.200000X2.175000*%
%ADD23R,0.380000X0.580000*%
%ADD24R,0.445000X0.650000*%
%ADD25R,0.275000X2.350000*%
%ADD26RoundRect,0.237500X0.300000X0.237500X-0.300000X0.237500X-0.300000X-0.237500X0.300000X-0.237500X0*%
%ADD27RoundRect,0.160000X0.160000X-0.197500X0.160000X0.197500X-0.160000X0.197500X-0.160000X-0.197500X0*%
%ADD28RoundRect,0.160000X0.197500X0.160000X-0.197500X0.160000X-0.197500X-0.160000X0.197500X-0.160000X0*%
%ADD29R,3.050000X2.750000*%
%ADD30R,2.200000X1.200000*%
%ADD31R,1.200000X1.200000*%
%ADD32R,1.500000X1.600000*%
%ADD33RoundRect,0.160000X-0.160000X0.197500X-0.160000X-0.197500X0.160000X-0.197500X0.160000X0.197500X0*%
%ADD34RoundRect,0.155000X-0.212500X-0.155000X0.212500X-0.155000X0.212500X0.155000X-0.212500X0.155000X0*%
%ADD35RoundRect,0.090000X-0.139000X-0.090000X0.139000X-0.090000X0.139000X0.090000X-0.139000X0.090000X0*%
%ADD36RoundRect,0.250000X-0.337500X-0.475000X0.337500X-0.475000X0.337500X0.475000X-0.337500X0.475000X0*%
%ADD37RoundRect,0.250000X-0.475000X0.337500X-0.475000X-0.337500X0.475000X-0.337500X0.475000X0.337500X0*%
%ADD38R,1.070000X1.780000*%
%ADD39RoundRect,0.090000X-0.090000X0.139000X-0.090000X-0.139000X0.090000X-0.139000X0.090000X0.139000X0*%
%ADD40RoundRect,0.155000X0.155000X-0.212500X0.155000X0.212500X-0.155000X0.212500X-0.155000X-0.212500X0*%
G04 APERTURE END LIST*
D10*
%TO.C,L1*%
X140750000Y-112260000D03*
X132450000Y-112260000D03*
%TD*%
D11*
%TO.C,C1*%
X125337500Y-119300000D03*
X128462500Y-119300000D03*
%TD*%
D12*
%TO.C,C11*%
X134162500Y-123000000D03*
X131037500Y-123000000D03*
%TD*%
D13*
%TO.C,R7*%
X130402500Y-118600000D03*
X131597500Y-118600000D03*
%TD*%
D14*
%TO.C,F2*%
X121600000Y-122587500D03*
X121600000Y-119612500D03*
%TD*%
D15*
%TO.C,IC1*%
X126140000Y-115536000D03*
X126590000Y-115536000D03*
X127490000Y-115535000D03*
X127940000Y-115535000D03*
D16*
X129040000Y-114984000D03*
X129040000Y-114534000D03*
X129040000Y-114084000D03*
X129040000Y-113384000D03*
X129040000Y-112934000D03*
D17*
X128900000Y-112484000D03*
D18*
X128389000Y-111572000D03*
X127939000Y-111572000D03*
X127489000Y-111572000D03*
X127039000Y-111572000D03*
X126589000Y-111572000D03*
X126139000Y-111572000D03*
X125689000Y-111572000D03*
D19*
X125027000Y-112035000D03*
X125027000Y-112485000D03*
X125027000Y-112935000D03*
X125027000Y-113385000D03*
X125027000Y-114085000D03*
X125027000Y-114535000D03*
X125027000Y-114985000D03*
D20*
X126215000Y-113023000D03*
D21*
X126215000Y-114686000D03*
D22*
X127640000Y-114172000D03*
D23*
X127979000Y-112524000D03*
D24*
X127262000Y-112760000D03*
D25*
X128678000Y-113959000D03*
%TD*%
D26*
%TO.C,C0*%
X129862500Y-109860000D03*
X128137500Y-109860000D03*
%TD*%
D27*
%TO.C,R3*%
X121175000Y-112637500D03*
X121175000Y-111442500D03*
%TD*%
D28*
%TO.C,R1*%
X123497500Y-116000000D03*
X122302500Y-116000000D03*
%TD*%
D29*
%TO.C,U1*%
X146200000Y-119700000D03*
X146200000Y-122750000D03*
X149550000Y-119700000D03*
X149550000Y-122750000D03*
D30*
X141575000Y-118945000D03*
X141575000Y-121225000D03*
X141575000Y-123505000D03*
%TD*%
D11*
%TO.C,C3*%
X125337500Y-122800000D03*
X128462500Y-122800000D03*
%TD*%
D31*
%TO.C,200K1*%
X124400000Y-109900000D03*
D32*
X121150000Y-108900000D03*
D31*
X124400000Y-107900000D03*
%TD*%
D12*
%TO.C,C8*%
X136662500Y-119500000D03*
X133537500Y-119500000D03*
%TD*%
D28*
%TO.C,R2*%
X128562500Y-108332061D03*
X127367500Y-108332061D03*
%TD*%
D33*
%TO.C,R4*%
X121185000Y-113805000D03*
X121185000Y-115000000D03*
%TD*%
D34*
%TO.C,C2*%
X122332500Y-114800000D03*
X123467500Y-114800000D03*
%TD*%
D35*
%TO.C,C4*%
X126667500Y-116900000D03*
X127532500Y-116900000D03*
%TD*%
D36*
%TO.C,C6*%
X143962500Y-111300000D03*
X146037500Y-111300000D03*
%TD*%
D37*
%TO.C,C9*%
X138900000Y-118862500D03*
X138900000Y-120937500D03*
%TD*%
D14*
%TO.C,F1*%
X148800000Y-116087500D03*
X148800000Y-113112500D03*
%TD*%
D28*
%TO.C,R9*%
X123722500Y-112280000D03*
X122527500Y-112280000D03*
%TD*%
D38*
%TO.C,C5*%
X146460000Y-113900000D03*
X143740000Y-113900000D03*
%TD*%
D39*
%TO.C,C7*%
X126385000Y-109257500D03*
X126385000Y-110122500D03*
%TD*%
D40*
%TO.C,R5*%
X119400000Y-111667500D03*
X119400000Y-110532500D03*
%TD*%
%TO.C,R6*%
X126000000Y-108267500D03*
X126000000Y-107132500D03*
%TD*%
D37*
%TO.C,C10*%
X136600000Y-122162500D03*
X136600000Y-124237500D03*
%TD*%
M02*
