M48
; DRILL file {KiCad 6.0.11+dfsg-1~bpo11+1} date Mon 28 Aug 2023 06:40:57 PM CDT
; FORMAT={-:-/ absolute / inch / decimal}
; #@! TF.CreationDate,2023-08-28T18:40:57-05:00
; #@! TF.GenerationSoftware,Kicad,Pcbnew,6.0.11+dfsg-1~bpo11+1
; #@! TF.FileFunction,Plated,1,4,PTH
FMAT,2
INCH
; #@! TA.AperFunction,Plated,PTH,ViaDrill
T1C0.0118
; #@! TA.AperFunction,Plated,PTH,ViaDrill
T2C0.0157
; #@! TA.AperFunction,Plated,PTH,ComponentDrill
T3C0.0472
%
G90
G05
T1
X4.6772Y-4.3031
X4.7283Y-4.4606
X4.7722Y-4.3547
X4.7746Y-4.548
X4.7953Y-4.6024
X4.811Y-4.4882
X4.815Y-4.3543
X4.8268Y-4.248
X4.8427Y-4.3854
X4.8858Y-4.4921
X4.8898Y-4.2047
X4.8916Y-4.3801
X4.9317Y-4.5565
X4.9567Y-4.4291
X4.9567Y-4.4488
X4.9567Y-4.4685
X4.9567Y-4.5039
X4.9567Y-4.5276
X4.9803Y-4.4291
X4.9803Y-4.4488
X4.9803Y-4.4685
X4.9803Y-4.5039
X4.9803Y-4.5276
X5.0048Y-4.3512
X5.0103Y-4.4394
X5.0118Y-4.4646
X5.0118Y-4.4882
X5.0118Y-4.5118
X5.0118Y-4.5354
X5.0145Y-4.265
X5.0354Y-4.4646
X5.0354Y-4.4882
X5.0354Y-4.5118
X5.0354Y-4.5354
X5.0394Y-4.6693
X5.0394Y-4.6969
X5.0394Y-4.7244
X5.0394Y-4.752
X5.0394Y-4.7913
X5.0394Y-4.8189
X5.0394Y-4.8465
X5.063Y-4.3386
X5.0669Y-4.6693
X5.0669Y-4.6969
X5.0669Y-4.7244
X5.0669Y-4.752
X5.0669Y-4.7913
X5.0669Y-4.8189
X5.0669Y-4.8465
X5.0945Y-4.6693
X5.0945Y-4.6969
X5.0945Y-4.7244
X5.0945Y-4.752
X5.0945Y-4.7913
X5.0945Y-4.8189
X5.0945Y-4.8465
X5.126Y-4.6378
X5.1575Y-4.7047
X5.2008Y-4.815
X5.2008Y-4.8425
X5.2126Y-4.6811
X5.2126Y-4.7087
X5.3031Y-4.6654
X5.3031Y-4.6929
X5.3543Y-4.8504
X5.3661Y-4.8819
X5.3937Y-4.9016
X5.4409Y-4.8071
X5.4724Y-4.8071
X5.5Y-4.3622
X5.5Y-4.3898
X5.5Y-4.4173
X5.5Y-4.4449
X5.5Y-4.4724
X5.5Y-4.8976
X5.5157Y-4.7323
X5.5157Y-4.8031
X5.5276Y-4.3622
X5.5276Y-4.3898
X5.5276Y-4.4173
X5.5276Y-4.4449
X5.5276Y-4.4724
X5.5551Y-4.3622
X5.5551Y-4.3898
X5.5551Y-4.4173
X5.5551Y-4.4449
X5.5551Y-4.4724
X5.5827Y-4.3622
X5.5827Y-4.3898
X5.5827Y-4.4173
X5.5827Y-4.4449
X5.5827Y-4.4724
X5.6339Y-4.8976
X5.6496Y-4.4567
X5.6496Y-4.4803
X5.6496Y-4.5039
X5.6535Y-4.3661
X5.6535Y-4.3937
X5.6772Y-4.3661
X5.6772Y-4.3937
X5.6772Y-4.4567
X5.6772Y-4.4803
X5.6772Y-4.5039
X5.7087Y-4.6693
X5.7087Y-4.6929
X5.7087Y-4.7165
X5.7087Y-4.7402
X5.7087Y-4.7638
X5.7087Y-4.7874
X5.7087Y-4.811
X5.7087Y-4.8346
X5.7087Y-4.8583
X5.7244Y-4.3661
X5.7244Y-4.3898
X5.7244Y-4.4134
X5.7244Y-4.4606
X5.7244Y-4.4843
X5.7244Y-4.5079
X5.7323Y-4.6693
X5.7323Y-4.6929
X5.7323Y-4.7165
X5.7323Y-4.7402
X5.7323Y-4.7638
X5.7323Y-4.7874
X5.7323Y-4.811
X5.7323Y-4.8346
X5.748Y-4.3661
X5.748Y-4.3898
X5.748Y-4.4134
X5.748Y-4.4606
X5.748Y-4.4843
X5.748Y-4.5079
X5.7717Y-4.3661
X5.7717Y-4.3898
X5.7717Y-4.4134
X5.7717Y-4.4606
X5.7717Y-4.4843
X5.7756Y-4.5079
X5.8386Y-4.5551
X5.8386Y-4.5827
X5.874Y-4.5551
X5.874Y-4.5827
X5.9094Y-4.8346
X5.9094Y-4.8583
X5.9331Y-4.6693
X5.9331Y-4.6929
X5.9331Y-4.7165
X5.9331Y-4.7402
X5.9331Y-4.7638
X5.9331Y-4.7874
X5.9331Y-4.811
X5.9331Y-4.8346
X5.9331Y-4.8583
T2
X4.6457Y-5.0394
X4.685Y-5.0787
X4.874Y-4.8858
X5.1378Y-4.3228
X5.3268Y-4.7283
X5.378Y-4.8095
X5.5315Y-4.2913
T3
X4.8051Y-5.0748
X4.9429Y-5.0748
X5.0807Y-5.0748
X5.2185Y-5.0748
X5.3563Y-5.0748
X5.4941Y-5.0748
X5.6319Y-5.0748
X5.7697Y-5.0748
T0
M30
