%TF.GenerationSoftware,KiCad,Pcbnew,6.0.11+dfsg-1~bpo11+1*%
%TF.CreationDate,2023-09-12T21:00:17-05:00*%
%TF.ProjectId,Gauntl33tVoltageRegulator,4761756e-746c-4333-9374-566f6c746167,rev?*%
%TF.SameCoordinates,Original*%
%TF.FileFunction,Copper,L3,Inr*%
%TF.FilePolarity,Positive*%
%FSLAX46Y46*%
G04 Gerber Fmt 4.6, Leading zero omitted, Abs format (unit mm)*
G04 Created by KiCad (PCBNEW 6.0.11+dfsg-1~bpo11+1) date 2023-09-12 21:00:17*
%MOMM*%
%LPD*%
G01*
G04 APERTURE LIST*
%TA.AperFunction,ComponentPad*%
%ADD10R,2.400000X2.400000*%
%TD*%
%TA.AperFunction,ComponentPad*%
%ADD11C,2.400000*%
%TD*%
%TA.AperFunction,ViaPad*%
%ADD12C,0.500000*%
%TD*%
%TA.AperFunction,ViaPad*%
%ADD13C,0.650000*%
%TD*%
%TA.AperFunction,ViaPad*%
%ADD14C,0.800000*%
%TD*%
%TA.AperFunction,ViaPad*%
%ADD15C,0.400000*%
%TD*%
%TA.AperFunction,Conductor*%
%ADD16C,0.200000*%
%TD*%
%TA.AperFunction,Conductor*%
%ADD17C,0.250000*%
%TD*%
G04 APERTURE END LIST*
D10*
%TO.N,Net-(F2-Pad1)*%
%TO.C,J1*%
X122050000Y-128900000D03*
D11*
%TO.N,GND*%
X125550000Y-128900000D03*
%TO.N,Net-(JP3-Pad1)*%
X129050000Y-128900000D03*
%TO.N,GND*%
X132550000Y-128900000D03*
%TO.N,Net-(J1-Pad5)*%
X136050000Y-128900000D03*
%TO.N,GND*%
X139550000Y-128900000D03*
%TO.N,/5V*%
X143050000Y-128900000D03*
%TO.N,GND*%
X146550000Y-128900000D03*
%TD*%
D12*
%TO.N,/5V*%
X118900000Y-119900000D03*
%TO.N,+5VP*%
X118900000Y-118300000D03*
%TO.N,Net-(JP3-Pad1)*%
X149400000Y-109800000D03*
X148800000Y-109200000D03*
X148800000Y-109800000D03*
X148200000Y-109800000D03*
X148200000Y-109200000D03*
X148200000Y-108600000D03*
%TO.N,/+20V*%
X143900000Y-116500000D03*
D13*
%TO.N,/5V*%
X134200000Y-124000000D03*
%TO.N,/+20V*%
X123800000Y-124100000D03*
D12*
%TO.N,Net-(200K1-Pad3)*%
X123100000Y-107300000D03*
%TO.N,Net-(200K1-Pad1)*%
X118500000Y-110500000D03*
%TO.N,Net-(200K1-Pad3)*%
X119200000Y-115800000D03*
%TO.N,Net-(200K1-Pad1)*%
X119200000Y-114100000D03*
%TO.N,/+20V*%
X126500000Y-114400000D03*
D13*
%TO.N,Net-(C8-Pad1)*%
X135300000Y-120100000D03*
D12*
%TO.N,/+20V*%
X125265498Y-115734502D03*
X126500000Y-115000000D03*
X125900000Y-115000000D03*
X125900000Y-114400000D03*
X124100000Y-114100000D03*
%TO.N,GND*%
X134700000Y-118500000D03*
X150100000Y-122800000D03*
X126500000Y-112500000D03*
X132400000Y-118900000D03*
X128000000Y-122400000D03*
X146000000Y-112100000D03*
X128700000Y-121700000D03*
X150100000Y-123400000D03*
X145000000Y-121600000D03*
X128000000Y-118600000D03*
X128700000Y-120000000D03*
X146700000Y-114500000D03*
X146600000Y-110900000D03*
X127262000Y-112760000D03*
X150700000Y-121600000D03*
X150700000Y-122800000D03*
X118800000Y-109300000D03*
X127900000Y-113400000D03*
X146000000Y-114500000D03*
X145400000Y-113300000D03*
X126500000Y-113500000D03*
X145600000Y-121000000D03*
X145000000Y-122200000D03*
X145000000Y-119800000D03*
X129400000Y-122400000D03*
X140100000Y-122000000D03*
X129400000Y-120700000D03*
X129400000Y-120000000D03*
X125900000Y-112500000D03*
X132400000Y-119600000D03*
X139700000Y-124400000D03*
X127900000Y-114600000D03*
X145400000Y-114500000D03*
X146000000Y-113900000D03*
X150700000Y-123400000D03*
X127900000Y-115200000D03*
X138200000Y-122100000D03*
X128600000Y-110200000D03*
X125900000Y-113500000D03*
X146000000Y-110900000D03*
X128700000Y-122400000D03*
X145600000Y-122200000D03*
X129400000Y-119300000D03*
X129400000Y-121700000D03*
X145600000Y-120400000D03*
X150700000Y-118600000D03*
X120100000Y-113300000D03*
X145000000Y-121000000D03*
X122300000Y-110600000D03*
X137000000Y-124500000D03*
X134700000Y-119200000D03*
X145600000Y-119800000D03*
X128000000Y-121700000D03*
X125900000Y-113000000D03*
X128700000Y-120700000D03*
X145000000Y-119200000D03*
X127900000Y-114000000D03*
X128000000Y-120000000D03*
X140100000Y-120200000D03*
X129400000Y-118600000D03*
X139000000Y-122100000D03*
X146600000Y-111500000D03*
X146600000Y-113900000D03*
X128000000Y-120700000D03*
X136000000Y-123200000D03*
X146000000Y-113300000D03*
X145000000Y-118600000D03*
X150700000Y-119200000D03*
X136300000Y-124000000D03*
X128000000Y-123100000D03*
X146600000Y-112100000D03*
X143100000Y-124400000D03*
X128700000Y-118600000D03*
X132100000Y-122300000D03*
X124200000Y-106800000D03*
X132100000Y-123000000D03*
X146000000Y-111500000D03*
X127300000Y-114000000D03*
X146600000Y-113300000D03*
X145000000Y-120400000D03*
X150700000Y-120400000D03*
X145600000Y-118600000D03*
X127300000Y-115200000D03*
D14*
X119000000Y-129000000D03*
D12*
X129400000Y-123100000D03*
X128700000Y-123100000D03*
X145600000Y-122800000D03*
X145400000Y-110900000D03*
X145000000Y-123400000D03*
X145400000Y-113900000D03*
X145400000Y-112100000D03*
X122600000Y-107900000D03*
D14*
X118000000Y-128000000D03*
D12*
X127300000Y-114600000D03*
X122200000Y-114000000D03*
X128700000Y-119300000D03*
X128000000Y-119300000D03*
X145400000Y-111500000D03*
X150700000Y-122200000D03*
X150700000Y-121000000D03*
X121800000Y-116900000D03*
X150700000Y-119800000D03*
X127300000Y-113400000D03*
X145600000Y-121600000D03*
X145600000Y-119200000D03*
X126500000Y-113000000D03*
X145000000Y-122800000D03*
%TO.N,/PGOOD*%
X130200000Y-117800000D03*
X127121588Y-110521588D03*
D15*
%TO.N,+5VP*%
X121215000Y-110610000D03*
X121275000Y-115520000D03*
D12*
X127367500Y-108332061D03*
D14*
X130500000Y-109800000D03*
D15*
X123005000Y-111390000D03*
D12*
%TO.N,/Vreg*%
X141100000Y-113600000D03*
X139700000Y-113600000D03*
X139700000Y-112200000D03*
X141800000Y-113600000D03*
X143600000Y-110900000D03*
X140400000Y-112900000D03*
X140400000Y-110800000D03*
X141800000Y-110800000D03*
X139700000Y-110800000D03*
X141800000Y-112900000D03*
X140400000Y-111500000D03*
X141800000Y-112200000D03*
X144200000Y-114400000D03*
X143500000Y-114400000D03*
X141100000Y-111500000D03*
X143500000Y-113200000D03*
D13*
X140500000Y-109000000D03*
D12*
X139700000Y-111500000D03*
X143600000Y-111600000D03*
X144200000Y-110900000D03*
X140400000Y-113600000D03*
X124246000Y-111254000D03*
X144200000Y-113200000D03*
X143500000Y-113800000D03*
X144200000Y-111600000D03*
X144200000Y-113800000D03*
X140400000Y-112200000D03*
X141100000Y-110800000D03*
X139700000Y-112900000D03*
X141100000Y-112900000D03*
X141100000Y-112200000D03*
X141800000Y-111500000D03*
%TO.N,Net-(J1-Pad5)*%
X131000000Y-119500000D03*
%TD*%
D16*
%TO.N,Net-(200K1-Pad3)*%
X119200000Y-115800000D02*
X119200000Y-114900000D01*
X119200000Y-114900000D02*
X117900000Y-113600000D01*
X117900000Y-113600000D02*
X117900000Y-109300000D01*
X117900000Y-109300000D02*
X119900000Y-107300000D01*
X119900000Y-107300000D02*
X123100000Y-107300000D01*
%TO.N,Net-(200K1-Pad1)*%
X119200000Y-114100000D02*
X118300000Y-113200000D01*
X118300000Y-110700000D02*
X118500000Y-110500000D01*
X118300000Y-113200000D02*
X118300000Y-110700000D01*
%TO.N,/+20V*%
X124200000Y-114669004D02*
X125265498Y-115734502D01*
X124200000Y-114000000D02*
X124200000Y-114669004D01*
%TO.N,/PGOOD*%
X130200000Y-111200000D02*
X130200000Y-117800000D01*
X127350000Y-110750000D02*
X129750000Y-110750000D01*
X129750000Y-110750000D02*
X130200000Y-111200000D01*
X127121588Y-110521588D02*
X127350000Y-110750000D01*
%TO.N,+5VP*%
X121215000Y-115460000D02*
X121275000Y-115520000D01*
X121215000Y-110610000D02*
X121215000Y-115460000D01*
X123492939Y-108332061D02*
X121215000Y-110610000D01*
X127367500Y-108332061D02*
X123492939Y-108332061D01*
D17*
%TO.N,/Vreg*%
X124500000Y-109000000D02*
X124223161Y-109276839D01*
X140500000Y-109000000D02*
X124500000Y-109000000D01*
X124223161Y-109276839D02*
X124223161Y-111238880D01*
D16*
%TO.N,Net-(J1-Pad5)*%
X131000000Y-119500000D02*
X136050000Y-124550000D01*
X136050000Y-124550000D02*
X136050000Y-128900000D01*
%TD*%
%TA.AperFunction,Conductor*%
%TO.N,GND*%
G36*
X123104707Y-106519976D02*
G01*
X123143913Y-106501505D01*
X123163327Y-106500000D01*
X149653489Y-106500000D01*
X149721610Y-106520002D01*
X149768103Y-106573658D01*
X149773784Y-106588515D01*
X149845063Y-106817260D01*
X149846625Y-106820730D01*
X149846627Y-106820736D01*
X149888570Y-106913929D01*
X149959285Y-107071050D01*
X150103265Y-107309222D01*
X150105606Y-107312210D01*
X150105608Y-107312213D01*
X150208629Y-107443709D01*
X150274904Y-107528302D01*
X150471698Y-107725096D01*
X150474698Y-107727447D01*
X150474701Y-107727449D01*
X150641213Y-107857903D01*
X150690778Y-107896735D01*
X150694032Y-107898702D01*
X150925689Y-108038744D01*
X150925693Y-108038746D01*
X150928950Y-108040715D01*
X150992390Y-108069267D01*
X151179264Y-108153373D01*
X151179270Y-108153375D01*
X151182740Y-108154937D01*
X151186376Y-108156070D01*
X151411485Y-108226216D01*
X151470571Y-108265578D01*
X151498996Y-108330636D01*
X151500000Y-108346511D01*
X151500000Y-128653489D01*
X151479998Y-128721610D01*
X151426342Y-128768103D01*
X151411485Y-128773784D01*
X151182740Y-128845063D01*
X151179270Y-128846625D01*
X151179264Y-128846627D01*
X151142410Y-128863214D01*
X150928950Y-128959285D01*
X150925693Y-128961254D01*
X150925689Y-128961256D01*
X150773950Y-129052986D01*
X150690778Y-129103265D01*
X150687790Y-129105606D01*
X150687787Y-129105608D01*
X150474701Y-129272551D01*
X150471698Y-129274904D01*
X150274904Y-129471698D01*
X150272553Y-129474698D01*
X150272551Y-129474701D01*
X150115264Y-129675463D01*
X150103265Y-129690778D01*
X150101298Y-129694032D01*
X149989188Y-129879485D01*
X149959285Y-129928950D01*
X149906446Y-130046353D01*
X149846750Y-130178992D01*
X149845063Y-130182740D01*
X149814461Y-130280945D01*
X149773784Y-130411485D01*
X149734422Y-130470571D01*
X149669364Y-130498996D01*
X149653489Y-130500000D01*
X143738475Y-130500000D01*
X143670354Y-130479998D01*
X143623861Y-130426342D01*
X143613757Y-130356068D01*
X143643251Y-130291488D01*
X143683043Y-130260849D01*
X143816303Y-130195566D01*
X143816308Y-130195563D01*
X143820954Y-130193287D01*
X143825164Y-130190284D01*
X143825169Y-130190281D01*
X144017617Y-130053009D01*
X144017622Y-130053005D01*
X144021829Y-130050004D01*
X144196605Y-129875837D01*
X144340588Y-129675463D01*
X144449911Y-129454264D01*
X144505120Y-129272551D01*
X144520135Y-129223132D01*
X144520136Y-129223126D01*
X144521639Y-129218180D01*
X144553845Y-128973550D01*
X144555643Y-128900000D01*
X144542030Y-128734422D01*
X144535849Y-128659240D01*
X144535848Y-128659234D01*
X144535425Y-128654089D01*
X144475316Y-128414783D01*
X144376928Y-128188507D01*
X144242905Y-127981339D01*
X144216635Y-127952468D01*
X144190243Y-127923464D01*
X144076846Y-127798842D01*
X144072795Y-127795643D01*
X144072791Y-127795639D01*
X143887264Y-127649119D01*
X143887259Y-127649116D01*
X143883210Y-127645918D01*
X143878694Y-127643425D01*
X143878691Y-127643423D01*
X143671722Y-127529170D01*
X143671718Y-127529168D01*
X143667198Y-127526673D01*
X143662329Y-127524949D01*
X143662325Y-127524947D01*
X143439485Y-127446035D01*
X143439481Y-127446034D01*
X143434610Y-127444309D01*
X143429517Y-127443402D01*
X143429514Y-127443401D01*
X143196783Y-127401945D01*
X143196777Y-127401944D01*
X143191694Y-127401039D01*
X143112324Y-127400069D01*
X142950142Y-127398088D01*
X142950140Y-127398088D01*
X142944972Y-127398025D01*
X142701070Y-127435347D01*
X142466540Y-127512003D01*
X142380153Y-127556973D01*
X142257144Y-127621008D01*
X142247679Y-127625935D01*
X142243546Y-127629038D01*
X142243543Y-127629040D01*
X142054499Y-127770978D01*
X142050364Y-127774083D01*
X141879896Y-127952468D01*
X141876982Y-127956740D01*
X141876981Y-127956741D01*
X141857238Y-127985683D01*
X141740851Y-128156300D01*
X141636965Y-128380104D01*
X141571026Y-128617871D01*
X141544806Y-128863214D01*
X141559010Y-129109545D01*
X141560147Y-129114591D01*
X141560148Y-129114597D01*
X141582336Y-129213051D01*
X141613255Y-129350249D01*
X141706084Y-129578861D01*
X141835006Y-129789241D01*
X141996557Y-129975741D01*
X142186399Y-130133351D01*
X142199342Y-130140914D01*
X142394967Y-130255229D01*
X142394974Y-130255232D01*
X142399433Y-130257838D01*
X142404262Y-130259682D01*
X142405698Y-130260370D01*
X142458488Y-130307844D01*
X142477232Y-130376321D01*
X142455978Y-130444062D01*
X142401475Y-130489558D01*
X142351253Y-130500000D01*
X136738475Y-130500000D01*
X136670354Y-130479998D01*
X136623861Y-130426342D01*
X136613757Y-130356068D01*
X136643251Y-130291488D01*
X136683043Y-130260849D01*
X136816303Y-130195566D01*
X136816308Y-130195563D01*
X136820954Y-130193287D01*
X136825164Y-130190284D01*
X136825169Y-130190281D01*
X137017617Y-130053009D01*
X137017622Y-130053005D01*
X137021829Y-130050004D01*
X137196605Y-129875837D01*
X137340588Y-129675463D01*
X137449911Y-129454264D01*
X137505120Y-129272551D01*
X137520135Y-129223132D01*
X137520136Y-129223126D01*
X137521639Y-129218180D01*
X137553845Y-128973550D01*
X137555643Y-128900000D01*
X137542030Y-128734422D01*
X137535849Y-128659240D01*
X137535848Y-128659234D01*
X137535425Y-128654089D01*
X137475316Y-128414783D01*
X137376928Y-128188507D01*
X137242905Y-127981339D01*
X137216635Y-127952468D01*
X137190243Y-127923464D01*
X137076846Y-127798842D01*
X137072795Y-127795643D01*
X137072791Y-127795639D01*
X136887264Y-127649119D01*
X136887259Y-127649116D01*
X136883210Y-127645918D01*
X136878694Y-127643425D01*
X136878691Y-127643423D01*
X136671722Y-127529170D01*
X136671718Y-127529168D01*
X136667198Y-127526673D01*
X136662329Y-127524949D01*
X136662325Y-127524947D01*
X136579509Y-127495621D01*
X136534439Y-127479661D01*
X136476904Y-127438067D01*
X136450988Y-127371969D01*
X136450500Y-127360888D01*
X136450500Y-124518481D01*
X136450499Y-124518475D01*
X136450499Y-124486567D01*
X136447436Y-124477140D01*
X136447435Y-124477133D01*
X136443703Y-124465647D01*
X136439089Y-124446427D01*
X136437199Y-124434493D01*
X136437197Y-124434485D01*
X136435646Y-124424696D01*
X136431146Y-124415865D01*
X136431145Y-124415861D01*
X136425658Y-124405093D01*
X136418094Y-124386832D01*
X136411296Y-124365910D01*
X136398368Y-124348116D01*
X136388038Y-124331259D01*
X136382552Y-124320493D01*
X136382551Y-124320492D01*
X136378050Y-124311658D01*
X136288342Y-124221950D01*
X132159795Y-120093402D01*
X134669941Y-120093402D01*
X134686554Y-120243883D01*
X134738582Y-120386057D01*
X134742819Y-120392363D01*
X134742821Y-120392366D01*
X134770240Y-120433169D01*
X134823022Y-120511716D01*
X134934998Y-120613607D01*
X134941675Y-120617232D01*
X134941676Y-120617233D01*
X135061370Y-120682222D01*
X135061372Y-120682223D01*
X135068047Y-120685847D01*
X135075396Y-120687775D01*
X135207136Y-120722336D01*
X135207138Y-120722336D01*
X135214486Y-120724264D01*
X135294562Y-120725522D01*
X135358266Y-120726523D01*
X135358269Y-120726523D01*
X135365863Y-120726642D01*
X135513437Y-120692843D01*
X135580731Y-120658998D01*
X135641906Y-120628231D01*
X135641909Y-120628229D01*
X135648689Y-120624819D01*
X135763810Y-120526495D01*
X135852156Y-120403550D01*
X135908624Y-120263080D01*
X135929956Y-120113196D01*
X135930094Y-120100000D01*
X135911906Y-119949701D01*
X135893126Y-119900000D01*
X135861076Y-119815182D01*
X135861075Y-119815179D01*
X135858392Y-119808080D01*
X135772640Y-119683311D01*
X135659603Y-119582599D01*
X135652897Y-119579048D01*
X135652895Y-119579047D01*
X135536485Y-119517412D01*
X135525805Y-119511757D01*
X135378972Y-119474874D01*
X135371374Y-119474834D01*
X135371372Y-119474834D01*
X135306775Y-119474496D01*
X135227579Y-119474082D01*
X135220200Y-119475854D01*
X135220196Y-119475854D01*
X135087746Y-119507652D01*
X135087742Y-119507653D01*
X135080367Y-119509424D01*
X134945835Y-119578861D01*
X134940113Y-119583853D01*
X134940111Y-119583854D01*
X134837474Y-119673390D01*
X134837471Y-119673393D01*
X134831749Y-119678385D01*
X134827382Y-119684599D01*
X134757397Y-119784178D01*
X134744696Y-119802249D01*
X134689702Y-119943302D01*
X134688711Y-119950831D01*
X134672140Y-120076701D01*
X134669941Y-120093402D01*
X132159795Y-120093402D01*
X131583805Y-119517412D01*
X131549779Y-119455100D01*
X131547978Y-119444764D01*
X131545267Y-119424168D01*
X131536330Y-119356291D01*
X131480861Y-119222375D01*
X131392621Y-119107379D01*
X131277625Y-119019139D01*
X131143709Y-118963670D01*
X131000000Y-118944750D01*
X130856291Y-118963670D01*
X130722375Y-119019139D01*
X130607379Y-119107379D01*
X130519139Y-119222375D01*
X130463670Y-119356291D01*
X130444750Y-119500000D01*
X130463670Y-119643709D01*
X130519139Y-119777625D01*
X130607379Y-119892621D01*
X130722375Y-119980861D01*
X130856291Y-120036330D01*
X130944765Y-120047978D01*
X131009691Y-120076701D01*
X131017412Y-120083805D01*
X134113729Y-123180121D01*
X134147755Y-123242433D01*
X134142690Y-123313248D01*
X134100143Y-123370084D01*
X134054048Y-123391735D01*
X133987746Y-123407652D01*
X133987742Y-123407653D01*
X133980367Y-123409424D01*
X133973622Y-123412905D01*
X133973623Y-123412905D01*
X133853560Y-123474874D01*
X133845835Y-123478861D01*
X133840113Y-123483853D01*
X133840111Y-123483854D01*
X133737474Y-123573390D01*
X133737471Y-123573393D01*
X133731749Y-123578385D01*
X133727382Y-123584599D01*
X133653610Y-123689566D01*
X133644696Y-123702249D01*
X133589702Y-123843302D01*
X133588711Y-123850831D01*
X133574702Y-123957241D01*
X133569941Y-123993402D01*
X133586554Y-124143883D01*
X133638582Y-124286057D01*
X133642819Y-124292363D01*
X133642821Y-124292366D01*
X133655785Y-124311658D01*
X133723022Y-124411716D01*
X133834998Y-124513607D01*
X133841675Y-124517232D01*
X133841676Y-124517233D01*
X133961370Y-124582222D01*
X133961372Y-124582223D01*
X133968047Y-124585847D01*
X133975396Y-124587775D01*
X134107136Y-124622336D01*
X134107138Y-124622336D01*
X134114486Y-124624264D01*
X134194562Y-124625522D01*
X134258266Y-124626523D01*
X134258269Y-124626523D01*
X134265863Y-124626642D01*
X134413437Y-124592843D01*
X134480731Y-124558998D01*
X134541906Y-124528231D01*
X134541909Y-124528229D01*
X134548689Y-124524819D01*
X134663810Y-124426495D01*
X134752156Y-124303550D01*
X134808624Y-124163080D01*
X134809694Y-124155561D01*
X134811660Y-124148224D01*
X134814279Y-124148926D01*
X134838368Y-124095950D01*
X134898032Y-124057470D01*
X134969028Y-124057354D01*
X135022821Y-124089213D01*
X135612595Y-124678987D01*
X135646621Y-124741299D01*
X135649500Y-124768082D01*
X135649500Y-127360826D01*
X135629498Y-127428947D01*
X135575842Y-127475440D01*
X135562645Y-127480591D01*
X135523282Y-127493457D01*
X135466540Y-127512003D01*
X135380153Y-127556973D01*
X135257144Y-127621008D01*
X135247679Y-127625935D01*
X135243546Y-127629038D01*
X135243543Y-127629040D01*
X135054499Y-127770978D01*
X135050364Y-127774083D01*
X134879896Y-127952468D01*
X134876982Y-127956740D01*
X134876981Y-127956741D01*
X134857238Y-127985683D01*
X134740851Y-128156300D01*
X134636965Y-128380104D01*
X134571026Y-128617871D01*
X134544806Y-128863214D01*
X134559010Y-129109545D01*
X134560147Y-129114591D01*
X134560148Y-129114597D01*
X134582336Y-129213051D01*
X134613255Y-129350249D01*
X134706084Y-129578861D01*
X134835006Y-129789241D01*
X134996557Y-129975741D01*
X135186399Y-130133351D01*
X135199342Y-130140914D01*
X135394967Y-130255229D01*
X135394974Y-130255232D01*
X135399433Y-130257838D01*
X135404262Y-130259682D01*
X135405698Y-130260370D01*
X135458488Y-130307844D01*
X135477232Y-130376321D01*
X135455978Y-130444062D01*
X135401475Y-130489558D01*
X135351253Y-130500000D01*
X129738475Y-130500000D01*
X129670354Y-130479998D01*
X129623861Y-130426342D01*
X129613757Y-130356068D01*
X129643251Y-130291488D01*
X129683043Y-130260849D01*
X129816303Y-130195566D01*
X129816308Y-130195563D01*
X129820954Y-130193287D01*
X129825164Y-130190284D01*
X129825169Y-130190281D01*
X130017617Y-130053009D01*
X130017622Y-130053005D01*
X130021829Y-130050004D01*
X130196605Y-129875837D01*
X130340588Y-129675463D01*
X130449911Y-129454264D01*
X130505120Y-129272551D01*
X130520135Y-129223132D01*
X130520136Y-129223126D01*
X130521639Y-129218180D01*
X130553845Y-128973550D01*
X130555643Y-128900000D01*
X130542030Y-128734422D01*
X130535849Y-128659240D01*
X130535848Y-128659234D01*
X130535425Y-128654089D01*
X130475316Y-128414783D01*
X130376928Y-128188507D01*
X130242905Y-127981339D01*
X130216635Y-127952468D01*
X130190243Y-127923464D01*
X130076846Y-127798842D01*
X130072795Y-127795643D01*
X130072791Y-127795639D01*
X129887264Y-127649119D01*
X129887259Y-127649116D01*
X129883210Y-127645918D01*
X129878694Y-127643425D01*
X129878691Y-127643423D01*
X129671722Y-127529170D01*
X129671718Y-127529168D01*
X129667198Y-127526673D01*
X129662329Y-127524949D01*
X129662325Y-127524947D01*
X129439485Y-127446035D01*
X129439481Y-127446034D01*
X129434610Y-127444309D01*
X129429517Y-127443402D01*
X129429514Y-127443401D01*
X129196783Y-127401945D01*
X129196777Y-127401944D01*
X129191694Y-127401039D01*
X129112324Y-127400069D01*
X128950142Y-127398088D01*
X128950140Y-127398088D01*
X128944972Y-127398025D01*
X128701070Y-127435347D01*
X128466540Y-127512003D01*
X128380153Y-127556973D01*
X128257144Y-127621008D01*
X128247679Y-127625935D01*
X128243546Y-127629038D01*
X128243543Y-127629040D01*
X128054499Y-127770978D01*
X128050364Y-127774083D01*
X127879896Y-127952468D01*
X127876982Y-127956740D01*
X127876981Y-127956741D01*
X127857238Y-127985683D01*
X127740851Y-128156300D01*
X127636965Y-128380104D01*
X127571026Y-128617871D01*
X127544806Y-128863214D01*
X127559010Y-129109545D01*
X127560147Y-129114591D01*
X127560148Y-129114597D01*
X127582336Y-129213051D01*
X127613255Y-129350249D01*
X127706084Y-129578861D01*
X127835006Y-129789241D01*
X127996557Y-129975741D01*
X128186399Y-130133351D01*
X128199342Y-130140914D01*
X128394967Y-130255229D01*
X128394974Y-130255232D01*
X128399433Y-130257838D01*
X128404262Y-130259682D01*
X128405698Y-130260370D01*
X128458488Y-130307844D01*
X128477232Y-130376321D01*
X128455978Y-130444062D01*
X128401475Y-130489558D01*
X128351253Y-130500000D01*
X123579166Y-130500000D01*
X123511045Y-130479998D01*
X123464552Y-130426342D01*
X123454448Y-130356068D01*
X123483942Y-130291488D01*
X123489994Y-130284981D01*
X123494024Y-130280945D01*
X123494025Y-130280943D01*
X123502241Y-130272713D01*
X123507487Y-130260849D01*
X123543675Y-130178992D01*
X123547506Y-130170327D01*
X123550500Y-130144646D01*
X123550500Y-127655354D01*
X123547382Y-127629154D01*
X123501939Y-127526847D01*
X123489464Y-127514393D01*
X123430945Y-127455977D01*
X123422713Y-127447759D01*
X123412076Y-127443056D01*
X123412074Y-127443055D01*
X123352538Y-127416735D01*
X123320327Y-127402494D01*
X123294646Y-127399500D01*
X120805354Y-127399500D01*
X120801650Y-127399941D01*
X120801647Y-127399941D01*
X120794254Y-127400821D01*
X120779154Y-127402618D01*
X120770514Y-127406456D01*
X120770513Y-127406456D01*
X120688117Y-127443055D01*
X120676847Y-127448061D01*
X120597759Y-127527287D01*
X120552494Y-127629673D01*
X120549500Y-127655354D01*
X120549500Y-130144646D01*
X120552618Y-130170846D01*
X120598061Y-130273153D01*
X120606295Y-130281373D01*
X120606296Y-130281374D01*
X120609756Y-130284828D01*
X120643835Y-130347111D01*
X120638830Y-130417931D01*
X120596332Y-130474804D01*
X120529833Y-130499671D01*
X120520737Y-130500000D01*
X119346511Y-130500000D01*
X119278390Y-130479998D01*
X119231897Y-130426342D01*
X119226216Y-130411485D01*
X119185539Y-130280945D01*
X119154937Y-130182740D01*
X119153251Y-130178992D01*
X119093554Y-130046353D01*
X119040715Y-129928950D01*
X119010813Y-129879485D01*
X118898702Y-129694032D01*
X118896735Y-129690778D01*
X118884737Y-129675463D01*
X118727449Y-129474701D01*
X118727447Y-129474698D01*
X118725096Y-129471698D01*
X118528302Y-129274904D01*
X118525299Y-129272551D01*
X118312213Y-129105608D01*
X118312210Y-129105606D01*
X118309222Y-129103265D01*
X118226050Y-129052986D01*
X118074311Y-128961256D01*
X118074307Y-128961254D01*
X118071050Y-128959285D01*
X117857590Y-128863214D01*
X117820736Y-128846627D01*
X117820730Y-128846625D01*
X117817260Y-128845063D01*
X117588515Y-128773784D01*
X117529429Y-128734422D01*
X117501004Y-128669364D01*
X117500000Y-128653489D01*
X117500000Y-124093402D01*
X123169941Y-124093402D01*
X123186554Y-124243883D01*
X123238582Y-124386057D01*
X123242819Y-124392363D01*
X123242821Y-124392366D01*
X123265755Y-124426495D01*
X123323022Y-124511716D01*
X123434998Y-124613607D01*
X123441675Y-124617232D01*
X123441676Y-124617233D01*
X123561370Y-124682222D01*
X123561372Y-124682223D01*
X123568047Y-124685847D01*
X123575396Y-124687775D01*
X123707136Y-124722336D01*
X123707138Y-124722336D01*
X123714486Y-124724264D01*
X123794562Y-124725522D01*
X123858266Y-124726523D01*
X123858269Y-124726523D01*
X123865863Y-124726642D01*
X124013437Y-124692843D01*
X124080731Y-124658998D01*
X124141906Y-124628231D01*
X124141909Y-124628229D01*
X124148689Y-124624819D01*
X124263810Y-124526495D01*
X124352156Y-124403550D01*
X124408624Y-124263080D01*
X124429956Y-124113196D01*
X124430094Y-124100000D01*
X124411906Y-123949701D01*
X124374546Y-123850831D01*
X124361076Y-123815182D01*
X124361075Y-123815179D01*
X124358392Y-123808080D01*
X124272640Y-123683311D01*
X124159603Y-123582599D01*
X124152897Y-123579048D01*
X124152895Y-123579047D01*
X124092704Y-123547178D01*
X124025805Y-123511757D01*
X123878972Y-123474874D01*
X123871374Y-123474834D01*
X123871372Y-123474834D01*
X123806775Y-123474496D01*
X123727579Y-123474082D01*
X123720200Y-123475854D01*
X123720196Y-123475854D01*
X123587746Y-123507652D01*
X123587742Y-123507653D01*
X123580367Y-123509424D01*
X123445835Y-123578861D01*
X123440113Y-123583853D01*
X123440111Y-123583854D01*
X123337474Y-123673390D01*
X123337471Y-123673393D01*
X123331749Y-123678385D01*
X123244696Y-123802249D01*
X123189702Y-123943302D01*
X123188711Y-123950831D01*
X123174672Y-124057470D01*
X123169941Y-124093402D01*
X117500000Y-124093402D01*
X117500000Y-119900000D01*
X118344750Y-119900000D01*
X118363670Y-120043709D01*
X118419139Y-120177625D01*
X118507379Y-120292621D01*
X118622375Y-120380861D01*
X118756291Y-120436330D01*
X118900000Y-120455250D01*
X119043709Y-120436330D01*
X119177625Y-120380861D01*
X119292621Y-120292621D01*
X119380861Y-120177625D01*
X119436330Y-120043709D01*
X119455250Y-119900000D01*
X119436330Y-119756291D01*
X119380861Y-119622375D01*
X119292621Y-119507379D01*
X119177625Y-119419139D01*
X119043709Y-119363670D01*
X118900000Y-119344750D01*
X118756291Y-119363670D01*
X118622375Y-119419139D01*
X118507379Y-119507379D01*
X118419139Y-119622375D01*
X118363670Y-119756291D01*
X118344750Y-119900000D01*
X117500000Y-119900000D01*
X117500000Y-118300000D01*
X118344750Y-118300000D01*
X118363670Y-118443709D01*
X118419139Y-118577625D01*
X118507379Y-118692621D01*
X118622375Y-118780861D01*
X118756291Y-118836330D01*
X118900000Y-118855250D01*
X119043709Y-118836330D01*
X119177625Y-118780861D01*
X119292621Y-118692621D01*
X119380861Y-118577625D01*
X119436330Y-118443709D01*
X119455250Y-118300000D01*
X119436330Y-118156291D01*
X119380861Y-118022375D01*
X119292621Y-117907379D01*
X119177625Y-117819139D01*
X119043709Y-117763670D01*
X118900000Y-117744750D01*
X118756291Y-117763670D01*
X118622375Y-117819139D01*
X118507379Y-117907379D01*
X118419139Y-118022375D01*
X118363670Y-118156291D01*
X118344750Y-118300000D01*
X117500000Y-118300000D01*
X117500000Y-114070583D01*
X117520002Y-114002462D01*
X117573658Y-113955969D01*
X117643932Y-113945865D01*
X117708512Y-113975359D01*
X117715095Y-113981488D01*
X118762595Y-115028988D01*
X118796621Y-115091300D01*
X118799500Y-115118083D01*
X118799500Y-115374876D01*
X118779498Y-115442997D01*
X118773462Y-115451580D01*
X118719139Y-115522375D01*
X118663670Y-115656291D01*
X118644750Y-115800000D01*
X118663670Y-115943709D01*
X118719139Y-116077625D01*
X118807379Y-116192621D01*
X118922375Y-116280861D01*
X119056291Y-116336330D01*
X119200000Y-116355250D01*
X119343709Y-116336330D01*
X119477625Y-116280861D01*
X119592621Y-116192621D01*
X119680861Y-116077625D01*
X119736330Y-115943709D01*
X119755250Y-115800000D01*
X119736330Y-115656291D01*
X119680861Y-115522375D01*
X119626538Y-115451580D01*
X119600937Y-115385360D01*
X119600500Y-115374876D01*
X119600500Y-114836567D01*
X119597436Y-114827136D01*
X119597435Y-114827132D01*
X119593703Y-114815647D01*
X119589087Y-114796422D01*
X119587197Y-114784488D01*
X119587197Y-114784487D01*
X119585646Y-114774696D01*
X119581145Y-114765863D01*
X119581144Y-114765859D01*
X119575658Y-114755092D01*
X119568092Y-114736828D01*
X119566666Y-114732437D01*
X119561296Y-114715911D01*
X119548365Y-114698113D01*
X119538040Y-114681264D01*
X119532298Y-114669996D01*
X119531858Y-114669131D01*
X119518749Y-114599357D01*
X119545445Y-114533571D01*
X119567413Y-114511964D01*
X119592621Y-114492621D01*
X119680861Y-114377625D01*
X119736330Y-114243709D01*
X119755250Y-114100000D01*
X119736330Y-113956291D01*
X119680861Y-113822375D01*
X119592621Y-113707379D01*
X119477625Y-113619139D01*
X119343709Y-113563670D01*
X119255235Y-113552022D01*
X119190309Y-113523299D01*
X119182588Y-113516195D01*
X118737405Y-113071012D01*
X118703379Y-113008700D01*
X118700500Y-112981917D01*
X118700500Y-111096891D01*
X118720502Y-111028770D01*
X118763497Y-110987773D01*
X118769993Y-110984022D01*
X118777625Y-110980861D01*
X118892621Y-110892621D01*
X118980861Y-110777625D01*
X119036330Y-110643709D01*
X119055250Y-110500000D01*
X119036330Y-110356291D01*
X118980861Y-110222375D01*
X118892621Y-110107379D01*
X118777625Y-110019139D01*
X118643709Y-109963670D01*
X118500000Y-109944750D01*
X118491812Y-109945828D01*
X118491811Y-109945828D01*
X118442946Y-109952261D01*
X118372797Y-109941322D01*
X118319699Y-109894193D01*
X118300500Y-109827339D01*
X118300500Y-109518083D01*
X118320502Y-109449962D01*
X118337405Y-109428988D01*
X120028987Y-107737405D01*
X120091299Y-107703380D01*
X120118082Y-107700500D01*
X122674876Y-107700500D01*
X122742997Y-107720502D01*
X122751580Y-107726538D01*
X122822375Y-107780861D01*
X122956291Y-107836330D01*
X123045236Y-107848040D01*
X123091812Y-107854172D01*
X123100000Y-107855250D01*
X123102705Y-107854894D01*
X123168367Y-107874174D01*
X123214860Y-107927830D01*
X123224964Y-107998104D01*
X123195470Y-108062684D01*
X123189341Y-108069267D01*
X122177349Y-109081258D01*
X121173940Y-110084667D01*
X121119471Y-110116721D01*
X121008529Y-110148428D01*
X120887280Y-110224930D01*
X120792377Y-110332388D01*
X120731447Y-110462163D01*
X120722793Y-110517746D01*
X120713944Y-110574582D01*
X120709391Y-110603823D01*
X120710555Y-110612725D01*
X120710555Y-110612728D01*
X120718685Y-110674901D01*
X120727980Y-110745979D01*
X120785720Y-110877203D01*
X120791495Y-110884073D01*
X120795471Y-110890461D01*
X120814500Y-110957043D01*
X120814500Y-115294955D01*
X120802555Y-115348504D01*
X120791447Y-115372163D01*
X120769391Y-115513823D01*
X120770555Y-115522725D01*
X120770555Y-115522728D01*
X120774398Y-115552114D01*
X120787980Y-115655979D01*
X120845720Y-115787203D01*
X120851497Y-115794076D01*
X120851498Y-115794077D01*
X120856477Y-115800000D01*
X120937970Y-115896948D01*
X121057313Y-115976390D01*
X121194157Y-116019142D01*
X121203129Y-116019306D01*
X121203132Y-116019307D01*
X121268463Y-116020504D01*
X121337499Y-116021770D01*
X121346533Y-116019307D01*
X121467158Y-115986421D01*
X121467160Y-115986420D01*
X121475817Y-115984060D01*
X121597991Y-115909045D01*
X121694200Y-115802754D01*
X121756710Y-115673733D01*
X121780496Y-115532354D01*
X121780647Y-115520000D01*
X121770849Y-115451580D01*
X121761596Y-115386968D01*
X121761595Y-115386965D01*
X121760323Y-115378082D01*
X121700984Y-115247572D01*
X121646047Y-115183814D01*
X121616733Y-115119153D01*
X121615500Y-115101567D01*
X121615500Y-114100000D01*
X123544750Y-114100000D01*
X123563670Y-114243709D01*
X123619139Y-114377625D01*
X123707379Y-114492621D01*
X123713929Y-114497647D01*
X123750204Y-114525482D01*
X123792071Y-114582820D01*
X123799500Y-114625444D01*
X123799500Y-114732437D01*
X123802564Y-114741868D01*
X123802565Y-114741872D01*
X123806297Y-114753357D01*
X123810913Y-114772582D01*
X123814354Y-114794308D01*
X123818855Y-114803141D01*
X123818856Y-114803145D01*
X123824341Y-114813910D01*
X123831905Y-114832170D01*
X123838704Y-114853094D01*
X123851639Y-114870897D01*
X123861965Y-114887749D01*
X123871950Y-114907346D01*
X123894513Y-114929909D01*
X123894516Y-114929913D01*
X124681693Y-115717090D01*
X124715719Y-115779402D01*
X124717519Y-115789734D01*
X124729168Y-115878211D01*
X124784637Y-116012127D01*
X124872877Y-116127123D01*
X124987873Y-116215363D01*
X125121789Y-116270832D01*
X125265498Y-116289752D01*
X125409207Y-116270832D01*
X125543123Y-116215363D01*
X125658119Y-116127123D01*
X125746359Y-116012127D01*
X125801828Y-115878211D01*
X125820748Y-115734502D01*
X125815348Y-115693482D01*
X125826288Y-115623333D01*
X125873416Y-115570235D01*
X125923823Y-115552114D01*
X126019403Y-115539530D01*
X126043709Y-115536330D01*
X126151783Y-115491565D01*
X126222372Y-115483976D01*
X126248215Y-115491564D01*
X126356291Y-115536330D01*
X126500000Y-115555250D01*
X126643709Y-115536330D01*
X126777625Y-115480861D01*
X126892621Y-115392621D01*
X126980861Y-115277625D01*
X127036330Y-115143709D01*
X127055250Y-115000000D01*
X127036330Y-114856291D01*
X126991565Y-114748217D01*
X126983976Y-114677628D01*
X126991565Y-114651782D01*
X127002475Y-114625444D01*
X127036330Y-114543709D01*
X127055250Y-114400000D01*
X127036330Y-114256291D01*
X126980861Y-114122375D01*
X126892621Y-114007379D01*
X126777625Y-113919139D01*
X126643709Y-113863670D01*
X126500000Y-113844750D01*
X126356291Y-113863670D01*
X126248217Y-113908435D01*
X126177628Y-113916024D01*
X126151785Y-113908436D01*
X126043709Y-113863670D01*
X125900000Y-113844750D01*
X125756291Y-113863670D01*
X125622375Y-113919139D01*
X125507379Y-114007379D01*
X125419139Y-114122375D01*
X125363670Y-114256291D01*
X125344750Y-114400000D01*
X125363670Y-114543709D01*
X125397526Y-114625444D01*
X125408435Y-114651782D01*
X125416024Y-114722372D01*
X125408436Y-114748215D01*
X125363670Y-114856291D01*
X125350784Y-114954172D01*
X125349323Y-114965268D01*
X125320601Y-115030195D01*
X125261336Y-115069287D01*
X125190344Y-115070132D01*
X125135306Y-115037917D01*
X124637405Y-114540016D01*
X124603379Y-114477704D01*
X124600500Y-114450921D01*
X124600500Y-114355274D01*
X124610091Y-114307057D01*
X124633171Y-114251337D01*
X124633172Y-114251333D01*
X124636330Y-114243709D01*
X124655250Y-114100000D01*
X124636330Y-113956291D01*
X124580861Y-113822375D01*
X124492621Y-113707379D01*
X124377625Y-113619139D01*
X124243709Y-113563670D01*
X124100000Y-113544750D01*
X123956291Y-113563670D01*
X123822375Y-113619139D01*
X123707379Y-113707379D01*
X123619139Y-113822375D01*
X123563670Y-113956291D01*
X123544750Y-114100000D01*
X121615500Y-114100000D01*
X121615500Y-110956724D01*
X121634946Y-110893116D01*
X121634200Y-110892754D01*
X121634656Y-110891812D01*
X121686805Y-110784178D01*
X121692795Y-110771814D01*
X121692795Y-110771813D01*
X121696710Y-110763733D01*
X121703996Y-110720428D01*
X121739155Y-110652238D01*
X123621926Y-108769466D01*
X123684238Y-108735441D01*
X123711021Y-108732561D01*
X123861501Y-108732561D01*
X123929622Y-108752563D01*
X123976115Y-108806219D01*
X123986219Y-108876493D01*
X123956725Y-108941073D01*
X123950596Y-108947656D01*
X123874633Y-109023619D01*
X123863738Y-109045002D01*
X123853414Y-109061848D01*
X123839312Y-109081258D01*
X123836248Y-109090689D01*
X123836246Y-109090692D01*
X123831897Y-109104076D01*
X123824333Y-109122337D01*
X123813442Y-109143713D01*
X123810375Y-109163080D01*
X123809689Y-109167409D01*
X123805075Y-109186629D01*
X123797661Y-109209446D01*
X123797661Y-110891220D01*
X123777659Y-110959341D01*
X123771623Y-110967925D01*
X123765139Y-110976375D01*
X123709670Y-111110291D01*
X123707647Y-111125658D01*
X123703800Y-111154875D01*
X123675077Y-111219802D01*
X123615811Y-111258893D01*
X123544819Y-111259737D01*
X123484641Y-111222066D01*
X123464177Y-111190577D01*
X123462735Y-111187404D01*
X123447945Y-111154875D01*
X123434702Y-111125748D01*
X123434700Y-111125745D01*
X123430984Y-111117572D01*
X123402475Y-111084486D01*
X123343260Y-111015763D01*
X123343257Y-111015760D01*
X123337400Y-111008963D01*
X123217095Y-110930985D01*
X123079739Y-110889907D01*
X123070763Y-110889852D01*
X123070762Y-110889852D01*
X123010555Y-110889484D01*
X122936376Y-110889031D01*
X122798529Y-110928428D01*
X122677280Y-111004930D01*
X122582377Y-111112388D01*
X122521447Y-111242163D01*
X122518842Y-111258893D01*
X122502183Y-111365892D01*
X122499391Y-111383823D01*
X122500555Y-111392725D01*
X122500555Y-111392728D01*
X122503871Y-111418083D01*
X122517980Y-111525979D01*
X122575720Y-111657203D01*
X122581497Y-111664076D01*
X122581498Y-111664077D01*
X122588792Y-111672754D01*
X122667970Y-111766948D01*
X122787313Y-111846390D01*
X122924157Y-111889142D01*
X122933129Y-111889306D01*
X122933132Y-111889307D01*
X122998463Y-111890504D01*
X123067499Y-111891770D01*
X123076533Y-111889307D01*
X123197158Y-111856421D01*
X123197160Y-111856420D01*
X123205817Y-111854060D01*
X123327991Y-111779045D01*
X123424200Y-111672754D01*
X123486710Y-111543733D01*
X123495800Y-111489705D01*
X123526828Y-111425848D01*
X123587454Y-111388901D01*
X123658430Y-111390597D01*
X123717222Y-111430397D01*
X123736463Y-111462394D01*
X123765139Y-111531625D01*
X123853379Y-111646621D01*
X123968375Y-111734861D01*
X124102291Y-111790330D01*
X124246000Y-111809250D01*
X124389709Y-111790330D01*
X124523625Y-111734861D01*
X124638621Y-111646621D01*
X124726861Y-111531625D01*
X124782330Y-111397709D01*
X124801250Y-111254000D01*
X124782330Y-111110291D01*
X124726861Y-110976375D01*
X124674697Y-110908394D01*
X124649098Y-110842176D01*
X124648661Y-110831692D01*
X124648661Y-109551500D01*
X124668663Y-109483379D01*
X124722319Y-109436886D01*
X124774661Y-109425500D01*
X129709753Y-109425500D01*
X129777874Y-109445502D01*
X129824367Y-109499158D01*
X129834471Y-109569432D01*
X129827147Y-109597266D01*
X129816524Y-109624513D01*
X129794394Y-109792611D01*
X129812999Y-109961135D01*
X129822984Y-109988419D01*
X129867129Y-110109050D01*
X129871266Y-110120356D01*
X129875499Y-110126656D01*
X129875504Y-110126665D01*
X129893352Y-110153225D01*
X129914744Y-110220922D01*
X129896139Y-110289438D01*
X129843446Y-110337019D01*
X129788770Y-110349500D01*
X127730354Y-110349500D01*
X127662233Y-110329498D01*
X127613945Y-110271718D01*
X127613843Y-110271470D01*
X127602449Y-110243963D01*
X127587845Y-110224930D01*
X127519235Y-110135517D01*
X127514209Y-110128967D01*
X127399213Y-110040727D01*
X127265297Y-109985258D01*
X127121588Y-109966338D01*
X126977879Y-109985258D01*
X126843963Y-110040727D01*
X126728967Y-110128967D01*
X126640727Y-110243963D01*
X126585258Y-110377879D01*
X126566338Y-110521588D01*
X126585258Y-110665297D01*
X126640727Y-110799213D01*
X126728967Y-110914209D01*
X126843963Y-111002449D01*
X126977879Y-111057918D01*
X127083527Y-111071827D01*
X127124289Y-111084486D01*
X127131265Y-111088041D01*
X127148116Y-111098368D01*
X127165910Y-111111296D01*
X127186832Y-111118094D01*
X127205093Y-111125658D01*
X127215861Y-111131145D01*
X127215865Y-111131146D01*
X127224696Y-111135646D01*
X127234485Y-111137197D01*
X127234493Y-111137199D01*
X127246427Y-111139089D01*
X127265647Y-111143703D01*
X127277133Y-111147435D01*
X127277140Y-111147436D01*
X127286567Y-111150499D01*
X127318477Y-111150499D01*
X127318481Y-111150500D01*
X129531916Y-111150500D01*
X129600037Y-111170502D01*
X129621011Y-111187404D01*
X129762595Y-111328987D01*
X129796620Y-111391299D01*
X129799500Y-111418083D01*
X129799500Y-117374876D01*
X129779498Y-117442997D01*
X129773462Y-117451580D01*
X129719139Y-117522375D01*
X129663670Y-117656291D01*
X129644750Y-117800000D01*
X129663670Y-117943709D01*
X129719139Y-118077625D01*
X129807379Y-118192621D01*
X129922375Y-118280861D01*
X130056291Y-118336330D01*
X130200000Y-118355250D01*
X130343709Y-118336330D01*
X130477625Y-118280861D01*
X130592621Y-118192621D01*
X130680861Y-118077625D01*
X130736330Y-117943709D01*
X130755250Y-117800000D01*
X130736330Y-117656291D01*
X130680861Y-117522375D01*
X130626538Y-117451580D01*
X130600937Y-117385360D01*
X130600500Y-117374876D01*
X130600500Y-116500000D01*
X143344750Y-116500000D01*
X143363670Y-116643709D01*
X143419139Y-116777625D01*
X143507379Y-116892621D01*
X143622375Y-116980861D01*
X143756291Y-117036330D01*
X143900000Y-117055250D01*
X144043709Y-117036330D01*
X144177625Y-116980861D01*
X144292621Y-116892621D01*
X144380861Y-116777625D01*
X144436330Y-116643709D01*
X144455250Y-116500000D01*
X144436330Y-116356291D01*
X144380861Y-116222375D01*
X144292621Y-116107379D01*
X144177625Y-116019139D01*
X144043709Y-115963670D01*
X143900000Y-115944750D01*
X143756291Y-115963670D01*
X143622375Y-116019139D01*
X143507379Y-116107379D01*
X143419139Y-116222375D01*
X143363670Y-116356291D01*
X143344750Y-116500000D01*
X130600500Y-116500000D01*
X130600500Y-114400000D01*
X142944750Y-114400000D01*
X142963670Y-114543709D01*
X143019139Y-114677625D01*
X143107379Y-114792621D01*
X143222375Y-114880861D01*
X143356291Y-114936330D01*
X143500000Y-114955250D01*
X143643709Y-114936330D01*
X143777625Y-114880861D01*
X143784175Y-114875835D01*
X143787000Y-114874204D01*
X143855996Y-114857466D01*
X143913000Y-114874204D01*
X143915825Y-114875835D01*
X143922375Y-114880861D01*
X144056291Y-114936330D01*
X144200000Y-114955250D01*
X144343709Y-114936330D01*
X144477625Y-114880861D01*
X144592621Y-114792621D01*
X144680861Y-114677625D01*
X144736330Y-114543709D01*
X144755250Y-114400000D01*
X144736330Y-114256291D01*
X144691565Y-114148217D01*
X144683976Y-114077628D01*
X144691565Y-114051782D01*
X144720682Y-113981488D01*
X144736330Y-113943709D01*
X144755250Y-113800000D01*
X144736330Y-113656291D01*
X144691565Y-113548217D01*
X144683976Y-113477628D01*
X144691565Y-113451782D01*
X144692859Y-113448660D01*
X144736330Y-113343709D01*
X144755250Y-113200000D01*
X144736330Y-113056291D01*
X144680861Y-112922375D01*
X144592621Y-112807379D01*
X144477625Y-112719139D01*
X144343709Y-112663670D01*
X144200000Y-112644750D01*
X144056291Y-112663670D01*
X143922375Y-112719139D01*
X143915825Y-112724165D01*
X143913000Y-112725796D01*
X143844004Y-112742534D01*
X143787000Y-112725796D01*
X143784175Y-112724165D01*
X143777625Y-112719139D01*
X143643709Y-112663670D01*
X143500000Y-112644750D01*
X143356291Y-112663670D01*
X143222375Y-112719139D01*
X143107379Y-112807379D01*
X143019139Y-112922375D01*
X142963670Y-113056291D01*
X142944750Y-113200000D01*
X142963670Y-113343709D01*
X143007142Y-113448660D01*
X143008435Y-113451782D01*
X143016024Y-113522372D01*
X143008436Y-113548215D01*
X142963670Y-113656291D01*
X142944750Y-113800000D01*
X142963670Y-113943709D01*
X142979319Y-113981488D01*
X143008435Y-114051782D01*
X143016024Y-114122372D01*
X143008436Y-114148215D01*
X142963670Y-114256291D01*
X142944750Y-114400000D01*
X130600500Y-114400000D01*
X130600500Y-113600000D01*
X139144750Y-113600000D01*
X139163670Y-113743709D01*
X139219139Y-113877625D01*
X139307379Y-113992621D01*
X139422375Y-114080861D01*
X139556291Y-114136330D01*
X139700000Y-114155250D01*
X139843709Y-114136330D01*
X139977625Y-114080861D01*
X139984175Y-114075835D01*
X139987000Y-114074204D01*
X140055996Y-114057466D01*
X140113000Y-114074204D01*
X140115825Y-114075835D01*
X140122375Y-114080861D01*
X140256291Y-114136330D01*
X140400000Y-114155250D01*
X140543709Y-114136330D01*
X140677625Y-114080861D01*
X140684175Y-114075835D01*
X140687000Y-114074204D01*
X140755996Y-114057466D01*
X140813000Y-114074204D01*
X140815825Y-114075835D01*
X140822375Y-114080861D01*
X140956291Y-114136330D01*
X141100000Y-114155250D01*
X141243709Y-114136330D01*
X141377625Y-114080861D01*
X141384175Y-114075835D01*
X141387000Y-114074204D01*
X141455996Y-114057466D01*
X141513000Y-114074204D01*
X141515825Y-114075835D01*
X141522375Y-114080861D01*
X141656291Y-114136330D01*
X141800000Y-114155250D01*
X141943709Y-114136330D01*
X142077625Y-114080861D01*
X142192621Y-113992621D01*
X142280861Y-113877625D01*
X142336330Y-113743709D01*
X142355250Y-113600000D01*
X142336330Y-113456291D01*
X142280861Y-113322375D01*
X142275835Y-113315825D01*
X142274204Y-113313000D01*
X142257466Y-113244004D01*
X142274204Y-113187000D01*
X142275835Y-113184175D01*
X142280861Y-113177625D01*
X142336330Y-113043709D01*
X142355250Y-112900000D01*
X142336330Y-112756291D01*
X142280861Y-112622375D01*
X142275835Y-112615825D01*
X142274204Y-112613000D01*
X142257466Y-112544004D01*
X142274204Y-112487000D01*
X142275835Y-112484175D01*
X142280861Y-112477625D01*
X142336330Y-112343709D01*
X142355250Y-112200000D01*
X142336330Y-112056291D01*
X142280861Y-111922375D01*
X142275835Y-111915825D01*
X142274204Y-111913000D01*
X142257466Y-111844004D01*
X142274204Y-111787000D01*
X142275835Y-111784175D01*
X142280861Y-111777625D01*
X142336330Y-111643709D01*
X142342085Y-111600000D01*
X143044750Y-111600000D01*
X143063670Y-111743709D01*
X143119139Y-111877625D01*
X143207379Y-111992621D01*
X143322375Y-112080861D01*
X143456291Y-112136330D01*
X143600000Y-112155250D01*
X143743709Y-112136330D01*
X143851783Y-112091565D01*
X143922372Y-112083976D01*
X143948215Y-112091564D01*
X144056291Y-112136330D01*
X144200000Y-112155250D01*
X144343709Y-112136330D01*
X144477625Y-112080861D01*
X144592621Y-111992621D01*
X144680861Y-111877625D01*
X144736330Y-111743709D01*
X144755250Y-111600000D01*
X144736330Y-111456291D01*
X144680861Y-111322375D01*
X144675835Y-111315825D01*
X144674204Y-111313000D01*
X144657466Y-111244004D01*
X144674204Y-111187000D01*
X144675835Y-111184175D01*
X144680861Y-111177625D01*
X144736330Y-111043709D01*
X144755250Y-110900000D01*
X144736330Y-110756291D01*
X144680861Y-110622375D01*
X144592621Y-110507379D01*
X144477625Y-110419139D01*
X144343709Y-110363670D01*
X144200000Y-110344750D01*
X144056291Y-110363670D01*
X143948217Y-110408435D01*
X143877628Y-110416024D01*
X143851785Y-110408436D01*
X143743709Y-110363670D01*
X143600000Y-110344750D01*
X143456291Y-110363670D01*
X143322375Y-110419139D01*
X143207379Y-110507379D01*
X143119139Y-110622375D01*
X143063670Y-110756291D01*
X143044750Y-110900000D01*
X143063670Y-111043709D01*
X143119139Y-111177625D01*
X143124165Y-111184175D01*
X143125796Y-111187000D01*
X143142534Y-111255996D01*
X143125796Y-111313000D01*
X143124165Y-111315825D01*
X143119139Y-111322375D01*
X143063670Y-111456291D01*
X143044750Y-111600000D01*
X142342085Y-111600000D01*
X142355250Y-111500000D01*
X142336330Y-111356291D01*
X142280861Y-111222375D01*
X142275835Y-111215825D01*
X142274204Y-111213000D01*
X142257466Y-111144004D01*
X142274204Y-111087000D01*
X142275835Y-111084175D01*
X142280861Y-111077625D01*
X142336330Y-110943709D01*
X142355250Y-110800000D01*
X142336330Y-110656291D01*
X142280861Y-110522375D01*
X142192621Y-110407379D01*
X142077625Y-110319139D01*
X141943709Y-110263670D01*
X141800000Y-110244750D01*
X141656291Y-110263670D01*
X141522375Y-110319139D01*
X141515825Y-110324165D01*
X141513000Y-110325796D01*
X141444004Y-110342534D01*
X141387000Y-110325796D01*
X141384175Y-110324165D01*
X141377625Y-110319139D01*
X141243709Y-110263670D01*
X141100000Y-110244750D01*
X140956291Y-110263670D01*
X140822375Y-110319139D01*
X140815825Y-110324165D01*
X140813000Y-110325796D01*
X140744004Y-110342534D01*
X140687000Y-110325796D01*
X140684175Y-110324165D01*
X140677625Y-110319139D01*
X140543709Y-110263670D01*
X140400000Y-110244750D01*
X140256291Y-110263670D01*
X140122375Y-110319139D01*
X140115825Y-110324165D01*
X140113000Y-110325796D01*
X140044004Y-110342534D01*
X139987000Y-110325796D01*
X139984175Y-110324165D01*
X139977625Y-110319139D01*
X139843709Y-110263670D01*
X139700000Y-110244750D01*
X139556291Y-110263670D01*
X139422375Y-110319139D01*
X139307379Y-110407379D01*
X139219139Y-110522375D01*
X139163670Y-110656291D01*
X139144750Y-110800000D01*
X139163670Y-110943709D01*
X139219139Y-111077625D01*
X139224165Y-111084175D01*
X139225796Y-111087000D01*
X139242534Y-111155996D01*
X139225796Y-111213000D01*
X139224165Y-111215825D01*
X139219139Y-111222375D01*
X139163670Y-111356291D01*
X139144750Y-111500000D01*
X139163670Y-111643709D01*
X139219139Y-111777625D01*
X139224165Y-111784175D01*
X139225796Y-111787000D01*
X139242534Y-111855996D01*
X139225796Y-111913000D01*
X139224165Y-111915825D01*
X139219139Y-111922375D01*
X139163670Y-112056291D01*
X139144750Y-112200000D01*
X139163670Y-112343709D01*
X139219139Y-112477625D01*
X139224165Y-112484175D01*
X139225796Y-112487000D01*
X139242534Y-112555996D01*
X139225796Y-112613000D01*
X139224165Y-112615825D01*
X139219139Y-112622375D01*
X139163670Y-112756291D01*
X139144750Y-112900000D01*
X139163670Y-113043709D01*
X139219139Y-113177625D01*
X139224165Y-113184175D01*
X139225796Y-113187000D01*
X139242534Y-113255996D01*
X139225796Y-113313000D01*
X139224165Y-113315825D01*
X139219139Y-113322375D01*
X139163670Y-113456291D01*
X139144750Y-113600000D01*
X130600500Y-113600000D01*
X130600500Y-111136567D01*
X130597436Y-111127136D01*
X130597435Y-111127132D01*
X130593703Y-111115647D01*
X130589087Y-111096422D01*
X130588472Y-111092538D01*
X130585646Y-111074696D01*
X130581145Y-111065863D01*
X130581144Y-111065859D01*
X130575659Y-111055094D01*
X130568093Y-111036830D01*
X130567668Y-111035520D01*
X130561296Y-111015910D01*
X130555467Y-111007888D01*
X130555466Y-111007885D01*
X130548368Y-110998116D01*
X130538038Y-110981259D01*
X130532552Y-110970493D01*
X130532551Y-110970492D01*
X130528050Y-110961658D01*
X130357976Y-110791584D01*
X130274102Y-110707709D01*
X130240076Y-110645397D01*
X130245141Y-110574582D01*
X130287688Y-110517746D01*
X130354208Y-110492935D01*
X130389351Y-110496198D01*
X130389357Y-110496157D01*
X130390304Y-110496287D01*
X130395171Y-110496739D01*
X130404233Y-110499116D01*
X130490609Y-110500473D01*
X130566161Y-110501660D01*
X130566164Y-110501660D01*
X130573760Y-110501779D01*
X130581165Y-110500083D01*
X130581166Y-110500083D01*
X130641586Y-110486245D01*
X130739029Y-110463928D01*
X130890498Y-110387747D01*
X131003112Y-110291565D01*
X131013651Y-110282564D01*
X131013652Y-110282563D01*
X131019423Y-110277634D01*
X131118361Y-110139947D01*
X131123700Y-110126665D01*
X131178766Y-109989687D01*
X131178767Y-109989685D01*
X131181601Y-109982634D01*
X131194188Y-109894193D01*
X131204909Y-109818862D01*
X131204909Y-109818859D01*
X131205490Y-109814778D01*
X131205645Y-109800000D01*
X147644750Y-109800000D01*
X147663670Y-109943709D01*
X147719139Y-110077625D01*
X147807379Y-110192621D01*
X147922375Y-110280861D01*
X148056291Y-110336330D01*
X148200000Y-110355250D01*
X148343709Y-110336330D01*
X148451783Y-110291565D01*
X148522372Y-110283976D01*
X148548215Y-110291564D01*
X148656291Y-110336330D01*
X148800000Y-110355250D01*
X148943709Y-110336330D01*
X149051783Y-110291565D01*
X149122372Y-110283976D01*
X149148215Y-110291564D01*
X149256291Y-110336330D01*
X149400000Y-110355250D01*
X149543709Y-110336330D01*
X149677625Y-110280861D01*
X149792621Y-110192621D01*
X149880861Y-110077625D01*
X149936330Y-109943709D01*
X149955250Y-109800000D01*
X149936330Y-109656291D01*
X149880861Y-109522375D01*
X149792621Y-109407379D01*
X149677625Y-109319139D01*
X149543709Y-109263670D01*
X149456311Y-109252164D01*
X149391385Y-109223442D01*
X149352293Y-109164177D01*
X149347836Y-109143688D01*
X149337408Y-109064481D01*
X149337408Y-109064480D01*
X149336330Y-109056291D01*
X149280861Y-108922375D01*
X149192621Y-108807379D01*
X149077625Y-108719139D01*
X148943709Y-108663670D01*
X148856311Y-108652164D01*
X148791385Y-108623442D01*
X148752293Y-108564177D01*
X148747836Y-108543688D01*
X148739959Y-108483854D01*
X148736330Y-108456291D01*
X148680861Y-108322375D01*
X148592621Y-108207379D01*
X148477625Y-108119139D01*
X148343709Y-108063670D01*
X148200000Y-108044750D01*
X148056291Y-108063670D01*
X147922375Y-108119139D01*
X147807379Y-108207379D01*
X147719139Y-108322375D01*
X147663670Y-108456291D01*
X147644750Y-108600000D01*
X147663670Y-108743709D01*
X147702895Y-108838406D01*
X147708435Y-108851782D01*
X147716024Y-108922372D01*
X147708436Y-108948215D01*
X147663670Y-109056291D01*
X147644750Y-109200000D01*
X147663670Y-109343709D01*
X147705834Y-109445502D01*
X147708435Y-109451782D01*
X147716024Y-109522372D01*
X147708436Y-109548215D01*
X147663670Y-109656291D01*
X147644750Y-109800000D01*
X131205645Y-109800000D01*
X131203840Y-109785080D01*
X131188254Y-109656291D01*
X131185276Y-109631680D01*
X131171808Y-109596038D01*
X131166440Y-109525244D01*
X131200198Y-109462787D01*
X131262364Y-109428495D01*
X131289674Y-109425500D01*
X139989424Y-109425500D01*
X140057545Y-109445502D01*
X140074219Y-109458302D01*
X140134998Y-109513607D01*
X140141675Y-109517232D01*
X140141676Y-109517233D01*
X140261370Y-109582222D01*
X140261372Y-109582223D01*
X140268047Y-109585847D01*
X140275396Y-109587775D01*
X140407136Y-109622336D01*
X140407138Y-109622336D01*
X140414486Y-109624264D01*
X140494562Y-109625522D01*
X140558266Y-109626523D01*
X140558269Y-109626523D01*
X140565863Y-109626642D01*
X140713437Y-109592843D01*
X140802165Y-109548218D01*
X140841906Y-109528231D01*
X140841909Y-109528229D01*
X140848689Y-109524819D01*
X140963810Y-109426495D01*
X141052156Y-109303550D01*
X141108624Y-109163080D01*
X141129956Y-109013196D01*
X141130094Y-109000000D01*
X141111906Y-108849701D01*
X141058392Y-108708080D01*
X140972640Y-108583311D01*
X140859603Y-108482599D01*
X140852897Y-108479048D01*
X140852895Y-108479047D01*
X140792704Y-108447178D01*
X140725805Y-108411757D01*
X140578972Y-108374874D01*
X140571374Y-108374834D01*
X140571372Y-108374834D01*
X140506775Y-108374496D01*
X140427579Y-108374082D01*
X140420200Y-108375854D01*
X140420196Y-108375854D01*
X140287746Y-108407652D01*
X140287742Y-108407653D01*
X140280367Y-108409424D01*
X140145835Y-108478861D01*
X140140113Y-108483853D01*
X140140111Y-108483854D01*
X140071796Y-108543449D01*
X140007314Y-108573157D01*
X139988967Y-108574500D01*
X128034508Y-108574500D01*
X127966387Y-108554498D01*
X127919894Y-108500842D01*
X127909586Y-108432054D01*
X127921672Y-108340250D01*
X127921672Y-108340249D01*
X127922750Y-108332061D01*
X127903830Y-108188352D01*
X127848361Y-108054436D01*
X127760121Y-107939440D01*
X127645125Y-107851200D01*
X127511209Y-107795731D01*
X127367500Y-107776811D01*
X127223791Y-107795731D01*
X127089875Y-107851200D01*
X127081140Y-107857903D01*
X127019080Y-107905523D01*
X126952860Y-107931124D01*
X126942376Y-107931561D01*
X123552412Y-107931561D01*
X123484291Y-107911559D01*
X123437798Y-107857903D01*
X123427694Y-107787629D01*
X123457188Y-107723049D01*
X123475703Y-107705602D01*
X123492621Y-107692621D01*
X123580861Y-107577625D01*
X123636330Y-107443709D01*
X123655250Y-107300000D01*
X123636330Y-107156291D01*
X123580861Y-107022375D01*
X123492621Y-106907379D01*
X123377625Y-106819139D01*
X123243709Y-106763670D01*
X123146880Y-106750922D01*
X123098920Y-106729705D01*
X123072171Y-106746896D01*
X123053120Y-106750922D01*
X122956291Y-106763670D01*
X122822375Y-106819139D01*
X122764418Y-106863611D01*
X122751580Y-106873462D01*
X122685360Y-106899063D01*
X122674876Y-106899500D01*
X119836567Y-106899500D01*
X119827136Y-106902564D01*
X119827132Y-106902565D01*
X119815647Y-106906297D01*
X119796422Y-106910913D01*
X119784488Y-106912803D01*
X119784487Y-106912803D01*
X119774696Y-106914354D01*
X119765863Y-106918855D01*
X119765859Y-106918856D01*
X119755094Y-106924341D01*
X119736834Y-106931905D01*
X119715910Y-106938704D01*
X119707888Y-106944533D01*
X119707885Y-106944534D01*
X119698116Y-106951632D01*
X119681259Y-106961962D01*
X119670493Y-106967448D01*
X119670492Y-106967449D01*
X119661658Y-106971950D01*
X119639091Y-106994517D01*
X117715095Y-108918512D01*
X117652783Y-108952538D01*
X117581968Y-108947473D01*
X117525132Y-108904926D01*
X117500321Y-108838406D01*
X117500000Y-108829417D01*
X117500000Y-108346511D01*
X117520002Y-108278390D01*
X117573658Y-108231897D01*
X117588515Y-108226216D01*
X117813624Y-108156070D01*
X117817260Y-108154937D01*
X117820730Y-108153375D01*
X117820736Y-108153373D01*
X118007610Y-108069267D01*
X118071050Y-108040715D01*
X118074307Y-108038746D01*
X118074311Y-108038744D01*
X118305968Y-107898702D01*
X118309222Y-107896735D01*
X118358788Y-107857903D01*
X118525299Y-107727449D01*
X118525302Y-107727447D01*
X118528302Y-107725096D01*
X118725096Y-107528302D01*
X118791371Y-107443709D01*
X118894392Y-107312213D01*
X118894394Y-107312210D01*
X118896735Y-107309222D01*
X119040715Y-107071050D01*
X119111430Y-106913929D01*
X119153373Y-106820736D01*
X119153375Y-106820730D01*
X119154937Y-106817260D01*
X119226216Y-106588515D01*
X119265578Y-106529429D01*
X119330636Y-106501004D01*
X119346511Y-106500000D01*
X123036673Y-106500000D01*
X123104707Y-106519976D01*
G37*
%TD.AperFunction*%
%TD*%
M02*
