%TF.GenerationSoftware,KiCad,Pcbnew,6.0.11+dfsg-1~bpo11+1*%
%TF.CreationDate,2023-09-12T21:00:17-05:00*%
%TF.ProjectId,Gauntl33tVoltageRegulator,4761756e-746c-4333-9374-566f6c746167,rev?*%
%TF.SameCoordinates,Original*%
%TF.FileFunction,Copper,L4,Bot*%
%TF.FilePolarity,Positive*%
%FSLAX46Y46*%
G04 Gerber Fmt 4.6, Leading zero omitted, Abs format (unit mm)*
G04 Created by KiCad (PCBNEW 6.0.11+dfsg-1~bpo11+1) date 2023-09-12 21:00:17*
%MOMM*%
%LPD*%
G01*
G04 APERTURE LIST*
%TA.AperFunction,ComponentPad*%
%ADD10R,2.400000X2.400000*%
%TD*%
%TA.AperFunction,ComponentPad*%
%ADD11C,2.400000*%
%TD*%
%TA.AperFunction,ViaPad*%
%ADD12C,0.500000*%
%TD*%
%TA.AperFunction,ViaPad*%
%ADD13C,0.650000*%
%TD*%
%TA.AperFunction,ViaPad*%
%ADD14C,0.800000*%
%TD*%
%TA.AperFunction,ViaPad*%
%ADD15C,0.400000*%
%TD*%
%TA.AperFunction,Conductor*%
%ADD16C,0.400000*%
%TD*%
%TA.AperFunction,Conductor*%
%ADD17C,0.200000*%
%TD*%
%TA.AperFunction,Conductor*%
%ADD18C,0.250000*%
%TD*%
G04 APERTURE END LIST*
D10*
%TO.P,J1,1,Pin_1*%
%TO.N,Net-(F2-Pad1)*%
X122050000Y-128900000D03*
D11*
%TO.P,J1,2,Pin_2*%
%TO.N,GND*%
X125550000Y-128900000D03*
%TO.P,J1,3,Pin_3*%
%TO.N,Net-(JP3-Pad1)*%
X129050000Y-128900000D03*
%TO.P,J1,4,Pin_4*%
%TO.N,GND*%
X132550000Y-128900000D03*
%TO.P,J1,5,Pin_5*%
%TO.N,Net-(J1-Pad5)*%
X136050000Y-128900000D03*
%TO.P,J1,6,Pin_6*%
%TO.N,GND*%
X139550000Y-128900000D03*
%TO.P,J1,7,Pin_7*%
%TO.N,/5V*%
X143050000Y-128900000D03*
%TO.P,J1,8,Pin_8*%
%TO.N,GND*%
X146550000Y-128900000D03*
%TD*%
D12*
%TO.N,/5V*%
X118900000Y-119900000D03*
%TO.N,+5VP*%
X118900000Y-118300000D03*
%TO.N,Net-(JP3-Pad1)*%
X149400000Y-109800000D03*
X148800000Y-109200000D03*
X148800000Y-109800000D03*
X148200000Y-109800000D03*
X148200000Y-109200000D03*
X148200000Y-108600000D03*
%TO.N,/+20V*%
X143900000Y-116500000D03*
D13*
%TO.N,/5V*%
X134200000Y-124000000D03*
%TO.N,/+20V*%
X123800000Y-124100000D03*
D12*
%TO.N,Net-(200K1-Pad3)*%
X123100000Y-107300000D03*
%TO.N,Net-(200K1-Pad1)*%
X118500000Y-110500000D03*
%TO.N,Net-(200K1-Pad3)*%
X119200000Y-115800000D03*
%TO.N,Net-(200K1-Pad1)*%
X119200000Y-114100000D03*
%TO.N,/+20V*%
X126500000Y-114400000D03*
D13*
%TO.N,Net-(C8-Pad1)*%
X135300000Y-120100000D03*
D12*
%TO.N,/+20V*%
X125265498Y-115734502D03*
X126500000Y-115000000D03*
X125900000Y-115000000D03*
X125900000Y-114400000D03*
X124100000Y-114100000D03*
%TO.N,GND*%
X134700000Y-118500000D03*
X150100000Y-122800000D03*
X126500000Y-112500000D03*
X132400000Y-118900000D03*
X128000000Y-122400000D03*
X146000000Y-112100000D03*
X128700000Y-121700000D03*
X150100000Y-123400000D03*
X145000000Y-121600000D03*
X128000000Y-118600000D03*
X128700000Y-120000000D03*
X146700000Y-114500000D03*
X146600000Y-110900000D03*
X127262000Y-112760000D03*
X150700000Y-121600000D03*
X150700000Y-122800000D03*
X118800000Y-109300000D03*
X127900000Y-113400000D03*
X146000000Y-114500000D03*
X145400000Y-113300000D03*
X126500000Y-113500000D03*
X145600000Y-121000000D03*
X145000000Y-122200000D03*
X145000000Y-119800000D03*
X129400000Y-122400000D03*
X140100000Y-122000000D03*
X129400000Y-120700000D03*
X129400000Y-120000000D03*
X125900000Y-112500000D03*
X132400000Y-119600000D03*
X139700000Y-124400000D03*
X127900000Y-114600000D03*
X145400000Y-114500000D03*
X146000000Y-113900000D03*
X150700000Y-123400000D03*
X127900000Y-115200000D03*
X138200000Y-122100000D03*
X128600000Y-110200000D03*
X125900000Y-113500000D03*
X146000000Y-110900000D03*
X128700000Y-122400000D03*
X145600000Y-122200000D03*
X129400000Y-119300000D03*
X129400000Y-121700000D03*
X145600000Y-120400000D03*
X150700000Y-118600000D03*
X120100000Y-113300000D03*
X145000000Y-121000000D03*
X122300000Y-110600000D03*
X137000000Y-124500000D03*
X134700000Y-119200000D03*
X145600000Y-119800000D03*
X128000000Y-121700000D03*
X125900000Y-113000000D03*
X128700000Y-120700000D03*
X145000000Y-119200000D03*
X127900000Y-114000000D03*
X128000000Y-120000000D03*
X140100000Y-120200000D03*
X129400000Y-118600000D03*
X139000000Y-122100000D03*
X146600000Y-111500000D03*
X146600000Y-113900000D03*
X128000000Y-120700000D03*
X136000000Y-123200000D03*
X146000000Y-113300000D03*
X145000000Y-118600000D03*
X150700000Y-119200000D03*
X136300000Y-124000000D03*
X128000000Y-123100000D03*
X146600000Y-112100000D03*
X143100000Y-124400000D03*
X128700000Y-118600000D03*
X132100000Y-122300000D03*
X124200000Y-106800000D03*
X132100000Y-123000000D03*
X146000000Y-111500000D03*
X127300000Y-114000000D03*
X146600000Y-113300000D03*
X145000000Y-120400000D03*
X150700000Y-120400000D03*
X145600000Y-118600000D03*
X127300000Y-115200000D03*
D14*
X119000000Y-129000000D03*
D12*
X129400000Y-123100000D03*
X128700000Y-123100000D03*
X145600000Y-122800000D03*
X145400000Y-110900000D03*
X145000000Y-123400000D03*
X145400000Y-113900000D03*
X145400000Y-112100000D03*
X122600000Y-107900000D03*
D14*
X118000000Y-128000000D03*
D12*
X127300000Y-114600000D03*
X122200000Y-114000000D03*
X128700000Y-119300000D03*
X128000000Y-119300000D03*
X145400000Y-111500000D03*
X150700000Y-122200000D03*
X150700000Y-121000000D03*
X121800000Y-116900000D03*
X150700000Y-119800000D03*
X127300000Y-113400000D03*
X145600000Y-121600000D03*
X145600000Y-119200000D03*
X126500000Y-113000000D03*
X145000000Y-122800000D03*
%TO.N,/PGOOD*%
X130200000Y-117800000D03*
X127121588Y-110521588D03*
D15*
%TO.N,+5VP*%
X121215000Y-110610000D03*
X121275000Y-115520000D03*
D12*
X127367500Y-108332061D03*
D14*
X130500000Y-109800000D03*
D15*
X123005000Y-111390000D03*
D12*
%TO.N,/Vreg*%
X141100000Y-113600000D03*
X139700000Y-113600000D03*
X139700000Y-112200000D03*
X141800000Y-113600000D03*
X143600000Y-110900000D03*
X140400000Y-112900000D03*
X140400000Y-110800000D03*
X141800000Y-110800000D03*
X139700000Y-110800000D03*
X141800000Y-112900000D03*
X140400000Y-111500000D03*
X141800000Y-112200000D03*
X144200000Y-114400000D03*
X143500000Y-114400000D03*
X141100000Y-111500000D03*
X143500000Y-113200000D03*
D13*
X140500000Y-109000000D03*
D12*
X139700000Y-111500000D03*
X143600000Y-111600000D03*
X144200000Y-110900000D03*
X140400000Y-113600000D03*
X124246000Y-111254000D03*
X144200000Y-113200000D03*
X143500000Y-113800000D03*
X144200000Y-111600000D03*
X144200000Y-113800000D03*
X140400000Y-112200000D03*
X141100000Y-110800000D03*
X139700000Y-112900000D03*
X141100000Y-112900000D03*
X141100000Y-112200000D03*
X141800000Y-111500000D03*
%TO.N,Net-(J1-Pad5)*%
X131000000Y-119500000D03*
%TD*%
D16*
%TO.N,/+20V*%
X132800000Y-123900000D02*
X124000000Y-123900000D01*
X124000000Y-123900000D02*
X123800000Y-124100000D01*
X140200000Y-116500000D02*
X132800000Y-123900000D01*
X143900000Y-116500000D02*
X140200000Y-116500000D01*
D17*
%TO.N,/5V*%
X134200000Y-124000000D02*
X133700000Y-124500000D01*
X125200000Y-124500000D02*
X124100000Y-125600000D01*
X133700000Y-124500000D02*
X125200000Y-124500000D01*
X124100000Y-125600000D02*
X121800000Y-125600000D01*
X121800000Y-125600000D02*
X118900000Y-122700000D01*
X118900000Y-122700000D02*
X118900000Y-119900000D01*
%TO.N,+5VP*%
X121275000Y-115520000D02*
X121275000Y-115925000D01*
X121275000Y-115925000D02*
X118900000Y-118300000D01*
D18*
X130500000Y-109800000D02*
X129032061Y-108332061D01*
X121490000Y-111390000D02*
X123005000Y-111390000D01*
X121215000Y-111115000D02*
X121490000Y-111390000D01*
X121215000Y-110610000D02*
X121215000Y-111115000D01*
X129032061Y-108332061D02*
X127367500Y-108332061D01*
%TD*%
%TA.AperFunction,Conductor*%
%TO.N,GND*%
G36*
X142105860Y-127520002D02*
G01*
X142152353Y-127573658D01*
X142162457Y-127643932D01*
X142132963Y-127708512D01*
X142113392Y-127726760D01*
X142050364Y-127774083D01*
X141879896Y-127952468D01*
X141876982Y-127956740D01*
X141876981Y-127956741D01*
X141857238Y-127985683D01*
X141740851Y-128156300D01*
X141636965Y-128380104D01*
X141571026Y-128617871D01*
X141544806Y-128863214D01*
X141559010Y-129109545D01*
X141560147Y-129114591D01*
X141560148Y-129114597D01*
X141582336Y-129213051D01*
X141613255Y-129350249D01*
X141706084Y-129578861D01*
X141835006Y-129789241D01*
X141996557Y-129975741D01*
X142186399Y-130133351D01*
X142199342Y-130140914D01*
X142394967Y-130255229D01*
X142394974Y-130255232D01*
X142399433Y-130257838D01*
X142404262Y-130259682D01*
X142405698Y-130260370D01*
X142458488Y-130307844D01*
X142477232Y-130376321D01*
X142455978Y-130444062D01*
X142401475Y-130489558D01*
X142351253Y-130500000D01*
X136738475Y-130500000D01*
X136670354Y-130479998D01*
X136623861Y-130426342D01*
X136613757Y-130356068D01*
X136643251Y-130291488D01*
X136683043Y-130260849D01*
X136816303Y-130195566D01*
X136816308Y-130195563D01*
X136820954Y-130193287D01*
X136825164Y-130190284D01*
X136825169Y-130190281D01*
X137017617Y-130053009D01*
X137017622Y-130053005D01*
X137021829Y-130050004D01*
X137196605Y-129875837D01*
X137340588Y-129675463D01*
X137449911Y-129454264D01*
X137505120Y-129272551D01*
X137520135Y-129223132D01*
X137520136Y-129223126D01*
X137521639Y-129218180D01*
X137553845Y-128973550D01*
X137555643Y-128900000D01*
X137542030Y-128734422D01*
X137535849Y-128659240D01*
X137535848Y-128659234D01*
X137535425Y-128654089D01*
X137475316Y-128414783D01*
X137376928Y-128188507D01*
X137242905Y-127981339D01*
X137216635Y-127952468D01*
X137190243Y-127923464D01*
X137076846Y-127798842D01*
X137072795Y-127795643D01*
X137072791Y-127795639D01*
X136983196Y-127724882D01*
X136942133Y-127666965D01*
X136938901Y-127596042D01*
X136974526Y-127534631D01*
X137037697Y-127502228D01*
X137061288Y-127500000D01*
X142037739Y-127500000D01*
X142105860Y-127520002D01*
G37*
%TD.AperFunction*%
%TA.AperFunction,Conductor*%
G36*
X135105860Y-127520002D02*
G01*
X135152353Y-127573658D01*
X135162457Y-127643932D01*
X135132963Y-127708512D01*
X135113392Y-127726760D01*
X135050364Y-127774083D01*
X134879896Y-127952468D01*
X134876982Y-127956740D01*
X134876981Y-127956741D01*
X134857238Y-127985683D01*
X134740851Y-128156300D01*
X134636965Y-128380104D01*
X134571026Y-128617871D01*
X134544806Y-128863214D01*
X134559010Y-129109545D01*
X134560147Y-129114591D01*
X134560148Y-129114597D01*
X134582336Y-129213051D01*
X134613255Y-129350249D01*
X134706084Y-129578861D01*
X134835006Y-129789241D01*
X134996557Y-129975741D01*
X135186399Y-130133351D01*
X135199342Y-130140914D01*
X135394967Y-130255229D01*
X135394974Y-130255232D01*
X135399433Y-130257838D01*
X135404262Y-130259682D01*
X135405698Y-130260370D01*
X135458488Y-130307844D01*
X135477232Y-130376321D01*
X135455978Y-130444062D01*
X135401475Y-130489558D01*
X135351253Y-130500000D01*
X131126000Y-130500000D01*
X131057879Y-130479998D01*
X131011386Y-130426342D01*
X131000000Y-130374000D01*
X131000000Y-127626000D01*
X131020002Y-127557879D01*
X131073658Y-127511386D01*
X131126000Y-127500000D01*
X135037739Y-127500000D01*
X135105860Y-127520002D01*
G37*
%TD.AperFunction*%
%TA.AperFunction,Conductor*%
G36*
X123104707Y-106519976D02*
G01*
X123143913Y-106501505D01*
X123163327Y-106500000D01*
X149653489Y-106500000D01*
X149721610Y-106520002D01*
X149768103Y-106573658D01*
X149773784Y-106588515D01*
X149845063Y-106817260D01*
X149959285Y-107071050D01*
X150103265Y-107309222D01*
X150105606Y-107312210D01*
X150105608Y-107312213D01*
X150208629Y-107443709D01*
X150274904Y-107528302D01*
X150471698Y-107725096D01*
X150474698Y-107727447D01*
X150474701Y-107727449D01*
X150637827Y-107855250D01*
X150690778Y-107896735D01*
X150733137Y-107922342D01*
X150925689Y-108038744D01*
X150925693Y-108038746D01*
X150928950Y-108040715D01*
X150959437Y-108054436D01*
X151179264Y-108153373D01*
X151179270Y-108153375D01*
X151182740Y-108154937D01*
X151186376Y-108156070D01*
X151411485Y-108226216D01*
X151470571Y-108265578D01*
X151498996Y-108330636D01*
X151500000Y-108346511D01*
X151500000Y-128653489D01*
X151479998Y-128721610D01*
X151426342Y-128768103D01*
X151411485Y-128773784D01*
X151182740Y-128845063D01*
X151179270Y-128846625D01*
X151179264Y-128846627D01*
X151142410Y-128863214D01*
X150928950Y-128959285D01*
X150925693Y-128961254D01*
X150925689Y-128961256D01*
X150773950Y-129052986D01*
X150690778Y-129103265D01*
X150687790Y-129105606D01*
X150687787Y-129105608D01*
X150474701Y-129272551D01*
X150471698Y-129274904D01*
X150274904Y-129471698D01*
X150272553Y-129474698D01*
X150272551Y-129474701D01*
X150115264Y-129675463D01*
X150103265Y-129690778D01*
X150101298Y-129694032D01*
X149989188Y-129879485D01*
X149959285Y-129928950D01*
X149906446Y-130046353D01*
X149846750Y-130178992D01*
X149845063Y-130182740D01*
X149814461Y-130280945D01*
X149773784Y-130411485D01*
X149734422Y-130470571D01*
X149669364Y-130498996D01*
X149653489Y-130500000D01*
X143738475Y-130500000D01*
X143670354Y-130479998D01*
X143623861Y-130426342D01*
X143613757Y-130356068D01*
X143643251Y-130291488D01*
X143683043Y-130260849D01*
X143816303Y-130195566D01*
X143816308Y-130195563D01*
X143820954Y-130193287D01*
X143825164Y-130190284D01*
X143825169Y-130190281D01*
X144017617Y-130053009D01*
X144017622Y-130053005D01*
X144021829Y-130050004D01*
X144196605Y-129875837D01*
X144340588Y-129675463D01*
X144449911Y-129454264D01*
X144505120Y-129272551D01*
X144520135Y-129223132D01*
X144520136Y-129223126D01*
X144521639Y-129218180D01*
X144553845Y-128973550D01*
X144555643Y-128900000D01*
X144542030Y-128734422D01*
X144535849Y-128659240D01*
X144535848Y-128659234D01*
X144535425Y-128654089D01*
X144475316Y-128414783D01*
X144376928Y-128188507D01*
X144242905Y-127981339D01*
X144216635Y-127952468D01*
X144190243Y-127923464D01*
X144076846Y-127798842D01*
X144072795Y-127795643D01*
X144072791Y-127795639D01*
X143983196Y-127724882D01*
X143942133Y-127666965D01*
X143938901Y-127596042D01*
X143974526Y-127534631D01*
X144037697Y-127502228D01*
X144061288Y-127500000D01*
X147900000Y-127500000D01*
X149252309Y-125997435D01*
X149687881Y-125513466D01*
X149687881Y-125513465D01*
X149700000Y-125500000D01*
X150400000Y-117400000D01*
X150399037Y-117245828D01*
X150366250Y-112000000D01*
X150350000Y-109400000D01*
X148500000Y-107900000D01*
X147300000Y-107900000D01*
X147299827Y-107913126D01*
X147299827Y-107913127D01*
X147200161Y-115487760D01*
X147197485Y-115511983D01*
X147137465Y-115797961D01*
X145528966Y-123461988D01*
X145510093Y-123551911D01*
X145476526Y-123614470D01*
X145460016Y-123628560D01*
X144132526Y-124576767D01*
X144060031Y-124600235D01*
X139740280Y-124625645D01*
X134738462Y-124655068D01*
X134670225Y-124635467D01*
X134623417Y-124582086D01*
X134612900Y-124511872D01*
X134642013Y-124447119D01*
X134655893Y-124433257D01*
X134658032Y-124431430D01*
X134663810Y-124426495D01*
X134752156Y-124303550D01*
X134808624Y-124163080D01*
X134829956Y-124013196D01*
X134830094Y-124000000D01*
X134811906Y-123849701D01*
X134808504Y-123840699D01*
X134761076Y-123715182D01*
X134761075Y-123715179D01*
X134758392Y-123708080D01*
X134672640Y-123583311D01*
X134559603Y-123482599D01*
X134552897Y-123479048D01*
X134552895Y-123479047D01*
X134438336Y-123418392D01*
X134425805Y-123411757D01*
X134297886Y-123379625D01*
X134236691Y-123343629D01*
X134204671Y-123280264D01*
X134211992Y-123209645D01*
X134239488Y-123168326D01*
X140370409Y-117037405D01*
X140432721Y-117003379D01*
X140459504Y-117000500D01*
X143644726Y-117000500D01*
X143692943Y-117010091D01*
X143748663Y-117033171D01*
X143748667Y-117033172D01*
X143756291Y-117036330D01*
X143900000Y-117055250D01*
X144043709Y-117036330D01*
X144177625Y-116980861D01*
X144292621Y-116892621D01*
X144380861Y-116777625D01*
X144436330Y-116643709D01*
X144455250Y-116500000D01*
X144436330Y-116356291D01*
X144380861Y-116222375D01*
X144292621Y-116107379D01*
X144177625Y-116019139D01*
X144043709Y-115963670D01*
X143900000Y-115944750D01*
X143756291Y-115963670D01*
X143748667Y-115966828D01*
X143748663Y-115966829D01*
X143692943Y-115989909D01*
X143644726Y-115999500D01*
X140270176Y-115999500D01*
X140258296Y-115998172D01*
X140258255Y-115998683D01*
X140249307Y-115997963D01*
X140240552Y-115995982D01*
X140197014Y-115998683D01*
X140187745Y-115999258D01*
X140179943Y-115999500D01*
X140164060Y-115999500D01*
X140159612Y-116000137D01*
X140159610Y-116000137D01*
X140153942Y-116000948D01*
X140143891Y-116001978D01*
X140106420Y-116004303D01*
X140106419Y-116004303D01*
X140097461Y-116004859D01*
X140089017Y-116007907D01*
X140085324Y-116008672D01*
X140070584Y-116012347D01*
X140066968Y-116013404D01*
X140058082Y-116014677D01*
X140027520Y-116028573D01*
X140015734Y-116033932D01*
X140006367Y-116037745D01*
X139962613Y-116053540D01*
X139955361Y-116058838D01*
X139952015Y-116060617D01*
X139938911Y-116068274D01*
X139935739Y-116070303D01*
X139927572Y-116074016D01*
X139920776Y-116079871D01*
X139920774Y-116079873D01*
X139892321Y-116104390D01*
X139884405Y-116110675D01*
X139877598Y-116115648D01*
X139877591Y-116115654D01*
X139873664Y-116118523D01*
X139862928Y-116129259D01*
X139856082Y-116135616D01*
X139818963Y-116167600D01*
X139814079Y-116175134D01*
X139808181Y-116181896D01*
X139808176Y-116181892D01*
X139799198Y-116192989D01*
X136085701Y-119906486D01*
X136023389Y-119940512D01*
X135952574Y-119935447D01*
X135895738Y-119892900D01*
X135878740Y-119861929D01*
X135861076Y-119815182D01*
X135861075Y-119815179D01*
X135858392Y-119808080D01*
X135772640Y-119683311D01*
X135659603Y-119582599D01*
X135652897Y-119579048D01*
X135652895Y-119579047D01*
X135592704Y-119547178D01*
X135525805Y-119511757D01*
X135378972Y-119474874D01*
X135371374Y-119474834D01*
X135371372Y-119474834D01*
X135306775Y-119474496D01*
X135227579Y-119474082D01*
X135220200Y-119475854D01*
X135220196Y-119475854D01*
X135087746Y-119507652D01*
X135087742Y-119507653D01*
X135080367Y-119509424D01*
X134945835Y-119578861D01*
X134940113Y-119583853D01*
X134940111Y-119583854D01*
X134837474Y-119673390D01*
X134837471Y-119673393D01*
X134831749Y-119678385D01*
X134827382Y-119684599D01*
X134757397Y-119784178D01*
X134744696Y-119802249D01*
X134689702Y-119943302D01*
X134688711Y-119950831D01*
X134674964Y-120055250D01*
X134669941Y-120093402D01*
X134686554Y-120243883D01*
X134738582Y-120386057D01*
X134742819Y-120392363D01*
X134742821Y-120392366D01*
X134781412Y-120449794D01*
X134823022Y-120511716D01*
X134934998Y-120613607D01*
X134941675Y-120617232D01*
X134941676Y-120617233D01*
X135068047Y-120685847D01*
X135067405Y-120687029D01*
X135117089Y-120725802D01*
X135140559Y-120792807D01*
X135124078Y-120861865D01*
X135103820Y-120888366D01*
X132629591Y-123362595D01*
X132567279Y-123396621D01*
X132540496Y-123399500D01*
X124070181Y-123399500D01*
X124058296Y-123398172D01*
X124058255Y-123398682D01*
X124049309Y-123397962D01*
X124040553Y-123395981D01*
X124005240Y-123398172D01*
X123987736Y-123399258D01*
X123979933Y-123399500D01*
X123964060Y-123399500D01*
X123953948Y-123400948D01*
X123943894Y-123401978D01*
X123915903Y-123403715D01*
X123897462Y-123404859D01*
X123889018Y-123407907D01*
X123885306Y-123408676D01*
X123870601Y-123412343D01*
X123866973Y-123413404D01*
X123858082Y-123414677D01*
X123815718Y-123433939D01*
X123806363Y-123437746D01*
X123771057Y-123450491D01*
X123771053Y-123450493D01*
X123762613Y-123453540D01*
X123755365Y-123458835D01*
X123747440Y-123463049D01*
X123746876Y-123461988D01*
X123713342Y-123477500D01*
X123692103Y-123482599D01*
X123580367Y-123509424D01*
X123445835Y-123578861D01*
X123440113Y-123583853D01*
X123440111Y-123583854D01*
X123337474Y-123673390D01*
X123337471Y-123673393D01*
X123331749Y-123678385D01*
X123244696Y-123802249D01*
X123189702Y-123943302D01*
X123188711Y-123950831D01*
X123174776Y-124056680D01*
X123169941Y-124093402D01*
X123186554Y-124243883D01*
X123238582Y-124386057D01*
X123242819Y-124392363D01*
X123242821Y-124392366D01*
X123270299Y-124433257D01*
X123323022Y-124511716D01*
X123434998Y-124613607D01*
X123441675Y-124617232D01*
X123441676Y-124617233D01*
X123561370Y-124682222D01*
X123561372Y-124682223D01*
X123568047Y-124685847D01*
X123575396Y-124687775D01*
X123707136Y-124722336D01*
X123707138Y-124722336D01*
X123714486Y-124724264D01*
X123794562Y-124725522D01*
X123858266Y-124726523D01*
X123858269Y-124726523D01*
X123865863Y-124726642D01*
X124013437Y-124692843D01*
X124127518Y-124635467D01*
X124141906Y-124628231D01*
X124141909Y-124628229D01*
X124148689Y-124624819D01*
X124154462Y-124619888D01*
X124154467Y-124619885D01*
X124177934Y-124599842D01*
X124242723Y-124570810D01*
X124312923Y-124581415D01*
X124366246Y-124628289D01*
X124385762Y-124696551D01*
X124365274Y-124764527D01*
X124348860Y-124784747D01*
X123971012Y-125162595D01*
X123908700Y-125196621D01*
X123881917Y-125199500D01*
X122018082Y-125199500D01*
X121949961Y-125179498D01*
X121928987Y-125162595D01*
X119337405Y-122571012D01*
X119303379Y-122508700D01*
X119300500Y-122481917D01*
X119300500Y-120325124D01*
X119320502Y-120257003D01*
X119326538Y-120248420D01*
X119336389Y-120235582D01*
X119380861Y-120177625D01*
X119436330Y-120043709D01*
X119455250Y-119900000D01*
X119436330Y-119756291D01*
X119380861Y-119622375D01*
X119292621Y-119507379D01*
X119283005Y-119500000D01*
X130444750Y-119500000D01*
X130463670Y-119643709D01*
X130519139Y-119777625D01*
X130607379Y-119892621D01*
X130722375Y-119980861D01*
X130856291Y-120036330D01*
X131000000Y-120055250D01*
X131143709Y-120036330D01*
X131277625Y-119980861D01*
X131392621Y-119892621D01*
X131480861Y-119777625D01*
X131536330Y-119643709D01*
X131555250Y-119500000D01*
X131536330Y-119356291D01*
X131480861Y-119222375D01*
X131392621Y-119107379D01*
X131277625Y-119019139D01*
X131143709Y-118963670D01*
X131000000Y-118944750D01*
X130856291Y-118963670D01*
X130722375Y-119019139D01*
X130607379Y-119107379D01*
X130519139Y-119222375D01*
X130463670Y-119356291D01*
X130444750Y-119500000D01*
X119283005Y-119500000D01*
X119177625Y-119419139D01*
X119043709Y-119363670D01*
X118900000Y-119344750D01*
X118756291Y-119363670D01*
X118622375Y-119419139D01*
X118507379Y-119507379D01*
X118419139Y-119622375D01*
X118363670Y-119756291D01*
X118344750Y-119900000D01*
X118363670Y-120043709D01*
X118419139Y-120177625D01*
X118463611Y-120235582D01*
X118473462Y-120248420D01*
X118499063Y-120314640D01*
X118499500Y-120325124D01*
X118499500Y-122763433D01*
X118502564Y-122772864D01*
X118502565Y-122772868D01*
X118506297Y-122784353D01*
X118510913Y-122803578D01*
X118514354Y-122825304D01*
X118518855Y-122834137D01*
X118518856Y-122834141D01*
X118524341Y-122844906D01*
X118531905Y-122863166D01*
X118538704Y-122884090D01*
X118551639Y-122901893D01*
X118561965Y-122918745D01*
X118571950Y-122938342D01*
X118594513Y-122960905D01*
X118594516Y-122960909D01*
X121471950Y-125838342D01*
X121561658Y-125928050D01*
X121570492Y-125932551D01*
X121570493Y-125932552D01*
X121581259Y-125938038D01*
X121598116Y-125948368D01*
X121615910Y-125961296D01*
X121636830Y-125968093D01*
X121655093Y-125975658D01*
X121665861Y-125981145D01*
X121665865Y-125981146D01*
X121674696Y-125985646D01*
X121684485Y-125987197D01*
X121684493Y-125987199D01*
X121696427Y-125989089D01*
X121715647Y-125993703D01*
X121727133Y-125997435D01*
X121727140Y-125997436D01*
X121736567Y-126000499D01*
X121768477Y-126000499D01*
X121768481Y-126000500D01*
X124163433Y-126000500D01*
X124172864Y-125997436D01*
X124172868Y-125997435D01*
X124184353Y-125993703D01*
X124203578Y-125989087D01*
X124215512Y-125987197D01*
X124215513Y-125987197D01*
X124225304Y-125985646D01*
X124234137Y-125981145D01*
X124234141Y-125981144D01*
X124244906Y-125975659D01*
X124263166Y-125968095D01*
X124284090Y-125961296D01*
X124301893Y-125948361D01*
X124318745Y-125938035D01*
X124329502Y-125932554D01*
X124338342Y-125928050D01*
X124360905Y-125905487D01*
X124360909Y-125905484D01*
X125328988Y-124937405D01*
X125391300Y-124903379D01*
X125418083Y-124900500D01*
X126968252Y-124900500D01*
X127036373Y-124920502D01*
X127082866Y-124974158D01*
X127094233Y-125028710D01*
X127000417Y-130376210D01*
X126979223Y-130443970D01*
X126924760Y-130489514D01*
X126874436Y-130500000D01*
X123579166Y-130500000D01*
X123511045Y-130479998D01*
X123464552Y-130426342D01*
X123454448Y-130356068D01*
X123483942Y-130291488D01*
X123489994Y-130284981D01*
X123494024Y-130280945D01*
X123494025Y-130280943D01*
X123502241Y-130272713D01*
X123507487Y-130260849D01*
X123543675Y-130178992D01*
X123547506Y-130170327D01*
X123550500Y-130144646D01*
X123550500Y-127655354D01*
X123547382Y-127629154D01*
X123501939Y-127526847D01*
X123422713Y-127447759D01*
X123412076Y-127443056D01*
X123412074Y-127443055D01*
X123352538Y-127416735D01*
X123320327Y-127402494D01*
X123294646Y-127399500D01*
X120805354Y-127399500D01*
X120801650Y-127399941D01*
X120801647Y-127399941D01*
X120794254Y-127400821D01*
X120779154Y-127402618D01*
X120676847Y-127448061D01*
X120597759Y-127527287D01*
X120552494Y-127629673D01*
X120549500Y-127655354D01*
X120549500Y-130144646D01*
X120552618Y-130170846D01*
X120598061Y-130273153D01*
X120606295Y-130281373D01*
X120606296Y-130281374D01*
X120609756Y-130284828D01*
X120643835Y-130347111D01*
X120638830Y-130417931D01*
X120596332Y-130474804D01*
X120529833Y-130499671D01*
X120520737Y-130500000D01*
X119346511Y-130500000D01*
X119278390Y-130479998D01*
X119231897Y-130426342D01*
X119226216Y-130411485D01*
X119185539Y-130280945D01*
X119154937Y-130182740D01*
X119153251Y-130178992D01*
X119093554Y-130046353D01*
X119040715Y-129928950D01*
X119010813Y-129879485D01*
X118898702Y-129694032D01*
X118896735Y-129690778D01*
X118884737Y-129675463D01*
X118727449Y-129474701D01*
X118727447Y-129474698D01*
X118725096Y-129471698D01*
X118528302Y-129274904D01*
X118525299Y-129272551D01*
X118312213Y-129105608D01*
X118312210Y-129105606D01*
X118309222Y-129103265D01*
X118226050Y-129052986D01*
X118074311Y-128961256D01*
X118074307Y-128961254D01*
X118071050Y-128959285D01*
X117857590Y-128863214D01*
X117820736Y-128846627D01*
X117820730Y-128846625D01*
X117817260Y-128845063D01*
X117588515Y-128773784D01*
X117529429Y-128734422D01*
X117501004Y-128669364D01*
X117500000Y-128653489D01*
X117500000Y-118300000D01*
X118344750Y-118300000D01*
X118363670Y-118443709D01*
X118419139Y-118577625D01*
X118507379Y-118692621D01*
X118622375Y-118780861D01*
X118756291Y-118836330D01*
X118900000Y-118855250D01*
X119043709Y-118836330D01*
X119177625Y-118780861D01*
X119292621Y-118692621D01*
X119380861Y-118577625D01*
X119436330Y-118443709D01*
X119447978Y-118355235D01*
X119476701Y-118290309D01*
X119483805Y-118282588D01*
X119966393Y-117800000D01*
X129644750Y-117800000D01*
X129663670Y-117943709D01*
X129719139Y-118077625D01*
X129807379Y-118192621D01*
X129922375Y-118280861D01*
X130056291Y-118336330D01*
X130200000Y-118355250D01*
X130343709Y-118336330D01*
X130477625Y-118280861D01*
X130592621Y-118192621D01*
X130680861Y-118077625D01*
X130736330Y-117943709D01*
X130755250Y-117800000D01*
X130736330Y-117656291D01*
X130680861Y-117522375D01*
X130592621Y-117407379D01*
X130477625Y-117319139D01*
X130343709Y-117263670D01*
X130200000Y-117244750D01*
X130056291Y-117263670D01*
X129922375Y-117319139D01*
X129807379Y-117407379D01*
X129719139Y-117522375D01*
X129663670Y-117656291D01*
X129644750Y-117800000D01*
X119966393Y-117800000D01*
X121580483Y-116185909D01*
X121603050Y-116163342D01*
X121607552Y-116154507D01*
X121613038Y-116143741D01*
X121623368Y-116126884D01*
X121630465Y-116117115D01*
X121636296Y-116109090D01*
X121643094Y-116088168D01*
X121650658Y-116069907D01*
X121656145Y-116059139D01*
X121656146Y-116059135D01*
X121660646Y-116050304D01*
X121662197Y-116040515D01*
X121662199Y-116040507D01*
X121664089Y-116028573D01*
X121668703Y-116009353D01*
X121672435Y-115997867D01*
X121672436Y-115997860D01*
X121675499Y-115988433D01*
X121675499Y-115956525D01*
X121675500Y-115956519D01*
X121675500Y-115866724D01*
X121694946Y-115803116D01*
X121694200Y-115802754D01*
X121696522Y-115797961D01*
X121756710Y-115673733D01*
X121780496Y-115532354D01*
X121780647Y-115520000D01*
X121763462Y-115400000D01*
X121761596Y-115386968D01*
X121761595Y-115386965D01*
X121760323Y-115378082D01*
X121743864Y-115341881D01*
X121707813Y-115262592D01*
X121700984Y-115247572D01*
X121644818Y-115182388D01*
X121613260Y-115145763D01*
X121613257Y-115145760D01*
X121607400Y-115138963D01*
X121487095Y-115060985D01*
X121349739Y-115019907D01*
X121340763Y-115019852D01*
X121340762Y-115019852D01*
X121280555Y-115019484D01*
X121206376Y-115019031D01*
X121068529Y-115058428D01*
X120947280Y-115134930D01*
X120852377Y-115242388D01*
X120791447Y-115372163D01*
X120790066Y-115381035D01*
X120771180Y-115502335D01*
X120769391Y-115513823D01*
X120770555Y-115522725D01*
X120770555Y-115522728D01*
X120774398Y-115552114D01*
X120787980Y-115655979D01*
X120791596Y-115664196D01*
X120811216Y-115708787D01*
X120820342Y-115779195D01*
X120789955Y-115843359D01*
X120784982Y-115848626D01*
X119849429Y-116784178D01*
X118917412Y-117716195D01*
X118855100Y-117750221D01*
X118844768Y-117752021D01*
X118756291Y-117763670D01*
X118622375Y-117819139D01*
X118507379Y-117907379D01*
X118419139Y-118022375D01*
X118363670Y-118156291D01*
X118344750Y-118300000D01*
X117500000Y-118300000D01*
X117500000Y-115800000D01*
X118644750Y-115800000D01*
X118663670Y-115943709D01*
X118719139Y-116077625D01*
X118807379Y-116192621D01*
X118922375Y-116280861D01*
X119056291Y-116336330D01*
X119200000Y-116355250D01*
X119343709Y-116336330D01*
X119477625Y-116280861D01*
X119592621Y-116192621D01*
X119680861Y-116077625D01*
X119736330Y-115943709D01*
X119755250Y-115800000D01*
X119736330Y-115656291D01*
X119680861Y-115522375D01*
X119592621Y-115407379D01*
X119477625Y-115319139D01*
X119343709Y-115263670D01*
X119200000Y-115244750D01*
X119056291Y-115263670D01*
X118922375Y-115319139D01*
X118807379Y-115407379D01*
X118719139Y-115522375D01*
X118663670Y-115656291D01*
X118644750Y-115800000D01*
X117500000Y-115800000D01*
X117500000Y-114100000D01*
X118644750Y-114100000D01*
X118663670Y-114243709D01*
X118719139Y-114377625D01*
X118807379Y-114492621D01*
X118922375Y-114580861D01*
X119056291Y-114636330D01*
X119200000Y-114655250D01*
X119343709Y-114636330D01*
X119477625Y-114580861D01*
X119592621Y-114492621D01*
X119680861Y-114377625D01*
X119736330Y-114243709D01*
X119755250Y-114100000D01*
X123544750Y-114100000D01*
X123563670Y-114243709D01*
X123619139Y-114377625D01*
X123673964Y-114449074D01*
X123699563Y-114515293D01*
X123700000Y-114525776D01*
X123700000Y-117100000D01*
X127000000Y-117100000D01*
X127000000Y-115400000D01*
X137200000Y-115400000D01*
X145100000Y-115400000D01*
X145119578Y-114264475D01*
X145199688Y-109618112D01*
X145199688Y-109618111D01*
X145200000Y-109600000D01*
X141084831Y-109600000D01*
X141016710Y-109579998D01*
X140970217Y-109526342D01*
X140960113Y-109456068D01*
X140982509Y-109400473D01*
X141047724Y-109309718D01*
X141047725Y-109309717D01*
X141052156Y-109303550D01*
X141108624Y-109163080D01*
X141129956Y-109013196D01*
X141130094Y-109000000D01*
X141111906Y-108849701D01*
X141106814Y-108836226D01*
X141061076Y-108715182D01*
X141061075Y-108715179D01*
X141058392Y-108708080D01*
X140972640Y-108583311D01*
X140859603Y-108482599D01*
X140852897Y-108479048D01*
X140852895Y-108479047D01*
X140792704Y-108447178D01*
X140725805Y-108411757D01*
X140578972Y-108374874D01*
X140571374Y-108374834D01*
X140571372Y-108374834D01*
X140506775Y-108374496D01*
X140427579Y-108374082D01*
X140420200Y-108375854D01*
X140420196Y-108375854D01*
X140287746Y-108407652D01*
X140287742Y-108407653D01*
X140280367Y-108409424D01*
X140145835Y-108478861D01*
X140140113Y-108483853D01*
X140140111Y-108483854D01*
X140037474Y-108573390D01*
X140037471Y-108573393D01*
X140031749Y-108578385D01*
X139944696Y-108702249D01*
X139889702Y-108843302D01*
X139869941Y-108993402D01*
X139886554Y-109143883D01*
X139938582Y-109286057D01*
X140017653Y-109403726D01*
X140039045Y-109471420D01*
X140020441Y-109539936D01*
X139967749Y-109587518D01*
X139913071Y-109600000D01*
X137200000Y-109600000D01*
X137200000Y-115400000D01*
X127000000Y-115400000D01*
X127000000Y-115256481D01*
X127009591Y-115208264D01*
X127033171Y-115151337D01*
X127033172Y-115151333D01*
X127036330Y-115143709D01*
X127055250Y-115000000D01*
X127036330Y-114856291D01*
X127033172Y-114848667D01*
X127033171Y-114848663D01*
X127009591Y-114791736D01*
X127000000Y-114743519D01*
X127000000Y-114656481D01*
X127009591Y-114608264D01*
X127033171Y-114551337D01*
X127033172Y-114551333D01*
X127036330Y-114543709D01*
X127055250Y-114400000D01*
X127036330Y-114256291D01*
X127033172Y-114248667D01*
X127033171Y-114248663D01*
X127009591Y-114191736D01*
X127000000Y-114143519D01*
X127000000Y-112000000D01*
X125500000Y-112000000D01*
X125500000Y-113674000D01*
X125479998Y-113742121D01*
X125426342Y-113788614D01*
X125374000Y-113800000D01*
X124625828Y-113800000D01*
X124557707Y-113779998D01*
X124525866Y-113750705D01*
X124520498Y-113743709D01*
X124492621Y-113707379D01*
X124377625Y-113619139D01*
X124243709Y-113563670D01*
X124100000Y-113544750D01*
X123956291Y-113563670D01*
X123822375Y-113619139D01*
X123707379Y-113707379D01*
X123619139Y-113822375D01*
X123563670Y-113956291D01*
X123544750Y-114100000D01*
X119755250Y-114100000D01*
X119736330Y-113956291D01*
X119680861Y-113822375D01*
X119592621Y-113707379D01*
X119477625Y-113619139D01*
X119343709Y-113563670D01*
X119200000Y-113544750D01*
X119056291Y-113563670D01*
X118922375Y-113619139D01*
X118807379Y-113707379D01*
X118719139Y-113822375D01*
X118663670Y-113956291D01*
X118644750Y-114100000D01*
X117500000Y-114100000D01*
X117500000Y-110500000D01*
X117944750Y-110500000D01*
X117963670Y-110643709D01*
X118019139Y-110777625D01*
X118107379Y-110892621D01*
X118222375Y-110980861D01*
X118356291Y-111036330D01*
X118500000Y-111055250D01*
X118643709Y-111036330D01*
X118777625Y-110980861D01*
X118892621Y-110892621D01*
X118980861Y-110777625D01*
X119036330Y-110643709D01*
X119041581Y-110603823D01*
X120709391Y-110603823D01*
X120710555Y-110612725D01*
X120710555Y-110612728D01*
X120718685Y-110674901D01*
X120727980Y-110745979D01*
X120735792Y-110763733D01*
X120778829Y-110861542D01*
X120789500Y-110912288D01*
X120789500Y-111182393D01*
X120796914Y-111205210D01*
X120801528Y-111224429D01*
X120805281Y-111248126D01*
X120809784Y-111256963D01*
X120809784Y-111256964D01*
X120816172Y-111269502D01*
X120823736Y-111287763D01*
X120828085Y-111301147D01*
X120828087Y-111301150D01*
X120831151Y-111310581D01*
X120836980Y-111318604D01*
X120845253Y-111329991D01*
X120855577Y-111346837D01*
X120866472Y-111368220D01*
X121236780Y-111738528D01*
X121258156Y-111749419D01*
X121275012Y-111759749D01*
X121294419Y-111773850D01*
X121310408Y-111779045D01*
X121317237Y-111781264D01*
X121335498Y-111788827D01*
X121356874Y-111799719D01*
X121366665Y-111801270D01*
X121366672Y-111801272D01*
X121380569Y-111803473D01*
X121399788Y-111808087D01*
X121413173Y-111812436D01*
X121413180Y-111812437D01*
X121422607Y-111815500D01*
X122702806Y-111815500D01*
X122772624Y-111836612D01*
X122779837Y-111841414D01*
X122779840Y-111841415D01*
X122787313Y-111846390D01*
X122924157Y-111889142D01*
X122933129Y-111889306D01*
X122933132Y-111889307D01*
X122998463Y-111890504D01*
X123067499Y-111891770D01*
X123076533Y-111889307D01*
X123197158Y-111856421D01*
X123197160Y-111856420D01*
X123205817Y-111854060D01*
X123327991Y-111779045D01*
X123424200Y-111672754D01*
X123486710Y-111543733D01*
X123495800Y-111489705D01*
X123526828Y-111425848D01*
X123587454Y-111388901D01*
X123658430Y-111390597D01*
X123717222Y-111430397D01*
X123736463Y-111462394D01*
X123765139Y-111531625D01*
X123853379Y-111646621D01*
X123968375Y-111734861D01*
X124102291Y-111790330D01*
X124246000Y-111809250D01*
X124389709Y-111790330D01*
X124523625Y-111734861D01*
X124638621Y-111646621D01*
X124726861Y-111531625D01*
X124782330Y-111397709D01*
X124801250Y-111254000D01*
X124782330Y-111110291D01*
X124726861Y-110976375D01*
X124638621Y-110861379D01*
X124523625Y-110773139D01*
X124389709Y-110717670D01*
X124246000Y-110698750D01*
X124102291Y-110717670D01*
X123968375Y-110773139D01*
X123853379Y-110861379D01*
X123765139Y-110976375D01*
X123709670Y-111110291D01*
X123708592Y-111118480D01*
X123703800Y-111154875D01*
X123675077Y-111219802D01*
X123615811Y-111258893D01*
X123544819Y-111259737D01*
X123484641Y-111222066D01*
X123464177Y-111190577D01*
X123434702Y-111125748D01*
X123434700Y-111125745D01*
X123430984Y-111117572D01*
X123394956Y-111075760D01*
X123343260Y-111015763D01*
X123343257Y-111015760D01*
X123337400Y-111008963D01*
X123217095Y-110930985D01*
X123079739Y-110889907D01*
X123070763Y-110889852D01*
X123070762Y-110889852D01*
X123010555Y-110889484D01*
X122936376Y-110889031D01*
X122798529Y-110928428D01*
X122790941Y-110933216D01*
X122790938Y-110933217D01*
X122772167Y-110945061D01*
X122704931Y-110964500D01*
X121800495Y-110964500D01*
X121732374Y-110944498D01*
X121685881Y-110890842D01*
X121675777Y-110820568D01*
X121687103Y-110783562D01*
X121692795Y-110771814D01*
X121692795Y-110771813D01*
X121696710Y-110763733D01*
X121720496Y-110622354D01*
X121720647Y-110610000D01*
X121707986Y-110521588D01*
X126566338Y-110521588D01*
X126585258Y-110665297D01*
X126640727Y-110799213D01*
X126728967Y-110914209D01*
X126843963Y-111002449D01*
X126977879Y-111057918D01*
X127121588Y-111076838D01*
X127265297Y-111057918D01*
X127399213Y-111002449D01*
X127514209Y-110914209D01*
X127602449Y-110799213D01*
X127657918Y-110665297D01*
X127676838Y-110521588D01*
X127657918Y-110377879D01*
X127602449Y-110243963D01*
X127514209Y-110128967D01*
X127399213Y-110040727D01*
X127265297Y-109985258D01*
X127121588Y-109966338D01*
X126977879Y-109985258D01*
X126843963Y-110040727D01*
X126728967Y-110128967D01*
X126640727Y-110243963D01*
X126585258Y-110377879D01*
X126566338Y-110521588D01*
X121707986Y-110521588D01*
X121704894Y-110500000D01*
X121701596Y-110476968D01*
X121701595Y-110476965D01*
X121700323Y-110468082D01*
X121640984Y-110337572D01*
X121593586Y-110282564D01*
X121553260Y-110235763D01*
X121553257Y-110235760D01*
X121547400Y-110228963D01*
X121427095Y-110150985D01*
X121289739Y-110109907D01*
X121280763Y-110109852D01*
X121280762Y-110109852D01*
X121220555Y-110109484D01*
X121146376Y-110109031D01*
X121008529Y-110148428D01*
X120887280Y-110224930D01*
X120792377Y-110332388D01*
X120731447Y-110462163D01*
X120709391Y-110603823D01*
X119041581Y-110603823D01*
X119055250Y-110500000D01*
X119036330Y-110356291D01*
X118980861Y-110222375D01*
X118892621Y-110107379D01*
X118777625Y-110019139D01*
X118643709Y-109963670D01*
X118500000Y-109944750D01*
X118356291Y-109963670D01*
X118222375Y-110019139D01*
X118107379Y-110107379D01*
X118019139Y-110222375D01*
X117963670Y-110356291D01*
X117944750Y-110500000D01*
X117500000Y-110500000D01*
X117500000Y-108346511D01*
X117504243Y-108332061D01*
X126812250Y-108332061D01*
X126831170Y-108475770D01*
X126886639Y-108609686D01*
X126974879Y-108724682D01*
X127089875Y-108812922D01*
X127223791Y-108868391D01*
X127367500Y-108887311D01*
X127511209Y-108868391D01*
X127645125Y-108812922D01*
X127683339Y-108783599D01*
X127749560Y-108757998D01*
X127760044Y-108757561D01*
X128803623Y-108757561D01*
X128871744Y-108777563D01*
X128892718Y-108794466D01*
X129761680Y-109663428D01*
X129795706Y-109725740D01*
X129797507Y-109768967D01*
X129794394Y-109792611D01*
X129812999Y-109961135D01*
X129821827Y-109985258D01*
X129868384Y-110112480D01*
X129871266Y-110120356D01*
X129875502Y-110126659D01*
X129875502Y-110126660D01*
X129888472Y-110145962D01*
X129965830Y-110261083D01*
X129971442Y-110266190D01*
X129971445Y-110266193D01*
X130085612Y-110370077D01*
X130085616Y-110370080D01*
X130091233Y-110375191D01*
X130097906Y-110378814D01*
X130097910Y-110378817D01*
X130233558Y-110452467D01*
X130233560Y-110452468D01*
X130240235Y-110456092D01*
X130247584Y-110458020D01*
X130396883Y-110497188D01*
X130396885Y-110497188D01*
X130404233Y-110499116D01*
X130490609Y-110500473D01*
X130566161Y-110501660D01*
X130566164Y-110501660D01*
X130573760Y-110501779D01*
X130581165Y-110500083D01*
X130581166Y-110500083D01*
X130682092Y-110476968D01*
X130739029Y-110463928D01*
X130890498Y-110387747D01*
X131019423Y-110277634D01*
X131118361Y-110139947D01*
X131123702Y-110126660D01*
X131178766Y-109989687D01*
X131178767Y-109989685D01*
X131181601Y-109982634D01*
X131205490Y-109814778D01*
X131205645Y-109800000D01*
X131185276Y-109631680D01*
X131125345Y-109473077D01*
X131093330Y-109426495D01*
X131033614Y-109339608D01*
X131033613Y-109339607D01*
X131029312Y-109333349D01*
X131013363Y-109319139D01*
X130908392Y-109225612D01*
X130908388Y-109225610D01*
X130902721Y-109220560D01*
X130752881Y-109141224D01*
X130588441Y-109099919D01*
X130580843Y-109099879D01*
X130580841Y-109099879D01*
X130483216Y-109099368D01*
X130452487Y-109099207D01*
X130384472Y-109078849D01*
X130364052Y-109062304D01*
X129285281Y-107983533D01*
X129263898Y-107972638D01*
X129247052Y-107962314D01*
X129235665Y-107954041D01*
X129227642Y-107948212D01*
X129218211Y-107945148D01*
X129218208Y-107945146D01*
X129204824Y-107940797D01*
X129186563Y-107933233D01*
X129174025Y-107926845D01*
X129174024Y-107926845D01*
X129165187Y-107922342D01*
X129141490Y-107918589D01*
X129122271Y-107913975D01*
X129099454Y-107906561D01*
X127760044Y-107906561D01*
X127691923Y-107886559D01*
X127683339Y-107880523D01*
X127651675Y-107856226D01*
X127645125Y-107851200D01*
X127511209Y-107795731D01*
X127367500Y-107776811D01*
X127223791Y-107795731D01*
X127089875Y-107851200D01*
X126974879Y-107939440D01*
X126886639Y-108054436D01*
X126831170Y-108188352D01*
X126812250Y-108332061D01*
X117504243Y-108332061D01*
X117520002Y-108278390D01*
X117573658Y-108231897D01*
X117588515Y-108226216D01*
X117813624Y-108156070D01*
X117817260Y-108154937D01*
X117820730Y-108153375D01*
X117820736Y-108153373D01*
X118040563Y-108054436D01*
X118071050Y-108040715D01*
X118074307Y-108038746D01*
X118074311Y-108038744D01*
X118266863Y-107922342D01*
X118309222Y-107896735D01*
X118362174Y-107855250D01*
X118525299Y-107727449D01*
X118525302Y-107727447D01*
X118528302Y-107725096D01*
X118725096Y-107528302D01*
X118791371Y-107443709D01*
X118894392Y-107312213D01*
X118894394Y-107312210D01*
X118896735Y-107309222D01*
X118902310Y-107300000D01*
X122544750Y-107300000D01*
X122563670Y-107443709D01*
X122619139Y-107577625D01*
X122707379Y-107692621D01*
X122822375Y-107780861D01*
X122956291Y-107836330D01*
X123100000Y-107855250D01*
X123243709Y-107836330D01*
X123377625Y-107780861D01*
X123492621Y-107692621D01*
X123580861Y-107577625D01*
X123636330Y-107443709D01*
X123655250Y-107300000D01*
X123636330Y-107156291D01*
X123580861Y-107022375D01*
X123492621Y-106907379D01*
X123377625Y-106819139D01*
X123243709Y-106763670D01*
X123146880Y-106750922D01*
X123098920Y-106729705D01*
X123072171Y-106746896D01*
X123053120Y-106750922D01*
X122956291Y-106763670D01*
X122822375Y-106819139D01*
X122707379Y-106907379D01*
X122619139Y-107022375D01*
X122563670Y-107156291D01*
X122544750Y-107300000D01*
X118902310Y-107300000D01*
X119040715Y-107071050D01*
X119154937Y-106817260D01*
X119226216Y-106588515D01*
X119265578Y-106529429D01*
X119330636Y-106501004D01*
X119346511Y-106500000D01*
X123036673Y-106500000D01*
X123104707Y-106519976D01*
G37*
%TD.AperFunction*%
%TA.AperFunction,Conductor*%
G36*
X126842121Y-112120002D02*
G01*
X126888614Y-112173658D01*
X126900000Y-112226000D01*
X126900000Y-113674000D01*
X126879998Y-113742121D01*
X126826342Y-113788614D01*
X126774000Y-113800000D01*
X125726000Y-113800000D01*
X125657879Y-113779998D01*
X125611386Y-113726342D01*
X125600000Y-113674000D01*
X125600000Y-112226000D01*
X125620002Y-112157879D01*
X125673658Y-112111386D01*
X125726000Y-112100000D01*
X126774000Y-112100000D01*
X126842121Y-112120002D01*
G37*
%TD.AperFunction*%
%TD*%
%TA.AperFunction,Conductor*%
%TO.N,/Vreg*%
G36*
X144542121Y-110020002D02*
G01*
X144588614Y-110073658D01*
X144600000Y-110126000D01*
X144600000Y-114874000D01*
X144579998Y-114942121D01*
X144526342Y-114988614D01*
X144474000Y-115000000D01*
X137726000Y-115000000D01*
X137657879Y-114979998D01*
X137611386Y-114926342D01*
X137600000Y-114874000D01*
X137600000Y-110126000D01*
X137620002Y-110057879D01*
X137673658Y-110011386D01*
X137726000Y-110000000D01*
X144474000Y-110000000D01*
X144542121Y-110020002D01*
G37*
%TD.AperFunction*%
%TD*%
%TA.AperFunction,Conductor*%
%TO.N,/+20V*%
G36*
X126742121Y-114120002D02*
G01*
X126788614Y-114173658D01*
X126800000Y-114226000D01*
X126800000Y-116774000D01*
X126779998Y-116842121D01*
X126726342Y-116888614D01*
X126674000Y-116900000D01*
X124026000Y-116900000D01*
X123957879Y-116879998D01*
X123911386Y-116826342D01*
X123900000Y-116774000D01*
X123900000Y-114226000D01*
X123920002Y-114157879D01*
X123973658Y-114111386D01*
X124026000Y-114100000D01*
X126674000Y-114100000D01*
X126742121Y-114120002D01*
G37*
%TD.AperFunction*%
%TD*%
%TA.AperFunction,Conductor*%
%TO.N,Net-(JP3-Pad1)*%
G36*
X148625265Y-108320002D02*
G01*
X148633968Y-108326129D01*
X149850824Y-109262172D01*
X149892622Y-109319560D01*
X149900000Y-109362043D01*
X149900000Y-117194636D01*
X149899543Y-117205353D01*
X149233264Y-125010342D01*
X149203719Y-125356436D01*
X149177996Y-125422609D01*
X149170098Y-125431896D01*
X147737035Y-126960496D01*
X147675852Y-126996512D01*
X147645853Y-127000317D01*
X133579460Y-127082576D01*
X130618114Y-127099894D01*
X130600000Y-127100000D01*
X130600000Y-129774000D01*
X130579998Y-129842121D01*
X130526342Y-129888614D01*
X130474000Y-129900000D01*
X127528598Y-129900000D01*
X127460477Y-129879998D01*
X127413984Y-129826342D01*
X127402624Y-129771429D01*
X127497481Y-125123429D01*
X127518869Y-125055731D01*
X127573462Y-125010342D01*
X127623455Y-125000000D01*
X136743519Y-125000000D01*
X136791736Y-125009591D01*
X136848663Y-125033171D01*
X136848667Y-125033172D01*
X136856291Y-125036330D01*
X137000000Y-125055250D01*
X137143709Y-125036330D01*
X137151333Y-125033172D01*
X137151337Y-125033171D01*
X137208264Y-125009591D01*
X137256481Y-125000000D01*
X144300000Y-125000000D01*
X144315521Y-124989653D01*
X144315523Y-124989652D01*
X145495125Y-124203250D01*
X146100000Y-123800000D01*
X146834518Y-120225347D01*
X147598713Y-116506265D01*
X147598713Y-116506262D01*
X147600000Y-116500000D01*
X147600000Y-108426000D01*
X147620002Y-108357879D01*
X147673658Y-108311386D01*
X147726000Y-108300000D01*
X148557144Y-108300000D01*
X148625265Y-108320002D01*
G37*
%TD.AperFunction*%
%TD*%
M02*
