%TF.GenerationSoftware,KiCad,Pcbnew,(6.0.6)*%
%TF.CreationDate,2023-10-14T19:09:52-05:00*%
%TF.ProjectId,Gauntl33tVoltageRegulator,4761756e-746c-4333-9374-566f6c746167,rev?*%
%TF.SameCoordinates,Original*%
%TF.FileFunction,Copper,L3,Inr*%
%TF.FilePolarity,Positive*%
%FSLAX46Y46*%
G04 Gerber Fmt 4.6, Leading zero omitted, Abs format (unit mm)*
G04 Created by KiCad (PCBNEW (6.0.6)) date 2023-10-14 19:09:52*
%MOMM*%
%LPD*%
G01*
G04 APERTURE LIST*
%TA.AperFunction,ComponentPad*%
%ADD10R,2.400000X2.400000*%
%TD*%
%TA.AperFunction,ComponentPad*%
%ADD11C,2.400000*%
%TD*%
%TA.AperFunction,ViaPad*%
%ADD12C,0.500000*%
%TD*%
%TA.AperFunction,ViaPad*%
%ADD13C,0.650000*%
%TD*%
%TA.AperFunction,ViaPad*%
%ADD14C,0.800000*%
%TD*%
%TA.AperFunction,ViaPad*%
%ADD15C,0.400000*%
%TD*%
%TA.AperFunction,Conductor*%
%ADD16C,0.200000*%
%TD*%
%TA.AperFunction,Conductor*%
%ADD17C,0.250000*%
%TD*%
G04 APERTURE END LIST*
D10*
%TO.N,Net-(F2-Pad1)*%
%TO.C,J1*%
X122050000Y-128900000D03*
D11*
%TO.N,GND*%
X125550000Y-128900000D03*
%TO.N,Net-(F1-Pad1)*%
X129050000Y-128900000D03*
%TO.N,GND*%
X132550000Y-128900000D03*
%TO.N,Net-(J1-Pad5)*%
X136050000Y-128900000D03*
%TO.N,/EN*%
X139550000Y-128900000D03*
%TO.N,/5V*%
X143050000Y-128900000D03*
%TO.N,GND*%
X146550000Y-128900000D03*
%TD*%
D12*
%TO.N,/+20V*%
X126500000Y-115700000D03*
X125100000Y-117400000D03*
X126500000Y-114400000D03*
D13*
X123800000Y-124100000D03*
D12*
X125900000Y-115700000D03*
X143900000Y-116500000D03*
X125100000Y-119500000D03*
X125265498Y-115734502D03*
X125100000Y-118800000D03*
X124400000Y-118800000D03*
X124400000Y-118100000D03*
X121987162Y-119604940D03*
X126500000Y-115000000D03*
X122300000Y-119100000D03*
X121300000Y-119600000D03*
X125900000Y-115000000D03*
X125900000Y-114400000D03*
X124100000Y-114100000D03*
X125100000Y-118100000D03*
X124400000Y-119500000D03*
X121600000Y-119100000D03*
X124400000Y-117400000D03*
%TO.N,GND*%
X132800000Y-116000000D03*
X134700000Y-118500000D03*
X131400000Y-123100000D03*
X150100000Y-122800000D03*
X140600000Y-115400000D03*
X137000000Y-113600000D03*
X126500000Y-112500000D03*
X132800000Y-115400000D03*
X137000000Y-114200000D03*
X128000000Y-122400000D03*
X146200000Y-118600000D03*
X126500000Y-127000000D03*
X136400000Y-114200000D03*
X150600000Y-112100000D03*
X137600000Y-112400000D03*
X128700000Y-121700000D03*
X150100000Y-123400000D03*
X149000000Y-130200000D03*
X138200000Y-114200000D03*
X131600000Y-116000000D03*
X122000000Y-111300000D03*
X138200000Y-111800000D03*
X138200000Y-113000000D03*
X137700000Y-130200000D03*
X146800000Y-119200000D03*
X141600000Y-130200000D03*
X145000000Y-121600000D03*
X136400000Y-113000000D03*
X136400000Y-108200000D03*
X128000000Y-118600000D03*
X146000000Y-106800000D03*
X137200000Y-123800000D03*
X131000000Y-127500000D03*
X135200000Y-115400000D03*
X146200000Y-119200000D03*
X136400000Y-111200000D03*
X128700000Y-120000000D03*
X137800000Y-127400000D03*
X135200000Y-112400000D03*
X130800000Y-130200000D03*
X137600000Y-108200000D03*
X134600000Y-116000000D03*
X151300000Y-114200000D03*
X135800000Y-116000000D03*
X151300000Y-110900000D03*
X135800000Y-113000000D03*
X127262000Y-112760000D03*
X150700000Y-121600000D03*
X134600000Y-115400000D03*
X150700000Y-122800000D03*
X118800000Y-109300000D03*
X136400000Y-111800000D03*
X127900000Y-113400000D03*
X150600000Y-114200000D03*
X151300000Y-110300000D03*
X126500000Y-113500000D03*
X140800000Y-127600000D03*
X137600000Y-110000000D03*
X145600000Y-121000000D03*
X145000000Y-122200000D03*
X136400000Y-115400000D03*
X138200000Y-110600000D03*
X145000000Y-119800000D03*
X130700000Y-123100000D03*
X129400000Y-122400000D03*
X141200000Y-115400000D03*
X148300000Y-130200000D03*
X140900000Y-130200000D03*
X146800000Y-121600000D03*
X146200000Y-119800000D03*
X124600000Y-127000000D03*
X146200000Y-123400000D03*
X140000000Y-121500000D03*
X136400000Y-116000000D03*
X129400000Y-120700000D03*
X129400000Y-120000000D03*
X137600000Y-110600000D03*
X125900000Y-112500000D03*
X134000000Y-116000000D03*
X127200000Y-130200000D03*
X136400000Y-112400000D03*
X135200000Y-110000000D03*
X146200000Y-122800000D03*
X127900000Y-114600000D03*
X146700000Y-106800000D03*
X135800000Y-114200000D03*
X137000000Y-110000000D03*
X133400000Y-116000000D03*
X136000000Y-123800000D03*
X151300000Y-114900000D03*
X135200000Y-108200000D03*
X150600000Y-113500000D03*
X146200000Y-121000000D03*
X150700000Y-123400000D03*
X131600000Y-115400000D03*
X127900000Y-115200000D03*
X137600000Y-111800000D03*
X140000000Y-120100000D03*
X135200000Y-111800000D03*
X128600000Y-110200000D03*
X146800000Y-121000000D03*
X125900000Y-113500000D03*
X150600000Y-110900000D03*
X144800000Y-130200000D03*
X128700000Y-122400000D03*
X137000000Y-108200000D03*
X145600000Y-122200000D03*
X129400000Y-119300000D03*
X137600000Y-115400000D03*
X129400000Y-121700000D03*
X145600000Y-120400000D03*
X135200000Y-110600000D03*
X150600000Y-109000000D03*
X137000000Y-110600000D03*
X138200000Y-111200000D03*
X146800000Y-119800000D03*
X137000000Y-111200000D03*
X134700000Y-119900000D03*
X137600000Y-114800000D03*
X138200000Y-110000000D03*
X150700000Y-118600000D03*
X146800000Y-122200000D03*
X140000000Y-115400000D03*
X132200000Y-115400000D03*
X137000000Y-113000000D03*
X120100000Y-113300000D03*
X135800000Y-112400000D03*
X138200000Y-113600000D03*
X145000000Y-121000000D03*
X136400000Y-113600000D03*
X137000000Y-111800000D03*
X134700000Y-119200000D03*
X133400000Y-115400000D03*
X145600000Y-119800000D03*
X128000000Y-121700000D03*
X138800000Y-115400000D03*
X125900000Y-113000000D03*
X128700000Y-120700000D03*
X145000000Y-119200000D03*
X127900000Y-114000000D03*
X128000000Y-120000000D03*
X136400000Y-114800000D03*
X144800000Y-127600000D03*
X123800000Y-130300000D03*
X135200000Y-113000000D03*
X129400000Y-118600000D03*
X146800000Y-123400000D03*
X135200000Y-113600000D03*
X139400000Y-115400000D03*
X134000000Y-115400000D03*
X151300000Y-111500000D03*
X151300000Y-113500000D03*
X135200000Y-111200000D03*
X128000000Y-120700000D03*
X136400000Y-107600000D03*
X141800000Y-115400000D03*
X137600000Y-111200000D03*
X136000000Y-123200000D03*
X135800000Y-107600000D03*
X150600000Y-112800000D03*
X145000000Y-118600000D03*
X150700000Y-119200000D03*
X146800000Y-120400000D03*
X134700000Y-120600000D03*
X137600000Y-107600000D03*
X135200000Y-114800000D03*
X138200000Y-107600000D03*
X128000000Y-123100000D03*
X138200000Y-114800000D03*
X130700000Y-122400000D03*
X135800000Y-115400000D03*
X151300000Y-112100000D03*
X143100000Y-124400000D03*
X135200000Y-114200000D03*
X146200000Y-122200000D03*
X128700000Y-118600000D03*
X124200000Y-106800000D03*
X150600000Y-111500000D03*
X135800000Y-111800000D03*
X127300000Y-114000000D03*
X151300000Y-112800000D03*
X145000000Y-120400000D03*
X140000000Y-122200000D03*
X136400000Y-110000000D03*
X150700000Y-120400000D03*
X145600000Y-118600000D03*
X135800000Y-113600000D03*
X127300000Y-115200000D03*
D14*
X119000000Y-129000000D03*
D12*
X129400000Y-123100000D03*
X146800000Y-122800000D03*
X146200000Y-121600000D03*
X144600000Y-106800000D03*
X128700000Y-123100000D03*
X145600000Y-122800000D03*
X146200000Y-120400000D03*
X150600000Y-110300000D03*
X145000000Y-123400000D03*
X150600000Y-114900000D03*
X137600000Y-113600000D03*
X137000000Y-112400000D03*
X151300000Y-109000000D03*
X150600000Y-109700000D03*
X122600000Y-107900000D03*
D14*
X118000000Y-128000000D03*
D12*
X137600000Y-116000000D03*
X127300000Y-114600000D03*
X131400000Y-122400000D03*
X122200000Y-114000000D03*
X135800000Y-111200000D03*
X135200000Y-107600000D03*
X128700000Y-119300000D03*
X128000000Y-119300000D03*
X135200000Y-116000000D03*
X151300000Y-109700000D03*
X137000000Y-115400000D03*
X150700000Y-122200000D03*
X137600000Y-113000000D03*
X135800000Y-114800000D03*
X136600000Y-123800000D03*
X138200000Y-116000000D03*
X150700000Y-121000000D03*
X121800000Y-116900000D03*
X135800000Y-110000000D03*
X146800000Y-118600000D03*
X150700000Y-119800000D03*
X138200000Y-115400000D03*
X140000000Y-120800000D03*
X138200000Y-112400000D03*
X127300000Y-113400000D03*
X135800000Y-108200000D03*
X137000000Y-107600000D03*
X145600000Y-121600000D03*
X137000000Y-116000000D03*
X145600000Y-119200000D03*
X134300000Y-127600000D03*
X132200000Y-116000000D03*
X137000000Y-114800000D03*
X137600000Y-114200000D03*
X134300000Y-130200000D03*
X138800000Y-116000000D03*
X150600000Y-108300000D03*
X138200000Y-108200000D03*
X135800000Y-110600000D03*
X136600000Y-123200000D03*
X126500000Y-113000000D03*
X145600000Y-123400000D03*
X145000000Y-122800000D03*
X136400000Y-110600000D03*
X145300000Y-106800000D03*
%TO.N,Net-(200K1-Pad3)*%
X123100000Y-107300000D03*
X119200000Y-115800000D03*
%TO.N,/PGOOD*%
X130200000Y-117800000D03*
X127121588Y-110521588D03*
D13*
%TO.N,/5V*%
X134200000Y-124000000D03*
D12*
X118900000Y-119900000D03*
%TO.N,/Vreg*%
X144400000Y-112600000D03*
X143000000Y-112600000D03*
X146300000Y-108100000D03*
X140000000Y-111900000D03*
X140700000Y-110500000D03*
X142200000Y-109800000D03*
X143000000Y-111200000D03*
X145700000Y-108100000D03*
X145100000Y-112600000D03*
X141500000Y-111200000D03*
X140700000Y-109800000D03*
X146900000Y-111400000D03*
X143700000Y-111900000D03*
X140000000Y-109800000D03*
X140000000Y-112600000D03*
X143700000Y-109800000D03*
X145100000Y-109800000D03*
X143000000Y-109800000D03*
X146300000Y-108700000D03*
X142200000Y-110500000D03*
X145100000Y-111900000D03*
X143700000Y-110500000D03*
X145100000Y-111200000D03*
X142200000Y-112600000D03*
X146900000Y-110800000D03*
X140700000Y-112600000D03*
X146900000Y-112000000D03*
X144400000Y-110500000D03*
X140000000Y-111200000D03*
X142200000Y-111900000D03*
X145700000Y-108700000D03*
X141500000Y-112600000D03*
X140700000Y-111200000D03*
X143000000Y-110500000D03*
X140000000Y-110500000D03*
X143700000Y-112600000D03*
X124246000Y-111254000D03*
X146900000Y-112600000D03*
X142200000Y-111200000D03*
X143700000Y-111200000D03*
X141500000Y-111900000D03*
X146900000Y-113200000D03*
X144400000Y-109800000D03*
X143000000Y-111900000D03*
X141500000Y-109800000D03*
X144400000Y-111900000D03*
X146900000Y-113800000D03*
X144400000Y-111200000D03*
X145100000Y-110500000D03*
X140700000Y-111900000D03*
X141500000Y-110500000D03*
%TO.N,Net-(IC1-Pad5)*%
X131400000Y-112800000D03*
X128900000Y-114400000D03*
X133800000Y-112800000D03*
X128900000Y-115000000D03*
X131400000Y-112000000D03*
X133800000Y-111200000D03*
X133000000Y-111200000D03*
X133800000Y-112000000D03*
X133000000Y-112000000D03*
X132200000Y-112800000D03*
X132200000Y-113600000D03*
X133000000Y-112800000D03*
X131400000Y-113600000D03*
X128900000Y-113800000D03*
X131400000Y-111200000D03*
X132200000Y-111200000D03*
X133800000Y-113600000D03*
X128900000Y-113200000D03*
X132200000Y-112000000D03*
X133000000Y-113600000D03*
%TO.N,Net-(200K1-Pad1)*%
X119200000Y-114100000D03*
X118500000Y-110500000D03*
%TO.N,Net-(F2-Pad1)*%
X122200000Y-122800000D03*
X121500000Y-122100000D03*
X122200000Y-123500000D03*
X121500000Y-122800000D03*
X120800000Y-123500000D03*
X120800000Y-122800000D03*
X120100000Y-122800000D03*
X120100000Y-122100000D03*
X121500000Y-123500000D03*
X120800000Y-122100000D03*
X122200000Y-122100000D03*
D15*
%TO.N,+5VP*%
X121215000Y-110610000D03*
X121275000Y-115520000D03*
D12*
X127367500Y-108332061D03*
D14*
X130500000Y-109800000D03*
D12*
X118900000Y-118300000D03*
%TO.N,Net-(F1-Pad1)*%
X148200000Y-109800000D03*
X148200000Y-108600000D03*
X149400000Y-109800000D03*
X149400000Y-109200000D03*
X148800000Y-109800000D03*
X148200000Y-109200000D03*
X148800000Y-109200000D03*
X149400000Y-108600000D03*
X148800000Y-108600000D03*
%TO.N,/EN*%
X130749500Y-117200000D03*
X123800000Y-112300000D03*
%TD*%
D16*
%TO.N,/+20V*%
X124200000Y-114669004D02*
X125265498Y-115734502D01*
X124200000Y-114000000D02*
X124200000Y-114669004D01*
%TO.N,Net-(200K1-Pad3)*%
X117900000Y-109300000D02*
X119900000Y-107300000D01*
X119200000Y-115800000D02*
X119200000Y-114900000D01*
X119200000Y-114900000D02*
X117900000Y-113600000D01*
X117900000Y-113600000D02*
X117900000Y-109300000D01*
X119900000Y-107300000D02*
X123100000Y-107300000D01*
%TO.N,/PGOOD*%
X130200000Y-111200000D02*
X130200000Y-117800000D01*
X127350000Y-110750000D02*
X129750000Y-110750000D01*
X129750000Y-110750000D02*
X130200000Y-111200000D01*
X127121588Y-110521588D02*
X127350000Y-110750000D01*
D17*
%TO.N,/Vreg*%
X124500000Y-109000000D02*
X124223161Y-109276839D01*
D16*
X145400000Y-109000000D02*
X145700000Y-108700000D01*
X140500000Y-109000000D02*
X145400000Y-109000000D01*
D17*
X140500000Y-109000000D02*
X124500000Y-109000000D01*
X124223161Y-109276839D02*
X124223161Y-111238880D01*
D16*
%TO.N,Net-(200K1-Pad1)*%
X118300000Y-113200000D02*
X118300000Y-110700000D01*
X119200000Y-114100000D02*
X118300000Y-113200000D01*
X118300000Y-110700000D02*
X118500000Y-110500000D01*
%TO.N,+5VP*%
X121215000Y-115460000D02*
X121275000Y-115520000D01*
X121215000Y-110610000D02*
X121215000Y-115460000D01*
X123492939Y-108332061D02*
X121215000Y-110610000D01*
X127367500Y-108332061D02*
X123492939Y-108332061D01*
%TO.N,/EN*%
X125675000Y-109425000D02*
X129025000Y-109425000D01*
X125100000Y-111500000D02*
X125100000Y-110000000D01*
X124300000Y-112300000D02*
X125100000Y-111500000D01*
X125100000Y-110000000D02*
X125675000Y-109425000D01*
X123800000Y-112300000D02*
X124300000Y-112300000D01*
X129025000Y-109425000D02*
X130700000Y-111100000D01*
X130700000Y-111100000D02*
X130700000Y-117200000D01*
%TD*%
%TA.AperFunction,Conductor*%
%TO.N,GND*%
G36*
X150308512Y-107491653D02*
G01*
X150315095Y-107497782D01*
X150504915Y-107687602D01*
X150719234Y-107855510D01*
X150722488Y-107857477D01*
X150948968Y-107994390D01*
X150948972Y-107994392D01*
X150952229Y-107996361D01*
X150960315Y-108000000D01*
X151197027Y-108106536D01*
X151197033Y-108106538D01*
X151200503Y-108108100D01*
X151411486Y-108173845D01*
X151470571Y-108213206D01*
X151498996Y-108278264D01*
X151500000Y-108294139D01*
X151500000Y-128705861D01*
X151479998Y-128773982D01*
X151426342Y-128820475D01*
X151411490Y-128826154D01*
X151200503Y-128891900D01*
X151197033Y-128893462D01*
X151197027Y-128893464D01*
X151076366Y-128947770D01*
X150952229Y-129003639D01*
X150948972Y-129005608D01*
X150948968Y-129005610D01*
X150797125Y-129097403D01*
X150719234Y-129144490D01*
X150504915Y-129312398D01*
X150312398Y-129504915D01*
X150144490Y-129719234D01*
X150142523Y-129722488D01*
X150009100Y-129943196D01*
X150003639Y-129952229D01*
X150002075Y-129955705D01*
X149914544Y-130150191D01*
X149891900Y-130200503D01*
X149890767Y-130204139D01*
X149813181Y-130453124D01*
X149810902Y-130460436D01*
X149810216Y-130464178D01*
X149810215Y-130464183D01*
X149805872Y-130487884D01*
X149773919Y-130551284D01*
X149712762Y-130587344D01*
X149681325Y-130591172D01*
X148858061Y-130587175D01*
X143420112Y-130560777D01*
X143352089Y-130540444D01*
X143305858Y-130486563D01*
X143296095Y-130416241D01*
X143325901Y-130351804D01*
X143384516Y-130314093D01*
X143581068Y-130255125D01*
X143795264Y-130150191D01*
X143876492Y-130092252D01*
X143985242Y-130014681D01*
X143989445Y-130011683D01*
X144158397Y-129843320D01*
X144297582Y-129649623D01*
X144346106Y-129551444D01*
X144400969Y-129440437D01*
X144400970Y-129440435D01*
X144403263Y-129435795D01*
X144472600Y-129207577D01*
X144473275Y-129202451D01*
X144503296Y-128974421D01*
X144503297Y-128974414D01*
X144503733Y-128971099D01*
X144505471Y-128900000D01*
X144495110Y-128773982D01*
X144486351Y-128667435D01*
X144486350Y-128667429D01*
X144485927Y-128662284D01*
X144427821Y-128430952D01*
X144415415Y-128402420D01*
X144334772Y-128216953D01*
X144334770Y-128216950D01*
X144332712Y-128212216D01*
X144203155Y-128011951D01*
X144174360Y-127980305D01*
X144046107Y-127839358D01*
X144046105Y-127839357D01*
X144042629Y-127835536D01*
X144038578Y-127832337D01*
X144038574Y-127832333D01*
X143859500Y-127690909D01*
X143859496Y-127690907D01*
X143855445Y-127687707D01*
X143816125Y-127666001D01*
X143799682Y-127656924D01*
X143646631Y-127572436D01*
X143646916Y-127571919D01*
X143595710Y-127528086D01*
X143575298Y-127460087D01*
X143594889Y-127391847D01*
X143648264Y-127345032D01*
X143700640Y-127333330D01*
X150100000Y-127300000D01*
X150100000Y-107586877D01*
X150120002Y-107518756D01*
X150173658Y-107472263D01*
X150243932Y-107462159D01*
X150308512Y-107491653D01*
G37*
%TD.AperFunction*%
%TA.AperFunction,Conductor*%
G36*
X142457593Y-127359807D02*
G01*
X142504364Y-127413219D01*
X142514834Y-127483440D01*
X142485678Y-127548173D01*
X142448211Y-127577917D01*
X142274414Y-127668390D01*
X142270281Y-127671493D01*
X142270278Y-127671495D01*
X142087810Y-127808497D01*
X142083675Y-127811602D01*
X141918887Y-127984042D01*
X141784475Y-128181082D01*
X141684051Y-128397428D01*
X141620309Y-128627272D01*
X141619760Y-128632409D01*
X141599662Y-128820475D01*
X141594963Y-128864440D01*
X141595260Y-128869592D01*
X141595260Y-128869596D01*
X141608396Y-129097403D01*
X141608397Y-129097409D01*
X141608694Y-129102562D01*
X141661131Y-129335245D01*
X141663075Y-129340032D01*
X141663076Y-129340036D01*
X141701960Y-129435795D01*
X141750867Y-129556239D01*
X141875493Y-129759609D01*
X142031660Y-129939894D01*
X142215176Y-130092252D01*
X142421112Y-130212591D01*
X142643937Y-130297680D01*
X142649005Y-130298711D01*
X142649008Y-130298712D01*
X142692959Y-130307654D01*
X142755724Y-130340836D01*
X142790586Y-130402684D01*
X142786476Y-130473561D01*
X142744700Y-130530965D01*
X142678520Y-130556670D01*
X142667232Y-130557123D01*
X139975841Y-130544058D01*
X139907820Y-130523725D01*
X139861588Y-130469844D01*
X139851825Y-130399522D01*
X139881631Y-130335085D01*
X139940247Y-130297373D01*
X140001957Y-130278859D01*
X140081068Y-130255125D01*
X140295264Y-130150191D01*
X140376492Y-130092252D01*
X140485242Y-130014681D01*
X140489445Y-130011683D01*
X140658397Y-129843320D01*
X140797582Y-129649623D01*
X140846106Y-129551444D01*
X140900969Y-129440437D01*
X140900970Y-129440435D01*
X140903263Y-129435795D01*
X140972600Y-129207577D01*
X140973275Y-129202451D01*
X141003296Y-128974421D01*
X141003297Y-128974414D01*
X141003733Y-128971099D01*
X141005471Y-128900000D01*
X140995110Y-128773982D01*
X140986351Y-128667435D01*
X140986350Y-128667429D01*
X140985927Y-128662284D01*
X140927821Y-128430952D01*
X140915415Y-128402420D01*
X140834772Y-128216953D01*
X140834770Y-128216950D01*
X140832712Y-128212216D01*
X140703155Y-128011951D01*
X140674360Y-127980305D01*
X140546107Y-127839358D01*
X140546105Y-127839357D01*
X140542629Y-127835536D01*
X140538578Y-127832337D01*
X140538574Y-127832333D01*
X140359500Y-127690909D01*
X140359496Y-127690907D01*
X140355445Y-127687707D01*
X140316125Y-127666001D01*
X140294442Y-127654032D01*
X140174262Y-127587689D01*
X140124292Y-127537257D01*
X140109520Y-127467815D01*
X140134636Y-127401409D01*
X140191667Y-127359124D01*
X140234500Y-127351383D01*
X142389369Y-127340160D01*
X142457593Y-127359807D01*
G37*
%TD.AperFunction*%
%TA.AperFunction,Conductor*%
G36*
X138922221Y-127378220D02*
G01*
X138968992Y-127431632D01*
X138979462Y-127501853D01*
X138950306Y-127566586D01*
X138912834Y-127596334D01*
X138774414Y-127668390D01*
X138770281Y-127671493D01*
X138770278Y-127671495D01*
X138587810Y-127808497D01*
X138583675Y-127811602D01*
X138418887Y-127984042D01*
X138284475Y-128181082D01*
X138184051Y-128397428D01*
X138120309Y-128627272D01*
X138119760Y-128632409D01*
X138099662Y-128820475D01*
X138094963Y-128864440D01*
X138095260Y-128869592D01*
X138095260Y-128869596D01*
X138108396Y-129097403D01*
X138108397Y-129097409D01*
X138108694Y-129102562D01*
X138161131Y-129335245D01*
X138163075Y-129340032D01*
X138163076Y-129340036D01*
X138201960Y-129435795D01*
X138250867Y-129556239D01*
X138375493Y-129759609D01*
X138531660Y-129939894D01*
X138715176Y-130092252D01*
X138921112Y-130212591D01*
X138925937Y-130214433D01*
X138925938Y-130214434D01*
X139139717Y-130296069D01*
X139196220Y-130339057D01*
X139220513Y-130405768D01*
X139204883Y-130475023D01*
X139154291Y-130524833D01*
X139094157Y-130539778D01*
X136531573Y-130527338D01*
X136463551Y-130507005D01*
X136417319Y-130453124D01*
X136407556Y-130382802D01*
X136437362Y-130318365D01*
X136495978Y-130280653D01*
X136520717Y-130273231D01*
X136581068Y-130255125D01*
X136795264Y-130150191D01*
X136876492Y-130092252D01*
X136985242Y-130014681D01*
X136989445Y-130011683D01*
X137158397Y-129843320D01*
X137297582Y-129649623D01*
X137346106Y-129551444D01*
X137400969Y-129440437D01*
X137400970Y-129440435D01*
X137403263Y-129435795D01*
X137472600Y-129207577D01*
X137473275Y-129202451D01*
X137503296Y-128974421D01*
X137503297Y-128974414D01*
X137503733Y-128971099D01*
X137505471Y-128900000D01*
X137495110Y-128773982D01*
X137486351Y-128667435D01*
X137486350Y-128667429D01*
X137485927Y-128662284D01*
X137427821Y-128430952D01*
X137415415Y-128402420D01*
X137334772Y-128216953D01*
X137334770Y-128216950D01*
X137332712Y-128212216D01*
X137203155Y-128011951D01*
X137174360Y-127980305D01*
X137046107Y-127839358D01*
X137046105Y-127839357D01*
X137042629Y-127835536D01*
X137038578Y-127832337D01*
X137038574Y-127832333D01*
X136859500Y-127690909D01*
X136859496Y-127690907D01*
X136855445Y-127687707D01*
X136816125Y-127666001D01*
X136803511Y-127659038D01*
X136706976Y-127605748D01*
X136657006Y-127555316D01*
X136642234Y-127485874D01*
X136667350Y-127419468D01*
X136724381Y-127377183D01*
X136767214Y-127369442D01*
X138853997Y-127358573D01*
X138922221Y-127378220D01*
G37*
%TD.AperFunction*%
%TA.AperFunction,Conductor*%
G36*
X135386849Y-127396633D02*
G01*
X135433620Y-127450045D01*
X135444090Y-127520266D01*
X135414934Y-127584999D01*
X135377461Y-127614747D01*
X135279003Y-127666001D01*
X135274414Y-127668390D01*
X135270281Y-127671493D01*
X135270278Y-127671495D01*
X135087810Y-127808497D01*
X135083675Y-127811602D01*
X134918887Y-127984042D01*
X134784475Y-128181082D01*
X134684051Y-128397428D01*
X134620309Y-128627272D01*
X134619760Y-128632409D01*
X134599662Y-128820475D01*
X134594963Y-128864440D01*
X134595260Y-128869592D01*
X134595260Y-128869596D01*
X134608396Y-129097403D01*
X134608397Y-129097409D01*
X134608694Y-129102562D01*
X134661131Y-129335245D01*
X134663075Y-129340032D01*
X134663076Y-129340036D01*
X134701960Y-129435795D01*
X134750867Y-129556239D01*
X134875493Y-129759609D01*
X135031660Y-129939894D01*
X135215176Y-130092252D01*
X135421112Y-130212591D01*
X135594652Y-130278860D01*
X135651154Y-130321846D01*
X135675447Y-130388558D01*
X135659817Y-130457812D01*
X135609226Y-130507623D01*
X135549090Y-130522568D01*
X132765726Y-130509057D01*
X131025387Y-130500609D01*
X130957366Y-130480276D01*
X130911134Y-130426395D01*
X130900000Y-130374610D01*
X130900000Y-127525345D01*
X130920002Y-127457224D01*
X130973658Y-127410731D01*
X131025343Y-127399347D01*
X135318626Y-127376986D01*
X135386849Y-127396633D01*
G37*
%TD.AperFunction*%
%TD*%
%TA.AperFunction,Conductor*%
%TO.N,GND*%
G36*
X123239313Y-124250236D02*
G01*
X123297302Y-124390233D01*
X123389549Y-124510451D01*
X123509767Y-124602698D01*
X123649764Y-124660687D01*
X123800000Y-124680466D01*
X123808188Y-124679388D01*
X123942048Y-124661765D01*
X123950236Y-124660687D01*
X124090233Y-124602698D01*
X124210451Y-124510451D01*
X124302698Y-124390233D01*
X124360687Y-124250236D01*
X124380466Y-124100000D01*
X133632699Y-124100000D01*
X133639313Y-124150236D01*
X133637843Y-124150430D01*
X133636370Y-124212363D01*
X133596577Y-124271160D01*
X133531313Y-124299109D01*
X133516352Y-124300000D01*
X127000000Y-124300000D01*
X127000000Y-130374000D01*
X126979998Y-130442121D01*
X126926342Y-130488614D01*
X126874000Y-130500000D01*
X123726000Y-130500000D01*
X123657879Y-130479998D01*
X123611386Y-130426342D01*
X123600000Y-130374000D01*
X123600000Y-125900000D01*
X122824099Y-124833136D01*
X122800209Y-124766279D01*
X122800000Y-124759026D01*
X122800000Y-124100000D01*
X123219534Y-124100000D01*
X123239313Y-124250236D01*
G37*
%TD.AperFunction*%
%TA.AperFunction,Conductor*%
G36*
X119248526Y-124602698D02*
G01*
X119300000Y-128000000D01*
X120107503Y-130332787D01*
X120110885Y-130403700D01*
X120075389Y-130465187D01*
X120012286Y-130497722D01*
X119988435Y-130500000D01*
X119294139Y-130500000D01*
X119226018Y-130479998D01*
X119179525Y-130426342D01*
X119173844Y-130411485D01*
X119162164Y-130374000D01*
X119108100Y-130200503D01*
X119085457Y-130150191D01*
X118997925Y-129955705D01*
X118996361Y-129952229D01*
X118988905Y-129939894D01*
X118857477Y-129722488D01*
X118855510Y-129719234D01*
X118687602Y-129504915D01*
X118495085Y-129312398D01*
X118280766Y-129144490D01*
X118203432Y-129097740D01*
X118051032Y-129005610D01*
X118051028Y-129005608D01*
X118047771Y-129003639D01*
X117923634Y-128947770D01*
X117802973Y-128893464D01*
X117802967Y-128893462D01*
X117799497Y-128891900D01*
X117588514Y-128826155D01*
X117529429Y-128786794D01*
X117501004Y-128721736D01*
X117500000Y-128705861D01*
X117500000Y-124100000D01*
X119240909Y-124100000D01*
X119248526Y-124602698D01*
G37*
%TD.AperFunction*%
%TA.AperFunction,Conductor*%
G36*
X147112368Y-124124007D02*
G01*
X147121682Y-124138499D01*
X147121684Y-124209496D01*
X147083301Y-124269223D01*
X147018721Y-124298717D01*
X147000787Y-124300000D01*
X134883648Y-124300000D01*
X134815527Y-124279998D01*
X134769034Y-124226342D01*
X134758930Y-124156068D01*
X134759577Y-124152917D01*
X134760687Y-124150236D01*
X134767301Y-124100000D01*
X147105319Y-124100000D01*
X147112368Y-124124007D01*
G37*
%TD.AperFunction*%
%TD*%
%TA.AperFunction,Conductor*%
%TO.N,GND*%
G36*
X123104707Y-106519976D02*
G01*
X123143913Y-106501505D01*
X123163327Y-106500000D01*
X146974000Y-106500000D01*
X147042121Y-106520002D01*
X147088614Y-106573658D01*
X147100000Y-106626000D01*
X147100000Y-108036673D01*
X147080024Y-108104707D01*
X147098495Y-108143913D01*
X147100000Y-108163327D01*
X147100000Y-108636673D01*
X147080024Y-108704707D01*
X147098495Y-108743913D01*
X147100000Y-108763327D01*
X147100000Y-110127405D01*
X147079998Y-110195526D01*
X147026342Y-110242019D01*
X146957554Y-110252327D01*
X146908189Y-110245828D01*
X146908188Y-110245828D01*
X146900000Y-110244750D01*
X146756291Y-110263670D01*
X146622375Y-110319139D01*
X146507379Y-110407379D01*
X146419139Y-110522375D01*
X146363670Y-110656291D01*
X146344750Y-110800000D01*
X146363670Y-110943709D01*
X146407142Y-111048660D01*
X146408435Y-111051782D01*
X146416024Y-111122372D01*
X146408436Y-111148215D01*
X146363670Y-111256291D01*
X146344750Y-111400000D01*
X146363670Y-111543709D01*
X146405588Y-111644908D01*
X146408435Y-111651782D01*
X146416024Y-111722372D01*
X146408436Y-111748215D01*
X146363670Y-111856291D01*
X146344750Y-112000000D01*
X146363670Y-112143709D01*
X146381602Y-112187000D01*
X146408435Y-112251782D01*
X146416024Y-112322372D01*
X146408436Y-112348215D01*
X146363670Y-112456291D01*
X146344750Y-112600000D01*
X146363670Y-112743709D01*
X146402035Y-112836330D01*
X146408435Y-112851782D01*
X146416024Y-112922372D01*
X146408436Y-112948215D01*
X146363670Y-113056291D01*
X146344750Y-113200000D01*
X146363670Y-113343709D01*
X146407142Y-113448660D01*
X146408435Y-113451782D01*
X146416024Y-113522372D01*
X146408436Y-113548215D01*
X146363670Y-113656291D01*
X146344750Y-113800000D01*
X146363670Y-113943709D01*
X146419139Y-114077625D01*
X146507379Y-114192621D01*
X146622375Y-114280861D01*
X146756291Y-114336330D01*
X146900000Y-114355250D01*
X146908188Y-114354172D01*
X146908189Y-114354172D01*
X146957554Y-114347673D01*
X147027702Y-114358612D01*
X147080801Y-114405740D01*
X147100000Y-114472595D01*
X147100000Y-124100000D01*
X134817602Y-124100000D01*
X134829375Y-124017277D01*
X134829956Y-124013196D01*
X134830094Y-124000000D01*
X134811906Y-123849701D01*
X134798862Y-123815182D01*
X134761076Y-123715182D01*
X134761075Y-123715179D01*
X134758392Y-123708080D01*
X134672640Y-123583311D01*
X134559603Y-123482599D01*
X134552897Y-123479048D01*
X134552895Y-123479047D01*
X134492704Y-123447178D01*
X134425805Y-123411757D01*
X134278972Y-123374874D01*
X134271374Y-123374834D01*
X134271372Y-123374834D01*
X134206775Y-123374496D01*
X134127579Y-123374082D01*
X134120200Y-123375854D01*
X134120196Y-123375854D01*
X133987746Y-123407652D01*
X133987742Y-123407653D01*
X133980367Y-123409424D01*
X133973622Y-123412905D01*
X133973623Y-123412905D01*
X133853560Y-123474874D01*
X133845835Y-123478861D01*
X133840113Y-123483853D01*
X133840111Y-123483854D01*
X133737474Y-123573390D01*
X133737471Y-123573393D01*
X133731749Y-123578385D01*
X133727382Y-123584599D01*
X133653610Y-123689566D01*
X133644696Y-123702249D01*
X133589702Y-123843302D01*
X133588711Y-123850831D01*
X133574702Y-123957241D01*
X133569941Y-123993402D01*
X133572577Y-124017277D01*
X133580150Y-124085871D01*
X133581709Y-124100000D01*
X124430094Y-124100000D01*
X124411906Y-123949701D01*
X124390337Y-123892621D01*
X124361076Y-123815182D01*
X124361075Y-123815179D01*
X124358392Y-123808080D01*
X124305704Y-123731419D01*
X124276939Y-123689566D01*
X124272640Y-123683311D01*
X124159603Y-123582599D01*
X124152897Y-123579048D01*
X124152895Y-123579047D01*
X124092704Y-123547178D01*
X124025805Y-123511757D01*
X123878972Y-123474874D01*
X123871374Y-123474834D01*
X123871372Y-123474834D01*
X123806775Y-123474496D01*
X123727579Y-123474082D01*
X123720200Y-123475854D01*
X123720196Y-123475854D01*
X123587746Y-123507652D01*
X123587742Y-123507653D01*
X123580367Y-123509424D01*
X123445835Y-123578861D01*
X123440113Y-123583853D01*
X123440111Y-123583854D01*
X123337474Y-123673390D01*
X123337471Y-123673393D01*
X123331749Y-123678385D01*
X123315275Y-123701825D01*
X123257397Y-123784178D01*
X123244696Y-123802249D01*
X123189702Y-123943302D01*
X123188711Y-123950831D01*
X123174964Y-124055250D01*
X123169941Y-124093402D01*
X123170669Y-124100000D01*
X122800000Y-124100000D01*
X122800000Y-121400000D01*
X119200000Y-121400000D01*
X119240909Y-124100000D01*
X117500000Y-124100000D01*
X117500000Y-119900000D01*
X118344750Y-119900000D01*
X118363670Y-120043709D01*
X118419139Y-120177625D01*
X118507379Y-120292621D01*
X118622375Y-120380861D01*
X118756291Y-120436330D01*
X118900000Y-120455250D01*
X119043709Y-120436330D01*
X119177625Y-120380861D01*
X119292621Y-120292621D01*
X119380861Y-120177625D01*
X119436330Y-120043709D01*
X119455250Y-119900000D01*
X119436330Y-119756291D01*
X119380861Y-119622375D01*
X119363692Y-119600000D01*
X120744750Y-119600000D01*
X120763670Y-119743709D01*
X120819139Y-119877625D01*
X120907379Y-119992621D01*
X121022375Y-120080861D01*
X121156291Y-120136330D01*
X121300000Y-120155250D01*
X121443709Y-120136330D01*
X121577625Y-120080861D01*
X121579154Y-120079688D01*
X121645299Y-120063642D01*
X121702303Y-120080380D01*
X121702986Y-120080775D01*
X121709537Y-120085801D01*
X121843453Y-120141270D01*
X121987162Y-120160190D01*
X122130871Y-120141270D01*
X122264787Y-120085801D01*
X122379783Y-119997561D01*
X122468023Y-119882565D01*
X122523492Y-119748649D01*
X122535169Y-119659955D01*
X122563892Y-119595028D01*
X122583387Y-119576440D01*
X122683005Y-119500000D01*
X123844750Y-119500000D01*
X123863670Y-119643709D01*
X123919139Y-119777625D01*
X124007379Y-119892621D01*
X124122375Y-119980861D01*
X124256291Y-120036330D01*
X124400000Y-120055250D01*
X124543709Y-120036330D01*
X124677625Y-119980861D01*
X124684175Y-119975835D01*
X124687000Y-119974204D01*
X124755996Y-119957466D01*
X124813000Y-119974204D01*
X124815825Y-119975835D01*
X124822375Y-119980861D01*
X124956291Y-120036330D01*
X125100000Y-120055250D01*
X125243709Y-120036330D01*
X125377625Y-119980861D01*
X125492621Y-119892621D01*
X125580861Y-119777625D01*
X125636330Y-119643709D01*
X125655250Y-119500000D01*
X125636330Y-119356291D01*
X125580861Y-119222375D01*
X125575835Y-119215825D01*
X125574204Y-119213000D01*
X125557466Y-119144004D01*
X125574204Y-119087000D01*
X125575835Y-119084175D01*
X125580861Y-119077625D01*
X125636330Y-118943709D01*
X125655250Y-118800000D01*
X125636330Y-118656291D01*
X125580861Y-118522375D01*
X125575835Y-118515825D01*
X125574204Y-118513000D01*
X125557466Y-118444004D01*
X125574204Y-118387000D01*
X125575835Y-118384175D01*
X125580861Y-118377625D01*
X125636330Y-118243709D01*
X125655250Y-118100000D01*
X125636330Y-117956291D01*
X125580861Y-117822375D01*
X125575835Y-117815825D01*
X125574204Y-117813000D01*
X125557466Y-117744004D01*
X125574204Y-117687000D01*
X125575835Y-117684175D01*
X125580861Y-117677625D01*
X125636330Y-117543709D01*
X125655250Y-117400000D01*
X125636330Y-117256291D01*
X125580861Y-117122375D01*
X125492621Y-117007379D01*
X125377625Y-116919139D01*
X125243709Y-116863670D01*
X125100000Y-116844750D01*
X124956291Y-116863670D01*
X124822375Y-116919139D01*
X124815825Y-116924165D01*
X124813000Y-116925796D01*
X124744004Y-116942534D01*
X124687000Y-116925796D01*
X124684175Y-116924165D01*
X124677625Y-116919139D01*
X124543709Y-116863670D01*
X124400000Y-116844750D01*
X124256291Y-116863670D01*
X124122375Y-116919139D01*
X124007379Y-117007379D01*
X123919139Y-117122375D01*
X123863670Y-117256291D01*
X123844750Y-117400000D01*
X123863670Y-117543709D01*
X123919139Y-117677625D01*
X123924165Y-117684175D01*
X123925796Y-117687000D01*
X123942534Y-117755996D01*
X123925796Y-117813000D01*
X123924165Y-117815825D01*
X123919139Y-117822375D01*
X123863670Y-117956291D01*
X123844750Y-118100000D01*
X123863670Y-118243709D01*
X123919139Y-118377625D01*
X123924165Y-118384175D01*
X123925796Y-118387000D01*
X123942534Y-118455996D01*
X123925796Y-118513000D01*
X123924165Y-118515825D01*
X123919139Y-118522375D01*
X123863670Y-118656291D01*
X123844750Y-118800000D01*
X123863670Y-118943709D01*
X123919139Y-119077625D01*
X123924165Y-119084175D01*
X123925796Y-119087000D01*
X123942534Y-119155996D01*
X123925796Y-119213000D01*
X123924165Y-119215825D01*
X123919139Y-119222375D01*
X123863670Y-119356291D01*
X123844750Y-119500000D01*
X122683005Y-119500000D01*
X122686071Y-119497647D01*
X122692621Y-119492621D01*
X122780861Y-119377625D01*
X122836330Y-119243709D01*
X122855250Y-119100000D01*
X122836330Y-118956291D01*
X122780861Y-118822375D01*
X122692621Y-118707379D01*
X122577625Y-118619139D01*
X122443709Y-118563670D01*
X122300000Y-118544750D01*
X122156291Y-118563670D01*
X122022375Y-118619139D01*
X122015825Y-118624165D01*
X122013000Y-118625796D01*
X121944004Y-118642534D01*
X121887000Y-118625796D01*
X121884175Y-118624165D01*
X121877625Y-118619139D01*
X121743709Y-118563670D01*
X121600000Y-118544750D01*
X121456291Y-118563670D01*
X121322375Y-118619139D01*
X121207379Y-118707379D01*
X121119139Y-118822375D01*
X121063670Y-118956291D01*
X121062592Y-118964480D01*
X121062592Y-118964481D01*
X121051274Y-119050447D01*
X121022552Y-119115374D01*
X121003056Y-119133963D01*
X120907379Y-119207379D01*
X120819139Y-119322375D01*
X120763670Y-119456291D01*
X120744750Y-119600000D01*
X119363692Y-119600000D01*
X119292621Y-119507379D01*
X119177625Y-119419139D01*
X119043709Y-119363670D01*
X118900000Y-119344750D01*
X118756291Y-119363670D01*
X118622375Y-119419139D01*
X118507379Y-119507379D01*
X118419139Y-119622375D01*
X118363670Y-119756291D01*
X118344750Y-119900000D01*
X117500000Y-119900000D01*
X117500000Y-118300000D01*
X118344750Y-118300000D01*
X118363670Y-118443709D01*
X118419139Y-118577625D01*
X118507379Y-118692621D01*
X118622375Y-118780861D01*
X118756291Y-118836330D01*
X118900000Y-118855250D01*
X119043709Y-118836330D01*
X119177625Y-118780861D01*
X119292621Y-118692621D01*
X119380861Y-118577625D01*
X119436330Y-118443709D01*
X119455250Y-118300000D01*
X119436330Y-118156291D01*
X119380861Y-118022375D01*
X119292621Y-117907379D01*
X119177625Y-117819139D01*
X119043709Y-117763670D01*
X118900000Y-117744750D01*
X118756291Y-117763670D01*
X118622375Y-117819139D01*
X118507379Y-117907379D01*
X118419139Y-118022375D01*
X118363670Y-118156291D01*
X118344750Y-118300000D01*
X117500000Y-118300000D01*
X117500000Y-114070583D01*
X117520002Y-114002462D01*
X117573658Y-113955969D01*
X117643932Y-113945865D01*
X117708512Y-113975359D01*
X117715095Y-113981488D01*
X118762595Y-115028988D01*
X118796621Y-115091300D01*
X118799500Y-115118083D01*
X118799500Y-115374876D01*
X118779498Y-115442997D01*
X118773462Y-115451580D01*
X118719139Y-115522375D01*
X118663670Y-115656291D01*
X118644750Y-115800000D01*
X118663670Y-115943709D01*
X118719139Y-116077625D01*
X118807379Y-116192621D01*
X118922375Y-116280861D01*
X119056291Y-116336330D01*
X119200000Y-116355250D01*
X119343709Y-116336330D01*
X119477625Y-116280861D01*
X119592621Y-116192621D01*
X119680861Y-116077625D01*
X119736330Y-115943709D01*
X119755250Y-115800000D01*
X119736330Y-115656291D01*
X119680861Y-115522375D01*
X119626538Y-115451580D01*
X119600937Y-115385360D01*
X119600500Y-115374876D01*
X119600500Y-114836567D01*
X119597436Y-114827136D01*
X119597435Y-114827132D01*
X119593703Y-114815647D01*
X119589087Y-114796422D01*
X119587197Y-114784488D01*
X119587197Y-114784487D01*
X119585646Y-114774696D01*
X119581145Y-114765863D01*
X119581144Y-114765859D01*
X119575658Y-114755092D01*
X119568092Y-114736828D01*
X119566666Y-114732437D01*
X119561296Y-114715911D01*
X119548365Y-114698113D01*
X119538040Y-114681264D01*
X119535285Y-114675858D01*
X119531858Y-114669131D01*
X119518749Y-114599357D01*
X119545445Y-114533571D01*
X119567413Y-114511964D01*
X119592621Y-114492621D01*
X119680861Y-114377625D01*
X119736330Y-114243709D01*
X119755250Y-114100000D01*
X119736330Y-113956291D01*
X119680861Y-113822375D01*
X119592621Y-113707379D01*
X119477625Y-113619139D01*
X119343709Y-113563670D01*
X119255235Y-113552022D01*
X119190309Y-113523299D01*
X119182588Y-113516195D01*
X118737405Y-113071012D01*
X118703379Y-113008700D01*
X118700500Y-112981917D01*
X118700500Y-111096891D01*
X118720502Y-111028770D01*
X118763497Y-110987773D01*
X118769993Y-110984022D01*
X118777625Y-110980861D01*
X118892621Y-110892621D01*
X118980861Y-110777625D01*
X119036330Y-110643709D01*
X119055250Y-110500000D01*
X119036330Y-110356291D01*
X118980861Y-110222375D01*
X118892621Y-110107379D01*
X118777625Y-110019139D01*
X118643709Y-109963670D01*
X118500000Y-109944750D01*
X118491812Y-109945828D01*
X118491811Y-109945828D01*
X118442946Y-109952261D01*
X118372797Y-109941322D01*
X118319699Y-109894193D01*
X118300500Y-109827339D01*
X118300500Y-109518083D01*
X118320502Y-109449962D01*
X118337405Y-109428988D01*
X120028987Y-107737405D01*
X120091299Y-107703380D01*
X120118082Y-107700500D01*
X122674876Y-107700500D01*
X122742997Y-107720502D01*
X122751580Y-107726538D01*
X122822375Y-107780861D01*
X122956291Y-107836330D01*
X123045236Y-107848040D01*
X123091812Y-107854172D01*
X123100000Y-107855250D01*
X123102705Y-107854894D01*
X123168367Y-107874174D01*
X123214860Y-107927830D01*
X123224964Y-107998104D01*
X123195470Y-108062684D01*
X123189341Y-108069267D01*
X122177349Y-109081258D01*
X121173940Y-110084667D01*
X121119471Y-110116721D01*
X121008529Y-110148428D01*
X120887280Y-110224930D01*
X120881338Y-110231658D01*
X120881337Y-110231659D01*
X120870471Y-110243963D01*
X120792377Y-110332388D01*
X120731447Y-110462163D01*
X120722210Y-110521490D01*
X120716012Y-110561301D01*
X120709391Y-110603823D01*
X120710555Y-110612725D01*
X120710555Y-110612728D01*
X120718685Y-110674901D01*
X120727980Y-110745979D01*
X120785720Y-110877203D01*
X120791495Y-110884073D01*
X120795471Y-110890461D01*
X120814500Y-110957043D01*
X120814500Y-115294955D01*
X120802555Y-115348504D01*
X120791447Y-115372163D01*
X120769391Y-115513823D01*
X120770555Y-115522725D01*
X120770555Y-115522728D01*
X120772334Y-115536330D01*
X120787980Y-115655979D01*
X120845720Y-115787203D01*
X120851497Y-115794076D01*
X120851498Y-115794077D01*
X120915336Y-115870022D01*
X120937970Y-115896948D01*
X120945447Y-115901925D01*
X121047708Y-115969996D01*
X121057313Y-115976390D01*
X121194157Y-116019142D01*
X121203129Y-116019306D01*
X121203132Y-116019307D01*
X121268463Y-116020504D01*
X121337499Y-116021770D01*
X121346533Y-116019307D01*
X121467158Y-115986421D01*
X121467160Y-115986420D01*
X121475817Y-115984060D01*
X121597991Y-115909045D01*
X121694200Y-115802754D01*
X121756710Y-115673733D01*
X121780496Y-115532354D01*
X121780647Y-115520000D01*
X121770849Y-115451580D01*
X121761596Y-115386968D01*
X121761595Y-115386965D01*
X121760323Y-115378082D01*
X121700984Y-115247572D01*
X121646047Y-115183814D01*
X121616733Y-115119153D01*
X121615500Y-115101567D01*
X121615500Y-114100000D01*
X123544750Y-114100000D01*
X123563670Y-114243709D01*
X123619139Y-114377625D01*
X123707379Y-114492621D01*
X123713929Y-114497647D01*
X123750204Y-114525482D01*
X123792071Y-114582820D01*
X123799500Y-114625444D01*
X123799500Y-114732437D01*
X123802564Y-114741868D01*
X123802565Y-114741872D01*
X123806297Y-114753357D01*
X123810913Y-114772582D01*
X123814354Y-114794308D01*
X123818855Y-114803141D01*
X123818856Y-114803145D01*
X123824341Y-114813910D01*
X123831905Y-114832170D01*
X123838704Y-114853094D01*
X123851639Y-114870897D01*
X123861965Y-114887749D01*
X123871950Y-114907346D01*
X123894513Y-114929909D01*
X123894516Y-114929913D01*
X124681693Y-115717090D01*
X124715719Y-115779402D01*
X124717519Y-115789734D01*
X124729168Y-115878211D01*
X124784637Y-116012127D01*
X124872877Y-116127123D01*
X124987873Y-116215363D01*
X125121789Y-116270832D01*
X125265498Y-116289752D01*
X125409207Y-116270832D01*
X125543123Y-116215363D01*
X125549675Y-116210335D01*
X125555960Y-116206707D01*
X125624955Y-116189970D01*
X125667175Y-116199418D01*
X125756291Y-116236330D01*
X125900000Y-116255250D01*
X126043709Y-116236330D01*
X126151783Y-116191565D01*
X126222372Y-116183976D01*
X126248215Y-116191564D01*
X126356291Y-116236330D01*
X126500000Y-116255250D01*
X126643709Y-116236330D01*
X126777625Y-116180861D01*
X126892621Y-116092621D01*
X126980861Y-115977625D01*
X127036330Y-115843709D01*
X127055250Y-115700000D01*
X127036330Y-115556291D01*
X126980861Y-115422375D01*
X126975835Y-115415825D01*
X126974204Y-115413000D01*
X126957466Y-115344004D01*
X126974204Y-115287000D01*
X126975835Y-115284175D01*
X126980861Y-115277625D01*
X127036330Y-115143709D01*
X127055250Y-115000000D01*
X128344750Y-115000000D01*
X128363670Y-115143709D01*
X128419139Y-115277625D01*
X128507379Y-115392621D01*
X128622375Y-115480861D01*
X128756291Y-115536330D01*
X128900000Y-115555250D01*
X129043709Y-115536330D01*
X129177625Y-115480861D01*
X129292621Y-115392621D01*
X129380861Y-115277625D01*
X129436330Y-115143709D01*
X129455250Y-115000000D01*
X129436330Y-114856291D01*
X129391565Y-114748217D01*
X129383976Y-114677628D01*
X129391565Y-114651782D01*
X129402475Y-114625444D01*
X129436330Y-114543709D01*
X129455250Y-114400000D01*
X129436330Y-114256291D01*
X129391565Y-114148217D01*
X129383976Y-114077628D01*
X129391565Y-114051782D01*
X129394037Y-114045816D01*
X129436330Y-113943709D01*
X129455250Y-113800000D01*
X129436330Y-113656291D01*
X129391565Y-113548217D01*
X129383976Y-113477628D01*
X129391565Y-113451782D01*
X129392859Y-113448660D01*
X129436330Y-113343709D01*
X129455250Y-113200000D01*
X129436330Y-113056291D01*
X129380861Y-112922375D01*
X129292621Y-112807379D01*
X129177625Y-112719139D01*
X129043709Y-112663670D01*
X128900000Y-112644750D01*
X128756291Y-112663670D01*
X128622375Y-112719139D01*
X128507379Y-112807379D01*
X128419139Y-112922375D01*
X128363670Y-113056291D01*
X128344750Y-113200000D01*
X128363670Y-113343709D01*
X128407142Y-113448660D01*
X128408435Y-113451782D01*
X128416024Y-113522372D01*
X128408436Y-113548215D01*
X128363670Y-113656291D01*
X128344750Y-113800000D01*
X128363670Y-113943709D01*
X128405964Y-114045816D01*
X128408435Y-114051782D01*
X128416024Y-114122372D01*
X128408436Y-114148215D01*
X128363670Y-114256291D01*
X128344750Y-114400000D01*
X128363670Y-114543709D01*
X128397526Y-114625444D01*
X128408435Y-114651782D01*
X128416024Y-114722372D01*
X128408436Y-114748215D01*
X128363670Y-114856291D01*
X128344750Y-115000000D01*
X127055250Y-115000000D01*
X127036330Y-114856291D01*
X126991565Y-114748217D01*
X126983976Y-114677628D01*
X126991565Y-114651782D01*
X127002475Y-114625444D01*
X127036330Y-114543709D01*
X127055250Y-114400000D01*
X127036330Y-114256291D01*
X126980861Y-114122375D01*
X126892621Y-114007379D01*
X126777625Y-113919139D01*
X126643709Y-113863670D01*
X126500000Y-113844750D01*
X126356291Y-113863670D01*
X126248217Y-113908435D01*
X126177628Y-113916024D01*
X126151785Y-113908436D01*
X126043709Y-113863670D01*
X125900000Y-113844750D01*
X125756291Y-113863670D01*
X125622375Y-113919139D01*
X125507379Y-114007379D01*
X125419139Y-114122375D01*
X125363670Y-114256291D01*
X125344750Y-114400000D01*
X125363670Y-114543709D01*
X125397526Y-114625444D01*
X125408435Y-114651782D01*
X125416024Y-114722372D01*
X125408436Y-114748215D01*
X125363670Y-114856291D01*
X125353978Y-114929913D01*
X125349323Y-114965268D01*
X125320601Y-115030195D01*
X125261336Y-115069287D01*
X125190344Y-115070132D01*
X125135306Y-115037917D01*
X124637405Y-114540016D01*
X124603379Y-114477704D01*
X124600500Y-114450921D01*
X124600500Y-114355274D01*
X124610091Y-114307057D01*
X124633171Y-114251337D01*
X124633172Y-114251333D01*
X124636330Y-114243709D01*
X124655250Y-114100000D01*
X124636330Y-113956291D01*
X124580861Y-113822375D01*
X124492621Y-113707379D01*
X124377625Y-113619139D01*
X124243709Y-113563670D01*
X124100000Y-113544750D01*
X123956291Y-113563670D01*
X123822375Y-113619139D01*
X123707379Y-113707379D01*
X123619139Y-113822375D01*
X123563670Y-113956291D01*
X123544750Y-114100000D01*
X121615500Y-114100000D01*
X121615500Y-110956724D01*
X121634946Y-110893116D01*
X121634200Y-110892754D01*
X121636522Y-110887961D01*
X121686805Y-110784178D01*
X121692795Y-110771814D01*
X121692795Y-110771813D01*
X121696710Y-110763733D01*
X121703996Y-110720428D01*
X121739155Y-110652238D01*
X123621926Y-108769466D01*
X123684238Y-108735441D01*
X123711021Y-108732561D01*
X123861501Y-108732561D01*
X123929622Y-108752563D01*
X123976115Y-108806219D01*
X123986219Y-108876493D01*
X123956725Y-108941073D01*
X123950596Y-108947656D01*
X123874633Y-109023619D01*
X123863738Y-109045002D01*
X123853414Y-109061848D01*
X123839312Y-109081258D01*
X123836248Y-109090689D01*
X123836246Y-109090692D01*
X123831897Y-109104076D01*
X123824333Y-109122337D01*
X123813442Y-109143713D01*
X123811891Y-109153507D01*
X123809689Y-109167409D01*
X123805075Y-109186629D01*
X123797661Y-109209446D01*
X123797661Y-110891220D01*
X123777659Y-110959341D01*
X123771623Y-110967925D01*
X123765139Y-110976375D01*
X123709670Y-111110291D01*
X123690750Y-111254000D01*
X123709670Y-111397709D01*
X123765139Y-111531625D01*
X123770166Y-111538176D01*
X123770167Y-111538178D01*
X123784015Y-111556225D01*
X123809615Y-111622446D01*
X123795350Y-111691994D01*
X123745748Y-111742790D01*
X123700498Y-111757850D01*
X123656291Y-111763670D01*
X123522375Y-111819139D01*
X123407379Y-111907379D01*
X123319139Y-112022375D01*
X123263670Y-112156291D01*
X123244750Y-112300000D01*
X123263670Y-112443709D01*
X123319139Y-112577625D01*
X123407379Y-112692621D01*
X123522375Y-112780861D01*
X123656291Y-112836330D01*
X123800000Y-112855250D01*
X123943709Y-112836330D01*
X124077625Y-112780861D01*
X124148420Y-112726538D01*
X124214640Y-112700937D01*
X124225124Y-112700500D01*
X124363433Y-112700500D01*
X124372864Y-112697436D01*
X124372868Y-112697435D01*
X124384353Y-112693703D01*
X124403578Y-112689087D01*
X124415512Y-112687197D01*
X124415513Y-112687197D01*
X124425304Y-112685646D01*
X124434137Y-112681145D01*
X124434141Y-112681144D01*
X124444906Y-112675659D01*
X124463166Y-112668095D01*
X124484090Y-112661296D01*
X124501893Y-112648361D01*
X124518745Y-112638035D01*
X124529502Y-112632554D01*
X124538342Y-112628050D01*
X124560905Y-112605487D01*
X124560909Y-112605484D01*
X125405484Y-111760909D01*
X125405487Y-111760905D01*
X125428050Y-111738342D01*
X125432555Y-111729501D01*
X125438037Y-111718742D01*
X125448365Y-111701887D01*
X125455467Y-111692112D01*
X125461296Y-111684089D01*
X125468094Y-111663168D01*
X125475658Y-111644908D01*
X125481144Y-111634141D01*
X125481145Y-111634137D01*
X125485646Y-111625304D01*
X125489087Y-111603578D01*
X125493703Y-111584353D01*
X125497435Y-111572868D01*
X125497436Y-111572864D01*
X125500500Y-111563433D01*
X125500500Y-110218083D01*
X125520502Y-110149962D01*
X125537405Y-110128988D01*
X125803988Y-109862405D01*
X125866300Y-109828379D01*
X125893083Y-109825500D01*
X126753269Y-109825500D01*
X126821390Y-109845502D01*
X126867883Y-109899158D01*
X126877987Y-109969432D01*
X126848493Y-110034012D01*
X126829973Y-110051462D01*
X126728967Y-110128967D01*
X126640727Y-110243963D01*
X126585258Y-110377879D01*
X126566338Y-110521588D01*
X126585258Y-110665297D01*
X126640727Y-110799213D01*
X126728967Y-110914209D01*
X126843963Y-111002449D01*
X126977879Y-111057918D01*
X127083527Y-111071827D01*
X127124289Y-111084486D01*
X127131265Y-111088041D01*
X127148116Y-111098368D01*
X127165910Y-111111296D01*
X127186832Y-111118094D01*
X127205093Y-111125658D01*
X127215861Y-111131145D01*
X127215865Y-111131146D01*
X127224696Y-111135646D01*
X127234485Y-111137197D01*
X127234493Y-111137199D01*
X127246427Y-111139089D01*
X127265647Y-111143703D01*
X127277133Y-111147435D01*
X127277140Y-111147436D01*
X127286567Y-111150499D01*
X127318477Y-111150499D01*
X127318481Y-111150500D01*
X129531916Y-111150500D01*
X129600037Y-111170502D01*
X129621011Y-111187404D01*
X129762595Y-111328987D01*
X129796620Y-111391299D01*
X129799500Y-111418083D01*
X129799500Y-117374876D01*
X129779498Y-117442997D01*
X129773462Y-117451580D01*
X129719139Y-117522375D01*
X129663670Y-117656291D01*
X129644750Y-117800000D01*
X129663670Y-117943709D01*
X129719139Y-118077625D01*
X129807379Y-118192621D01*
X129922375Y-118280861D01*
X130056291Y-118336330D01*
X130200000Y-118355250D01*
X130343709Y-118336330D01*
X130477625Y-118280861D01*
X130592621Y-118192621D01*
X130680861Y-118077625D01*
X130736330Y-117943709D01*
X130748727Y-117849546D01*
X130777449Y-117784618D01*
X130836715Y-117745527D01*
X130857201Y-117741071D01*
X130893209Y-117736330D01*
X131027125Y-117680861D01*
X131142121Y-117592621D01*
X131230361Y-117477625D01*
X131285830Y-117343709D01*
X131304750Y-117200000D01*
X131285830Y-117056291D01*
X131230361Y-116922375D01*
X131142121Y-116807379D01*
X131137004Y-116803453D01*
X131103379Y-116741875D01*
X131100500Y-116715092D01*
X131100500Y-116500000D01*
X143344750Y-116500000D01*
X143363670Y-116643709D01*
X143419139Y-116777625D01*
X143507379Y-116892621D01*
X143622375Y-116980861D01*
X143756291Y-117036330D01*
X143900000Y-117055250D01*
X144043709Y-117036330D01*
X144177625Y-116980861D01*
X144292621Y-116892621D01*
X144380861Y-116777625D01*
X144436330Y-116643709D01*
X144455250Y-116500000D01*
X144436330Y-116356291D01*
X144380861Y-116222375D01*
X144292621Y-116107379D01*
X144177625Y-116019139D01*
X144043709Y-115963670D01*
X143900000Y-115944750D01*
X143756291Y-115963670D01*
X143622375Y-116019139D01*
X143507379Y-116107379D01*
X143419139Y-116222375D01*
X143363670Y-116356291D01*
X143344750Y-116500000D01*
X131100500Y-116500000D01*
X131100500Y-114257676D01*
X131120502Y-114189555D01*
X131174158Y-114143062D01*
X131244432Y-114132958D01*
X131251798Y-114134469D01*
X131256291Y-114136330D01*
X131400000Y-114155250D01*
X131543709Y-114136330D01*
X131677625Y-114080861D01*
X131723298Y-114045815D01*
X131789516Y-114020215D01*
X131859065Y-114034479D01*
X131876697Y-114045811D01*
X131922375Y-114080861D01*
X132056291Y-114136330D01*
X132200000Y-114155250D01*
X132343709Y-114136330D01*
X132477625Y-114080861D01*
X132523298Y-114045815D01*
X132589516Y-114020215D01*
X132659065Y-114034479D01*
X132676697Y-114045811D01*
X132722375Y-114080861D01*
X132856291Y-114136330D01*
X133000000Y-114155250D01*
X133143709Y-114136330D01*
X133277625Y-114080861D01*
X133323298Y-114045815D01*
X133389516Y-114020215D01*
X133459065Y-114034479D01*
X133476697Y-114045811D01*
X133522375Y-114080861D01*
X133656291Y-114136330D01*
X133800000Y-114155250D01*
X133943709Y-114136330D01*
X134077625Y-114080861D01*
X134192621Y-113992621D01*
X134280861Y-113877625D01*
X134336330Y-113743709D01*
X134355250Y-113600000D01*
X134336330Y-113456291D01*
X134280861Y-113322375D01*
X134245815Y-113276702D01*
X134220215Y-113210484D01*
X134234479Y-113140935D01*
X134245811Y-113123303D01*
X134280861Y-113077625D01*
X134336330Y-112943709D01*
X134355250Y-112800000D01*
X134336330Y-112656291D01*
X134280861Y-112522375D01*
X134245815Y-112476702D01*
X134220215Y-112410484D01*
X134234479Y-112340935D01*
X134245811Y-112323303D01*
X134280861Y-112277625D01*
X134336330Y-112143709D01*
X134355250Y-112000000D01*
X134336330Y-111856291D01*
X134280861Y-111722375D01*
X134245815Y-111676702D01*
X134220215Y-111610484D01*
X134234479Y-111540935D01*
X134245811Y-111523303D01*
X134280861Y-111477625D01*
X134336330Y-111343709D01*
X134355250Y-111200000D01*
X134336330Y-111056291D01*
X134280861Y-110922375D01*
X134192621Y-110807379D01*
X134077625Y-110719139D01*
X133943709Y-110663670D01*
X133800000Y-110644750D01*
X133656291Y-110663670D01*
X133522375Y-110719139D01*
X133476702Y-110754185D01*
X133410484Y-110779785D01*
X133340935Y-110765521D01*
X133323303Y-110754189D01*
X133277625Y-110719139D01*
X133143709Y-110663670D01*
X133000000Y-110644750D01*
X132856291Y-110663670D01*
X132722375Y-110719139D01*
X132676702Y-110754185D01*
X132610484Y-110779785D01*
X132540935Y-110765521D01*
X132523303Y-110754189D01*
X132477625Y-110719139D01*
X132343709Y-110663670D01*
X132200000Y-110644750D01*
X132056291Y-110663670D01*
X131922375Y-110719139D01*
X131876702Y-110754185D01*
X131810484Y-110779785D01*
X131740935Y-110765521D01*
X131723303Y-110754189D01*
X131677625Y-110719139D01*
X131543709Y-110663670D01*
X131400000Y-110644750D01*
X131256291Y-110663670D01*
X131122375Y-110719139D01*
X131076026Y-110754704D01*
X131009809Y-110780304D01*
X130940260Y-110766040D01*
X130910229Y-110743836D01*
X130790006Y-110623613D01*
X130755980Y-110561301D01*
X130761045Y-110490486D01*
X130803592Y-110433650D01*
X130822487Y-110421953D01*
X130883714Y-110391159D01*
X130890498Y-110387747D01*
X131019423Y-110277634D01*
X131118361Y-110139947D01*
X131123403Y-110127405D01*
X131178766Y-109989687D01*
X131178767Y-109989685D01*
X131181601Y-109982634D01*
X131201009Y-109846262D01*
X131204909Y-109818862D01*
X131204909Y-109818859D01*
X131205490Y-109814778D01*
X131205645Y-109800000D01*
X131185276Y-109631680D01*
X131171808Y-109596038D01*
X131166440Y-109525244D01*
X131200198Y-109462787D01*
X131262364Y-109428495D01*
X131289674Y-109425500D01*
X139370694Y-109425500D01*
X139438815Y-109445502D01*
X139485308Y-109499158D01*
X139495412Y-109569432D01*
X139487103Y-109599718D01*
X139463670Y-109656291D01*
X139444750Y-109800000D01*
X139463670Y-109943709D01*
X139519139Y-110077625D01*
X139524165Y-110084175D01*
X139525796Y-110087000D01*
X139542534Y-110155996D01*
X139525796Y-110213000D01*
X139524167Y-110215822D01*
X139519139Y-110222375D01*
X139463670Y-110356291D01*
X139444750Y-110500000D01*
X139463670Y-110643709D01*
X139519139Y-110777625D01*
X139524165Y-110784175D01*
X139525796Y-110787000D01*
X139542534Y-110855996D01*
X139525796Y-110913000D01*
X139524167Y-110915822D01*
X139519139Y-110922375D01*
X139463670Y-111056291D01*
X139444750Y-111200000D01*
X139463670Y-111343709D01*
X139519139Y-111477625D01*
X139524165Y-111484175D01*
X139525796Y-111487000D01*
X139542534Y-111555996D01*
X139525796Y-111613000D01*
X139524165Y-111615825D01*
X139519139Y-111622375D01*
X139463670Y-111756291D01*
X139444750Y-111900000D01*
X139463670Y-112043709D01*
X139519139Y-112177625D01*
X139524165Y-112184175D01*
X139525796Y-112187000D01*
X139542534Y-112255996D01*
X139525796Y-112313000D01*
X139524165Y-112315825D01*
X139519139Y-112322375D01*
X139463670Y-112456291D01*
X139444750Y-112600000D01*
X139463670Y-112743709D01*
X139519139Y-112877625D01*
X139607379Y-112992621D01*
X139722375Y-113080861D01*
X139856291Y-113136330D01*
X140000000Y-113155250D01*
X140143709Y-113136330D01*
X140277625Y-113080861D01*
X140284175Y-113075835D01*
X140287000Y-113074204D01*
X140355996Y-113057466D01*
X140413000Y-113074204D01*
X140415825Y-113075835D01*
X140422375Y-113080861D01*
X140556291Y-113136330D01*
X140700000Y-113155250D01*
X140843709Y-113136330D01*
X140977625Y-113080861D01*
X141023298Y-113045815D01*
X141089516Y-113020215D01*
X141159065Y-113034479D01*
X141176697Y-113045811D01*
X141222375Y-113080861D01*
X141356291Y-113136330D01*
X141500000Y-113155250D01*
X141643709Y-113136330D01*
X141777625Y-113080861D01*
X141784175Y-113075835D01*
X141787000Y-113074204D01*
X141855996Y-113057466D01*
X141913000Y-113074204D01*
X141915825Y-113075835D01*
X141922375Y-113080861D01*
X142056291Y-113136330D01*
X142200000Y-113155250D01*
X142343709Y-113136330D01*
X142477625Y-113080861D01*
X142523298Y-113045815D01*
X142589516Y-113020215D01*
X142659065Y-113034479D01*
X142676697Y-113045811D01*
X142722375Y-113080861D01*
X142856291Y-113136330D01*
X143000000Y-113155250D01*
X143143709Y-113136330D01*
X143277625Y-113080861D01*
X143284175Y-113075835D01*
X143287000Y-113074204D01*
X143355996Y-113057466D01*
X143413000Y-113074204D01*
X143415825Y-113075835D01*
X143422375Y-113080861D01*
X143556291Y-113136330D01*
X143700000Y-113155250D01*
X143843709Y-113136330D01*
X143977625Y-113080861D01*
X143984175Y-113075835D01*
X143987000Y-113074204D01*
X144055996Y-113057466D01*
X144113000Y-113074204D01*
X144115825Y-113075835D01*
X144122375Y-113080861D01*
X144256291Y-113136330D01*
X144400000Y-113155250D01*
X144543709Y-113136330D01*
X144677625Y-113080861D01*
X144684175Y-113075835D01*
X144687000Y-113074204D01*
X144755996Y-113057466D01*
X144813000Y-113074204D01*
X144815825Y-113075835D01*
X144822375Y-113080861D01*
X144956291Y-113136330D01*
X145100000Y-113155250D01*
X145243709Y-113136330D01*
X145377625Y-113080861D01*
X145492621Y-112992621D01*
X145580861Y-112877625D01*
X145636330Y-112743709D01*
X145655250Y-112600000D01*
X145636330Y-112456291D01*
X145580861Y-112322375D01*
X145575835Y-112315825D01*
X145574204Y-112313000D01*
X145557466Y-112244004D01*
X145574204Y-112187000D01*
X145575835Y-112184175D01*
X145580861Y-112177625D01*
X145636330Y-112043709D01*
X145655250Y-111900000D01*
X145636330Y-111756291D01*
X145580861Y-111622375D01*
X145575835Y-111615825D01*
X145574204Y-111613000D01*
X145557466Y-111544004D01*
X145574204Y-111487000D01*
X145575835Y-111484175D01*
X145580861Y-111477625D01*
X145636330Y-111343709D01*
X145655250Y-111200000D01*
X145636330Y-111056291D01*
X145580861Y-110922375D01*
X145575833Y-110915822D01*
X145574204Y-110913000D01*
X145557466Y-110844004D01*
X145574204Y-110787000D01*
X145575835Y-110784175D01*
X145580861Y-110777625D01*
X145636330Y-110643709D01*
X145655250Y-110500000D01*
X145636330Y-110356291D01*
X145580861Y-110222375D01*
X145575833Y-110215822D01*
X145574204Y-110213000D01*
X145557466Y-110144004D01*
X145574204Y-110087000D01*
X145575835Y-110084175D01*
X145580861Y-110077625D01*
X145636330Y-109943709D01*
X145655250Y-109800000D01*
X145636330Y-109656291D01*
X145580861Y-109522375D01*
X145575835Y-109515826D01*
X145572663Y-109510331D01*
X145555924Y-109441336D01*
X145579144Y-109374244D01*
X145624576Y-109335065D01*
X145629498Y-109332557D01*
X145629502Y-109332554D01*
X145638342Y-109328050D01*
X145660905Y-109305487D01*
X145660909Y-109305484D01*
X145682588Y-109283805D01*
X145744900Y-109249779D01*
X145755232Y-109247979D01*
X145843709Y-109236330D01*
X145951783Y-109191565D01*
X146022372Y-109183976D01*
X146048215Y-109191564D01*
X146156291Y-109236330D01*
X146300000Y-109255250D01*
X146443709Y-109236330D01*
X146577625Y-109180861D01*
X146692621Y-109092621D01*
X146780861Y-108977625D01*
X146836330Y-108843709D01*
X146849078Y-108746880D01*
X146870295Y-108698920D01*
X146853104Y-108672171D01*
X146849078Y-108653120D01*
X146837408Y-108564480D01*
X146836330Y-108556291D01*
X146791565Y-108448217D01*
X146783976Y-108377628D01*
X146791565Y-108351782D01*
X146793749Y-108346511D01*
X146836330Y-108243709D01*
X146849078Y-108146880D01*
X146870295Y-108098920D01*
X146853104Y-108072171D01*
X146849078Y-108053120D01*
X146845584Y-108026578D01*
X146836330Y-107956291D01*
X146780861Y-107822375D01*
X146692621Y-107707379D01*
X146577625Y-107619139D01*
X146443709Y-107563670D01*
X146300000Y-107544750D01*
X146156291Y-107563670D01*
X146048217Y-107608435D01*
X145977628Y-107616024D01*
X145951785Y-107608436D01*
X145843709Y-107563670D01*
X145700000Y-107544750D01*
X145556291Y-107563670D01*
X145422375Y-107619139D01*
X145307379Y-107707379D01*
X145219139Y-107822375D01*
X145163670Y-107956291D01*
X145144750Y-108100000D01*
X145163670Y-108243709D01*
X145206252Y-108346511D01*
X145208435Y-108351782D01*
X145216024Y-108422372D01*
X145208437Y-108448213D01*
X145177990Y-108521719D01*
X145133441Y-108576999D01*
X145061581Y-108599500D01*
X140676435Y-108599500D01*
X140639844Y-108593704D01*
X140633126Y-108590281D01*
X140623335Y-108588730D01*
X140623334Y-108588730D01*
X140608120Y-108586320D01*
X140533488Y-108574500D01*
X128034508Y-108574500D01*
X127966387Y-108554498D01*
X127919894Y-108500842D01*
X127909586Y-108432054D01*
X127921672Y-108340250D01*
X127921672Y-108340249D01*
X127922750Y-108332061D01*
X127903830Y-108188352D01*
X127848361Y-108054436D01*
X127760121Y-107939440D01*
X127645125Y-107851200D01*
X127511209Y-107795731D01*
X127367500Y-107776811D01*
X127223791Y-107795731D01*
X127089875Y-107851200D01*
X127081140Y-107857903D01*
X127019080Y-107905523D01*
X126952860Y-107931124D01*
X126942376Y-107931561D01*
X123552412Y-107931561D01*
X123484291Y-107911559D01*
X123437798Y-107857903D01*
X123427694Y-107787629D01*
X123457188Y-107723049D01*
X123475703Y-107705602D01*
X123492621Y-107692621D01*
X123580861Y-107577625D01*
X123636330Y-107443709D01*
X123655250Y-107300000D01*
X123636330Y-107156291D01*
X123580861Y-107022375D01*
X123492621Y-106907379D01*
X123377625Y-106819139D01*
X123243709Y-106763670D01*
X123146880Y-106750922D01*
X123098920Y-106729705D01*
X123072171Y-106746896D01*
X123053120Y-106750922D01*
X122956291Y-106763670D01*
X122822375Y-106819139D01*
X122764418Y-106863611D01*
X122751580Y-106873462D01*
X122685360Y-106899063D01*
X122674876Y-106899500D01*
X119836567Y-106899500D01*
X119827136Y-106902564D01*
X119827132Y-106902565D01*
X119815647Y-106906297D01*
X119796422Y-106910913D01*
X119784488Y-106912803D01*
X119784487Y-106912803D01*
X119774696Y-106914354D01*
X119765863Y-106918855D01*
X119765859Y-106918856D01*
X119755094Y-106924341D01*
X119736834Y-106931905D01*
X119715910Y-106938704D01*
X119707888Y-106944533D01*
X119707885Y-106944534D01*
X119698116Y-106951632D01*
X119681259Y-106961962D01*
X119670493Y-106967448D01*
X119670492Y-106967449D01*
X119661658Y-106971950D01*
X119639091Y-106994517D01*
X117715095Y-108918512D01*
X117652783Y-108952538D01*
X117581968Y-108947473D01*
X117525132Y-108904926D01*
X117500321Y-108838406D01*
X117500000Y-108829417D01*
X117500000Y-108346511D01*
X117520002Y-108278390D01*
X117573658Y-108231897D01*
X117588515Y-108226216D01*
X117813624Y-108156070D01*
X117817260Y-108154937D01*
X117820730Y-108153375D01*
X117820736Y-108153373D01*
X117944155Y-108097826D01*
X118071050Y-108040715D01*
X118074307Y-108038746D01*
X118074311Y-108038744D01*
X118305968Y-107898702D01*
X118309222Y-107896735D01*
X118358788Y-107857903D01*
X118525299Y-107727449D01*
X118525302Y-107727447D01*
X118528302Y-107725096D01*
X118725096Y-107528302D01*
X118791371Y-107443709D01*
X118894392Y-107312213D01*
X118894394Y-107312210D01*
X118896735Y-107309222D01*
X119040715Y-107071050D01*
X119111430Y-106913929D01*
X119153373Y-106820736D01*
X119153375Y-106820730D01*
X119154937Y-106817260D01*
X119226216Y-106588515D01*
X119265578Y-106529429D01*
X119330636Y-106501004D01*
X119346511Y-106500000D01*
X123036673Y-106500000D01*
X123104707Y-106519976D01*
G37*
%TD.AperFunction*%
%TA.AperFunction,Conductor*%
G36*
X128875038Y-109845502D02*
G01*
X128896012Y-109862405D01*
X129168012Y-110134405D01*
X129202038Y-110196717D01*
X129196973Y-110267532D01*
X129154426Y-110324368D01*
X129087906Y-110349179D01*
X129078917Y-110349500D01*
X127730354Y-110349500D01*
X127662233Y-110329498D01*
X127613945Y-110271718D01*
X127613843Y-110271470D01*
X127602449Y-110243963D01*
X127587845Y-110224930D01*
X127519235Y-110135517D01*
X127514209Y-110128967D01*
X127413203Y-110051462D01*
X127371336Y-109994124D01*
X127367114Y-109923253D01*
X127401878Y-109861350D01*
X127464591Y-109828069D01*
X127489907Y-109825500D01*
X128806917Y-109825500D01*
X128875038Y-109845502D01*
G37*
%TD.AperFunction*%
%TD*%
%TA.AperFunction,Conductor*%
%TO.N,Net-(F2-Pad1)*%
G36*
X122537851Y-121720002D02*
G01*
X122584344Y-121773658D01*
X122595660Y-121830198D01*
X122500000Y-124700000D01*
X122509727Y-124715806D01*
X123281309Y-125969627D01*
X123300000Y-126035663D01*
X123300000Y-129974000D01*
X123279998Y-130042121D01*
X123226342Y-130088614D01*
X123174000Y-130100000D01*
X120585306Y-130100000D01*
X120517185Y-130079998D01*
X120468318Y-130020795D01*
X119709012Y-128122530D01*
X119700000Y-128075735D01*
X119700000Y-121826000D01*
X119720002Y-121757879D01*
X119773658Y-121711386D01*
X119826000Y-121700000D01*
X122469730Y-121700000D01*
X122537851Y-121720002D01*
G37*
%TD.AperFunction*%
%TD*%
%TA.AperFunction,Conductor*%
%TO.N,Net-(F1-Pad1)*%
G36*
X149742121Y-108120002D02*
G01*
X149788614Y-108173658D01*
X149800000Y-108226000D01*
X149800000Y-122335869D01*
X149779998Y-122403990D01*
X149768441Y-122419276D01*
X149726114Y-122467203D01*
X149677377Y-122522388D01*
X149616447Y-122652163D01*
X149611684Y-122682754D01*
X149601125Y-122750574D01*
X149594391Y-122793823D01*
X149612980Y-122935979D01*
X149616597Y-122944199D01*
X149663402Y-123050572D01*
X149672530Y-123120979D01*
X149662128Y-123154867D01*
X149616447Y-123252163D01*
X149615066Y-123261035D01*
X149598536Y-123367203D01*
X149594391Y-123393823D01*
X149612980Y-123535979D01*
X149670720Y-123667203D01*
X149758540Y-123771678D01*
X149758542Y-123771681D01*
X149762970Y-123776948D01*
X149762210Y-123777587D01*
X149795434Y-123831100D01*
X149800000Y-123864712D01*
X149800000Y-126974000D01*
X149779998Y-127042121D01*
X149726342Y-127088614D01*
X149674000Y-127100000D01*
X144876118Y-127100000D01*
X144874739Y-127099898D01*
X144874739Y-127099907D01*
X144738649Y-127099075D01*
X144738643Y-127099075D01*
X144731376Y-127099031D01*
X144728894Y-127099740D01*
X144725088Y-127100000D01*
X140876118Y-127100000D01*
X140874739Y-127099898D01*
X140874739Y-127099907D01*
X140738649Y-127099075D01*
X140738643Y-127099075D01*
X140731376Y-127099031D01*
X140728894Y-127099740D01*
X140725088Y-127100000D01*
X138259980Y-127100000D01*
X138191859Y-127079998D01*
X138164527Y-127056248D01*
X138138260Y-127025763D01*
X138138257Y-127025760D01*
X138132400Y-127018963D01*
X138012095Y-126940985D01*
X137874739Y-126899907D01*
X137865763Y-126899852D01*
X137865762Y-126899852D01*
X137805555Y-126899484D01*
X137731376Y-126899031D01*
X137593529Y-126938428D01*
X137472280Y-127014930D01*
X137435790Y-127056248D01*
X137434766Y-127057407D01*
X137374680Y-127095226D01*
X137340324Y-127100000D01*
X134376118Y-127100000D01*
X134374739Y-127099898D01*
X134374739Y-127099907D01*
X134238649Y-127099075D01*
X134238643Y-127099075D01*
X134231376Y-127099031D01*
X134228894Y-127099740D01*
X134225088Y-127100000D01*
X131340406Y-127100000D01*
X131271875Y-127079733D01*
X131212095Y-127040985D01*
X131074739Y-126999907D01*
X131065763Y-126999852D01*
X131065762Y-126999852D01*
X131005555Y-126999484D01*
X130931376Y-126999031D01*
X130793529Y-127038428D01*
X130738478Y-127073162D01*
X130726750Y-127080562D01*
X130659515Y-127100000D01*
X130500000Y-127100000D01*
X130499596Y-127112514D01*
X130499596Y-127112515D01*
X130411615Y-129839934D01*
X130389428Y-129907375D01*
X130385252Y-129912717D01*
X130383319Y-129915660D01*
X130377377Y-129922388D01*
X130316447Y-130052163D01*
X130315066Y-130061035D01*
X130310029Y-130093384D01*
X130279785Y-130157617D01*
X130219616Y-130195302D01*
X130185529Y-130200000D01*
X127814888Y-130200000D01*
X127746767Y-130179998D01*
X127700274Y-130126342D01*
X127690161Y-130091864D01*
X127686595Y-130066967D01*
X127685323Y-130058082D01*
X127625984Y-129927572D01*
X127532400Y-129818963D01*
X127534789Y-129816904D01*
X127504991Y-129770212D01*
X127500000Y-129735099D01*
X127500000Y-124826000D01*
X127520002Y-124757879D01*
X127573658Y-124711386D01*
X127626000Y-124700000D01*
X142639601Y-124700000D01*
X142707722Y-124720002D01*
X142736052Y-124744925D01*
X142762970Y-124776948D01*
X142882313Y-124856390D01*
X143019157Y-124899142D01*
X143028129Y-124899306D01*
X143028132Y-124899307D01*
X143093463Y-124900504D01*
X143162499Y-124901770D01*
X143171533Y-124899307D01*
X143292158Y-124866421D01*
X143292160Y-124866420D01*
X143300817Y-124864060D01*
X143422991Y-124789045D01*
X143466076Y-124741445D01*
X143526620Y-124704364D01*
X143559492Y-124700000D01*
X147800000Y-124700000D01*
X147800000Y-108226000D01*
X147820002Y-108157879D01*
X147873658Y-108111386D01*
X147926000Y-108100000D01*
X149674000Y-108100000D01*
X149742121Y-108120002D01*
G37*
%TD.AperFunction*%
%TD*%
M02*
