%TF.GenerationSoftware,KiCad,Pcbnew,6.0.11+dfsg-1~bpo11+1*%
%TF.CreationDate,2023-09-12T21:00:17-05:00*%
%TF.ProjectId,Gauntl33tVoltageRegulator,4761756e-746c-4333-9374-566f6c746167,rev?*%
%TF.SameCoordinates,Original*%
%TF.FileFunction,Copper,L1,Top*%
%TF.FilePolarity,Positive*%
%FSLAX46Y46*%
G04 Gerber Fmt 4.6, Leading zero omitted, Abs format (unit mm)*
G04 Created by KiCad (PCBNEW 6.0.11+dfsg-1~bpo11+1) date 2023-09-12 21:00:17*
%MOMM*%
%LPD*%
G01*
G04 APERTURE LIST*
G04 Aperture macros list*
%AMRoundRect*
0 Rectangle with rounded corners*
0 $1 Rounding radius*
0 $2 $3 $4 $5 $6 $7 $8 $9 X,Y pos of 4 corners*
0 Add a 4 corners polygon primitive as box body*
4,1,4,$2,$3,$4,$5,$6,$7,$8,$9,$2,$3,0*
0 Add four circle primitives for the rounded corners*
1,1,$1+$1,$2,$3*
1,1,$1+$1,$4,$5*
1,1,$1+$1,$6,$7*
1,1,$1+$1,$8,$9*
0 Add four rect primitives between the rounded corners*
20,1,$1+$1,$2,$3,$4,$5,0*
20,1,$1+$1,$4,$5,$6,$7,0*
20,1,$1+$1,$6,$7,$8,$9,0*
20,1,$1+$1,$8,$9,$2,$3,0*%
%AMFreePoly0*
4,1,22,0.500000,-0.750000,0.000000,-0.750000,0.000000,-0.745033,-0.079941,-0.743568,-0.215256,-0.701293,-0.333266,-0.622738,-0.424486,-0.514219,-0.481581,-0.384460,-0.499164,-0.250000,-0.500000,-0.250000,-0.500000,0.250000,-0.499164,0.250000,-0.499963,0.256109,-0.478152,0.396186,-0.417904,0.524511,-0.324060,0.630769,-0.204165,0.706417,-0.067858,0.745374,0.000000,0.744959,0.000000,0.750000,
0.500000,0.750000,0.500000,-0.750000,0.500000,-0.750000,$1*%
%AMFreePoly1*
4,1,20,0.000000,0.744959,0.073905,0.744508,0.209726,0.703889,0.328688,0.626782,0.421226,0.519385,0.479903,0.390333,0.500000,0.250000,0.500000,-0.250000,0.499851,-0.262216,0.476331,-0.402017,0.414519,-0.529596,0.319384,-0.634700,0.198574,-0.708877,0.061801,-0.746166,0.000000,-0.745033,0.000000,-0.750000,-0.500000,-0.750000,-0.500000,0.750000,0.000000,0.750000,0.000000,0.744959,
0.000000,0.744959,$1*%
G04 Aperture macros list end*
%TA.AperFunction,SMDPad,CuDef*%
%ADD10FreePoly0,0.000000*%
%TD*%
%TA.AperFunction,SMDPad,CuDef*%
%ADD11FreePoly1,0.000000*%
%TD*%
%TA.AperFunction,SMDPad,CuDef*%
%ADD12FreePoly0,270.000000*%
%TD*%
%TA.AperFunction,SMDPad,CuDef*%
%ADD13FreePoly1,270.000000*%
%TD*%
%TA.AperFunction,SMDPad,CuDef*%
%ADD14FreePoly0,90.000000*%
%TD*%
%TA.AperFunction,SMDPad,CuDef*%
%ADD15FreePoly1,90.000000*%
%TD*%
%TA.AperFunction,SMDPad,CuDef*%
%ADD16R,2.700000X3.600000*%
%TD*%
%TA.AperFunction,SMDPad,CuDef*%
%ADD17RoundRect,0.250000X-0.412500X-1.100000X0.412500X-1.100000X0.412500X1.100000X-0.412500X1.100000X0*%
%TD*%
%TA.AperFunction,SMDPad,CuDef*%
%ADD18RoundRect,0.250000X0.412500X1.100000X-0.412500X1.100000X-0.412500X-1.100000X0.412500X-1.100000X0*%
%TD*%
%TA.AperFunction,SMDPad,CuDef*%
%ADD19RoundRect,0.160000X-0.197500X-0.160000X0.197500X-0.160000X0.197500X0.160000X-0.197500X0.160000X0*%
%TD*%
%TA.AperFunction,SMDPad,CuDef*%
%ADD20RoundRect,0.250001X0.624999X-0.462499X0.624999X0.462499X-0.624999X0.462499X-0.624999X-0.462499X0*%
%TD*%
%TA.AperFunction,SMDPad,CuDef*%
%ADD21R,0.300000X0.550000*%
%TD*%
%TA.AperFunction,SMDPad,CuDef*%
%ADD22R,0.450000X0.300000*%
%TD*%
%TA.AperFunction,SMDPad,CuDef*%
%ADD23R,0.730000X0.300000*%
%TD*%
%TA.AperFunction,SMDPad,CuDef*%
%ADD24R,0.300000X0.725000*%
%TD*%
%TA.AperFunction,SMDPad,CuDef*%
%ADD25R,0.725000X0.300000*%
%TD*%
%TA.AperFunction,SMDPad,CuDef*%
%ADD26R,1.050000X1.575000*%
%TD*%
%TA.AperFunction,SMDPad,CuDef*%
%ADD27R,1.050000X1.150000*%
%TD*%
%TA.AperFunction,SMDPad,CuDef*%
%ADD28R,1.200000X2.175000*%
%TD*%
%TA.AperFunction,SMDPad,CuDef*%
%ADD29R,0.380000X0.580000*%
%TD*%
%TA.AperFunction,SMDPad,CuDef*%
%ADD30R,0.445000X0.650000*%
%TD*%
%TA.AperFunction,SMDPad,CuDef*%
%ADD31R,0.275000X2.350000*%
%TD*%
%TA.AperFunction,SMDPad,CuDef*%
%ADD32RoundRect,0.237500X0.300000X0.237500X-0.300000X0.237500X-0.300000X-0.237500X0.300000X-0.237500X0*%
%TD*%
%TA.AperFunction,SMDPad,CuDef*%
%ADD33RoundRect,0.160000X0.160000X-0.197500X0.160000X0.197500X-0.160000X0.197500X-0.160000X-0.197500X0*%
%TD*%
%TA.AperFunction,SMDPad,CuDef*%
%ADD34RoundRect,0.160000X0.197500X0.160000X-0.197500X0.160000X-0.197500X-0.160000X0.197500X-0.160000X0*%
%TD*%
%TA.AperFunction,SMDPad,CuDef*%
%ADD35R,2.200000X1.200000*%
%TD*%
%TA.AperFunction,SMDPad,CuDef*%
%ADD36R,6.400000X5.800000*%
%TD*%
%TA.AperFunction,ComponentPad*%
%ADD37R,2.400000X2.400000*%
%TD*%
%TA.AperFunction,ComponentPad*%
%ADD38C,2.400000*%
%TD*%
%TA.AperFunction,SMDPad,CuDef*%
%ADD39R,1.200000X1.200000*%
%TD*%
%TA.AperFunction,SMDPad,CuDef*%
%ADD40R,1.500000X1.600000*%
%TD*%
%TA.AperFunction,SMDPad,CuDef*%
%ADD41RoundRect,0.160000X-0.160000X0.197500X-0.160000X-0.197500X0.160000X-0.197500X0.160000X0.197500X0*%
%TD*%
%TA.AperFunction,SMDPad,CuDef*%
%ADD42RoundRect,0.155000X-0.212500X-0.155000X0.212500X-0.155000X0.212500X0.155000X-0.212500X0.155000X0*%
%TD*%
%TA.AperFunction,SMDPad,CuDef*%
%ADD43RoundRect,0.100000X-0.217500X-0.100000X0.217500X-0.100000X0.217500X0.100000X-0.217500X0.100000X0*%
%TD*%
%TA.AperFunction,SMDPad,CuDef*%
%ADD44RoundRect,0.250000X-0.337500X-0.475000X0.337500X-0.475000X0.337500X0.475000X-0.337500X0.475000X0*%
%TD*%
%TA.AperFunction,SMDPad,CuDef*%
%ADD45RoundRect,0.250000X-0.475000X0.337500X-0.475000X-0.337500X0.475000X-0.337500X0.475000X0.337500X0*%
%TD*%
%TA.AperFunction,SMDPad,CuDef*%
%ADD46RoundRect,0.250001X0.462499X0.624999X-0.462499X0.624999X-0.462499X-0.624999X0.462499X-0.624999X0*%
%TD*%
%TA.AperFunction,SMDPad,CuDef*%
%ADD47R,1.070000X1.780000*%
%TD*%
%TA.AperFunction,SMDPad,CuDef*%
%ADD48RoundRect,0.100000X-0.100000X0.217500X-0.100000X-0.217500X0.100000X-0.217500X0.100000X0.217500X0*%
%TD*%
%TA.AperFunction,SMDPad,CuDef*%
%ADD49RoundRect,0.155000X0.155000X-0.212500X0.155000X0.212500X-0.155000X0.212500X-0.155000X-0.212500X0*%
%TD*%
%TA.AperFunction,ViaPad*%
%ADD50C,0.500000*%
%TD*%
%TA.AperFunction,ViaPad*%
%ADD51C,0.650000*%
%TD*%
%TA.AperFunction,ViaPad*%
%ADD52C,0.800000*%
%TD*%
%TA.AperFunction,ViaPad*%
%ADD53C,0.400000*%
%TD*%
%TA.AperFunction,Conductor*%
%ADD54C,0.400000*%
%TD*%
%TA.AperFunction,Conductor*%
%ADD55C,0.200000*%
%TD*%
%TA.AperFunction,Conductor*%
%ADD56C,0.250000*%
%TD*%
G04 APERTURE END LIST*
D10*
%TO.P,JP4,1,A*%
%TO.N,/+20V*%
X143950000Y-116500000D03*
D11*
%TO.P,JP4,2,B*%
%TO.N,Net-(C8-Pad1)*%
X145250000Y-116500000D03*
%TD*%
D12*
%TO.P,JP3,1,A*%
%TO.N,Net-(JP3-Pad1)*%
X148800000Y-115150000D03*
D13*
%TO.P,JP3,2,B*%
%TO.N,Net-(C8-Pad1)*%
X148800000Y-116450000D03*
%TD*%
D12*
%TO.P,JP2,1,A*%
%TO.N,+5VP*%
X118900000Y-118500000D03*
D13*
%TO.P,JP2,2,B*%
%TO.N,/5V*%
X118900000Y-119800000D03*
%TD*%
D14*
%TO.P,JP1,1,A*%
%TO.N,Net-(200K1-Pad3)*%
X119200000Y-115650000D03*
D15*
%TO.P,JP1,2,B*%
%TO.N,Net-(200K1-Pad1)*%
X119200000Y-114350000D03*
%TD*%
D16*
%TO.P,L1,1,1*%
%TO.N,Net-(IC1-Pad5)*%
X132450000Y-112260000D03*
%TO.P,L1,2,2*%
%TO.N,/Vreg*%
X140750000Y-112260000D03*
%TD*%
D17*
%TO.P,C1,1*%
%TO.N,/+20V*%
X125337500Y-119300000D03*
%TO.P,C1,2*%
%TO.N,GND*%
X128462500Y-119300000D03*
%TD*%
D18*
%TO.P,C11,1*%
%TO.N,/5V*%
X134162500Y-123000000D03*
%TO.P,C11,2*%
%TO.N,GND*%
X131037500Y-123000000D03*
%TD*%
D19*
%TO.P,R7,1*%
%TO.N,/PGOOD*%
X130402500Y-118600000D03*
%TO.P,R7,2*%
%TO.N,Net-(J1-Pad5)*%
X131597500Y-118600000D03*
%TD*%
D20*
%TO.P,F2,1*%
%TO.N,Net-(F2-Pad1)*%
X121600000Y-122587500D03*
%TO.P,F2,2*%
%TO.N,/+20V*%
X121600000Y-119612500D03*
%TD*%
D21*
%TO.P,IC1,1,VIN_1*%
%TO.N,/+20V*%
X126140000Y-115536000D03*
%TO.P,IC1,2,VIN_2*%
X126590000Y-115536000D03*
%TO.P,IC1,3,PGND_1*%
%TO.N,GND*%
X127490000Y-115535000D03*
%TO.P,IC1,4,PGND_2*%
X127940000Y-115535000D03*
D22*
%TO.P,IC1,5,SW_1*%
%TO.N,Net-(IC1-Pad5)*%
X129040000Y-114984000D03*
%TO.P,IC1,6,SW_2*%
X129040000Y-114534000D03*
%TO.P,IC1,7,SW_3*%
X129040000Y-114084000D03*
%TO.P,IC1,8,SW_4*%
X129040000Y-113384000D03*
%TO.P,IC1,9,SW_5*%
X129040000Y-112934000D03*
D23*
%TO.P,IC1,10,GL_1*%
%TO.N,unconnected-(IC1-Pad10)*%
X128900000Y-112484000D03*
D24*
%TO.P,IC1,11,GL_2*%
%TO.N,unconnected-(IC1-Pad11)*%
X128389000Y-111572000D03*
%TO.P,IC1,12,VDRV*%
%TO.N,+5VP*%
X127939000Y-111572000D03*
%TO.P,IC1,13,PGND_3*%
%TO.N,GND*%
X127489000Y-111572000D03*
%TO.P,IC1,14,PGOOD*%
%TO.N,/PGOOD*%
X127039000Y-111572000D03*
%TO.P,IC1,15,VDD*%
%TO.N,+5VP*%
X126589000Y-111572000D03*
%TO.P,IC1,16,AGND_1*%
%TO.N,GND*%
X126139000Y-111572000D03*
%TO.P,IC1,17,FB*%
%TO.N,Net-(200K1-Pad3)*%
X125689000Y-111572000D03*
D25*
%TO.P,IC1,18,VOUT*%
%TO.N,/Vreg*%
X125027000Y-112035000D03*
%TO.P,IC1,19,EN*%
%TO.N,Net-(IC1-Pad19)*%
X125027000Y-112485000D03*
%TO.P,IC1,20,MODE2*%
%TO.N,Net-(IC1-Pad20)*%
X125027000Y-112935000D03*
%TO.P,IC1,21,MODE1*%
%TO.N,Net-(IC1-Pad21)*%
X125027000Y-113385000D03*
%TO.P,IC1,22,VIN_3*%
%TO.N,/+20V*%
X125027000Y-114085000D03*
%TO.P,IC1,23,BOOT*%
%TO.N,Net-(C2-Pad2)*%
X125027000Y-114535000D03*
%TO.P,IC1,24,PHASE*%
%TO.N,Net-(IC1-Pad24)*%
X125027000Y-114985000D03*
D26*
%TO.P,IC1,25,AGND_2*%
%TO.N,GND*%
X126215000Y-113023000D03*
D27*
%TO.P,IC1,26,VIN_4*%
%TO.N,/+20V*%
X126215000Y-114686000D03*
D28*
%TO.P,IC1,27,PGND_4*%
%TO.N,GND*%
X127640000Y-114172000D03*
D29*
%TO.P,IC1,28,GL_3*%
%TO.N,unconnected-(IC1-Pad28)*%
X127979000Y-112524000D03*
D30*
%TO.P,IC1,29,PGND_5*%
%TO.N,GND*%
X127262000Y-112760000D03*
D31*
%TO.P,IC1,30,SW_6*%
%TO.N,/SW*%
X128678000Y-113959000D03*
%TD*%
D32*
%TO.P,C0,1*%
%TO.N,+5VP*%
X129862500Y-109860000D03*
%TO.P,C0,2*%
%TO.N,GND*%
X128137500Y-109860000D03*
%TD*%
D33*
%TO.P,R3,1*%
%TO.N,Net-(IC1-Pad20)*%
X121175000Y-112637500D03*
%TO.P,R3,2*%
%TO.N,+5VP*%
X121175000Y-111442500D03*
%TD*%
D34*
%TO.P,R1,1*%
%TO.N,Net-(IC1-Pad24)*%
X123497500Y-116000000D03*
%TO.P,R1,2*%
%TO.N,Net-(C2-Pad1)*%
X122302500Y-116000000D03*
%TD*%
D35*
%TO.P,U1,1,IN*%
%TO.N,Net-(C8-Pad1)*%
X141575000Y-118945000D03*
D36*
%TO.P,U1,2,GND*%
%TO.N,GND*%
X147875000Y-121225000D03*
D35*
X141575000Y-121225000D03*
%TO.P,U1,3,OUT*%
%TO.N,/5V*%
X141575000Y-123505000D03*
%TD*%
D37*
%TO.P,J1,1,Pin_1*%
%TO.N,Net-(F2-Pad1)*%
X122050000Y-128900000D03*
D38*
%TO.P,J1,2,Pin_2*%
%TO.N,GND*%
X125550000Y-128900000D03*
%TO.P,J1,3,Pin_3*%
%TO.N,Net-(JP3-Pad1)*%
X129050000Y-128900000D03*
%TO.P,J1,4,Pin_4*%
%TO.N,GND*%
X132550000Y-128900000D03*
%TO.P,J1,5,Pin_5*%
%TO.N,Net-(J1-Pad5)*%
X136050000Y-128900000D03*
%TO.P,J1,6,Pin_6*%
%TO.N,GND*%
X139550000Y-128900000D03*
%TO.P,J1,7,Pin_7*%
%TO.N,/5V*%
X143050000Y-128900000D03*
%TO.P,J1,8,Pin_8*%
%TO.N,GND*%
X146550000Y-128900000D03*
%TD*%
D17*
%TO.P,C3,1*%
%TO.N,/+20V*%
X125337500Y-122800000D03*
%TO.P,C3,2*%
%TO.N,GND*%
X128462500Y-122800000D03*
%TD*%
D39*
%TO.P,200K1,1,1*%
%TO.N,Net-(200K1-Pad1)*%
X124400000Y-109900000D03*
D40*
%TO.P,200K1,2,2*%
X121150000Y-108900000D03*
D39*
%TO.P,200K1,3,3*%
%TO.N,Net-(200K1-Pad3)*%
X124400000Y-107900000D03*
%TD*%
D18*
%TO.P,C8,1*%
%TO.N,Net-(C8-Pad1)*%
X136662500Y-119500000D03*
%TO.P,C8,2*%
%TO.N,GND*%
X133537500Y-119500000D03*
%TD*%
D34*
%TO.P,R2,1*%
%TO.N,/PGOOD*%
X128562500Y-108332061D03*
%TO.P,R2,2*%
%TO.N,+5VP*%
X127367500Y-108332061D03*
%TD*%
D41*
%TO.P,R4,1*%
%TO.N,Net-(IC1-Pad21)*%
X121185000Y-113805000D03*
%TO.P,R4,2*%
%TO.N,+5VP*%
X121185000Y-115000000D03*
%TD*%
D42*
%TO.P,C2,2*%
%TO.N,Net-(C2-Pad2)*%
X123467500Y-114800000D03*
%TO.P,C2,1*%
%TO.N,Net-(C2-Pad1)*%
X122332500Y-114800000D03*
%TD*%
D43*
%TO.P,C4,1*%
%TO.N,/+20V*%
X126692500Y-116900000D03*
%TO.P,C4,2*%
%TO.N,GND*%
X127507500Y-116900000D03*
%TD*%
D44*
%TO.P,C6,1*%
%TO.N,/Vreg*%
X143962500Y-111300000D03*
%TO.P,C6,2*%
%TO.N,GND*%
X146037500Y-111300000D03*
%TD*%
D45*
%TO.P,C9,1*%
%TO.N,Net-(C8-Pad1)*%
X138900000Y-118862500D03*
%TO.P,C9,2*%
%TO.N,GND*%
X138900000Y-120937500D03*
%TD*%
D46*
%TO.P,F1,1*%
%TO.N,Net-(JP3-Pad1)*%
X146987500Y-109000000D03*
%TO.P,F1,2*%
%TO.N,/Vreg*%
X144012500Y-109000000D03*
%TD*%
D34*
%TO.P,R9,1*%
%TO.N,Net-(IC1-Pad19)*%
X123722500Y-112280000D03*
%TO.P,R9,2*%
%TO.N,+5VP*%
X122527500Y-112280000D03*
%TD*%
D47*
%TO.P,C5,1*%
%TO.N,GND*%
X146460000Y-113900000D03*
%TO.P,C5,2*%
%TO.N,/Vreg*%
X143740000Y-113900000D03*
%TD*%
D48*
%TO.P,C7,1*%
%TO.N,GND*%
X126385000Y-109282500D03*
%TO.P,C7,2*%
%TO.N,+5VP*%
X126385000Y-110097500D03*
%TD*%
D49*
%TO.P,R5,2*%
%TO.N,Net-(200K1-Pad1)*%
X119400000Y-110532500D03*
%TO.P,R5,1*%
%TO.N,/Vreg*%
X119400000Y-111667500D03*
%TD*%
%TO.P,R6,1*%
%TO.N,GND*%
X126000000Y-108267500D03*
%TO.P,R6,2*%
%TO.N,Net-(200K1-Pad3)*%
X126000000Y-107132500D03*
%TD*%
D45*
%TO.P,C10,1*%
%TO.N,/5V*%
X136600000Y-122162500D03*
%TO.P,C10,2*%
%TO.N,GND*%
X136600000Y-124237500D03*
%TD*%
D50*
%TO.N,/5V*%
X118900000Y-119900000D03*
%TO.N,+5VP*%
X118900000Y-118300000D03*
%TO.N,Net-(JP3-Pad1)*%
X149400000Y-109800000D03*
X148800000Y-109200000D03*
X148800000Y-109800000D03*
X148200000Y-109800000D03*
X148200000Y-109200000D03*
X148200000Y-108600000D03*
%TO.N,/+20V*%
X143900000Y-116500000D03*
D51*
%TO.N,/5V*%
X134200000Y-124000000D03*
%TO.N,/+20V*%
X123800000Y-124100000D03*
D50*
%TO.N,Net-(200K1-Pad3)*%
X123100000Y-107300000D03*
%TO.N,Net-(200K1-Pad1)*%
X118500000Y-110500000D03*
%TO.N,Net-(200K1-Pad3)*%
X119200000Y-115800000D03*
%TO.N,Net-(200K1-Pad1)*%
X119200000Y-114100000D03*
%TO.N,/+20V*%
X126500000Y-114400000D03*
D51*
%TO.N,Net-(C8-Pad1)*%
X135300000Y-120100000D03*
D50*
%TO.N,/+20V*%
X125265498Y-115734502D03*
X126500000Y-115000000D03*
X125900000Y-115000000D03*
X125900000Y-114400000D03*
X124100000Y-114100000D03*
%TO.N,GND*%
X134700000Y-118500000D03*
X150100000Y-122800000D03*
X126500000Y-112500000D03*
X132400000Y-118900000D03*
X128000000Y-122400000D03*
X146000000Y-112100000D03*
X128700000Y-121700000D03*
X150100000Y-123400000D03*
X145000000Y-121600000D03*
X128000000Y-118600000D03*
X128700000Y-120000000D03*
X146700000Y-114500000D03*
X146600000Y-110900000D03*
X127262000Y-112760000D03*
X150700000Y-121600000D03*
X150700000Y-122800000D03*
X118800000Y-109300000D03*
X127900000Y-113400000D03*
X146000000Y-114500000D03*
X145400000Y-113300000D03*
X126500000Y-113500000D03*
X145600000Y-121000000D03*
X145000000Y-122200000D03*
X145000000Y-119800000D03*
X129400000Y-122400000D03*
X140100000Y-122000000D03*
X129400000Y-120700000D03*
X129400000Y-120000000D03*
X125900000Y-112500000D03*
X132400000Y-119600000D03*
X139700000Y-124400000D03*
X127900000Y-114600000D03*
X145400000Y-114500000D03*
X146000000Y-113900000D03*
X150700000Y-123400000D03*
X127900000Y-115200000D03*
X138200000Y-122100000D03*
X128600000Y-110200000D03*
X125900000Y-113500000D03*
X146000000Y-110900000D03*
X128700000Y-122400000D03*
X145600000Y-122200000D03*
X129400000Y-119300000D03*
X129400000Y-121700000D03*
X145600000Y-120400000D03*
X150700000Y-118600000D03*
X120100000Y-113300000D03*
X145000000Y-121000000D03*
X122300000Y-110600000D03*
X137000000Y-124500000D03*
X134700000Y-119200000D03*
X145600000Y-119800000D03*
X128000000Y-121700000D03*
X125900000Y-113000000D03*
X128700000Y-120700000D03*
X145000000Y-119200000D03*
X127900000Y-114000000D03*
X128000000Y-120000000D03*
X140100000Y-120200000D03*
X129400000Y-118600000D03*
X139000000Y-122100000D03*
X146600000Y-111500000D03*
X146600000Y-113900000D03*
X128000000Y-120700000D03*
X136000000Y-123200000D03*
X146000000Y-113300000D03*
X145000000Y-118600000D03*
X150700000Y-119200000D03*
X136300000Y-124000000D03*
X128000000Y-123100000D03*
X146600000Y-112100000D03*
X143100000Y-124400000D03*
X128700000Y-118600000D03*
X132100000Y-122300000D03*
X124200000Y-106800000D03*
X132100000Y-123000000D03*
X146000000Y-111500000D03*
X127300000Y-114000000D03*
X146600000Y-113300000D03*
X145000000Y-120400000D03*
X150700000Y-120400000D03*
X145600000Y-118600000D03*
X127300000Y-115200000D03*
D52*
X119000000Y-129000000D03*
D50*
X129400000Y-123100000D03*
X128700000Y-123100000D03*
X145600000Y-122800000D03*
X145400000Y-110900000D03*
X145000000Y-123400000D03*
X145400000Y-113900000D03*
X145400000Y-112100000D03*
X122600000Y-107900000D03*
D52*
X118000000Y-128000000D03*
D50*
X127300000Y-114600000D03*
X122200000Y-114000000D03*
X128700000Y-119300000D03*
X128000000Y-119300000D03*
X145400000Y-111500000D03*
X150700000Y-122200000D03*
X150700000Y-121000000D03*
X121800000Y-116900000D03*
X150700000Y-119800000D03*
X127300000Y-113400000D03*
X145600000Y-121600000D03*
X145600000Y-119200000D03*
X126500000Y-113000000D03*
X145000000Y-122800000D03*
%TO.N,/PGOOD*%
X130200000Y-117800000D03*
X127121588Y-110521588D03*
D53*
%TO.N,+5VP*%
X121215000Y-110610000D03*
X121275000Y-115520000D03*
D50*
X127367500Y-108332061D03*
D52*
X130500000Y-109800000D03*
D53*
X123005000Y-111390000D03*
D50*
%TO.N,/Vreg*%
X141100000Y-113600000D03*
X139700000Y-113600000D03*
X139700000Y-112200000D03*
X141800000Y-113600000D03*
X143600000Y-110900000D03*
X140400000Y-112900000D03*
X140400000Y-110800000D03*
X141800000Y-110800000D03*
X139700000Y-110800000D03*
X141800000Y-112900000D03*
X140400000Y-111500000D03*
X141800000Y-112200000D03*
X144200000Y-114400000D03*
X143500000Y-114400000D03*
X141100000Y-111500000D03*
X143500000Y-113200000D03*
D51*
X140500000Y-109000000D03*
D50*
X139700000Y-111500000D03*
X143600000Y-111600000D03*
X144200000Y-110900000D03*
X140400000Y-113600000D03*
X124246000Y-111254000D03*
X144200000Y-113200000D03*
X143500000Y-113800000D03*
X144200000Y-111600000D03*
X144200000Y-113800000D03*
X140400000Y-112200000D03*
X141100000Y-110800000D03*
X139700000Y-112900000D03*
X141100000Y-112900000D03*
X141100000Y-112200000D03*
X141800000Y-111500000D03*
%TO.N,Net-(J1-Pad5)*%
X131000000Y-119500000D03*
%TD*%
D54*
%TO.N,Net-(C8-Pad1)*%
X142755000Y-118945000D02*
X143800000Y-117900000D01*
X141575000Y-118945000D02*
X142755000Y-118945000D01*
X145300000Y-116965686D02*
X145300000Y-116500000D01*
X143800000Y-117900000D02*
X144365686Y-117900000D01*
X144365686Y-117900000D02*
X145300000Y-116965686D01*
X145250000Y-116500000D02*
X148750000Y-116500000D01*
X148750000Y-116500000D02*
X148800000Y-116450000D01*
%TO.N,Net-(JP3-Pad1)*%
X148800000Y-109800000D02*
X148800000Y-115150000D01*
D55*
%TO.N,Net-(200K1-Pad3)*%
X123100000Y-107300000D02*
X123800000Y-107300000D01*
X123800000Y-107300000D02*
X124400000Y-107900000D01*
%TO.N,Net-(200K1-Pad1)*%
X118500000Y-110500000D02*
X119367500Y-110500000D01*
X119367500Y-110500000D02*
X119400000Y-110532500D01*
D54*
%TO.N,Net-(C8-Pad1)*%
X135900000Y-119500000D02*
X135300000Y-120100000D01*
X136662500Y-119500000D02*
X135900000Y-119500000D01*
X138900000Y-118862500D02*
X137300000Y-118862500D01*
X138982500Y-118945000D02*
X138900000Y-118862500D01*
D55*
%TO.N,/+20V*%
X124274001Y-114085000D02*
X125027000Y-114085000D01*
D54*
%TO.N,Net-(C8-Pad1)*%
X141575000Y-118945000D02*
X138982500Y-118945000D01*
D55*
%TO.N,/+20V*%
X125265498Y-115734502D02*
X125941498Y-115734502D01*
D54*
%TO.N,Net-(C8-Pad1)*%
X137300000Y-118862500D02*
X136662500Y-119500000D01*
D55*
%TO.N,/+20V*%
X125941498Y-115734502D02*
X126140000Y-115536000D01*
%TO.N,GND*%
X127489000Y-111572000D02*
X127489000Y-112533000D01*
X126139000Y-111572000D02*
X126139000Y-112947000D01*
X125885000Y-110808467D02*
X125885000Y-109435000D01*
X127775000Y-109860000D02*
X127775000Y-110645287D01*
X125885000Y-109435000D02*
X126037500Y-109282500D01*
D54*
X126760000Y-112760000D02*
X126500000Y-112500000D01*
X126500000Y-113000000D02*
X126900000Y-113000000D01*
X127262000Y-112760000D02*
X126760000Y-112760000D01*
D55*
X126385000Y-108652500D02*
X126000000Y-108267500D01*
D54*
X126900000Y-113000000D02*
X127300000Y-113400000D01*
D55*
X126385000Y-109282500D02*
X126037500Y-109282500D01*
X127489000Y-110931287D02*
X127489000Y-111572000D01*
X127489000Y-112533000D02*
X127262000Y-112760000D01*
X126139000Y-111062467D02*
X126139000Y-111572000D01*
X127775000Y-110645287D02*
X127489000Y-110931287D01*
X126139000Y-112947000D02*
X126215000Y-113023000D01*
X126385000Y-109282500D02*
X126385000Y-108652500D01*
X126139000Y-111062467D02*
X125885000Y-110808467D01*
%TO.N,Net-(200K1-Pad3)*%
X125485000Y-108915000D02*
X124470000Y-107900000D01*
X126000000Y-107132500D02*
X125167500Y-107132500D01*
X125485000Y-111368000D02*
X125485000Y-108915000D01*
X124470000Y-107900000D02*
X124400000Y-107900000D01*
X125689000Y-111572000D02*
X125485000Y-111368000D01*
X125167500Y-107132500D02*
X124400000Y-107900000D01*
%TO.N,/PGOOD*%
X127227301Y-110627301D02*
X127227301Y-110608033D01*
X127227301Y-110627301D02*
X127300000Y-110554602D01*
X130200000Y-118397500D02*
X130402500Y-118600000D01*
X127400000Y-109000000D02*
X127894561Y-109000000D01*
X127227301Y-110608033D02*
X127131222Y-110511954D01*
X127300000Y-109100000D02*
X127400000Y-109000000D01*
X127039000Y-111572000D02*
X127039000Y-110815602D01*
X127039000Y-110815602D02*
X127227301Y-110627301D01*
X128562500Y-108332061D02*
X127894561Y-109000000D01*
X127300000Y-110554602D02*
X127300000Y-109100000D01*
X130200000Y-117800000D02*
X130200000Y-118397500D01*
D54*
%TO.N,/5V*%
X137942500Y-123505000D02*
X136600000Y-122162500D01*
X141575000Y-127425000D02*
X143050000Y-128900000D01*
D55*
%TO.N,+5VP*%
X126589000Y-110989000D02*
X126589000Y-111572000D01*
D54*
%TO.N,/5V*%
X135000000Y-122162500D02*
X134162500Y-123000000D01*
D56*
%TO.N,+5VP*%
X130500000Y-109800000D02*
X129922500Y-109800000D01*
D55*
X126885000Y-109915000D02*
X126702500Y-110097500D01*
X126885000Y-108615000D02*
X127167939Y-108332061D01*
X126702500Y-110097500D02*
X126385000Y-110097500D01*
X126539000Y-110251500D02*
X126539000Y-110939000D01*
X126885000Y-108615000D02*
X126885000Y-109915000D01*
X129500000Y-110375000D02*
X129500000Y-109860000D01*
X122527500Y-112280000D02*
X122527500Y-111867500D01*
X121215000Y-110610000D02*
X121215000Y-111402500D01*
D56*
X129922500Y-109800000D02*
X129862500Y-109860000D01*
D54*
%TO.N,/5V*%
X141575000Y-123505000D02*
X141575000Y-127425000D01*
D55*
%TO.N,+5VP*%
X126385000Y-110097500D02*
X126539000Y-110251500D01*
X128965500Y-110909500D02*
X129500000Y-110375000D01*
X126539000Y-110939000D02*
X126589000Y-110989000D01*
X122527500Y-111867500D02*
X123005000Y-111390000D01*
X121215000Y-111402500D02*
X121175000Y-111442500D01*
X127167939Y-108332061D02*
X127367500Y-108332061D01*
D54*
%TO.N,/5V*%
X141575000Y-123505000D02*
X137942500Y-123505000D01*
D55*
%TO.N,+5VP*%
X121275000Y-115090000D02*
X121185000Y-115000000D01*
X127939000Y-111076000D02*
X128105500Y-110909500D01*
D54*
%TO.N,/5V*%
X136600000Y-122162500D02*
X135000000Y-122162500D01*
D55*
%TO.N,+5VP*%
X128105500Y-110909500D02*
X128965500Y-110909500D01*
X127939000Y-111572000D02*
X127939000Y-111076000D01*
X121275000Y-115520000D02*
X121275000Y-115090000D01*
%TO.N,Net-(C2-Pad1)*%
X122332500Y-115870000D02*
X122302500Y-115900000D01*
X122332500Y-114900000D02*
X122332500Y-115870000D01*
%TO.N,Net-(C2-Pad2)*%
X124109001Y-114900000D02*
X124109001Y-114890999D01*
X124109001Y-114890999D02*
X124465000Y-114535000D01*
X123467500Y-114900000D02*
X124109001Y-114900000D01*
X124465000Y-114535000D02*
X125027000Y-114535000D01*
%TO.N,/Vreg*%
X120843467Y-110100000D02*
X121477818Y-110100000D01*
X119400000Y-111667500D02*
X119400000Y-111543467D01*
X122797893Y-110890000D02*
X123882000Y-110890000D01*
X122537893Y-111150000D02*
X122797893Y-110890000D01*
X124246000Y-111254000D02*
X125027000Y-112035000D01*
X121750000Y-110827818D02*
X122072182Y-111150000D01*
X121750000Y-110372182D02*
X121750000Y-110827818D01*
X122072182Y-111150000D02*
X122537893Y-111150000D01*
X123882000Y-110890000D02*
X124246000Y-111254000D01*
X119400000Y-111543467D02*
X120843467Y-110100000D01*
X121477818Y-110100000D02*
X121750000Y-110372182D01*
%TO.N,Net-(IC1-Pad19)*%
X123927500Y-112485000D02*
X123722500Y-112280000D01*
X125027000Y-112485000D02*
X123927500Y-112485000D01*
%TO.N,Net-(IC1-Pad20)*%
X121864462Y-112637500D02*
X121175000Y-112637500D01*
X122161962Y-112935000D02*
X121864462Y-112637500D01*
X125027000Y-112935000D02*
X122161962Y-112935000D01*
%TO.N,Net-(200K1-Pad1)*%
X119400000Y-110532500D02*
X119517500Y-110532500D01*
X119517500Y-110532500D02*
X121150000Y-108900000D01*
X124400000Y-109900000D02*
X122150000Y-109900000D01*
X122150000Y-109900000D02*
X121150000Y-108900000D01*
%TO.N,Net-(J1-Pad5)*%
X131597500Y-118600000D02*
X131597500Y-118902500D01*
X131597500Y-118902500D02*
X131000000Y-119500000D01*
%TO.N,Net-(IC1-Pad21)*%
X125027000Y-113385000D02*
X121605000Y-113385000D01*
X121605000Y-113385000D02*
X121185000Y-113805000D01*
%TO.N,Net-(IC1-Pad24)*%
X123497500Y-115900000D02*
X124112000Y-115900000D01*
X124112000Y-115900000D02*
X125027000Y-114985000D01*
%TD*%
%TA.AperFunction,Conductor*%
%TO.N,Net-(IC1-Pad5)*%
G36*
X133845336Y-110418891D02*
G01*
X133889246Y-110469566D01*
X133900000Y-110519000D01*
X133900000Y-114081000D01*
X133881109Y-114145336D01*
X133830434Y-114189246D01*
X133781000Y-114200000D01*
X131100000Y-114200000D01*
X131086282Y-114208069D01*
X131086283Y-114208069D01*
X129427931Y-115183570D01*
X129367596Y-115200000D01*
X129185000Y-115200000D01*
X129120664Y-115181109D01*
X129076754Y-115130434D01*
X129066000Y-115081000D01*
X129066000Y-113003500D01*
X129084891Y-112939164D01*
X129135566Y-112895254D01*
X129185000Y-112884500D01*
X129289674Y-112884500D01*
X129362740Y-112869966D01*
X129445601Y-112814601D01*
X129500966Y-112731740D01*
X129513652Y-112667964D01*
X129535165Y-112619780D01*
X131164300Y-110447600D01*
X131218014Y-110407465D01*
X131259500Y-110400000D01*
X133781000Y-110400000D01*
X133845336Y-110418891D01*
G37*
%TD.AperFunction*%
%TD*%
%TA.AperFunction,Conductor*%
%TO.N,Net-(F2-Pad1)*%
G36*
X122642121Y-121720002D02*
G01*
X122688614Y-121773658D01*
X122700000Y-121826000D01*
X122700000Y-124700000D01*
X122711119Y-124715884D01*
X122711119Y-124715885D01*
X123377223Y-125667461D01*
X123400000Y-125739717D01*
X123400000Y-130074000D01*
X123379998Y-130142121D01*
X123326342Y-130188614D01*
X123274000Y-130200000D01*
X119726000Y-130200000D01*
X119657879Y-130179998D01*
X119611386Y-130126342D01*
X119600000Y-130074000D01*
X119600000Y-129403802D01*
X119615303Y-129344203D01*
X119618361Y-129339947D01*
X119681601Y-129182634D01*
X119705490Y-129014778D01*
X119705645Y-129000000D01*
X119685276Y-128831680D01*
X119625345Y-128673077D01*
X119621044Y-128666819D01*
X119617524Y-128660086D01*
X119619281Y-128659167D01*
X119600000Y-128597076D01*
X119600000Y-121826000D01*
X119620002Y-121757879D01*
X119673658Y-121711386D01*
X119726000Y-121700000D01*
X122574000Y-121700000D01*
X122642121Y-121720002D01*
G37*
%TD.AperFunction*%
%TD*%
%TA.AperFunction,Conductor*%
%TO.N,GND*%
G36*
X149721610Y-106520002D02*
G01*
X149768103Y-106573658D01*
X149773784Y-106588515D01*
X149845063Y-106817260D01*
X149846625Y-106820730D01*
X149846627Y-106820736D01*
X149888570Y-106913929D01*
X149959285Y-107071050D01*
X150103265Y-107309222D01*
X150105606Y-107312210D01*
X150105608Y-107312213D01*
X150208629Y-107443709D01*
X150274904Y-107528302D01*
X150471698Y-107725096D01*
X150474698Y-107727447D01*
X150474701Y-107727449D01*
X150683315Y-107890888D01*
X150690778Y-107896735D01*
X150694032Y-107898702D01*
X150925689Y-108038744D01*
X150925693Y-108038746D01*
X150928950Y-108040715D01*
X150969769Y-108059086D01*
X151179264Y-108153373D01*
X151179270Y-108153375D01*
X151182740Y-108154937D01*
X151186376Y-108156070D01*
X151411485Y-108226216D01*
X151470571Y-108265578D01*
X151498996Y-108330636D01*
X151500000Y-108346511D01*
X151500000Y-128653489D01*
X151479998Y-128721610D01*
X151426342Y-128768103D01*
X151411485Y-128773784D01*
X151182740Y-128845063D01*
X151179270Y-128846625D01*
X151179264Y-128846627D01*
X151142410Y-128863214D01*
X150928950Y-128959285D01*
X150925693Y-128961254D01*
X150925689Y-128961256D01*
X150773950Y-129052986D01*
X150690778Y-129103265D01*
X150687790Y-129105606D01*
X150687787Y-129105608D01*
X150474701Y-129272551D01*
X150471698Y-129274904D01*
X150274904Y-129471698D01*
X150272553Y-129474698D01*
X150272551Y-129474701D01*
X150115264Y-129675463D01*
X150103265Y-129690778D01*
X150101298Y-129694032D01*
X149989188Y-129879485D01*
X149959285Y-129928950D01*
X149906446Y-130046353D01*
X149850650Y-130170327D01*
X149845063Y-130182740D01*
X149811176Y-130291488D01*
X149773784Y-130411485D01*
X149734422Y-130470571D01*
X149669364Y-130498996D01*
X149653489Y-130500000D01*
X143738475Y-130500000D01*
X143670354Y-130479998D01*
X143623861Y-130426342D01*
X143613757Y-130356068D01*
X143643251Y-130291488D01*
X143683043Y-130260849D01*
X143816303Y-130195566D01*
X143816308Y-130195563D01*
X143820954Y-130193287D01*
X143825164Y-130190284D01*
X143825169Y-130190281D01*
X144017617Y-130053009D01*
X144017622Y-130053005D01*
X144021829Y-130050004D01*
X144196605Y-129875837D01*
X144340588Y-129675463D01*
X144449911Y-129454264D01*
X144505120Y-129272551D01*
X144520135Y-129223132D01*
X144520136Y-129223126D01*
X144521639Y-129218180D01*
X144553845Y-128973550D01*
X144555643Y-128900000D01*
X144542030Y-128734422D01*
X144535849Y-128659240D01*
X144535848Y-128659234D01*
X144535425Y-128654089D01*
X144475316Y-128414783D01*
X144376928Y-128188507D01*
X144242905Y-127981339D01*
X144216635Y-127952468D01*
X144190243Y-127923464D01*
X144076846Y-127798842D01*
X144072795Y-127795643D01*
X144072791Y-127795639D01*
X143887264Y-127649119D01*
X143887259Y-127649116D01*
X143883210Y-127645918D01*
X143878694Y-127643425D01*
X143878691Y-127643423D01*
X143671722Y-127529170D01*
X143671718Y-127529168D01*
X143667198Y-127526673D01*
X143662329Y-127524949D01*
X143662325Y-127524947D01*
X143439485Y-127446035D01*
X143439481Y-127446034D01*
X143434610Y-127444309D01*
X143429517Y-127443402D01*
X143429514Y-127443401D01*
X143196783Y-127401945D01*
X143196777Y-127401944D01*
X143191694Y-127401039D01*
X143112324Y-127400069D01*
X142950142Y-127398088D01*
X142950140Y-127398088D01*
X142944972Y-127398025D01*
X142701070Y-127435347D01*
X142609202Y-127465374D01*
X142467178Y-127511794D01*
X142396214Y-127513945D01*
X142338938Y-127481124D01*
X142112405Y-127254591D01*
X142078379Y-127192279D01*
X142075500Y-127165496D01*
X142075500Y-124531500D01*
X142095502Y-124463379D01*
X142149158Y-124416886D01*
X142201500Y-124405500D01*
X142719646Y-124405500D01*
X142723350Y-124405059D01*
X142723353Y-124405059D01*
X142730746Y-124404179D01*
X142745846Y-124402382D01*
X142786976Y-124384113D01*
X142837518Y-124361663D01*
X142848153Y-124356939D01*
X142927241Y-124277713D01*
X142933711Y-124263080D01*
X142968675Y-124183992D01*
X142972506Y-124175327D01*
X142975500Y-124149646D01*
X142975500Y-122860354D01*
X142972382Y-122834154D01*
X142931723Y-122742616D01*
X142931663Y-122742482D01*
X142926939Y-122731847D01*
X142847713Y-122652759D01*
X142837076Y-122648056D01*
X142837074Y-122648055D01*
X142777538Y-122621735D01*
X142745327Y-122607494D01*
X142719646Y-122604500D01*
X140430354Y-122604500D01*
X140426650Y-122604941D01*
X140426647Y-122604941D01*
X140419254Y-122605821D01*
X140404154Y-122607618D01*
X140301847Y-122653061D01*
X140222759Y-122732287D01*
X140218056Y-122742924D01*
X140218055Y-122742926D01*
X140201833Y-122779620D01*
X140177494Y-122834673D01*
X140174500Y-122860354D01*
X140174500Y-122878500D01*
X140154498Y-122946621D01*
X140100842Y-122993114D01*
X140048500Y-123004500D01*
X138202004Y-123004500D01*
X138133883Y-122984498D01*
X138112909Y-122967595D01*
X137662405Y-122517091D01*
X137628379Y-122454779D01*
X137625500Y-122427996D01*
X137625500Y-121782228D01*
X137614636Y-121692453D01*
X137593219Y-121638358D01*
X137562275Y-121560204D01*
X137559113Y-121552217D01*
X137467922Y-121432078D01*
X137347783Y-121340887D01*
X137319406Y-121329652D01*
X137263432Y-121285978D01*
X137239956Y-121218975D01*
X137256430Y-121149917D01*
X137307626Y-121100728D01*
X137319406Y-121095348D01*
X137339797Y-121087275D01*
X137339798Y-121087275D01*
X137347783Y-121084113D01*
X137467922Y-120992922D01*
X137559113Y-120872783D01*
X137614636Y-120732547D01*
X137625500Y-120642772D01*
X137625500Y-119489000D01*
X137645502Y-119420879D01*
X137699158Y-119374386D01*
X137751500Y-119363000D01*
X137811791Y-119363000D01*
X137879912Y-119383002D01*
X137928943Y-119442616D01*
X137940887Y-119472783D01*
X138032078Y-119592922D01*
X138152217Y-119684113D01*
X138210210Y-119707074D01*
X138284923Y-119736655D01*
X138284925Y-119736656D01*
X138292453Y-119739636D01*
X138382228Y-119750500D01*
X139417772Y-119750500D01*
X139507547Y-119739636D01*
X139515075Y-119736656D01*
X139515077Y-119736655D01*
X139589790Y-119707074D01*
X139647783Y-119684113D01*
X139767922Y-119592922D01*
X139842007Y-119495319D01*
X139899124Y-119453154D01*
X139942369Y-119445500D01*
X140048500Y-119445500D01*
X140116621Y-119465502D01*
X140163114Y-119519158D01*
X140174500Y-119571500D01*
X140174500Y-119589646D01*
X140177618Y-119615846D01*
X140181456Y-119624486D01*
X140181456Y-119624487D01*
X140218140Y-119707074D01*
X140223061Y-119718153D01*
X140302287Y-119797241D01*
X140312924Y-119801944D01*
X140312926Y-119801945D01*
X140372462Y-119828265D01*
X140404673Y-119842506D01*
X140430354Y-119845500D01*
X142719646Y-119845500D01*
X142723350Y-119845059D01*
X142723353Y-119845059D01*
X142730746Y-119844179D01*
X142745846Y-119842382D01*
X142836199Y-119802249D01*
X142837518Y-119801663D01*
X142848153Y-119796939D01*
X142867434Y-119777625D01*
X142919023Y-119725945D01*
X142927241Y-119717713D01*
X142972506Y-119615327D01*
X142975500Y-119589646D01*
X142975500Y-119471666D01*
X142995502Y-119403545D01*
X143027755Y-119371363D01*
X143027428Y-119370984D01*
X143036757Y-119362946D01*
X143062675Y-119340613D01*
X143070596Y-119334324D01*
X143077402Y-119329352D01*
X143081336Y-119326478D01*
X143092079Y-119315735D01*
X143098926Y-119309377D01*
X143103046Y-119305827D01*
X143136037Y-119277400D01*
X143140920Y-119269866D01*
X143146819Y-119263104D01*
X143146824Y-119263108D01*
X143155800Y-119252014D01*
X143970409Y-118437405D01*
X144032721Y-118403379D01*
X144059504Y-118400500D01*
X144295505Y-118400500D01*
X144307390Y-118401828D01*
X144307431Y-118401318D01*
X144316377Y-118402038D01*
X144325133Y-118404019D01*
X144377949Y-118400742D01*
X144385753Y-118400500D01*
X144401626Y-118400500D01*
X144411738Y-118399052D01*
X144421792Y-118398022D01*
X144449783Y-118396285D01*
X144468224Y-118395141D01*
X144476668Y-118392093D01*
X144480380Y-118391324D01*
X144495085Y-118387657D01*
X144498713Y-118386596D01*
X144507604Y-118385323D01*
X144549968Y-118366061D01*
X144559323Y-118362254D01*
X144594629Y-118349509D01*
X144594633Y-118349507D01*
X144603073Y-118346460D01*
X144610321Y-118341165D01*
X144613661Y-118339389D01*
X144626775Y-118331726D01*
X144629947Y-118329697D01*
X144638114Y-118325984D01*
X144644909Y-118320129D01*
X144644912Y-118320127D01*
X144673361Y-118295613D01*
X144681282Y-118289324D01*
X144688088Y-118284352D01*
X144692022Y-118281478D01*
X144702765Y-118270735D01*
X144709612Y-118264377D01*
X144731659Y-118245380D01*
X144746723Y-118232400D01*
X144751606Y-118224866D01*
X144757505Y-118218104D01*
X144757510Y-118218108D01*
X144766486Y-118207014D01*
X145416536Y-117556964D01*
X145472489Y-117524496D01*
X145526709Y-117509714D01*
X145526715Y-117509712D01*
X145531028Y-117508536D01*
X145535128Y-117506762D01*
X145535133Y-117506760D01*
X145606459Y-117475894D01*
X145606462Y-117475892D01*
X145610574Y-117474113D01*
X145682846Y-117429738D01*
X145728802Y-117401521D01*
X145728803Y-117401521D01*
X145732626Y-117399173D01*
X145736076Y-117396309D01*
X145795867Y-117346670D01*
X145795869Y-117346668D01*
X145799314Y-117343808D01*
X145872828Y-117262592D01*
X145892427Y-117240940D01*
X145892430Y-117240936D01*
X145895428Y-117237624D01*
X145917846Y-117204387D01*
X145941389Y-117169484D01*
X145941394Y-117169476D01*
X145943898Y-117165763D01*
X145947319Y-117158703D01*
X145989538Y-117071562D01*
X146037240Y-117018979D01*
X146102930Y-117000500D01*
X147908945Y-117000500D01*
X147977066Y-117020502D01*
X147993501Y-117033085D01*
X148059060Y-117092427D01*
X148059064Y-117092430D01*
X148062376Y-117095428D01*
X148075417Y-117104224D01*
X148130516Y-117141389D01*
X148130524Y-117141394D01*
X148134237Y-117143898D01*
X148138273Y-117145853D01*
X148138274Y-117145854D01*
X148154774Y-117153848D01*
X148263129Y-117206345D01*
X148345701Y-117232697D01*
X148486939Y-117256459D01*
X148489362Y-117256676D01*
X148489367Y-117256677D01*
X148516174Y-117259081D01*
X148533918Y-117260673D01*
X148536342Y-117260703D01*
X148536349Y-117260703D01*
X148539495Y-117260741D01*
X148546260Y-117260824D01*
X148593338Y-117257759D01*
X148598793Y-117256978D01*
X148616654Y-117255705D01*
X148973740Y-117255705D01*
X148986931Y-117256550D01*
X148986939Y-117256459D01*
X149033918Y-117260673D01*
X149036342Y-117260703D01*
X149036349Y-117260703D01*
X149039559Y-117260742D01*
X149046260Y-117260824D01*
X149093338Y-117257760D01*
X149095765Y-117257412D01*
X149095769Y-117257412D01*
X149210787Y-117240940D01*
X149235115Y-117237456D01*
X149318308Y-117213128D01*
X149322381Y-117211276D01*
X149322384Y-117211275D01*
X149444605Y-117155704D01*
X149448687Y-117153848D01*
X149521707Y-117107150D01*
X149603270Y-117036871D01*
X149626815Y-117016584D01*
X149626818Y-117016581D01*
X149630208Y-117013660D01*
X149633147Y-117010291D01*
X149633151Y-117010287D01*
X149684239Y-116951723D01*
X149687188Y-116948343D01*
X149765088Y-116828158D01*
X149801445Y-116749473D01*
X149842481Y-116612255D01*
X149855292Y-116526533D01*
X149855846Y-116435826D01*
X149856140Y-116387793D01*
X149856140Y-116387788D01*
X149856167Y-116383312D01*
X149855829Y-116380846D01*
X149855705Y-116377017D01*
X149855705Y-115950000D01*
X149854401Y-115921793D01*
X149830324Y-115837172D01*
X149830912Y-115767134D01*
X149835061Y-115760433D01*
X149853828Y-115660041D01*
X149854635Y-115655725D01*
X149854635Y-115655723D01*
X149855705Y-115650000D01*
X149855705Y-115159376D01*
X149855707Y-115158606D01*
X149856140Y-115087798D01*
X149856140Y-115087792D01*
X149856167Y-115083312D01*
X149852866Y-115059209D01*
X149845012Y-115001880D01*
X149844404Y-114997438D01*
X149841211Y-114986264D01*
X149806281Y-114864046D01*
X149806280Y-114864043D01*
X149805047Y-114859729D01*
X149769654Y-114780606D01*
X149693228Y-114659478D01*
X149637050Y-114593469D01*
X149620999Y-114579293D01*
X149533062Y-114501631D01*
X149533061Y-114501631D01*
X149529699Y-114498661D01*
X149457257Y-114451076D01*
X149453201Y-114449172D01*
X149453198Y-114449170D01*
X149372951Y-114411494D01*
X149319789Y-114364437D01*
X149300500Y-114297439D01*
X149300500Y-110926000D01*
X149320502Y-110857879D01*
X149374158Y-110811386D01*
X149426500Y-110800000D01*
X150300000Y-110800000D01*
X150200000Y-109300000D01*
X150191954Y-109292901D01*
X150191954Y-109292900D01*
X148513582Y-107811984D01*
X148500000Y-107800000D01*
X140000000Y-107800000D01*
X139992699Y-107818252D01*
X139062776Y-110143061D01*
X139000000Y-110300000D01*
X139000000Y-114500000D01*
X140829752Y-114885211D01*
X142793600Y-115298653D01*
X142793603Y-115298653D01*
X142800000Y-115300000D01*
X143509859Y-115300000D01*
X143577980Y-115320002D01*
X143624473Y-115373658D01*
X143634577Y-115443932D01*
X143605083Y-115508512D01*
X143577094Y-115532562D01*
X143459478Y-115606772D01*
X143393469Y-115662950D01*
X143390498Y-115666314D01*
X143332588Y-115731886D01*
X143298661Y-115770301D01*
X143280453Y-115798020D01*
X143256937Y-115833821D01*
X143251076Y-115842743D01*
X143249172Y-115846799D01*
X143249170Y-115846802D01*
X143228855Y-115890072D01*
X143190207Y-115972388D01*
X143188898Y-115976671D01*
X143188896Y-115976675D01*
X143175831Y-116019408D01*
X143164864Y-116055280D01*
X143164175Y-116059703D01*
X143164174Y-116059709D01*
X143149168Y-116156091D01*
X143142830Y-116196798D01*
X143142775Y-116201264D01*
X143142775Y-116201269D01*
X143142448Y-116228050D01*
X143141771Y-116283466D01*
X143142352Y-116287908D01*
X143142352Y-116287911D01*
X143143231Y-116294631D01*
X143144295Y-116310968D01*
X143144295Y-116677833D01*
X143143858Y-116688323D01*
X143143520Y-116692367D01*
X143142830Y-116696799D01*
X143141772Y-116783466D01*
X143142353Y-116787907D01*
X143142353Y-116787912D01*
X143148108Y-116831921D01*
X143160342Y-116925480D01*
X143183651Y-117008966D01*
X143185457Y-117013071D01*
X143185458Y-117013073D01*
X143227916Y-117109565D01*
X143241334Y-117140059D01*
X143243702Y-117143864D01*
X143243704Y-117143867D01*
X143281375Y-117204387D01*
X143287136Y-117213643D01*
X143290021Y-117217075D01*
X143290026Y-117217082D01*
X143375814Y-117319139D01*
X143379293Y-117323278D01*
X143382628Y-117326260D01*
X143382634Y-117326266D01*
X143430904Y-117369423D01*
X143468354Y-117429738D01*
X143467251Y-117500726D01*
X143429168Y-117558806D01*
X143425766Y-117561737D01*
X143425762Y-117561742D01*
X143418963Y-117567600D01*
X143414080Y-117575133D01*
X143408181Y-117581896D01*
X143408176Y-117581892D01*
X143399200Y-117592986D01*
X142944636Y-118047550D01*
X142882324Y-118081576D01*
X142811509Y-118076511D01*
X142804594Y-118073696D01*
X142753990Y-118051324D01*
X142745327Y-118047494D01*
X142719646Y-118044500D01*
X140430354Y-118044500D01*
X140426650Y-118044941D01*
X140426647Y-118044941D01*
X140419254Y-118045821D01*
X140404154Y-118047618D01*
X140395514Y-118051456D01*
X140395513Y-118051456D01*
X140345444Y-118073696D01*
X140301847Y-118093061D01*
X140293628Y-118101294D01*
X140293627Y-118101295D01*
X140268155Y-118126812D01*
X140222759Y-118172287D01*
X140218056Y-118182924D01*
X140218055Y-118182926D01*
X140202503Y-118218104D01*
X140177494Y-118274673D01*
X140174500Y-118300354D01*
X140174500Y-118318500D01*
X140154498Y-118386621D01*
X140100842Y-118433114D01*
X140048500Y-118444500D01*
X140020872Y-118444500D01*
X139952751Y-118424498D01*
X139903720Y-118364883D01*
X139902190Y-118361017D01*
X139859113Y-118252217D01*
X139767922Y-118132078D01*
X139647783Y-118040887D01*
X139578025Y-118013268D01*
X139515077Y-117988345D01*
X139515075Y-117988344D01*
X139507547Y-117985364D01*
X139417772Y-117974500D01*
X138382228Y-117974500D01*
X138292453Y-117985364D01*
X138284925Y-117988344D01*
X138284923Y-117988345D01*
X138221975Y-118013268D01*
X138152217Y-118040887D01*
X138032078Y-118132078D01*
X137940887Y-118252217D01*
X137937727Y-118260199D01*
X137928943Y-118282384D01*
X137885268Y-118338358D01*
X137811791Y-118362000D01*
X137735580Y-118362000D01*
X137667459Y-118341998D01*
X137620966Y-118288342D01*
X137615173Y-118271890D01*
X137614636Y-118267453D01*
X137559113Y-118127217D01*
X137467922Y-118007078D01*
X137347783Y-117915887D01*
X137284168Y-117890700D01*
X137215077Y-117863345D01*
X137215075Y-117863344D01*
X137207547Y-117860364D01*
X137117772Y-117849500D01*
X136207228Y-117849500D01*
X136117453Y-117860364D01*
X136109925Y-117863344D01*
X136109923Y-117863345D01*
X136040832Y-117890700D01*
X135977217Y-117915887D01*
X135857078Y-118007078D01*
X135765887Y-118127217D01*
X135762725Y-118135204D01*
X135715791Y-118253747D01*
X135710364Y-118267453D01*
X135699500Y-118357228D01*
X135699500Y-118960543D01*
X135679498Y-119028664D01*
X135641387Y-119066691D01*
X135635742Y-119070301D01*
X135627572Y-119074016D01*
X135620773Y-119079874D01*
X135620772Y-119079875D01*
X135592325Y-119104387D01*
X135584405Y-119110675D01*
X135573664Y-119118522D01*
X135562921Y-119129265D01*
X135556075Y-119135623D01*
X135518963Y-119167600D01*
X135514080Y-119175134D01*
X135508181Y-119181896D01*
X135508176Y-119181892D01*
X135499200Y-119192986D01*
X135240240Y-119451946D01*
X135180559Y-119485370D01*
X135087747Y-119507652D01*
X135087745Y-119507653D01*
X135080367Y-119509424D01*
X134945835Y-119578861D01*
X134940113Y-119583853D01*
X134940111Y-119583854D01*
X134837474Y-119673390D01*
X134837471Y-119673393D01*
X134831749Y-119678385D01*
X134795610Y-119729806D01*
X134753849Y-119789226D01*
X134744696Y-119802249D01*
X134689702Y-119943302D01*
X134688711Y-119950831D01*
X134671030Y-120085133D01*
X134669941Y-120093402D01*
X134686554Y-120243883D01*
X134738582Y-120386057D01*
X134742819Y-120392363D01*
X134742821Y-120392366D01*
X134776461Y-120442427D01*
X134823022Y-120511716D01*
X134934998Y-120613607D01*
X134941675Y-120617232D01*
X134941676Y-120617233D01*
X135061370Y-120682222D01*
X135061372Y-120682223D01*
X135068047Y-120685847D01*
X135075396Y-120687775D01*
X135207136Y-120722336D01*
X135207138Y-120722336D01*
X135214486Y-120724264D01*
X135294562Y-120725522D01*
X135358266Y-120726523D01*
X135358269Y-120726523D01*
X135365863Y-120726642D01*
X135513437Y-120692843D01*
X135541494Y-120678732D01*
X135611339Y-120665994D01*
X135676983Y-120693038D01*
X135715260Y-120744913D01*
X135765887Y-120872783D01*
X135857078Y-120992922D01*
X135863913Y-120998110D01*
X135977217Y-121084113D01*
X135975280Y-121086665D01*
X136014063Y-121126511D01*
X136028215Y-121196083D01*
X136002507Y-121262262D01*
X135949053Y-121302547D01*
X135852217Y-121340887D01*
X135732078Y-121432078D01*
X135640887Y-121552217D01*
X135637727Y-121560199D01*
X135628943Y-121582384D01*
X135585268Y-121638358D01*
X135511791Y-121662000D01*
X135148062Y-121662000D01*
X135079941Y-121641998D01*
X135047699Y-121612180D01*
X135027345Y-121585364D01*
X134967922Y-121507078D01*
X134847783Y-121415887D01*
X134784168Y-121390700D01*
X134715077Y-121363345D01*
X134715075Y-121363344D01*
X134707547Y-121360364D01*
X134617772Y-121349500D01*
X133707228Y-121349500D01*
X133617453Y-121360364D01*
X133609925Y-121363344D01*
X133609923Y-121363345D01*
X133540832Y-121390700D01*
X133477217Y-121415887D01*
X133357078Y-121507078D01*
X133265887Y-121627217D01*
X133210364Y-121767453D01*
X133199500Y-121857228D01*
X133199500Y-124142772D01*
X133210364Y-124232547D01*
X133213344Y-124240075D01*
X133213345Y-124240077D01*
X133231506Y-124285945D01*
X133265887Y-124372783D01*
X133357078Y-124492922D01*
X133477217Y-124584113D01*
X133540832Y-124609300D01*
X133609923Y-124636655D01*
X133609925Y-124636656D01*
X133617453Y-124639636D01*
X133707228Y-124650500D01*
X134617772Y-124650500D01*
X134707547Y-124639636D01*
X134715075Y-124636656D01*
X134715077Y-124636655D01*
X134784168Y-124609300D01*
X134847783Y-124584113D01*
X134967922Y-124492922D01*
X135059113Y-124372783D01*
X135093494Y-124285945D01*
X135111655Y-124240077D01*
X135111656Y-124240075D01*
X135114636Y-124232547D01*
X135125500Y-124142772D01*
X135125500Y-122797003D01*
X135145502Y-122728882D01*
X135162405Y-122707908D01*
X135170408Y-122699905D01*
X135232720Y-122665879D01*
X135259503Y-122663000D01*
X135511791Y-122663000D01*
X135579912Y-122683002D01*
X135628943Y-122742616D01*
X135640887Y-122772783D01*
X135732078Y-122892922D01*
X135852217Y-122984113D01*
X135903709Y-123004500D01*
X135984923Y-123036655D01*
X135984925Y-123036656D01*
X135992453Y-123039636D01*
X136082228Y-123050500D01*
X136727996Y-123050500D01*
X136796117Y-123070502D01*
X136817091Y-123087405D01*
X137538966Y-123809280D01*
X137546432Y-123818624D01*
X137546822Y-123818292D01*
X137552640Y-123825128D01*
X137557430Y-123832720D01*
X137564158Y-123838662D01*
X137564159Y-123838663D01*
X137597100Y-123867755D01*
X137602788Y-123873102D01*
X137614007Y-123884321D01*
X137617595Y-123887010D01*
X137617596Y-123887011D01*
X137622184Y-123890450D01*
X137630023Y-123896832D01*
X137664888Y-123927623D01*
X137673006Y-123931434D01*
X137676159Y-123933506D01*
X137689180Y-123941329D01*
X137692489Y-123943141D01*
X137699676Y-123948527D01*
X137708081Y-123951678D01*
X137708083Y-123951679D01*
X137743237Y-123964857D01*
X137752557Y-123968784D01*
X137794663Y-123988553D01*
X137803535Y-123989934D01*
X137807158Y-123991042D01*
X137821817Y-123994888D01*
X137825514Y-123995701D01*
X137833920Y-123998852D01*
X137880343Y-124002302D01*
X137890356Y-124003452D01*
X137903509Y-124005500D01*
X137918704Y-124005500D01*
X137928042Y-124005846D01*
X137976892Y-124009476D01*
X137985668Y-124007603D01*
X137994625Y-124006992D01*
X137994625Y-124006998D01*
X138008818Y-124005500D01*
X140048500Y-124005500D01*
X140116621Y-124025502D01*
X140163114Y-124079158D01*
X140174500Y-124131500D01*
X140174500Y-124149646D01*
X140177618Y-124175846D01*
X140181456Y-124184486D01*
X140181456Y-124184487D01*
X140206148Y-124240077D01*
X140223061Y-124278153D01*
X140231294Y-124286372D01*
X140231295Y-124286373D01*
X140262835Y-124317858D01*
X140302287Y-124357241D01*
X140312924Y-124361944D01*
X140312926Y-124361945D01*
X140352913Y-124379623D01*
X140404673Y-124402506D01*
X140430354Y-124405500D01*
X140948500Y-124405500D01*
X141016621Y-124425502D01*
X141063114Y-124479158D01*
X141074500Y-124531500D01*
X141074500Y-127354819D01*
X141073172Y-127366704D01*
X141073682Y-127366745D01*
X141072962Y-127375691D01*
X141070981Y-127384447D01*
X141072067Y-127401945D01*
X141074258Y-127437264D01*
X141074500Y-127445067D01*
X141074500Y-127460940D01*
X141075135Y-127465374D01*
X141075948Y-127471050D01*
X141076978Y-127481106D01*
X141079859Y-127527538D01*
X141082907Y-127535982D01*
X141083676Y-127539694D01*
X141087343Y-127554399D01*
X141088404Y-127558027D01*
X141089677Y-127566918D01*
X141108939Y-127609282D01*
X141112746Y-127618637D01*
X141125491Y-127653943D01*
X141125493Y-127653947D01*
X141128540Y-127662387D01*
X141133835Y-127669635D01*
X141135611Y-127672975D01*
X141143274Y-127686089D01*
X141145303Y-127689261D01*
X141149016Y-127697428D01*
X141154871Y-127704223D01*
X141154873Y-127704226D01*
X141179387Y-127732675D01*
X141185675Y-127740595D01*
X141193522Y-127751336D01*
X141204265Y-127762079D01*
X141210623Y-127768925D01*
X141242600Y-127806037D01*
X141250134Y-127810920D01*
X141256896Y-127816819D01*
X141256892Y-127816824D01*
X141267986Y-127825800D01*
X141633448Y-128191262D01*
X141667474Y-128253574D01*
X141662409Y-128324389D01*
X141658641Y-128333406D01*
X141639144Y-128375409D01*
X141636965Y-128380104D01*
X141571026Y-128617871D01*
X141544806Y-128863214D01*
X141559010Y-129109545D01*
X141560147Y-129114591D01*
X141560148Y-129114597D01*
X141582336Y-129213051D01*
X141613255Y-129350249D01*
X141706084Y-129578861D01*
X141835006Y-129789241D01*
X141996557Y-129975741D01*
X142186399Y-130133351D01*
X142205728Y-130144646D01*
X142394967Y-130255229D01*
X142394974Y-130255232D01*
X142399433Y-130257838D01*
X142404262Y-130259682D01*
X142405698Y-130260370D01*
X142458488Y-130307844D01*
X142477232Y-130376321D01*
X142455978Y-130444062D01*
X142401475Y-130489558D01*
X142351253Y-130500000D01*
X136738475Y-130500000D01*
X136670354Y-130479998D01*
X136623861Y-130426342D01*
X136613757Y-130356068D01*
X136643251Y-130291488D01*
X136683043Y-130260849D01*
X136816303Y-130195566D01*
X136816308Y-130195563D01*
X136820954Y-130193287D01*
X136825164Y-130190284D01*
X136825169Y-130190281D01*
X137017617Y-130053009D01*
X137017622Y-130053005D01*
X137021829Y-130050004D01*
X137196605Y-129875837D01*
X137340588Y-129675463D01*
X137449911Y-129454264D01*
X137505120Y-129272551D01*
X137520135Y-129223132D01*
X137520136Y-129223126D01*
X137521639Y-129218180D01*
X137553845Y-128973550D01*
X137555643Y-128900000D01*
X137542030Y-128734422D01*
X137535849Y-128659240D01*
X137535848Y-128659234D01*
X137535425Y-128654089D01*
X137475316Y-128414783D01*
X137376928Y-128188507D01*
X137242905Y-127981339D01*
X137216635Y-127952468D01*
X137190243Y-127923464D01*
X137076846Y-127798842D01*
X137072795Y-127795643D01*
X137072791Y-127795639D01*
X136887264Y-127649119D01*
X136887259Y-127649116D01*
X136883210Y-127645918D01*
X136878694Y-127643425D01*
X136878691Y-127643423D01*
X136671722Y-127529170D01*
X136671718Y-127529168D01*
X136667198Y-127526673D01*
X136662329Y-127524949D01*
X136662325Y-127524947D01*
X136439485Y-127446035D01*
X136439481Y-127446034D01*
X136434610Y-127444309D01*
X136429517Y-127443402D01*
X136429514Y-127443401D01*
X136196783Y-127401945D01*
X136196777Y-127401944D01*
X136191694Y-127401039D01*
X136112324Y-127400069D01*
X135950142Y-127398088D01*
X135950140Y-127398088D01*
X135944972Y-127398025D01*
X135701070Y-127435347D01*
X135466540Y-127512003D01*
X135247679Y-127625935D01*
X135243546Y-127629038D01*
X135243543Y-127629040D01*
X135057232Y-127768926D01*
X135050364Y-127774083D01*
X134879896Y-127952468D01*
X134876982Y-127956740D01*
X134876981Y-127956741D01*
X134857238Y-127985683D01*
X134740851Y-128156300D01*
X134636965Y-128380104D01*
X134571026Y-128617871D01*
X134544806Y-128863214D01*
X134559010Y-129109545D01*
X134560147Y-129114591D01*
X134560148Y-129114597D01*
X134582336Y-129213051D01*
X134613255Y-129350249D01*
X134706084Y-129578861D01*
X134835006Y-129789241D01*
X134996557Y-129975741D01*
X135186399Y-130133351D01*
X135205728Y-130144646D01*
X135394967Y-130255229D01*
X135394974Y-130255232D01*
X135399433Y-130257838D01*
X135404262Y-130259682D01*
X135405698Y-130260370D01*
X135458488Y-130307844D01*
X135477232Y-130376321D01*
X135455978Y-130444062D01*
X135401475Y-130489558D01*
X135351253Y-130500000D01*
X129738475Y-130500000D01*
X129670354Y-130479998D01*
X129623861Y-130426342D01*
X129613757Y-130356068D01*
X129643251Y-130291488D01*
X129683043Y-130260849D01*
X129816303Y-130195566D01*
X129816308Y-130195563D01*
X129820954Y-130193287D01*
X129825164Y-130190284D01*
X129825169Y-130190281D01*
X130017617Y-130053009D01*
X130017622Y-130053005D01*
X130021829Y-130050004D01*
X130196605Y-129875837D01*
X130340588Y-129675463D01*
X130449911Y-129454264D01*
X130505120Y-129272551D01*
X130520135Y-129223132D01*
X130520136Y-129223126D01*
X130521639Y-129218180D01*
X130553845Y-128973550D01*
X130555643Y-128900000D01*
X130542030Y-128734422D01*
X130535849Y-128659240D01*
X130535848Y-128659234D01*
X130535425Y-128654089D01*
X130475316Y-128414783D01*
X130376928Y-128188507D01*
X130242905Y-127981339D01*
X130216635Y-127952468D01*
X130190243Y-127923464D01*
X130076846Y-127798842D01*
X130072795Y-127795643D01*
X130072791Y-127795639D01*
X129887264Y-127649119D01*
X129887259Y-127649116D01*
X129883210Y-127645918D01*
X129878694Y-127643425D01*
X129878691Y-127643423D01*
X129671722Y-127529170D01*
X129671718Y-127529168D01*
X129667198Y-127526673D01*
X129662329Y-127524949D01*
X129662325Y-127524947D01*
X129439485Y-127446035D01*
X129439481Y-127446034D01*
X129434610Y-127444309D01*
X129429517Y-127443402D01*
X129429514Y-127443401D01*
X129196783Y-127401945D01*
X129196777Y-127401944D01*
X129191694Y-127401039D01*
X129112324Y-127400069D01*
X128950142Y-127398088D01*
X128950140Y-127398088D01*
X128944972Y-127398025D01*
X128701070Y-127435347D01*
X128466540Y-127512003D01*
X128247679Y-127625935D01*
X128243546Y-127629038D01*
X128243543Y-127629040D01*
X128057232Y-127768926D01*
X128050364Y-127774083D01*
X127879896Y-127952468D01*
X127876982Y-127956740D01*
X127876981Y-127956741D01*
X127857238Y-127985683D01*
X127740851Y-128156300D01*
X127636965Y-128380104D01*
X127571026Y-128617871D01*
X127544806Y-128863214D01*
X127559010Y-129109545D01*
X127560147Y-129114591D01*
X127560148Y-129114597D01*
X127582336Y-129213051D01*
X127613255Y-129350249D01*
X127706084Y-129578861D01*
X127835006Y-129789241D01*
X127996557Y-129975741D01*
X128186399Y-130133351D01*
X128205728Y-130144646D01*
X128394967Y-130255229D01*
X128394974Y-130255232D01*
X128399433Y-130257838D01*
X128404262Y-130259682D01*
X128405698Y-130260370D01*
X128458488Y-130307844D01*
X128477232Y-130376321D01*
X128455978Y-130444062D01*
X128401475Y-130489558D01*
X128351253Y-130500000D01*
X123826000Y-130500000D01*
X123757879Y-130479998D01*
X123711386Y-130426342D01*
X123700000Y-130374000D01*
X123700000Y-125326000D01*
X123720002Y-125257879D01*
X123773658Y-125211386D01*
X123826000Y-125200000D01*
X127200000Y-125200000D01*
X127289511Y-118218108D01*
X127294872Y-117800000D01*
X129644750Y-117800000D01*
X129663670Y-117943709D01*
X129719139Y-118077625D01*
X129763392Y-118135296D01*
X129788991Y-118201514D01*
X129782310Y-118253746D01*
X129776344Y-118270735D01*
X129750922Y-118343126D01*
X129747547Y-118352736D01*
X129744500Y-118384969D01*
X129744501Y-118815030D01*
X129747547Y-118847264D01*
X129793429Y-118977916D01*
X129799026Y-118985493D01*
X129799026Y-118985494D01*
X129858999Y-119066691D01*
X129875699Y-119089301D01*
X129883274Y-119094896D01*
X129904639Y-119110676D01*
X129987084Y-119171571D01*
X130047618Y-119192829D01*
X130110488Y-119214908D01*
X130110491Y-119214909D01*
X130117736Y-119217453D01*
X130125380Y-119218176D01*
X130125382Y-119218176D01*
X130134134Y-119219003D01*
X130149969Y-119220500D01*
X130155883Y-119220500D01*
X130337873Y-119220499D01*
X130405992Y-119240501D01*
X130452485Y-119294156D01*
X130462794Y-119362945D01*
X130444750Y-119500000D01*
X130463670Y-119643709D01*
X130519139Y-119777625D01*
X130607379Y-119892621D01*
X130722375Y-119980861D01*
X130856291Y-120036330D01*
X131000000Y-120055250D01*
X131143709Y-120036330D01*
X131277625Y-119980861D01*
X131392621Y-119892621D01*
X131480861Y-119777625D01*
X131536330Y-119643709D01*
X131547978Y-119555235D01*
X131576701Y-119490309D01*
X131583805Y-119482588D01*
X131814722Y-119251671D01*
X131876208Y-119218025D01*
X131882264Y-119217453D01*
X131889512Y-119214908D01*
X131889515Y-119214907D01*
X131961671Y-119189567D01*
X132012916Y-119171571D01*
X132095362Y-119110676D01*
X132116726Y-119094896D01*
X132124301Y-119089301D01*
X132141001Y-119066691D01*
X132200974Y-118985494D01*
X132200974Y-118985493D01*
X132206571Y-118977916D01*
X132252453Y-118847264D01*
X132255500Y-118815031D01*
X132255499Y-118384970D01*
X132255182Y-118381608D01*
X132253176Y-118360386D01*
X132253176Y-118360385D01*
X132252453Y-118352736D01*
X132249079Y-118343126D01*
X132223656Y-118270735D01*
X132206571Y-118222084D01*
X132197446Y-118209729D01*
X132129896Y-118118274D01*
X132124301Y-118110699D01*
X132088388Y-118084173D01*
X132020494Y-118034026D01*
X132020492Y-118034025D01*
X132012916Y-118028429D01*
X131911056Y-117992658D01*
X131889512Y-117985092D01*
X131889509Y-117985091D01*
X131882264Y-117982547D01*
X131874620Y-117981824D01*
X131874618Y-117981824D01*
X131865866Y-117980997D01*
X131850031Y-117979500D01*
X131597628Y-117979500D01*
X131344970Y-117979501D01*
X131342020Y-117979780D01*
X131342015Y-117979780D01*
X131320386Y-117981824D01*
X131320385Y-117981824D01*
X131312736Y-117982547D01*
X131305488Y-117985092D01*
X131305485Y-117985093D01*
X131261301Y-118000610D01*
X131182084Y-118028429D01*
X131074857Y-118107628D01*
X131008180Y-118132009D01*
X130938905Y-118116472D01*
X130925147Y-118107631D01*
X130817916Y-118028429D01*
X130809026Y-118025307D01*
X130808416Y-118024984D01*
X130757574Y-117975430D01*
X130741593Y-117906255D01*
X130742455Y-117897183D01*
X130748453Y-117851631D01*
X130755250Y-117800000D01*
X130736330Y-117656291D01*
X130680861Y-117522375D01*
X130592621Y-117407379D01*
X130477625Y-117319139D01*
X130343709Y-117263670D01*
X130200000Y-117244750D01*
X130056291Y-117263670D01*
X129922375Y-117319139D01*
X129807379Y-117407379D01*
X129719139Y-117522375D01*
X129663670Y-117656291D01*
X129644750Y-117800000D01*
X127294872Y-117800000D01*
X127299984Y-117401254D01*
X127299984Y-117401250D01*
X127300000Y-117400000D01*
X127299898Y-117396309D01*
X127294717Y-117209828D01*
X127293103Y-117151716D01*
X127296884Y-117125500D01*
X127295646Y-117125304D01*
X127309652Y-117036871D01*
X127310500Y-117031519D01*
X127310499Y-116768482D01*
X127299857Y-116701283D01*
X127297198Y-116684494D01*
X127297197Y-116684492D01*
X127295646Y-116674696D01*
X127291143Y-116665859D01*
X127288079Y-116656428D01*
X127289011Y-116656125D01*
X127278153Y-116613517D01*
X127276833Y-116565974D01*
X127200000Y-113800000D01*
X125794410Y-113800000D01*
X125726289Y-113779998D01*
X125679796Y-113726342D01*
X125669692Y-113656068D01*
X125679169Y-113623053D01*
X125683176Y-113613990D01*
X125687006Y-113605327D01*
X125690000Y-113579646D01*
X125690000Y-113190354D01*
X125689560Y-113186655D01*
X125689559Y-113186642D01*
X125688179Y-113175048D01*
X125688143Y-113145572D01*
X125690000Y-113129646D01*
X125690000Y-112740354D01*
X125689560Y-112736655D01*
X125689559Y-112736642D01*
X125688179Y-112725048D01*
X125688143Y-112695572D01*
X125690000Y-112679646D01*
X125690000Y-112361000D01*
X125710002Y-112292879D01*
X125763658Y-112246386D01*
X125816000Y-112235000D01*
X125883646Y-112235000D01*
X125887350Y-112234559D01*
X125887353Y-112234559D01*
X125894746Y-112233679D01*
X125909846Y-112231882D01*
X125931905Y-112222084D01*
X126001518Y-112191163D01*
X126012153Y-112186439D01*
X126020372Y-112178206D01*
X126020376Y-112178203D01*
X126049830Y-112148697D01*
X126112112Y-112114617D01*
X126182932Y-112119620D01*
X126228020Y-112148541D01*
X126266287Y-112186741D01*
X126276924Y-112191444D01*
X126276926Y-112191445D01*
X126309227Y-112205725D01*
X126368673Y-112232006D01*
X126394354Y-112235000D01*
X126783646Y-112235000D01*
X126787345Y-112234560D01*
X126787358Y-112234559D01*
X126798952Y-112233179D01*
X126828426Y-112233143D01*
X126844354Y-112235000D01*
X127233646Y-112235000D01*
X127237350Y-112234559D01*
X127237353Y-112234559D01*
X127244746Y-112233679D01*
X127259846Y-112231882D01*
X127281905Y-112222084D01*
X127311352Y-112209004D01*
X127381727Y-112199631D01*
X127445998Y-112229793D01*
X127483759Y-112289915D01*
X127488500Y-112324155D01*
X127488500Y-112858646D01*
X127491618Y-112884846D01*
X127537061Y-112987153D01*
X127616287Y-113066241D01*
X127626924Y-113070944D01*
X127626926Y-113070945D01*
X127686462Y-113097265D01*
X127718673Y-113111506D01*
X127744354Y-113114500D01*
X128090228Y-113114500D01*
X128158349Y-113134502D01*
X128204842Y-113188158D01*
X128216142Y-113235837D01*
X128239914Y-113877678D01*
X128240000Y-113882341D01*
X128240000Y-115178646D01*
X128243118Y-115204846D01*
X128246956Y-115213486D01*
X128246956Y-115213487D01*
X128283384Y-115295498D01*
X128294147Y-115341982D01*
X128299329Y-115481897D01*
X128299330Y-115481899D01*
X128300000Y-115500000D01*
X129558823Y-115500000D01*
X131171695Y-114615522D01*
X131232280Y-114600000D01*
X134200000Y-114600000D01*
X134200000Y-110000000D01*
X131324331Y-110000000D01*
X131256210Y-109979998D01*
X131209717Y-109926342D01*
X131199588Y-109856246D01*
X131204909Y-109818859D01*
X131205490Y-109814778D01*
X131205645Y-109800000D01*
X131185276Y-109631680D01*
X131125345Y-109473077D01*
X131093330Y-109426495D01*
X131033614Y-109339608D01*
X131033613Y-109339607D01*
X131029312Y-109333349D01*
X130998041Y-109305487D01*
X130908392Y-109225612D01*
X130908388Y-109225610D01*
X130902721Y-109220560D01*
X130752881Y-109141224D01*
X130588441Y-109099919D01*
X130580843Y-109099879D01*
X130580841Y-109099879D01*
X130509423Y-109099505D01*
X130418895Y-109099031D01*
X130411515Y-109100803D01*
X130411513Y-109100803D01*
X130384823Y-109107211D01*
X130309027Y-109101844D01*
X130292038Y-109095118D01*
X130204297Y-109084500D01*
X129862726Y-109084500D01*
X129520704Y-109084501D01*
X129516946Y-109084956D01*
X129516941Y-109084956D01*
X129443845Y-109093801D01*
X129432962Y-109095118D01*
X129425439Y-109098096D01*
X129425437Y-109098097D01*
X129356297Y-109125472D01*
X129295911Y-109149380D01*
X129178500Y-109238500D01*
X129089380Y-109355911D01*
X129077607Y-109385646D01*
X129040179Y-109480180D01*
X129035118Y-109492962D01*
X129024500Y-109580703D01*
X129024501Y-110139296D01*
X129024955Y-110143052D01*
X129024956Y-110143061D01*
X129032766Y-110207604D01*
X129021091Y-110277634D01*
X128996774Y-110311834D01*
X128903397Y-110405211D01*
X128836511Y-110472096D01*
X128774199Y-110506121D01*
X128747416Y-110509000D01*
X128042067Y-110509000D01*
X128032635Y-110512065D01*
X128032633Y-110512065D01*
X128021148Y-110515797D01*
X128001922Y-110520413D01*
X127980196Y-110523854D01*
X127971361Y-110528356D01*
X127971360Y-110528356D01*
X127960597Y-110533840D01*
X127942336Y-110541404D01*
X127921411Y-110548203D01*
X127905956Y-110559432D01*
X127903613Y-110561134D01*
X127886768Y-110571458D01*
X127883714Y-110573014D01*
X127813940Y-110586125D01*
X127748152Y-110559432D01*
X127707240Y-110501409D01*
X127700500Y-110460753D01*
X127700500Y-109526500D01*
X127720502Y-109458379D01*
X127774158Y-109411886D01*
X127826500Y-109400500D01*
X127957994Y-109400500D01*
X127967425Y-109397436D01*
X127967429Y-109397435D01*
X127978914Y-109393703D01*
X127998139Y-109389087D01*
X128010073Y-109387197D01*
X128010074Y-109387197D01*
X128019865Y-109385646D01*
X128028698Y-109381145D01*
X128028702Y-109381144D01*
X128039467Y-109375659D01*
X128057727Y-109368095D01*
X128078651Y-109361296D01*
X128096454Y-109348361D01*
X128113306Y-109338035D01*
X128124063Y-109332554D01*
X128132903Y-109328050D01*
X128155466Y-109305487D01*
X128155470Y-109305484D01*
X128471488Y-108989466D01*
X128533800Y-108955440D01*
X128560583Y-108952561D01*
X128798541Y-108952560D01*
X128815030Y-108952560D01*
X128817980Y-108952281D01*
X128817985Y-108952281D01*
X128839614Y-108950237D01*
X128839615Y-108950237D01*
X128847264Y-108949514D01*
X128854512Y-108946969D01*
X128854515Y-108946968D01*
X128898699Y-108931451D01*
X128977916Y-108903632D01*
X129089301Y-108821362D01*
X129136880Y-108756945D01*
X129165974Y-108717555D01*
X129165974Y-108717554D01*
X129171571Y-108709977D01*
X129200788Y-108626779D01*
X129214908Y-108586573D01*
X129214909Y-108586570D01*
X129217453Y-108579325D01*
X129220500Y-108547092D01*
X129220499Y-108117031D01*
X129217453Y-108084797D01*
X129205812Y-108051647D01*
X129181380Y-107982078D01*
X129171571Y-107954145D01*
X129159592Y-107937926D01*
X129094896Y-107850335D01*
X129089301Y-107842760D01*
X129033300Y-107801397D01*
X128985494Y-107766087D01*
X128985493Y-107766087D01*
X128977916Y-107760490D01*
X128883830Y-107727449D01*
X128854512Y-107717153D01*
X128854509Y-107717152D01*
X128847264Y-107714608D01*
X128839620Y-107713885D01*
X128839618Y-107713885D01*
X128830866Y-107713058D01*
X128815031Y-107711561D01*
X128562628Y-107711561D01*
X128309970Y-107711562D01*
X128307020Y-107711841D01*
X128307015Y-107711841D01*
X128285386Y-107713885D01*
X128285385Y-107713885D01*
X128277736Y-107714608D01*
X128270488Y-107717153D01*
X128270485Y-107717154D01*
X128241170Y-107727449D01*
X128147084Y-107760490D01*
X128039857Y-107839689D01*
X127973180Y-107864070D01*
X127903905Y-107848533D01*
X127890147Y-107839692D01*
X127782916Y-107760490D01*
X127688830Y-107727449D01*
X127659512Y-107717153D01*
X127659509Y-107717152D01*
X127652264Y-107714608D01*
X127644620Y-107713885D01*
X127644618Y-107713885D01*
X127635866Y-107713058D01*
X127620031Y-107711561D01*
X127367628Y-107711561D01*
X127114970Y-107711562D01*
X127112020Y-107711841D01*
X127112015Y-107711841D01*
X127090386Y-107713885D01*
X127090385Y-107713885D01*
X127082736Y-107714608D01*
X127075488Y-107717153D01*
X127075485Y-107717154D01*
X127046170Y-107727449D01*
X126952084Y-107760490D01*
X126944507Y-107766087D01*
X126944506Y-107766087D01*
X126899251Y-107799513D01*
X126832573Y-107823896D01*
X126763297Y-107808359D01*
X126754500Y-107803000D01*
X126610991Y-107707327D01*
X126565406Y-107652898D01*
X126556484Y-107582464D01*
X126563662Y-107561098D01*
X126562102Y-107560550D01*
X126604941Y-107438563D01*
X126607486Y-107431316D01*
X126610500Y-107399430D01*
X126610500Y-106865570D01*
X126607486Y-106833684D01*
X126562102Y-106704450D01*
X126556507Y-106696875D01*
X126552098Y-106688548D01*
X126554487Y-106687283D01*
X126535067Y-106634190D01*
X126550600Y-106564913D01*
X126601120Y-106515031D01*
X126660801Y-106500000D01*
X149653489Y-106500000D01*
X149721610Y-106520002D01*
G37*
%TD.AperFunction*%
%TA.AperFunction,Conductor*%
G36*
X123104707Y-106519976D02*
G01*
X123143913Y-106501505D01*
X123163327Y-106500000D01*
X125011422Y-106500000D01*
X125079543Y-106520002D01*
X125126036Y-106573658D01*
X125136140Y-106643932D01*
X125106646Y-106708512D01*
X125050897Y-106745476D01*
X125042196Y-106746854D01*
X125033359Y-106751357D01*
X125033355Y-106751358D01*
X125022594Y-106756841D01*
X125004334Y-106764405D01*
X124983410Y-106771204D01*
X124965607Y-106784139D01*
X124948754Y-106794465D01*
X124929158Y-106804450D01*
X124906595Y-106827013D01*
X124906591Y-106827016D01*
X124771012Y-106962595D01*
X124708700Y-106996621D01*
X124681917Y-106999500D01*
X124114561Y-106999500D01*
X124046440Y-106979498D01*
X124044700Y-106978308D01*
X124038342Y-106971950D01*
X124018746Y-106961965D01*
X124001893Y-106951639D01*
X123984090Y-106938704D01*
X123963166Y-106931905D01*
X123944906Y-106924341D01*
X123934141Y-106918856D01*
X123934137Y-106918855D01*
X123925304Y-106914354D01*
X123915513Y-106912803D01*
X123915512Y-106912803D01*
X123903578Y-106910913D01*
X123884353Y-106906297D01*
X123872868Y-106902565D01*
X123872864Y-106902564D01*
X123863433Y-106899500D01*
X123525124Y-106899500D01*
X123457003Y-106879498D01*
X123448420Y-106873462D01*
X123396580Y-106833684D01*
X123377625Y-106819139D01*
X123243709Y-106763670D01*
X123146880Y-106750922D01*
X123098920Y-106729705D01*
X123072171Y-106746896D01*
X123053120Y-106750922D01*
X122956291Y-106763670D01*
X122822375Y-106819139D01*
X122707379Y-106907379D01*
X122619139Y-107022375D01*
X122563670Y-107156291D01*
X122544750Y-107300000D01*
X122563670Y-107443709D01*
X122619139Y-107577625D01*
X122707379Y-107692621D01*
X122822375Y-107780861D01*
X122956291Y-107836330D01*
X123100000Y-107855250D01*
X123243709Y-107836330D01*
X123266879Y-107826733D01*
X123325283Y-107802542D01*
X123395873Y-107794953D01*
X123459359Y-107826733D01*
X123495586Y-107887791D01*
X123499500Y-107918951D01*
X123499500Y-108544646D01*
X123502618Y-108570846D01*
X123506456Y-108579486D01*
X123506456Y-108579487D01*
X123515568Y-108600000D01*
X123548061Y-108673153D01*
X123627287Y-108752241D01*
X123637924Y-108756944D01*
X123637926Y-108756945D01*
X123700790Y-108784737D01*
X123755006Y-108830576D01*
X123775833Y-108898449D01*
X123756658Y-108966807D01*
X123700990Y-109015128D01*
X123637481Y-109043337D01*
X123637479Y-109043339D01*
X123626847Y-109048061D01*
X123547759Y-109127287D01*
X123543056Y-109137924D01*
X123543055Y-109137926D01*
X123535696Y-109154572D01*
X123502494Y-109229673D01*
X123499500Y-109255354D01*
X123499500Y-109373500D01*
X123479498Y-109441621D01*
X123425842Y-109488114D01*
X123373500Y-109499500D01*
X122368083Y-109499500D01*
X122299962Y-109479498D01*
X122278988Y-109462595D01*
X122237405Y-109421012D01*
X122203379Y-109358700D01*
X122200500Y-109331917D01*
X122200500Y-108055354D01*
X122197382Y-108029154D01*
X122151939Y-107926847D01*
X122121775Y-107896735D01*
X122080945Y-107855977D01*
X122072713Y-107847759D01*
X122062076Y-107843056D01*
X122062074Y-107843055D01*
X122002538Y-107816735D01*
X121970327Y-107802494D01*
X121944646Y-107799500D01*
X120355354Y-107799500D01*
X120351650Y-107799941D01*
X120351647Y-107799941D01*
X120344254Y-107800821D01*
X120329154Y-107802618D01*
X120320514Y-107806456D01*
X120320513Y-107806456D01*
X120255432Y-107835364D01*
X120226847Y-107848061D01*
X120147759Y-107927287D01*
X120143056Y-107937924D01*
X120143055Y-107937926D01*
X120135885Y-107954145D01*
X120102494Y-108029673D01*
X120099500Y-108055354D01*
X120099500Y-109331917D01*
X120079498Y-109400038D01*
X120062595Y-109421012D01*
X119656012Y-109827595D01*
X119593700Y-109861621D01*
X119566917Y-109864500D01*
X119190570Y-109864500D01*
X119181726Y-109865336D01*
X119166329Y-109866791D01*
X119166326Y-109866792D01*
X119158684Y-109867514D01*
X119029450Y-109912898D01*
X118990829Y-109941424D01*
X118926852Y-109988678D01*
X118926850Y-109988680D01*
X118919275Y-109994275D01*
X118917511Y-109996663D01*
X118858189Y-110029058D01*
X118787373Y-110023996D01*
X118778517Y-110019823D01*
X118777625Y-110019139D01*
X118772987Y-110017218D01*
X118772983Y-110017216D01*
X118651340Y-109966831D01*
X118651341Y-109966831D01*
X118643709Y-109963670D01*
X118500000Y-109944750D01*
X118356291Y-109963670D01*
X118222375Y-110019139D01*
X118107379Y-110107379D01*
X118019139Y-110222375D01*
X117963670Y-110356291D01*
X117944750Y-110500000D01*
X117963670Y-110643709D01*
X118019139Y-110777625D01*
X118107379Y-110892621D01*
X118222375Y-110980861D01*
X118356291Y-111036330D01*
X118500000Y-111055250D01*
X118643709Y-111036330D01*
X118720610Y-111004477D01*
X118791199Y-110996888D01*
X118854686Y-111028667D01*
X118890913Y-111089725D01*
X118888379Y-111160677D01*
X118870179Y-111195745D01*
X118837898Y-111239450D01*
X118792514Y-111368684D01*
X118789500Y-111400570D01*
X118789500Y-111934430D01*
X118792514Y-111966316D01*
X118795059Y-111973563D01*
X118833907Y-112084184D01*
X118837898Y-112095550D01*
X118919275Y-112205725D01*
X119029450Y-112287102D01*
X119158684Y-112332486D01*
X119166326Y-112333208D01*
X119166329Y-112333209D01*
X119181283Y-112334622D01*
X119190570Y-112335500D01*
X119609430Y-112335500D01*
X119618717Y-112334622D01*
X119633671Y-112333209D01*
X119633674Y-112333208D01*
X119641316Y-112332486D01*
X119770550Y-112287102D01*
X119880725Y-112205725D01*
X119962102Y-112095550D01*
X119966094Y-112084184D01*
X120004941Y-111973563D01*
X120007486Y-111966316D01*
X120010500Y-111934430D01*
X120010500Y-111551550D01*
X120030502Y-111483429D01*
X120047405Y-111462455D01*
X120339405Y-111170455D01*
X120401717Y-111136429D01*
X120472532Y-111141494D01*
X120529368Y-111184041D01*
X120554179Y-111250561D01*
X120554500Y-111259550D01*
X120554501Y-111478050D01*
X120554501Y-111695030D01*
X120557547Y-111727264D01*
X120603429Y-111857916D01*
X120682628Y-111965143D01*
X120707009Y-112031820D01*
X120691472Y-112101095D01*
X120682631Y-112114853D01*
X120603429Y-112222084D01*
X120574212Y-112305282D01*
X120567112Y-112325500D01*
X120557547Y-112352736D01*
X120554500Y-112384969D01*
X120554501Y-112890030D01*
X120554780Y-112892980D01*
X120554780Y-112892985D01*
X120556824Y-112914614D01*
X120557547Y-112922264D01*
X120560092Y-112929512D01*
X120560093Y-112929515D01*
X120572679Y-112965354D01*
X120603429Y-113052916D01*
X120677473Y-113153163D01*
X120701854Y-113219838D01*
X120686317Y-113289113D01*
X120677472Y-113302877D01*
X120613429Y-113389584D01*
X120567547Y-113520236D01*
X120564500Y-113552469D01*
X120564501Y-114057530D01*
X120567547Y-114089764D01*
X120570092Y-114097012D01*
X120570093Y-114097015D01*
X120572773Y-114104646D01*
X120613429Y-114220416D01*
X120692628Y-114327643D01*
X120717009Y-114394320D01*
X120701472Y-114463595D01*
X120692631Y-114477353D01*
X120613429Y-114584584D01*
X120567547Y-114715236D01*
X120564500Y-114747469D01*
X120564501Y-115252530D01*
X120567547Y-115284764D01*
X120570092Y-115292012D01*
X120570093Y-115292015D01*
X120579922Y-115320002D01*
X120613429Y-115415416D01*
X120619026Y-115422993D01*
X120619026Y-115422994D01*
X120650007Y-115464939D01*
X120695699Y-115526801D01*
X120703274Y-115532396D01*
X120703277Y-115532399D01*
X120736022Y-115556584D01*
X120778934Y-115613144D01*
X120786099Y-115641594D01*
X120787980Y-115655979D01*
X120791597Y-115664199D01*
X120841800Y-115778293D01*
X120845720Y-115787203D01*
X120851497Y-115794076D01*
X120851498Y-115794077D01*
X120878504Y-115826205D01*
X120937970Y-115896948D01*
X120945447Y-115901925D01*
X121019874Y-115951468D01*
X121057313Y-115976390D01*
X121194157Y-116019142D01*
X121203129Y-116019306D01*
X121203132Y-116019307D01*
X121268463Y-116020504D01*
X121337499Y-116021770D01*
X121346533Y-116019307D01*
X121467155Y-115986422D01*
X121467158Y-115986421D01*
X121475817Y-115984060D01*
X121476051Y-115984919D01*
X121538924Y-115977160D01*
X121602902Y-116007939D01*
X121640083Y-116068422D01*
X121644501Y-116101492D01*
X121644501Y-116215030D01*
X121647547Y-116247264D01*
X121650092Y-116254512D01*
X121650093Y-116254515D01*
X121655938Y-116271158D01*
X121693429Y-116377916D01*
X121699026Y-116385493D01*
X121699026Y-116385494D01*
X121752708Y-116458174D01*
X121775699Y-116489301D01*
X121887084Y-116571571D01*
X121970282Y-116600788D01*
X122010488Y-116614908D01*
X122010491Y-116614909D01*
X122017736Y-116617453D01*
X122025380Y-116618176D01*
X122025382Y-116618176D01*
X122034134Y-116619003D01*
X122049969Y-116620500D01*
X122062214Y-116620500D01*
X122435785Y-116620499D01*
X122503904Y-116640501D01*
X122550397Y-116694156D01*
X122560502Y-116764430D01*
X122531009Y-116829011D01*
X122513176Y-116845930D01*
X122386442Y-116944574D01*
X122120679Y-117151431D01*
X122111336Y-117158703D01*
X122103836Y-117164110D01*
X120143992Y-118470672D01*
X120076217Y-118491816D01*
X120007770Y-118472962D01*
X119960382Y-118420095D01*
X119949266Y-118382933D01*
X119945013Y-118351881D01*
X119945012Y-118351876D01*
X119944404Y-118347438D01*
X119942850Y-118341998D01*
X119906281Y-118214046D01*
X119906280Y-118214043D01*
X119905047Y-118209729D01*
X119869654Y-118130606D01*
X119793228Y-118009478D01*
X119737050Y-117943469D01*
X119629699Y-117848661D01*
X119568084Y-117808188D01*
X119561007Y-117803539D01*
X119561004Y-117803537D01*
X119557257Y-117801076D01*
X119553201Y-117799172D01*
X119553198Y-117799170D01*
X119431667Y-117742111D01*
X119427612Y-117740207D01*
X119423329Y-117738898D01*
X119423325Y-117738896D01*
X119349008Y-117716175D01*
X119344720Y-117714864D01*
X119340297Y-117714175D01*
X119340291Y-117714174D01*
X119207623Y-117693518D01*
X119207618Y-117693518D01*
X119203202Y-117692830D01*
X119198736Y-117692775D01*
X119198731Y-117692775D01*
X119155580Y-117692248D01*
X119116534Y-117691771D01*
X119112092Y-117692352D01*
X119112089Y-117692352D01*
X119105369Y-117693231D01*
X119089032Y-117694295D01*
X118722167Y-117694295D01*
X118711677Y-117693858D01*
X118707633Y-117693520D01*
X118703201Y-117692830D01*
X118698721Y-117692775D01*
X118698717Y-117692775D01*
X118664045Y-117692352D01*
X118616534Y-117691772D01*
X118612093Y-117692353D01*
X118612088Y-117692353D01*
X118536846Y-117702192D01*
X118474520Y-117710342D01*
X118470204Y-117711547D01*
X118470199Y-117711548D01*
X118432777Y-117721996D01*
X118391034Y-117733651D01*
X118386929Y-117735457D01*
X118386927Y-117735458D01*
X118371807Y-117742111D01*
X118259941Y-117791334D01*
X118256136Y-117793702D01*
X118256133Y-117793704D01*
X118190172Y-117834761D01*
X118190168Y-117834764D01*
X118186357Y-117837136D01*
X118182925Y-117840021D01*
X118182918Y-117840026D01*
X118086494Y-117921079D01*
X118076722Y-117929293D01*
X118073734Y-117932635D01*
X118021941Y-117990562D01*
X118021938Y-117990567D01*
X118018949Y-117993909D01*
X118016464Y-117997642D01*
X118016461Y-117997646D01*
X117944931Y-118105104D01*
X117939586Y-118113134D01*
X117902270Y-118191368D01*
X117900933Y-118195647D01*
X117900932Y-118195650D01*
X117889451Y-118232400D01*
X117859560Y-118328074D01*
X117845702Y-118413634D01*
X117843077Y-118556833D01*
X117843631Y-118561283D01*
X117843868Y-118565755D01*
X117843758Y-118565761D01*
X117844295Y-118574425D01*
X117844295Y-119000000D01*
X117845599Y-119028207D01*
X117868995Y-119110433D01*
X117869676Y-119112827D01*
X117869088Y-119182866D01*
X117864939Y-119189567D01*
X117858806Y-119222375D01*
X117847425Y-119283259D01*
X117844295Y-119300000D01*
X117844295Y-119789226D01*
X117844274Y-119791534D01*
X117843077Y-119856833D01*
X117853791Y-119942848D01*
X117891464Y-120081028D01*
X117893238Y-120085128D01*
X117893240Y-120085133D01*
X117899446Y-120099473D01*
X117925887Y-120160574D01*
X118000827Y-120282626D01*
X118003690Y-120286074D01*
X118003691Y-120286076D01*
X118016682Y-120301723D01*
X118056192Y-120349314D01*
X118059512Y-120352319D01*
X118159060Y-120442427D01*
X118159064Y-120442430D01*
X118162376Y-120445428D01*
X118175417Y-120454224D01*
X118230516Y-120491389D01*
X118230524Y-120491394D01*
X118234237Y-120493898D01*
X118363129Y-120556345D01*
X118445701Y-120582697D01*
X118586939Y-120606459D01*
X118589362Y-120606676D01*
X118589367Y-120606677D01*
X118616174Y-120609081D01*
X118633918Y-120610673D01*
X118636342Y-120610703D01*
X118636349Y-120610703D01*
X118639495Y-120610741D01*
X118646260Y-120610824D01*
X118693338Y-120607759D01*
X118698793Y-120606978D01*
X118716654Y-120605705D01*
X119073740Y-120605705D01*
X119086931Y-120606550D01*
X119086939Y-120606459D01*
X119133918Y-120610673D01*
X119136342Y-120610703D01*
X119136349Y-120610703D01*
X119139559Y-120610742D01*
X119146260Y-120610824D01*
X119193338Y-120607760D01*
X119195765Y-120607412D01*
X119195769Y-120607412D01*
X119263935Y-120597650D01*
X119335115Y-120587456D01*
X119418308Y-120563128D01*
X119422381Y-120561276D01*
X119422384Y-120561275D01*
X119544605Y-120505704D01*
X119548687Y-120503848D01*
X119621707Y-120457150D01*
X119730208Y-120363660D01*
X119733147Y-120360291D01*
X119733151Y-120360287D01*
X119784239Y-120301723D01*
X119787188Y-120298343D01*
X119834296Y-120225665D01*
X119888128Y-120179384D01*
X119958441Y-120169553D01*
X120022906Y-120199297D01*
X120061058Y-120259171D01*
X120065953Y-120289955D01*
X120079591Y-120694538D01*
X120092830Y-121087275D01*
X120095610Y-121169755D01*
X120077915Y-121238511D01*
X120025856Y-121286785D01*
X119969682Y-121300000D01*
X119100000Y-121300000D01*
X119100000Y-129585092D01*
X119079998Y-129653213D01*
X119026342Y-129699706D01*
X118956068Y-129709810D01*
X118891488Y-129680316D01*
X118874815Y-129662799D01*
X118727449Y-129474701D01*
X118727447Y-129474698D01*
X118725096Y-129471698D01*
X118528302Y-129274904D01*
X118525299Y-129272551D01*
X118312213Y-129105608D01*
X118312210Y-129105606D01*
X118309222Y-129103265D01*
X118226050Y-129052986D01*
X118074311Y-128961256D01*
X118074307Y-128961254D01*
X118071050Y-128959285D01*
X117857590Y-128863214D01*
X117820736Y-128846627D01*
X117820730Y-128846625D01*
X117817260Y-128845063D01*
X117588515Y-128773784D01*
X117529429Y-128734422D01*
X117501004Y-128669364D01*
X117500000Y-128653489D01*
X117500000Y-115716688D01*
X118143833Y-115716688D01*
X118144442Y-115721131D01*
X118144442Y-115721137D01*
X118148253Y-115748958D01*
X118155596Y-115802562D01*
X118156827Y-115806869D01*
X118156828Y-115806874D01*
X118193719Y-115935954D01*
X118194953Y-115940271D01*
X118230346Y-116019394D01*
X118306772Y-116140522D01*
X118362950Y-116206531D01*
X118366314Y-116209502D01*
X118462706Y-116294631D01*
X118470301Y-116301339D01*
X118542743Y-116348924D01*
X118546799Y-116350828D01*
X118546802Y-116350830D01*
X118624610Y-116387361D01*
X118672388Y-116409793D01*
X118676671Y-116411102D01*
X118676675Y-116411104D01*
X118749237Y-116433289D01*
X118755280Y-116435136D01*
X118759703Y-116435825D01*
X118759709Y-116435826D01*
X118892377Y-116456482D01*
X118892382Y-116456482D01*
X118896798Y-116457170D01*
X118901264Y-116457225D01*
X118901269Y-116457225D01*
X118944420Y-116457752D01*
X118983466Y-116458229D01*
X118987908Y-116457648D01*
X118987911Y-116457648D01*
X118994631Y-116456769D01*
X119010968Y-116455705D01*
X119377833Y-116455705D01*
X119388323Y-116456142D01*
X119392367Y-116456480D01*
X119396799Y-116457170D01*
X119401279Y-116457225D01*
X119401283Y-116457225D01*
X119435353Y-116457641D01*
X119483466Y-116458228D01*
X119487907Y-116457647D01*
X119487912Y-116457647D01*
X119563154Y-116447808D01*
X119625480Y-116439658D01*
X119629796Y-116438453D01*
X119629801Y-116438452D01*
X119667223Y-116428003D01*
X119708966Y-116416349D01*
X119723866Y-116409793D01*
X119835957Y-116360471D01*
X119835958Y-116360471D01*
X119840059Y-116358666D01*
X119843867Y-116356296D01*
X119909828Y-116315239D01*
X119909832Y-116315236D01*
X119913643Y-116312864D01*
X119917075Y-116309979D01*
X119917082Y-116309974D01*
X120019846Y-116223592D01*
X120019847Y-116223591D01*
X120023278Y-116220707D01*
X120039009Y-116203113D01*
X120078059Y-116159438D01*
X120078062Y-116159433D01*
X120081051Y-116156091D01*
X120089144Y-116143934D01*
X120157932Y-116040595D01*
X120157933Y-116040593D01*
X120160414Y-116036866D01*
X120197730Y-115958632D01*
X120203467Y-115940271D01*
X120233936Y-115842743D01*
X120240440Y-115821926D01*
X120254298Y-115736366D01*
X120255776Y-115655725D01*
X120256841Y-115597648D01*
X120256841Y-115597646D01*
X120256923Y-115593167D01*
X120256369Y-115588717D01*
X120256132Y-115584245D01*
X120256242Y-115584239D01*
X120255705Y-115575575D01*
X120255705Y-115150000D01*
X120255441Y-115144275D01*
X120254737Y-115129066D01*
X120254401Y-115121793D01*
X120230324Y-115037172D01*
X120230912Y-114967134D01*
X120235061Y-114960433D01*
X120253079Y-114864046D01*
X120254635Y-114855725D01*
X120254635Y-114855723D01*
X120255705Y-114850000D01*
X120255705Y-114360774D01*
X120255726Y-114358465D01*
X120256841Y-114297640D01*
X120256923Y-114293167D01*
X120246209Y-114207152D01*
X120208536Y-114068972D01*
X120204864Y-114060485D01*
X120175894Y-113993541D01*
X120175892Y-113993538D01*
X120174113Y-113989426D01*
X120099173Y-113867374D01*
X120086125Y-113851657D01*
X120046670Y-113804133D01*
X120046668Y-113804131D01*
X120043808Y-113800686D01*
X119961675Y-113726342D01*
X119940940Y-113707573D01*
X119940936Y-113707570D01*
X119937624Y-113704572D01*
X119912259Y-113687464D01*
X119869484Y-113658611D01*
X119869476Y-113658606D01*
X119865763Y-113656102D01*
X119736871Y-113593655D01*
X119654299Y-113567303D01*
X119513061Y-113543541D01*
X119510638Y-113543324D01*
X119510633Y-113543323D01*
X119483826Y-113540919D01*
X119466082Y-113539327D01*
X119463658Y-113539297D01*
X119463651Y-113539297D01*
X119460505Y-113539259D01*
X119453740Y-113539176D01*
X119406662Y-113542241D01*
X119401207Y-113543022D01*
X119383346Y-113544295D01*
X119026260Y-113544295D01*
X119013069Y-113543450D01*
X119013061Y-113543541D01*
X118966082Y-113539327D01*
X118963658Y-113539297D01*
X118963651Y-113539297D01*
X118960441Y-113539258D01*
X118953740Y-113539176D01*
X118906662Y-113542240D01*
X118904235Y-113542588D01*
X118904231Y-113542588D01*
X118855821Y-113549521D01*
X118764885Y-113562544D01*
X118681692Y-113586872D01*
X118677619Y-113588724D01*
X118677616Y-113588725D01*
X118622049Y-113613990D01*
X118551313Y-113646152D01*
X118478293Y-113692850D01*
X118429401Y-113734978D01*
X118398218Y-113761847D01*
X118369792Y-113786340D01*
X118366853Y-113789709D01*
X118366849Y-113789713D01*
X118357277Y-113800686D01*
X118312812Y-113851657D01*
X118234912Y-113971842D01*
X118198555Y-114050527D01*
X118157519Y-114187745D01*
X118144708Y-114273467D01*
X118144492Y-114308891D01*
X118143865Y-114411494D01*
X118143833Y-114416688D01*
X118144171Y-114419154D01*
X118144295Y-114422983D01*
X118144295Y-114850000D01*
X118144362Y-114851442D01*
X118144362Y-114851457D01*
X118144745Y-114859729D01*
X118145599Y-114878207D01*
X118169644Y-114962713D01*
X118169676Y-114962827D01*
X118169088Y-115032866D01*
X118164939Y-115039567D01*
X118144295Y-115150000D01*
X118144295Y-115640624D01*
X118144293Y-115641394D01*
X118144113Y-115670934D01*
X118143833Y-115716688D01*
X117500000Y-115716688D01*
X117500000Y-108346511D01*
X117520002Y-108278390D01*
X117573658Y-108231897D01*
X117588515Y-108226216D01*
X117813624Y-108156070D01*
X117817260Y-108154937D01*
X117820730Y-108153375D01*
X117820736Y-108153373D01*
X118030231Y-108059086D01*
X118071050Y-108040715D01*
X118074307Y-108038746D01*
X118074311Y-108038744D01*
X118305968Y-107898702D01*
X118309222Y-107896735D01*
X118316686Y-107890888D01*
X118525299Y-107727449D01*
X118525302Y-107727447D01*
X118528302Y-107725096D01*
X118725096Y-107528302D01*
X118791371Y-107443709D01*
X118894392Y-107312213D01*
X118894394Y-107312210D01*
X118896735Y-107309222D01*
X119040715Y-107071050D01*
X119111430Y-106913929D01*
X119153373Y-106820736D01*
X119153375Y-106820730D01*
X119154937Y-106817260D01*
X119226216Y-106588515D01*
X119265578Y-106529429D01*
X119330636Y-106501004D01*
X119346511Y-106500000D01*
X123036673Y-106500000D01*
X123104707Y-106519976D01*
G37*
%TD.AperFunction*%
%TA.AperFunction,Conductor*%
G36*
X147031743Y-110621162D02*
G01*
X147284477Y-110789652D01*
X147284479Y-110789653D01*
X147300000Y-110800000D01*
X148173500Y-110800000D01*
X148241621Y-110820002D01*
X148288114Y-110873658D01*
X148299500Y-110926000D01*
X148299500Y-114297709D01*
X148279498Y-114365830D01*
X148224247Y-114413038D01*
X148201646Y-114422983D01*
X148159941Y-114441334D01*
X148156136Y-114443702D01*
X148156133Y-114443704D01*
X148090172Y-114484761D01*
X148090168Y-114484764D01*
X148086357Y-114487136D01*
X148082925Y-114490021D01*
X148082918Y-114490026D01*
X147980154Y-114576408D01*
X147976722Y-114579293D01*
X147973734Y-114582635D01*
X147921941Y-114640562D01*
X147921938Y-114640567D01*
X147918949Y-114643909D01*
X147916464Y-114647642D01*
X147916461Y-114647646D01*
X147848041Y-114750432D01*
X147839586Y-114763134D01*
X147802270Y-114841368D01*
X147800933Y-114845647D01*
X147800932Y-114845650D01*
X147795185Y-114864046D01*
X147759560Y-114978074D01*
X147745702Y-115063634D01*
X147745620Y-115068114D01*
X147744146Y-115148543D01*
X147743077Y-115206833D01*
X147743631Y-115211283D01*
X147743868Y-115215755D01*
X147743758Y-115215761D01*
X147744295Y-115224425D01*
X147744295Y-115650000D01*
X147744362Y-115651442D01*
X147744362Y-115651457D01*
X147744571Y-115655979D01*
X147745599Y-115678207D01*
X147768995Y-115760433D01*
X147769676Y-115762827D01*
X147769088Y-115832866D01*
X147764939Y-115839567D01*
X147761557Y-115857662D01*
X147754268Y-115896652D01*
X147722089Y-115959938D01*
X147660804Y-115995780D01*
X147630413Y-115999500D01*
X146102349Y-115999500D01*
X146034228Y-115979498D01*
X145987649Y-115925652D01*
X145955707Y-115855401D01*
X145955705Y-115855398D01*
X145953848Y-115851313D01*
X145907150Y-115778293D01*
X145813660Y-115669792D01*
X145810291Y-115666853D01*
X145810287Y-115666849D01*
X145751723Y-115615761D01*
X145748343Y-115612812D01*
X145739025Y-115606772D01*
X145631921Y-115537351D01*
X145631920Y-115537351D01*
X145628158Y-115534912D01*
X145549473Y-115498555D01*
X145412255Y-115457519D01*
X145326533Y-115444708D01*
X145241249Y-115444187D01*
X145221300Y-115444065D01*
X145153303Y-115423647D01*
X145107139Y-115369708D01*
X145097550Y-115300000D01*
X145100000Y-115300000D01*
X145100000Y-110726000D01*
X145120002Y-110657879D01*
X145173658Y-110611386D01*
X145226000Y-110600000D01*
X146961851Y-110600000D01*
X147031743Y-110621162D01*
G37*
%TD.AperFunction*%
%TA.AperFunction,Conductor*%
G36*
X123514464Y-113805502D02*
G01*
X123560957Y-113859158D01*
X123571061Y-113929432D01*
X123568049Y-113944112D01*
X123566829Y-113948664D01*
X123563670Y-113956291D01*
X123562593Y-113964471D01*
X123562592Y-113964475D01*
X123547390Y-114079947D01*
X123518667Y-114144874D01*
X123459402Y-114183965D01*
X123422468Y-114189500D01*
X123200570Y-114189500D01*
X123191283Y-114190378D01*
X123176329Y-114191791D01*
X123176326Y-114191792D01*
X123168684Y-114192514D01*
X123161437Y-114195059D01*
X123052962Y-114233153D01*
X123039450Y-114237898D01*
X123031871Y-114243496D01*
X122974859Y-114285605D01*
X122908181Y-114309988D01*
X122838905Y-114294451D01*
X122825141Y-114285605D01*
X122768129Y-114243496D01*
X122760550Y-114237898D01*
X122747039Y-114233153D01*
X122638563Y-114195059D01*
X122631316Y-114192514D01*
X122623674Y-114191792D01*
X122623671Y-114191791D01*
X122608717Y-114190378D01*
X122599430Y-114189500D01*
X122065570Y-114189500D01*
X122056283Y-114190378D01*
X122041329Y-114191791D01*
X122041326Y-114191792D01*
X122033684Y-114192514D01*
X121970180Y-114214815D01*
X121899281Y-114218514D01*
X121837636Y-114183295D01*
X121804818Y-114120338D01*
X121802991Y-114084076D01*
X121804666Y-114066354D01*
X121805500Y-114057531D01*
X121805499Y-113911499D01*
X121825501Y-113843380D01*
X121879156Y-113796887D01*
X121931499Y-113785500D01*
X123446343Y-113785500D01*
X123514464Y-113805502D01*
G37*
%TD.AperFunction*%
%TA.AperFunction,Conductor*%
G36*
X122608388Y-110320502D02*
G01*
X122654881Y-110374158D01*
X122664985Y-110444432D01*
X122635491Y-110509012D01*
X122612544Y-110526970D01*
X122613803Y-110528704D01*
X122596317Y-110541408D01*
X122596006Y-110541634D01*
X122579150Y-110551963D01*
X122568386Y-110557448D01*
X122568385Y-110557449D01*
X122559551Y-110561950D01*
X122536988Y-110584513D01*
X122536984Y-110584516D01*
X122408905Y-110712595D01*
X122346593Y-110746621D01*
X122319810Y-110749500D01*
X122290265Y-110749500D01*
X122222144Y-110729498D01*
X122201166Y-110712592D01*
X122187401Y-110698826D01*
X122153379Y-110636513D01*
X122150500Y-110609734D01*
X122150500Y-110426500D01*
X122170502Y-110358379D01*
X122224158Y-110311886D01*
X122276500Y-110300500D01*
X122540267Y-110300500D01*
X122608388Y-110320502D01*
G37*
%TD.AperFunction*%
%TD*%
%TA.AperFunction,Conductor*%
%TO.N,/+20V*%
G36*
X126649538Y-114131002D02*
G01*
X126696031Y-114184658D01*
X126707223Y-114230011D01*
X126739306Y-114807502D01*
X126739500Y-114814491D01*
X126739500Y-115304146D01*
X126742618Y-115330346D01*
X126756724Y-115362102D01*
X126762658Y-115375462D01*
X126773313Y-115419620D01*
X126774171Y-115435059D01*
X126800113Y-115902021D01*
X126800307Y-115909046D01*
X126800020Y-116649476D01*
X126800000Y-116700000D01*
X126800000Y-118695159D01*
X126799629Y-118704823D01*
X126700000Y-120000000D01*
X126700000Y-124674000D01*
X126679998Y-124742121D01*
X126626342Y-124788614D01*
X126574000Y-124800000D01*
X123534899Y-124800000D01*
X123470074Y-124782045D01*
X123061173Y-124536704D01*
X123013051Y-124484505D01*
X123000000Y-124428660D01*
X123000000Y-120900000D01*
X120720403Y-120900000D01*
X120652282Y-120879998D01*
X120605789Y-120826342D01*
X120594533Y-120779721D01*
X120504005Y-118788107D01*
X120520893Y-118719149D01*
X120572382Y-118670267D01*
X120581413Y-118666078D01*
X121691343Y-118203607D01*
X121700000Y-118200000D01*
X123571322Y-116649476D01*
X123636538Y-116621416D01*
X123651709Y-116620499D01*
X123750030Y-116620499D01*
X123752980Y-116620220D01*
X123752985Y-116620220D01*
X123774614Y-116618176D01*
X123774615Y-116618176D01*
X123782264Y-116617453D01*
X123789512Y-116614908D01*
X123789515Y-116614907D01*
X123833699Y-116599390D01*
X123912916Y-116571571D01*
X124024301Y-116489301D01*
X124106571Y-116377916D01*
X124109692Y-116369028D01*
X124114099Y-116360705D01*
X124116725Y-116362096D01*
X124149184Y-116316955D01*
X124187680Y-116296521D01*
X124196353Y-116293703D01*
X124215578Y-116289087D01*
X124227512Y-116287197D01*
X124227513Y-116287197D01*
X124237304Y-116285646D01*
X124246137Y-116281145D01*
X124246141Y-116281144D01*
X124256906Y-116275659D01*
X124275166Y-116268095D01*
X124296090Y-116261296D01*
X124313893Y-116248361D01*
X124330745Y-116238035D01*
X124341502Y-116232554D01*
X124350342Y-116228050D01*
X124372895Y-116205497D01*
X124372910Y-116205483D01*
X125105987Y-115472405D01*
X125168300Y-115438380D01*
X125195083Y-115435500D01*
X125434146Y-115435500D01*
X125437850Y-115435059D01*
X125437853Y-115435059D01*
X125445246Y-115434179D01*
X125460346Y-115432382D01*
X125469246Y-115428429D01*
X125552018Y-115391663D01*
X125562653Y-115386939D01*
X125610525Y-115338984D01*
X125613226Y-115336278D01*
X125666900Y-115304400D01*
X125681884Y-115300000D01*
X125700000Y-115300000D01*
X125700000Y-114237000D01*
X125720002Y-114168879D01*
X125773658Y-114122386D01*
X125826000Y-114111000D01*
X126581417Y-114111000D01*
X126649538Y-114131002D01*
G37*
%TD.AperFunction*%
%TD*%
%TA.AperFunction,Conductor*%
%TO.N,/Vreg*%
G36*
X144642121Y-108120002D02*
G01*
X144688614Y-108173658D01*
X144700000Y-108226000D01*
X144700000Y-109747810D01*
X144679998Y-109815931D01*
X144663095Y-109836905D01*
X144500000Y-110000000D01*
X144500000Y-114874000D01*
X144479998Y-114942121D01*
X144426342Y-114988614D01*
X144374000Y-115000000D01*
X142910148Y-115000000D01*
X142889979Y-114998375D01*
X142123000Y-114874000D01*
X139305830Y-114417162D01*
X139241790Y-114386514D01*
X139204486Y-114326108D01*
X139200000Y-114292787D01*
X139200000Y-110423775D01*
X139208663Y-110377861D01*
X139420342Y-109836905D01*
X140068662Y-108180086D01*
X140112112Y-108123937D01*
X140185999Y-108100000D01*
X144574000Y-108100000D01*
X144642121Y-108120002D01*
G37*
%TD.AperFunction*%
%TD*%
%TA.AperFunction,Conductor*%
%TO.N,Net-(JP3-Pad1)*%
G36*
X148423923Y-108120002D02*
G01*
X148434514Y-108127611D01*
X149852712Y-109262170D01*
X149893410Y-109320343D01*
X149900000Y-109360559D01*
X149900000Y-110374000D01*
X149879998Y-110442121D01*
X149826342Y-110488614D01*
X149774000Y-110500000D01*
X147703295Y-110500000D01*
X147635174Y-110479998D01*
X147588681Y-110426342D01*
X147579742Y-110398711D01*
X147503553Y-110017764D01*
X147503553Y-110017763D01*
X147500000Y-110000000D01*
X146415536Y-109909628D01*
X146349312Y-109884038D01*
X146307435Y-109826706D01*
X146300000Y-109784063D01*
X146300000Y-108226000D01*
X146320002Y-108157879D01*
X146373658Y-108111386D01*
X146426000Y-108100000D01*
X148355802Y-108100000D01*
X148423923Y-108120002D01*
G37*
%TD.AperFunction*%
%TD*%
M02*
