%TF.GenerationSoftware,KiCad,Pcbnew,6.0.11+dfsg-1~bpo11+1*%
%TF.CreationDate,2023-10-14T14:13:14-05:00*%
%TF.ProjectId,Gauntl33tVoltageRegulator,4761756e-746c-4333-9374-566f6c746167,rev?*%
%TF.SameCoordinates,Original*%
%TF.FileFunction,Copper,L1,Top*%
%TF.FilePolarity,Positive*%
%FSLAX46Y46*%
G04 Gerber Fmt 4.6, Leading zero omitted, Abs format (unit mm)*
G04 Created by KiCad (PCBNEW 6.0.11+dfsg-1~bpo11+1) date 2023-10-14 14:13:14*
%MOMM*%
%LPD*%
G01*
G04 APERTURE LIST*
G04 Aperture macros list*
%AMRoundRect*
0 Rectangle with rounded corners*
0 $1 Rounding radius*
0 $2 $3 $4 $5 $6 $7 $8 $9 X,Y pos of 4 corners*
0 Add a 4 corners polygon primitive as box body*
4,1,4,$2,$3,$4,$5,$6,$7,$8,$9,$2,$3,0*
0 Add four circle primitives for the rounded corners*
1,1,$1+$1,$2,$3*
1,1,$1+$1,$4,$5*
1,1,$1+$1,$6,$7*
1,1,$1+$1,$8,$9*
0 Add four rect primitives between the rounded corners*
20,1,$1+$1,$2,$3,$4,$5,0*
20,1,$1+$1,$4,$5,$6,$7,0*
20,1,$1+$1,$6,$7,$8,$9,0*
20,1,$1+$1,$8,$9,$2,$3,0*%
%AMFreePoly0*
4,1,22,0.500000,-0.750000,0.000000,-0.750000,0.000000,-0.745033,-0.079941,-0.743568,-0.215256,-0.701293,-0.333266,-0.622738,-0.424486,-0.514219,-0.481581,-0.384460,-0.499164,-0.250000,-0.500000,-0.250000,-0.500000,0.250000,-0.499164,0.250000,-0.499963,0.256109,-0.478152,0.396186,-0.417904,0.524511,-0.324060,0.630769,-0.204165,0.706417,-0.067858,0.745374,0.000000,0.744959,0.000000,0.750000,
0.500000,0.750000,0.500000,-0.750000,0.500000,-0.750000,$1*%
%AMFreePoly1*
4,1,20,0.000000,0.744959,0.073905,0.744508,0.209726,0.703889,0.328688,0.626782,0.421226,0.519385,0.479903,0.390333,0.500000,0.250000,0.500000,-0.250000,0.499851,-0.262216,0.476331,-0.402017,0.414519,-0.529596,0.319384,-0.634700,0.198574,-0.708877,0.061801,-0.746166,0.000000,-0.745033,0.000000,-0.750000,-0.500000,-0.750000,-0.500000,0.750000,0.000000,0.750000,0.000000,0.744959,
0.000000,0.744959,$1*%
G04 Aperture macros list end*
%TA.AperFunction,SMDPad,CuDef*%
%ADD10RoundRect,0.160000X0.197500X0.160000X-0.197500X0.160000X-0.197500X-0.160000X0.197500X-0.160000X0*%
%TD*%
%TA.AperFunction,SMDPad,CuDef*%
%ADD11R,3.175000X3.300000*%
%TD*%
%TA.AperFunction,SMDPad,CuDef*%
%ADD12RoundRect,0.250000X-0.412500X-1.100000X0.412500X-1.100000X0.412500X1.100000X-0.412500X1.100000X0*%
%TD*%
%TA.AperFunction,SMDPad,CuDef*%
%ADD13RoundRect,0.250000X0.412500X1.100000X-0.412500X1.100000X-0.412500X-1.100000X0.412500X-1.100000X0*%
%TD*%
%TA.AperFunction,SMDPad,CuDef*%
%ADD14RoundRect,0.160000X-0.197500X-0.160000X0.197500X-0.160000X0.197500X0.160000X-0.197500X0.160000X0*%
%TD*%
%TA.AperFunction,SMDPad,CuDef*%
%ADD15FreePoly0,0.000000*%
%TD*%
%TA.AperFunction,SMDPad,CuDef*%
%ADD16FreePoly1,0.000000*%
%TD*%
%TA.AperFunction,SMDPad,CuDef*%
%ADD17RoundRect,0.250001X0.624999X-0.462499X0.624999X0.462499X-0.624999X0.462499X-0.624999X-0.462499X0*%
%TD*%
%TA.AperFunction,SMDPad,CuDef*%
%ADD18R,0.300000X0.550000*%
%TD*%
%TA.AperFunction,SMDPad,CuDef*%
%ADD19R,0.450000X0.300000*%
%TD*%
%TA.AperFunction,SMDPad,CuDef*%
%ADD20R,0.730000X0.300000*%
%TD*%
%TA.AperFunction,SMDPad,CuDef*%
%ADD21R,0.300000X0.725000*%
%TD*%
%TA.AperFunction,SMDPad,CuDef*%
%ADD22R,0.725000X0.300000*%
%TD*%
%TA.AperFunction,SMDPad,CuDef*%
%ADD23R,1.050000X1.575000*%
%TD*%
%TA.AperFunction,SMDPad,CuDef*%
%ADD24R,1.050000X1.150000*%
%TD*%
%TA.AperFunction,SMDPad,CuDef*%
%ADD25R,1.200000X2.175000*%
%TD*%
%TA.AperFunction,SMDPad,CuDef*%
%ADD26R,0.380000X0.580000*%
%TD*%
%TA.AperFunction,SMDPad,CuDef*%
%ADD27R,0.445000X0.650000*%
%TD*%
%TA.AperFunction,SMDPad,CuDef*%
%ADD28R,0.275000X2.350000*%
%TD*%
%TA.AperFunction,SMDPad,CuDef*%
%ADD29RoundRect,0.237500X0.300000X0.237500X-0.300000X0.237500X-0.300000X-0.237500X0.300000X-0.237500X0*%
%TD*%
%TA.AperFunction,SMDPad,CuDef*%
%ADD30RoundRect,0.160000X0.160000X-0.197500X0.160000X0.197500X-0.160000X0.197500X-0.160000X-0.197500X0*%
%TD*%
%TA.AperFunction,SMDPad,CuDef*%
%ADD31R,2.200000X1.200000*%
%TD*%
%TA.AperFunction,SMDPad,CuDef*%
%ADD32R,6.400000X5.800000*%
%TD*%
%TA.AperFunction,ComponentPad*%
%ADD33R,2.400000X2.400000*%
%TD*%
%TA.AperFunction,ComponentPad*%
%ADD34C,2.400000*%
%TD*%
%TA.AperFunction,SMDPad,CuDef*%
%ADD35R,1.200000X1.200000*%
%TD*%
%TA.AperFunction,SMDPad,CuDef*%
%ADD36R,1.500000X1.600000*%
%TD*%
%TA.AperFunction,SMDPad,CuDef*%
%ADD37FreePoly0,90.000000*%
%TD*%
%TA.AperFunction,SMDPad,CuDef*%
%ADD38FreePoly1,90.000000*%
%TD*%
%TA.AperFunction,SMDPad,CuDef*%
%ADD39FreePoly0,270.000000*%
%TD*%
%TA.AperFunction,SMDPad,CuDef*%
%ADD40FreePoly1,270.000000*%
%TD*%
%TA.AperFunction,SMDPad,CuDef*%
%ADD41RoundRect,0.160000X-0.160000X0.197500X-0.160000X-0.197500X0.160000X-0.197500X0.160000X0.197500X0*%
%TD*%
%TA.AperFunction,SMDPad,CuDef*%
%ADD42RoundRect,0.155000X-0.212500X-0.155000X0.212500X-0.155000X0.212500X0.155000X-0.212500X0.155000X0*%
%TD*%
%TA.AperFunction,SMDPad,CuDef*%
%ADD43RoundRect,0.100000X-0.217500X-0.100000X0.217500X-0.100000X0.217500X0.100000X-0.217500X0.100000X0*%
%TD*%
%TA.AperFunction,SMDPad,CuDef*%
%ADD44RoundRect,0.250000X-0.337500X-0.475000X0.337500X-0.475000X0.337500X0.475000X-0.337500X0.475000X0*%
%TD*%
%TA.AperFunction,SMDPad,CuDef*%
%ADD45RoundRect,0.250000X-0.475000X0.337500X-0.475000X-0.337500X0.475000X-0.337500X0.475000X0.337500X0*%
%TD*%
%TA.AperFunction,SMDPad,CuDef*%
%ADD46RoundRect,0.250001X0.462499X0.624999X-0.462499X0.624999X-0.462499X-0.624999X0.462499X-0.624999X0*%
%TD*%
%TA.AperFunction,SMDPad,CuDef*%
%ADD47R,1.070000X1.780000*%
%TD*%
%TA.AperFunction,SMDPad,CuDef*%
%ADD48RoundRect,0.100000X-0.100000X0.217500X-0.100000X-0.217500X0.100000X-0.217500X0.100000X0.217500X0*%
%TD*%
%TA.AperFunction,SMDPad,CuDef*%
%ADD49RoundRect,0.155000X0.155000X-0.212500X0.155000X0.212500X-0.155000X0.212500X-0.155000X-0.212500X0*%
%TD*%
%TA.AperFunction,ViaPad*%
%ADD50C,0.500000*%
%TD*%
%TA.AperFunction,ViaPad*%
%ADD51C,0.650000*%
%TD*%
%TA.AperFunction,ViaPad*%
%ADD52C,0.800000*%
%TD*%
%TA.AperFunction,ViaPad*%
%ADD53C,0.400000*%
%TD*%
%TA.AperFunction,Conductor*%
%ADD54C,0.200000*%
%TD*%
%TA.AperFunction,Conductor*%
%ADD55C,0.400000*%
%TD*%
%TA.AperFunction,Conductor*%
%ADD56C,0.250000*%
%TD*%
G04 APERTURE END LIST*
D10*
%TO.P,R9,1*%
%TO.N,/EN*%
X123697500Y-112400000D03*
%TO.P,R9,2*%
%TO.N,+5VP*%
X122502500Y-112400000D03*
%TD*%
%TO.P,R8,1*%
%TO.N,/EN*%
X123297500Y-111400000D03*
%TO.P,R8,2*%
%TO.N,GND*%
X122102500Y-111400000D03*
%TD*%
D11*
%TO.P,L1,1,1*%
%TO.N,Net-(IC1-Pad5)*%
X132685000Y-111200000D03*
%TO.P,L1,2,2*%
%TO.N,/Vreg*%
X144115000Y-111200000D03*
%TD*%
D12*
%TO.P,C1,1*%
%TO.N,/+20V*%
X125337500Y-119300000D03*
%TO.P,C1,2*%
%TO.N,GND*%
X128462500Y-119300000D03*
%TD*%
D13*
%TO.P,C11,1*%
%TO.N,/5V*%
X134162500Y-123000000D03*
%TO.P,C11,2*%
%TO.N,GND*%
X131037500Y-123000000D03*
%TD*%
D14*
%TO.P,R7,1*%
%TO.N,/PGOOD*%
X130402500Y-118600000D03*
%TO.P,R7,2*%
%TO.N,Net-(J1-Pad5)*%
X131597500Y-118600000D03*
%TD*%
D15*
%TO.P,JP4,1,A*%
%TO.N,/+20V*%
X145750000Y-116500000D03*
D16*
%TO.P,JP4,2,B*%
%TO.N,Net-(C8-Pad1)*%
X147050000Y-116500000D03*
%TD*%
D17*
%TO.P,F2,1*%
%TO.N,Net-(F2-Pad1)*%
X121600000Y-122587500D03*
%TO.P,F2,2*%
%TO.N,/+20V*%
X121600000Y-119612500D03*
%TD*%
D18*
%TO.P,IC1,1,VIN_1*%
%TO.N,/+20V*%
X126140000Y-115536000D03*
%TO.P,IC1,2,VIN_2*%
X126590000Y-115536000D03*
%TO.P,IC1,3,PGND_1*%
%TO.N,GND*%
X127490000Y-115535000D03*
%TO.P,IC1,4,PGND_2*%
X127940000Y-115535000D03*
D19*
%TO.P,IC1,5,SW_1*%
%TO.N,Net-(IC1-Pad5)*%
X129040000Y-114984000D03*
%TO.P,IC1,6,SW_2*%
X129040000Y-114534000D03*
%TO.P,IC1,7,SW_3*%
X129040000Y-114084000D03*
%TO.P,IC1,8,SW_4*%
X129040000Y-113384000D03*
%TO.P,IC1,9,SW_5*%
X129040000Y-112934000D03*
D20*
%TO.P,IC1,10,GL_1*%
%TO.N,unconnected-(IC1-Pad10)*%
X128900000Y-112484000D03*
D21*
%TO.P,IC1,11,GL_2*%
%TO.N,unconnected-(IC1-Pad11)*%
X128389000Y-111572000D03*
%TO.P,IC1,12,VDRV*%
%TO.N,+5VP*%
X127939000Y-111572000D03*
%TO.P,IC1,13,PGND_3*%
%TO.N,GND*%
X127489000Y-111572000D03*
%TO.P,IC1,14,PGOOD*%
%TO.N,/PGOOD*%
X127039000Y-111572000D03*
%TO.P,IC1,15,VDD*%
%TO.N,+5VP*%
X126589000Y-111572000D03*
%TO.P,IC1,16,AGND_1*%
%TO.N,GND*%
X126139000Y-111572000D03*
%TO.P,IC1,17,FB*%
%TO.N,Net-(200K1-Pad3)*%
X125689000Y-111572000D03*
D22*
%TO.P,IC1,18,VOUT*%
%TO.N,/Vreg*%
X125027000Y-112035000D03*
%TO.P,IC1,19,EN*%
%TO.N,/EN*%
X125027000Y-112485000D03*
%TO.P,IC1,20,MODE2*%
%TO.N,Net-(IC1-Pad20)*%
X125027000Y-112935000D03*
%TO.P,IC1,21,MODE1*%
%TO.N,Net-(IC1-Pad21)*%
X125027000Y-113385000D03*
%TO.P,IC1,22,VIN_3*%
%TO.N,/+20V*%
X125027000Y-114085000D03*
%TO.P,IC1,23,BOOT*%
%TO.N,Net-(C2-Pad2)*%
X125027000Y-114535000D03*
%TO.P,IC1,24,PHASE*%
%TO.N,Net-(IC1-Pad24)*%
X125027000Y-114985000D03*
D23*
%TO.P,IC1,25,AGND_2*%
%TO.N,GND*%
X126215000Y-113023000D03*
D24*
%TO.P,IC1,26,VIN_4*%
%TO.N,/+20V*%
X126215000Y-114686000D03*
D25*
%TO.P,IC1,27,PGND_4*%
%TO.N,GND*%
X127640000Y-114172000D03*
D26*
%TO.P,IC1,28,GL_3*%
%TO.N,unconnected-(IC1-Pad28)*%
X127979000Y-112524000D03*
D27*
%TO.P,IC1,29,PGND_5*%
%TO.N,GND*%
X127262000Y-112760000D03*
D28*
%TO.P,IC1,30,SW_6*%
%TO.N,/SW*%
X128678000Y-113959000D03*
%TD*%
D29*
%TO.P,C0,1*%
%TO.N,+5VP*%
X129862500Y-109860000D03*
%TO.P,C0,2*%
%TO.N,GND*%
X128137500Y-109860000D03*
%TD*%
D30*
%TO.P,R3,1*%
%TO.N,Net-(IC1-Pad20)*%
X121100000Y-112637500D03*
%TO.P,R3,2*%
%TO.N,+5VP*%
X121100000Y-111442500D03*
%TD*%
D10*
%TO.P,R1,1*%
%TO.N,Net-(IC1-Pad24)*%
X123497500Y-116000000D03*
%TO.P,R1,2*%
%TO.N,Net-(C2-Pad1)*%
X122302500Y-116000000D03*
%TD*%
D31*
%TO.P,U1,1,IN*%
%TO.N,Net-(C8-Pad1)*%
X141575000Y-118945000D03*
D32*
%TO.P,U1,2,GND*%
%TO.N,GND*%
X147875000Y-121225000D03*
D31*
X141575000Y-121225000D03*
%TO.P,U1,3,OUT*%
%TO.N,/5V*%
X141575000Y-123505000D03*
%TD*%
D33*
%TO.P,J1,1,Pin_1*%
%TO.N,Net-(F2-Pad1)*%
X122050000Y-128900000D03*
D34*
%TO.P,J1,2,Pin_2*%
%TO.N,GND*%
X125550000Y-128900000D03*
%TO.P,J1,3,Pin_3*%
%TO.N,Net-(F1-Pad1)*%
X129050000Y-128900000D03*
%TO.P,J1,4,Pin_4*%
%TO.N,GND*%
X132550000Y-128900000D03*
%TO.P,J1,5,Pin_5*%
%TO.N,Net-(J1-Pad5)*%
X136050000Y-128900000D03*
%TO.P,J1,6,Pin_6*%
%TO.N,/EN*%
X139550000Y-128900000D03*
%TO.P,J1,7,Pin_7*%
%TO.N,/5V*%
X143050000Y-128900000D03*
%TO.P,J1,8,Pin_8*%
%TO.N,GND*%
X146550000Y-128900000D03*
%TD*%
D12*
%TO.P,C3,1*%
%TO.N,/+20V*%
X125337500Y-122800000D03*
%TO.P,C3,2*%
%TO.N,GND*%
X128462500Y-122800000D03*
%TD*%
D35*
%TO.P,200K1,1,1*%
%TO.N,Net-(200K1-Pad1)*%
X124400000Y-109800000D03*
D36*
%TO.P,200K1,2,2*%
X121150000Y-108800000D03*
D35*
%TO.P,200K1,3,3*%
%TO.N,Net-(200K1-Pad3)*%
X124400000Y-107800000D03*
%TD*%
D37*
%TO.P,JP1,1,A*%
%TO.N,Net-(200K1-Pad3)*%
X119200000Y-115650000D03*
D38*
%TO.P,JP1,2,B*%
%TO.N,Net-(200K1-Pad1)*%
X119200000Y-114350000D03*
%TD*%
D13*
%TO.P,C8,2*%
%TO.N,GND*%
X133537500Y-119500000D03*
%TO.P,C8,1*%
%TO.N,Net-(C8-Pad1)*%
X136662500Y-119500000D03*
%TD*%
D10*
%TO.P,R2,1*%
%TO.N,/PGOOD*%
X128562500Y-108332061D03*
%TO.P,R2,2*%
%TO.N,+5VP*%
X127367500Y-108332061D03*
%TD*%
D39*
%TO.P,JP3,1,A*%
%TO.N,Net-(F1-Pad1)*%
X149000000Y-115150000D03*
D40*
%TO.P,JP3,2,B*%
%TO.N,Net-(C8-Pad1)*%
X149000000Y-116450000D03*
%TD*%
D41*
%TO.P,R4,1*%
%TO.N,Net-(IC1-Pad21)*%
X121185000Y-113805000D03*
%TO.P,R4,2*%
%TO.N,+5VP*%
X121185000Y-115000000D03*
%TD*%
D42*
%TO.P,C2,1*%
%TO.N,Net-(C2-Pad1)*%
X122332500Y-114800000D03*
%TO.P,C2,2*%
%TO.N,Net-(C2-Pad2)*%
X123467500Y-114800000D03*
%TD*%
D43*
%TO.P,C4,1*%
%TO.N,/+20V*%
X126692500Y-116900000D03*
%TO.P,C4,2*%
%TO.N,GND*%
X127507500Y-116900000D03*
%TD*%
D44*
%TO.P,C6,1*%
%TO.N,/Vreg*%
X147762500Y-111300000D03*
%TO.P,C6,2*%
%TO.N,GND*%
X149837500Y-111300000D03*
%TD*%
D45*
%TO.P,C9,1*%
%TO.N,Net-(C8-Pad1)*%
X138900000Y-118862500D03*
%TO.P,C9,2*%
%TO.N,GND*%
X138900000Y-120937500D03*
%TD*%
D46*
%TO.P,F1,2*%
%TO.N,/Vreg*%
X145812500Y-108200000D03*
%TO.P,F1,1*%
%TO.N,Net-(F1-Pad1)*%
X148787500Y-108200000D03*
%TD*%
D47*
%TO.P,C5,1*%
%TO.N,GND*%
X150260000Y-113400000D03*
%TO.P,C5,2*%
%TO.N,/Vreg*%
X147540000Y-113400000D03*
%TD*%
D48*
%TO.P,C7,1*%
%TO.N,GND*%
X126385000Y-109282500D03*
%TO.P,C7,2*%
%TO.N,+5VP*%
X126385000Y-110097500D03*
%TD*%
D39*
%TO.P,JP2,1,A*%
%TO.N,+5VP*%
X118900000Y-118500000D03*
D40*
%TO.P,JP2,2,B*%
%TO.N,/5V*%
X118900000Y-119800000D03*
%TD*%
D49*
%TO.P,R5,1*%
%TO.N,/Vreg*%
X119400000Y-111667500D03*
%TO.P,R5,2*%
%TO.N,Net-(200K1-Pad1)*%
X119400000Y-110532500D03*
%TD*%
%TO.P,R6,1*%
%TO.N,GND*%
X126000000Y-108267500D03*
%TO.P,R6,2*%
%TO.N,Net-(200K1-Pad3)*%
X126000000Y-107132500D03*
%TD*%
D45*
%TO.P,C10,1*%
%TO.N,/5V*%
X136600000Y-122162500D03*
%TO.P,C10,2*%
%TO.N,GND*%
X136600000Y-124237500D03*
%TD*%
D50*
%TO.N,GND*%
X134700000Y-120600000D03*
X134700000Y-119900000D03*
X146800000Y-123400000D03*
X146200000Y-123400000D03*
X145600000Y-123400000D03*
X146800000Y-119200000D03*
X146800000Y-121600000D03*
X146800000Y-122800000D03*
X146800000Y-118600000D03*
X146800000Y-119800000D03*
X146800000Y-120400000D03*
X146800000Y-122200000D03*
X146800000Y-121000000D03*
X146200000Y-119200000D03*
X146200000Y-121600000D03*
X146200000Y-122800000D03*
X146200000Y-118600000D03*
X146200000Y-119800000D03*
X146200000Y-120400000D03*
X146200000Y-122200000D03*
X146200000Y-121000000D03*
X140000000Y-122200000D03*
X140000000Y-121500000D03*
X140000000Y-120800000D03*
X124600000Y-127000000D03*
X126500000Y-127000000D03*
X131000000Y-127500000D03*
X134300000Y-127600000D03*
X144800000Y-127600000D03*
X149000000Y-130200000D03*
X148300000Y-130200000D03*
X144800000Y-130200000D03*
X137800000Y-127400000D03*
X137700000Y-130200000D03*
X123800000Y-130300000D03*
X127200000Y-130200000D03*
X130800000Y-130200000D03*
X134300000Y-130200000D03*
X140800000Y-127600000D03*
X141600000Y-130200000D03*
X140900000Y-130200000D03*
X137200000Y-123800000D03*
X136600000Y-123800000D03*
X136600000Y-123200000D03*
X136000000Y-123800000D03*
%TO.N,/Vreg*%
X140000000Y-111900000D03*
X140700000Y-111200000D03*
X140700000Y-112600000D03*
X140000000Y-110500000D03*
X140700000Y-110500000D03*
X140000000Y-109800000D03*
X140700000Y-109800000D03*
X140700000Y-111900000D03*
X140000000Y-111200000D03*
X140000000Y-112600000D03*
X141500000Y-111900000D03*
X142200000Y-111200000D03*
X142200000Y-112600000D03*
X141500000Y-110500000D03*
X142200000Y-110500000D03*
X141500000Y-109800000D03*
X142200000Y-109800000D03*
X142200000Y-111900000D03*
X141500000Y-111200000D03*
X141500000Y-112600000D03*
%TO.N,Net-(F2-Pad1)*%
X122200000Y-123500000D03*
X121500000Y-123500000D03*
X120800000Y-123500000D03*
X122200000Y-122800000D03*
X121500000Y-122800000D03*
X120100000Y-122800000D03*
X120800000Y-122800000D03*
X122200000Y-122100000D03*
X121500000Y-122100000D03*
X120800000Y-122100000D03*
X120100000Y-122100000D03*
%TO.N,GND*%
X130700000Y-122400000D03*
X131400000Y-122400000D03*
X131400000Y-123100000D03*
X130700000Y-123100000D03*
%TO.N,/EN*%
X130749500Y-117200000D03*
X123800000Y-112300000D03*
%TO.N,GND*%
X122000000Y-111300000D03*
%TO.N,/+20V*%
X122300000Y-119100000D03*
X121600000Y-119100000D03*
X121987162Y-119604940D03*
X121300000Y-119600000D03*
%TO.N,GND*%
X150600000Y-108300000D03*
X151300000Y-109000000D03*
X150600000Y-109000000D03*
X145300000Y-106800000D03*
X146000000Y-106800000D03*
X144600000Y-106800000D03*
X146700000Y-106800000D03*
%TO.N,Net-(F1-Pad1)*%
X149400000Y-109200000D03*
X149400000Y-108600000D03*
X148800000Y-108600000D03*
%TO.N,GND*%
X138800000Y-116000000D03*
X138200000Y-116000000D03*
X136400000Y-116000000D03*
X135200000Y-116000000D03*
X137000000Y-116000000D03*
X135800000Y-116000000D03*
X137600000Y-116000000D03*
X134600000Y-116000000D03*
X132800000Y-116000000D03*
X131600000Y-116000000D03*
X133400000Y-116000000D03*
X132200000Y-116000000D03*
X134000000Y-116000000D03*
X134600000Y-115400000D03*
X132800000Y-115400000D03*
X131600000Y-115400000D03*
X133400000Y-115400000D03*
X132200000Y-115400000D03*
X134000000Y-115400000D03*
X141800000Y-115400000D03*
X140000000Y-115400000D03*
X138800000Y-115400000D03*
X140600000Y-115400000D03*
X139400000Y-115400000D03*
X141200000Y-115400000D03*
X138200000Y-115400000D03*
X136400000Y-115400000D03*
X135200000Y-115400000D03*
X137000000Y-115400000D03*
X135800000Y-115400000D03*
X137600000Y-115400000D03*
X138200000Y-114800000D03*
X136400000Y-114800000D03*
X135200000Y-114800000D03*
X137000000Y-114800000D03*
X135800000Y-114800000D03*
X137600000Y-114800000D03*
X138200000Y-114200000D03*
X136400000Y-114200000D03*
X135200000Y-114200000D03*
X137000000Y-114200000D03*
X135800000Y-114200000D03*
X137600000Y-114200000D03*
X138200000Y-113600000D03*
X136400000Y-113600000D03*
X135200000Y-113600000D03*
X137000000Y-113600000D03*
X135800000Y-113600000D03*
X137600000Y-113600000D03*
X138200000Y-107600000D03*
X136400000Y-107600000D03*
X135200000Y-107600000D03*
X137000000Y-107600000D03*
X135800000Y-107600000D03*
X137600000Y-107600000D03*
X138200000Y-108200000D03*
X136400000Y-108200000D03*
X135200000Y-108200000D03*
X137000000Y-108200000D03*
X135800000Y-108200000D03*
X137600000Y-108200000D03*
X138200000Y-113000000D03*
X136400000Y-113000000D03*
X135200000Y-113000000D03*
X137000000Y-113000000D03*
X135800000Y-113000000D03*
X137600000Y-113000000D03*
X138200000Y-112400000D03*
X136400000Y-112400000D03*
X135200000Y-112400000D03*
X137000000Y-112400000D03*
X135800000Y-112400000D03*
X137600000Y-112400000D03*
X138200000Y-111800000D03*
X136400000Y-111800000D03*
X135200000Y-111800000D03*
X137000000Y-111800000D03*
X135800000Y-111800000D03*
X137600000Y-111800000D03*
X138200000Y-111200000D03*
X136400000Y-111200000D03*
X135200000Y-111200000D03*
X137000000Y-111200000D03*
X135800000Y-111200000D03*
X137600000Y-111200000D03*
X138200000Y-110600000D03*
X136400000Y-110600000D03*
X135200000Y-110600000D03*
X137000000Y-110600000D03*
X135800000Y-110600000D03*
X137600000Y-110600000D03*
X138200000Y-110000000D03*
X137600000Y-110000000D03*
X137000000Y-110000000D03*
X136400000Y-110000000D03*
X135800000Y-110000000D03*
X135200000Y-110000000D03*
%TO.N,/Vreg*%
X146900000Y-113800000D03*
X146900000Y-113200000D03*
X146900000Y-112600000D03*
X146900000Y-112000000D03*
X146900000Y-111400000D03*
X146900000Y-110800000D03*
X145700000Y-108700000D03*
X146300000Y-108700000D03*
X146300000Y-108100000D03*
X145700000Y-108100000D03*
%TO.N,/+20V*%
X125900000Y-115700000D03*
X126500000Y-115700000D03*
X125100000Y-119500000D03*
X125100000Y-118800000D03*
X125100000Y-118100000D03*
X125100000Y-117400000D03*
X124400000Y-117400000D03*
X124400000Y-118100000D03*
X124400000Y-118800000D03*
X124400000Y-119500000D03*
%TO.N,Net-(IC1-Pad5)*%
X131400000Y-111200000D03*
X132200000Y-111200000D03*
X133000000Y-111200000D03*
X133800000Y-111200000D03*
X133800000Y-112000000D03*
X133000000Y-112000000D03*
X132200000Y-112000000D03*
X131400000Y-112000000D03*
X131400000Y-112800000D03*
X132200000Y-112800000D03*
X133000000Y-112800000D03*
X133800000Y-112800000D03*
X133800000Y-113600000D03*
X133000000Y-113600000D03*
X132200000Y-113600000D03*
X128900000Y-113200000D03*
X128900000Y-113800000D03*
X128900000Y-114400000D03*
X128900000Y-115000000D03*
X131400000Y-113600000D03*
%TO.N,/+20V*%
X126500000Y-114400000D03*
D51*
X123800000Y-124100000D03*
D50*
X143900000Y-116500000D03*
X125265498Y-115734502D03*
X126500000Y-115000000D03*
X125900000Y-115000000D03*
X125900000Y-114400000D03*
X124100000Y-114100000D03*
%TO.N,GND*%
X134700000Y-118500000D03*
X150100000Y-122800000D03*
X126500000Y-112500000D03*
X128000000Y-122400000D03*
X150600000Y-112100000D03*
X128700000Y-121700000D03*
X150100000Y-123400000D03*
X145000000Y-121600000D03*
X128000000Y-118600000D03*
X128700000Y-120000000D03*
X151300000Y-114200000D03*
X151300000Y-110900000D03*
X127262000Y-112760000D03*
X150700000Y-121600000D03*
X150700000Y-122800000D03*
X118800000Y-109300000D03*
X127900000Y-113400000D03*
X150600000Y-114200000D03*
X151300000Y-110300000D03*
X126500000Y-113500000D03*
X145600000Y-121000000D03*
X145000000Y-122200000D03*
X145000000Y-119800000D03*
X129400000Y-122400000D03*
X129400000Y-120700000D03*
X129400000Y-120000000D03*
X125900000Y-112500000D03*
X127900000Y-114600000D03*
X151300000Y-114900000D03*
X150600000Y-113500000D03*
X150700000Y-123400000D03*
X127900000Y-115200000D03*
X140000000Y-120100000D03*
X128600000Y-110200000D03*
X125900000Y-113500000D03*
X150600000Y-110900000D03*
X128700000Y-122400000D03*
X145600000Y-122200000D03*
X129400000Y-119300000D03*
X129400000Y-121700000D03*
X145600000Y-120400000D03*
X150700000Y-118600000D03*
X120100000Y-113300000D03*
X145000000Y-121000000D03*
X134700000Y-119200000D03*
X145600000Y-119800000D03*
X128000000Y-121700000D03*
X125900000Y-113000000D03*
X128700000Y-120700000D03*
X145000000Y-119200000D03*
X127900000Y-114000000D03*
X128000000Y-120000000D03*
X129400000Y-118600000D03*
X151300000Y-111500000D03*
X151300000Y-113500000D03*
X128000000Y-120700000D03*
X136000000Y-123200000D03*
X150600000Y-112800000D03*
X145000000Y-118600000D03*
X150700000Y-119200000D03*
X128000000Y-123100000D03*
X151300000Y-112100000D03*
X143100000Y-124400000D03*
X128700000Y-118600000D03*
X124200000Y-106800000D03*
X150600000Y-111500000D03*
X127300000Y-114000000D03*
X151300000Y-112800000D03*
X145000000Y-120400000D03*
X150700000Y-120400000D03*
X145600000Y-118600000D03*
X127300000Y-115200000D03*
D52*
X119000000Y-129000000D03*
D50*
X129400000Y-123100000D03*
X128700000Y-123100000D03*
X145600000Y-122800000D03*
X150600000Y-110300000D03*
X145000000Y-123400000D03*
X150600000Y-114900000D03*
X150600000Y-109700000D03*
X122600000Y-107900000D03*
D52*
X118000000Y-128000000D03*
D50*
X127300000Y-114600000D03*
X122200000Y-114000000D03*
X128700000Y-119300000D03*
X128000000Y-119300000D03*
X151300000Y-109700000D03*
X150700000Y-122200000D03*
X150700000Y-121000000D03*
X121800000Y-116900000D03*
X150700000Y-119800000D03*
X127300000Y-113400000D03*
X145600000Y-121600000D03*
X145600000Y-119200000D03*
X126500000Y-113000000D03*
X145000000Y-122800000D03*
%TO.N,Net-(200K1-Pad3)*%
X123100000Y-107300000D03*
X119200000Y-115800000D03*
%TO.N,/PGOOD*%
X130200000Y-117800000D03*
X127121588Y-110521588D03*
D51*
%TO.N,/5V*%
X134200000Y-124000000D03*
D50*
X118900000Y-119900000D03*
%TO.N,/Vreg*%
X144400000Y-112600000D03*
X143000000Y-112600000D03*
X143000000Y-111200000D03*
X145100000Y-112600000D03*
X143700000Y-111900000D03*
X143700000Y-109800000D03*
X145100000Y-109800000D03*
X143000000Y-109800000D03*
X145100000Y-111900000D03*
X143700000Y-110500000D03*
X145100000Y-111200000D03*
X144400000Y-110500000D03*
X143000000Y-110500000D03*
X143700000Y-112600000D03*
X124246000Y-111254000D03*
X143700000Y-111200000D03*
X144400000Y-109800000D03*
X143000000Y-111900000D03*
X144400000Y-111900000D03*
X144400000Y-111200000D03*
X145100000Y-110500000D03*
%TO.N,Net-(200K1-Pad1)*%
X119200000Y-114100000D03*
X118500000Y-110500000D03*
D53*
%TO.N,+5VP*%
X121215000Y-110610000D03*
X121275000Y-115520000D03*
D50*
X127367500Y-108332061D03*
D52*
X130500000Y-109800000D03*
D50*
X118900000Y-118300000D03*
%TO.N,Net-(F1-Pad1)*%
X148200000Y-109800000D03*
X148200000Y-108600000D03*
X149400000Y-109800000D03*
X148800000Y-109800000D03*
X148200000Y-109200000D03*
X148800000Y-109200000D03*
%TD*%
D54*
%TO.N,Net-(J1-Pad5)*%
X131597500Y-118600000D02*
X131597500Y-120697500D01*
X131597500Y-120697500D02*
X132250000Y-121350000D01*
X132250000Y-121350000D02*
X132250000Y-124650000D01*
X132250000Y-124650000D02*
X133400000Y-125800000D01*
X133400000Y-125800000D02*
X135100000Y-125800000D01*
X135100000Y-125800000D02*
X136050000Y-126750000D01*
X136050000Y-126750000D02*
X136050000Y-128900000D01*
D55*
%TO.N,Net-(C8-Pad1)*%
X144100000Y-117900000D02*
X148300000Y-117900000D01*
X148300000Y-117900000D02*
X148750000Y-117450000D01*
X148750000Y-117450000D02*
X148750000Y-116500000D01*
D54*
%TO.N,/EN*%
X132723591Y-121376409D02*
X132723591Y-121023591D01*
X132723591Y-121023591D02*
X132300000Y-120600000D01*
X132300000Y-120600000D02*
X132300000Y-118000000D01*
X132300000Y-118000000D02*
X131500000Y-117200000D01*
X131500000Y-117200000D02*
X130749500Y-117200000D01*
X132723591Y-121123591D02*
X132723591Y-121023591D01*
X132723591Y-121376409D02*
X132723591Y-121123591D01*
X132723591Y-124423591D02*
X132723591Y-121376409D01*
X134200000Y-125400000D02*
X133700000Y-125400000D01*
X139550000Y-127150000D02*
X137800000Y-125400000D01*
X137800000Y-125400000D02*
X134200000Y-125400000D01*
X133700000Y-125400000D02*
X132723591Y-124423591D01*
X139550000Y-128900000D02*
X139550000Y-127150000D01*
X123700000Y-112400000D02*
X123800000Y-112300000D01*
X123697500Y-112400000D02*
X123700000Y-112400000D01*
%TO.N,+5VP*%
X122502500Y-112400000D02*
X122122500Y-112020000D01*
X122122500Y-112020000D02*
X121677500Y-112020000D01*
X121677500Y-112020000D02*
X121100000Y-111442500D01*
X121215000Y-110610000D02*
X121215000Y-111402500D01*
%TO.N,/EN*%
X123697500Y-112400000D02*
X123782500Y-112485000D01*
X123782500Y-112485000D02*
X124700000Y-112485000D01*
X123297500Y-111400000D02*
X123297500Y-112000000D01*
X123297500Y-112000000D02*
X123697500Y-112400000D01*
%TO.N,/Vreg*%
X124246000Y-111254000D02*
X123692000Y-110700000D01*
X123692000Y-110700000D02*
X122300000Y-110700000D01*
X122300000Y-110700000D02*
X121600000Y-110000000D01*
X121600000Y-110000000D02*
X120943468Y-110000000D01*
X120943468Y-110000000D02*
X120321734Y-110621734D01*
X119400000Y-111543467D02*
X120321734Y-110621734D01*
X120321734Y-110621734D02*
X120843467Y-110100000D01*
D55*
%TO.N,/+20V*%
X143900000Y-116500000D02*
X145750000Y-116500000D01*
D54*
X124274001Y-114085000D02*
X125027000Y-114085000D01*
X125265498Y-115734502D02*
X125941498Y-115734502D01*
X125941498Y-115734502D02*
X126140000Y-115536000D01*
%TO.N,GND*%
X127489000Y-111572000D02*
X127489000Y-112533000D01*
X126139000Y-111572000D02*
X126139000Y-112947000D01*
X125885000Y-110808467D02*
X125885000Y-109435000D01*
X127775000Y-109860000D02*
X127775000Y-110645287D01*
X125885000Y-109435000D02*
X126037500Y-109282500D01*
D55*
X126760000Y-112760000D02*
X126500000Y-112500000D01*
X126500000Y-113000000D02*
X126900000Y-113000000D01*
X127262000Y-112760000D02*
X126760000Y-112760000D01*
D54*
X126385000Y-108652500D02*
X126000000Y-108267500D01*
D55*
X126900000Y-113000000D02*
X127300000Y-113400000D01*
D54*
X126385000Y-109282500D02*
X126037500Y-109282500D01*
X127489000Y-110931287D02*
X127489000Y-111572000D01*
X127489000Y-112533000D02*
X127262000Y-112760000D01*
X126139000Y-111062467D02*
X126139000Y-111572000D01*
X127775000Y-110645287D02*
X127489000Y-110931287D01*
X126139000Y-112947000D02*
X126215000Y-113023000D01*
X126385000Y-109282500D02*
X126385000Y-108652500D01*
X126139000Y-111062467D02*
X125885000Y-110808467D01*
%TO.N,Net-(200K1-Pad3)*%
X125485000Y-108915000D02*
X124470000Y-107900000D01*
X126000000Y-107132500D02*
X125167500Y-107132500D01*
X123800000Y-107300000D02*
X124400000Y-107900000D01*
X125485000Y-111368000D02*
X125485000Y-108915000D01*
X123100000Y-107300000D02*
X123800000Y-107300000D01*
X124470000Y-107900000D02*
X124400000Y-107900000D01*
X125689000Y-111572000D02*
X125485000Y-111368000D01*
X125167500Y-107132500D02*
X124400000Y-107900000D01*
%TO.N,/PGOOD*%
X127227301Y-110627301D02*
X127227301Y-110608033D01*
X127227301Y-110627301D02*
X127300000Y-110554602D01*
X130200000Y-118397500D02*
X130402500Y-118600000D01*
X127400000Y-109000000D02*
X127894561Y-109000000D01*
X127227301Y-110608033D02*
X127131222Y-110511954D01*
X127300000Y-109100000D02*
X127400000Y-109000000D01*
X127039000Y-111572000D02*
X127039000Y-110815602D01*
X127039000Y-110815602D02*
X127227301Y-110627301D01*
X128562500Y-108332061D02*
X127894561Y-109000000D01*
X127300000Y-110554602D02*
X127300000Y-109100000D01*
X130200000Y-117800000D02*
X130200000Y-118397500D01*
D55*
%TO.N,/5V*%
X137942500Y-123505000D02*
X136600000Y-122162500D01*
X141575000Y-127425000D02*
X143050000Y-128900000D01*
X135000000Y-122162500D02*
X134162500Y-123000000D01*
X141575000Y-123505000D02*
X141575000Y-127425000D01*
X141575000Y-123505000D02*
X137942500Y-123505000D01*
X136600000Y-122162500D02*
X135000000Y-122162500D01*
D54*
%TO.N,Net-(C2-Pad1)*%
X122332500Y-115870000D02*
X122302500Y-115900000D01*
X122332500Y-114900000D02*
X122332500Y-115870000D01*
%TO.N,Net-(C2-Pad2)*%
X124109001Y-114900000D02*
X124109001Y-114890999D01*
X124109001Y-114890999D02*
X124465000Y-114535000D01*
X123467500Y-114900000D02*
X124109001Y-114900000D01*
X124465000Y-114535000D02*
X125027000Y-114535000D01*
%TO.N,/Vreg*%
X119400000Y-111667500D02*
X119400000Y-111543467D01*
X124246000Y-111254000D02*
X125027000Y-112035000D01*
%TO.N,Net-(IC1-Pad20)*%
X121864462Y-112637500D02*
X121175000Y-112637500D01*
X122161962Y-112935000D02*
X121864462Y-112637500D01*
X125027000Y-112935000D02*
X122161962Y-112935000D01*
%TO.N,Net-(200K1-Pad1)*%
X118500000Y-110500000D02*
X119367500Y-110500000D01*
X119400000Y-110532500D02*
X119517500Y-110532500D01*
X119517500Y-110532500D02*
X121150000Y-108900000D01*
X119367500Y-110500000D02*
X119400000Y-110532500D01*
X124400000Y-109900000D02*
X122150000Y-109900000D01*
X122150000Y-109900000D02*
X121150000Y-108900000D01*
%TO.N,Net-(IC1-Pad21)*%
X125027000Y-113385000D02*
X121605000Y-113385000D01*
X121605000Y-113385000D02*
X121185000Y-113805000D01*
%TO.N,Net-(IC1-Pad24)*%
X123497500Y-115900000D02*
X124112000Y-115900000D01*
X124112000Y-115900000D02*
X125027000Y-114985000D01*
D55*
%TO.N,Net-(C8-Pad1)*%
X138900000Y-118862500D02*
X137300000Y-118862500D01*
X141575000Y-118945000D02*
X142755000Y-118945000D01*
X144100000Y-117900000D02*
X144365686Y-117900000D01*
X142755000Y-118945000D02*
X143800000Y-117900000D01*
X138982500Y-118945000D02*
X138900000Y-118862500D01*
X143800000Y-117900000D02*
X144100000Y-117900000D01*
X141575000Y-118945000D02*
X138982500Y-118945000D01*
D56*
X148750000Y-116500000D02*
X148800000Y-116450000D01*
D55*
X147050000Y-116500000D02*
X148750000Y-116500000D01*
D56*
X147050000Y-116909620D02*
X147050000Y-116500000D01*
D55*
X137300000Y-118862500D02*
X136662500Y-119500000D01*
D54*
%TO.N,+5VP*%
X126589000Y-110989000D02*
X126589000Y-111572000D01*
D56*
X130500000Y-109800000D02*
X129922500Y-109800000D01*
D54*
X126885000Y-109915000D02*
X126702500Y-110097500D01*
X126885000Y-108615000D02*
X127167939Y-108332061D01*
X126702500Y-110097500D02*
X126385000Y-110097500D01*
X126539000Y-110251500D02*
X126539000Y-110939000D01*
X126885000Y-108615000D02*
X126885000Y-109915000D01*
X129500000Y-110375000D02*
X129500000Y-109860000D01*
D56*
X129922500Y-109800000D02*
X129862500Y-109860000D01*
D54*
X126385000Y-110097500D02*
X126539000Y-110251500D01*
X128965500Y-110909500D02*
X129500000Y-110375000D01*
X126539000Y-110939000D02*
X126589000Y-110989000D01*
X121215000Y-111402500D02*
X121175000Y-111442500D01*
X127167939Y-108332061D02*
X127367500Y-108332061D01*
X121275000Y-115090000D02*
X121185000Y-115000000D01*
X127939000Y-111076000D02*
X128105500Y-110909500D01*
X128105500Y-110909500D02*
X128965500Y-110909500D01*
X127939000Y-111572000D02*
X127939000Y-111076000D01*
X121275000Y-115520000D02*
X121275000Y-115090000D01*
D55*
%TO.N,Net-(F1-Pad1)*%
X148800000Y-109800000D02*
X148800000Y-115150000D01*
%TD*%
%TA.AperFunction,Conductor*%
%TO.N,Net-(IC1-Pad5)*%
G36*
X134345336Y-110418891D02*
G01*
X134389246Y-110469566D01*
X134400000Y-110519000D01*
X134400000Y-114081000D01*
X134381109Y-114145336D01*
X134330434Y-114189246D01*
X134281000Y-114200000D01*
X131100000Y-114200000D01*
X131086282Y-114208069D01*
X131086283Y-114208069D01*
X129427931Y-115183570D01*
X129367596Y-115200000D01*
X129185000Y-115200000D01*
X129120664Y-115181109D01*
X129076754Y-115130434D01*
X129066000Y-115081000D01*
X129066000Y-113003500D01*
X129084891Y-112939164D01*
X129135566Y-112895254D01*
X129185000Y-112884500D01*
X129289674Y-112884500D01*
X129362740Y-112869966D01*
X129445601Y-112814601D01*
X129500966Y-112731740D01*
X129513652Y-112667964D01*
X129535165Y-112619780D01*
X131164300Y-110447600D01*
X131218014Y-110407465D01*
X131259500Y-110400000D01*
X134281000Y-110400000D01*
X134345336Y-110418891D01*
G37*
%TD.AperFunction*%
%TD*%
%TA.AperFunction,Conductor*%
%TO.N,Net-(F2-Pad1)*%
G36*
X122642121Y-121720002D02*
G01*
X122688614Y-121773658D01*
X122700000Y-121826000D01*
X122700000Y-124700000D01*
X122711119Y-124715884D01*
X122711119Y-124715885D01*
X123377223Y-125667461D01*
X123400000Y-125739717D01*
X123400000Y-129874224D01*
X123379998Y-129942345D01*
X123373968Y-129950920D01*
X123319139Y-130022375D01*
X123315979Y-130030005D01*
X123277783Y-130122218D01*
X123233235Y-130177499D01*
X123161374Y-130200000D01*
X119726000Y-130200000D01*
X119657879Y-130179998D01*
X119611386Y-130126342D01*
X119600000Y-130074000D01*
X119600000Y-129403802D01*
X119615303Y-129344203D01*
X119618361Y-129339947D01*
X119681601Y-129182634D01*
X119705490Y-129014778D01*
X119705645Y-129000000D01*
X119685276Y-128831680D01*
X119625345Y-128673077D01*
X119621044Y-128666819D01*
X119617524Y-128660086D01*
X119619281Y-128659167D01*
X119600000Y-128597076D01*
X119600000Y-121826000D01*
X119620002Y-121757879D01*
X119673658Y-121711386D01*
X119726000Y-121700000D01*
X122574000Y-121700000D01*
X122642121Y-121720002D01*
G37*
%TD.AperFunction*%
%TD*%
%TA.AperFunction,Conductor*%
%TO.N,GND*%
G36*
X149721610Y-106520002D02*
G01*
X149768103Y-106573658D01*
X149773784Y-106588515D01*
X149845063Y-106817260D01*
X149846625Y-106820730D01*
X149846627Y-106820736D01*
X149882076Y-106899500D01*
X149959285Y-107071050D01*
X149961254Y-107074307D01*
X149961256Y-107074311D01*
X149971277Y-107090888D01*
X150103265Y-107309222D01*
X150105606Y-107312210D01*
X150105608Y-107312213D01*
X150207645Y-107442453D01*
X150274904Y-107528302D01*
X150471698Y-107725096D01*
X150474698Y-107727447D01*
X150474701Y-107727449D01*
X150679362Y-107887791D01*
X150690778Y-107896735D01*
X150744406Y-107929154D01*
X150925689Y-108038744D01*
X150925693Y-108038746D01*
X150928950Y-108040715D01*
X151010785Y-108077546D01*
X151179264Y-108153373D01*
X151179270Y-108153375D01*
X151182740Y-108154937D01*
X151186376Y-108156070D01*
X151411485Y-108226216D01*
X151470571Y-108265578D01*
X151498996Y-108330636D01*
X151500000Y-108346511D01*
X151500000Y-128653489D01*
X151479998Y-128721610D01*
X151426342Y-128768103D01*
X151411485Y-128773784D01*
X151182740Y-128845063D01*
X151179270Y-128846625D01*
X151179264Y-128846627D01*
X151142410Y-128863214D01*
X150928950Y-128959285D01*
X150925693Y-128961254D01*
X150925689Y-128961256D01*
X150773950Y-129052986D01*
X150690778Y-129103265D01*
X150687790Y-129105606D01*
X150687787Y-129105608D01*
X150474701Y-129272551D01*
X150471698Y-129274904D01*
X150274904Y-129471698D01*
X150272553Y-129474698D01*
X150272551Y-129474701D01*
X150115264Y-129675463D01*
X150103265Y-129690778D01*
X150101298Y-129694032D01*
X149989188Y-129879485D01*
X149959285Y-129928950D01*
X149906446Y-130046353D01*
X149850650Y-130170327D01*
X149845063Y-130182740D01*
X149811176Y-130291488D01*
X149773784Y-130411485D01*
X149734422Y-130470571D01*
X149669364Y-130498996D01*
X149653489Y-130500000D01*
X143738475Y-130500000D01*
X143670354Y-130479998D01*
X143623861Y-130426342D01*
X143613757Y-130356068D01*
X143643251Y-130291488D01*
X143683043Y-130260849D01*
X143816303Y-130195566D01*
X143816308Y-130195563D01*
X143820954Y-130193287D01*
X143825164Y-130190284D01*
X143825169Y-130190281D01*
X144017617Y-130053009D01*
X144017622Y-130053005D01*
X144021829Y-130050004D01*
X144196605Y-129875837D01*
X144340588Y-129675463D01*
X144449911Y-129454264D01*
X144505120Y-129272551D01*
X144520135Y-129223132D01*
X144520136Y-129223126D01*
X144521639Y-129218180D01*
X144553845Y-128973550D01*
X144555643Y-128900000D01*
X144542030Y-128734422D01*
X144535849Y-128659240D01*
X144535848Y-128659234D01*
X144535425Y-128654089D01*
X144475316Y-128414783D01*
X144376928Y-128188507D01*
X144242905Y-127981339D01*
X144216635Y-127952468D01*
X144190243Y-127923464D01*
X144076846Y-127798842D01*
X144072795Y-127795643D01*
X144072791Y-127795639D01*
X143887264Y-127649119D01*
X143887259Y-127649116D01*
X143883210Y-127645918D01*
X143878694Y-127643425D01*
X143878691Y-127643423D01*
X143671722Y-127529170D01*
X143671718Y-127529168D01*
X143667198Y-127526673D01*
X143662329Y-127524949D01*
X143662325Y-127524947D01*
X143439485Y-127446035D01*
X143439481Y-127446034D01*
X143434610Y-127444309D01*
X143429517Y-127443402D01*
X143429514Y-127443401D01*
X143196783Y-127401945D01*
X143196777Y-127401944D01*
X143191694Y-127401039D01*
X143112324Y-127400069D01*
X142950142Y-127398088D01*
X142950140Y-127398088D01*
X142944972Y-127398025D01*
X142701070Y-127435347D01*
X142614991Y-127463482D01*
X142467178Y-127511794D01*
X142396214Y-127513945D01*
X142338938Y-127481124D01*
X142112405Y-127254591D01*
X142078379Y-127192279D01*
X142075500Y-127165496D01*
X142075500Y-124531500D01*
X142095502Y-124463379D01*
X142149158Y-124416886D01*
X142201500Y-124405500D01*
X142719646Y-124405500D01*
X142723350Y-124405059D01*
X142723353Y-124405059D01*
X142730746Y-124404179D01*
X142745846Y-124402382D01*
X142786976Y-124384113D01*
X142837518Y-124361663D01*
X142848153Y-124356939D01*
X142927241Y-124277713D01*
X142933711Y-124263080D01*
X142968675Y-124183992D01*
X142972506Y-124175327D01*
X142975500Y-124149646D01*
X142975500Y-122860354D01*
X142972382Y-122834154D01*
X142957212Y-122800000D01*
X142931663Y-122742482D01*
X142926939Y-122731847D01*
X142847713Y-122652759D01*
X142837076Y-122648056D01*
X142837074Y-122648055D01*
X142777538Y-122621735D01*
X142745327Y-122607494D01*
X142719646Y-122604500D01*
X140430354Y-122604500D01*
X140426650Y-122604941D01*
X140426647Y-122604941D01*
X140419254Y-122605821D01*
X140404154Y-122607618D01*
X140301847Y-122653061D01*
X140222759Y-122732287D01*
X140218056Y-122742924D01*
X140218055Y-122742926D01*
X140201833Y-122779620D01*
X140177494Y-122834673D01*
X140174500Y-122860354D01*
X140174500Y-122878500D01*
X140154498Y-122946621D01*
X140100842Y-122993114D01*
X140048500Y-123004500D01*
X138202004Y-123004500D01*
X138133883Y-122984498D01*
X138112909Y-122967595D01*
X137662405Y-122517091D01*
X137628379Y-122454779D01*
X137625500Y-122427996D01*
X137625500Y-121782228D01*
X137614636Y-121692453D01*
X137607598Y-121674675D01*
X137565145Y-121567453D01*
X137559113Y-121552217D01*
X137467922Y-121432078D01*
X137347783Y-121340887D01*
X137319406Y-121329652D01*
X137263432Y-121285978D01*
X137239956Y-121218975D01*
X137256430Y-121149917D01*
X137307626Y-121100728D01*
X137319406Y-121095348D01*
X137339797Y-121087275D01*
X137339798Y-121087275D01*
X137347783Y-121084113D01*
X137467922Y-120992922D01*
X137559113Y-120872783D01*
X137614636Y-120732547D01*
X137625500Y-120642772D01*
X137625500Y-119489000D01*
X137645502Y-119420879D01*
X137699158Y-119374386D01*
X137751500Y-119363000D01*
X137811791Y-119363000D01*
X137879912Y-119383002D01*
X137928943Y-119442616D01*
X137940887Y-119472783D01*
X138032078Y-119592922D01*
X138152217Y-119684113D01*
X138210210Y-119707074D01*
X138284923Y-119736655D01*
X138284925Y-119736656D01*
X138292453Y-119739636D01*
X138382228Y-119750500D01*
X139417772Y-119750500D01*
X139507547Y-119739636D01*
X139515075Y-119736656D01*
X139515077Y-119736655D01*
X139589790Y-119707074D01*
X139647783Y-119684113D01*
X139767922Y-119592922D01*
X139842007Y-119495319D01*
X139899124Y-119453154D01*
X139942369Y-119445500D01*
X140048500Y-119445500D01*
X140116621Y-119465502D01*
X140163114Y-119519158D01*
X140174500Y-119571500D01*
X140174500Y-119589646D01*
X140177618Y-119615846D01*
X140181456Y-119624486D01*
X140181456Y-119624487D01*
X140218140Y-119707074D01*
X140223061Y-119718153D01*
X140302287Y-119797241D01*
X140312924Y-119801944D01*
X140312926Y-119801945D01*
X140372462Y-119828265D01*
X140404673Y-119842506D01*
X140430354Y-119845500D01*
X142719646Y-119845500D01*
X142723350Y-119845059D01*
X142723353Y-119845059D01*
X142730746Y-119844179D01*
X142745846Y-119842382D01*
X142848153Y-119796939D01*
X142867434Y-119777625D01*
X142919023Y-119725945D01*
X142927241Y-119717713D01*
X142972506Y-119615327D01*
X142975500Y-119589646D01*
X142975500Y-119471666D01*
X142995502Y-119403545D01*
X143027755Y-119371363D01*
X143027428Y-119370984D01*
X143062675Y-119340613D01*
X143070596Y-119334324D01*
X143077402Y-119329352D01*
X143081336Y-119326478D01*
X143092079Y-119315735D01*
X143098926Y-119309377D01*
X143103046Y-119305827D01*
X143136037Y-119277400D01*
X143140920Y-119269866D01*
X143146819Y-119263104D01*
X143146824Y-119263108D01*
X143155800Y-119252014D01*
X143970409Y-118437405D01*
X144032721Y-118403379D01*
X144059504Y-118400500D01*
X148229819Y-118400500D01*
X148241704Y-118401828D01*
X148241745Y-118401318D01*
X148250691Y-118402038D01*
X148259447Y-118404019D01*
X148312263Y-118400742D01*
X148320067Y-118400500D01*
X148335940Y-118400500D01*
X148346052Y-118399052D01*
X148356106Y-118398022D01*
X148384097Y-118396285D01*
X148402538Y-118395141D01*
X148410982Y-118392093D01*
X148414694Y-118391324D01*
X148429399Y-118387657D01*
X148433027Y-118386596D01*
X148441918Y-118385323D01*
X148484282Y-118366061D01*
X148493637Y-118362254D01*
X148528943Y-118349509D01*
X148528947Y-118349507D01*
X148537387Y-118346460D01*
X148544635Y-118341165D01*
X148547975Y-118339389D01*
X148561089Y-118331726D01*
X148564261Y-118329697D01*
X148572428Y-118325984D01*
X148579223Y-118320129D01*
X148579226Y-118320127D01*
X148607675Y-118295613D01*
X148615596Y-118289324D01*
X148622402Y-118284352D01*
X148626336Y-118281478D01*
X148637079Y-118270735D01*
X148643926Y-118264377D01*
X148665973Y-118245380D01*
X148681037Y-118232400D01*
X148685920Y-118224866D01*
X148691819Y-118218104D01*
X148691824Y-118218108D01*
X148700800Y-118207014D01*
X149054280Y-117853534D01*
X149063624Y-117846068D01*
X149063292Y-117845678D01*
X149070128Y-117839860D01*
X149077720Y-117835070D01*
X149086312Y-117825342D01*
X149107742Y-117801076D01*
X149112756Y-117795399D01*
X149118102Y-117789712D01*
X149129320Y-117778494D01*
X149132010Y-117774905D01*
X149135450Y-117770316D01*
X149141832Y-117762477D01*
X149166682Y-117734339D01*
X149172623Y-117727612D01*
X149176437Y-117719489D01*
X149178508Y-117716336D01*
X149186327Y-117703324D01*
X149188143Y-117700006D01*
X149193526Y-117692824D01*
X149209858Y-117649259D01*
X149213783Y-117639944D01*
X149214975Y-117637405D01*
X149233553Y-117597837D01*
X149234935Y-117588964D01*
X149236042Y-117585342D01*
X149239891Y-117570672D01*
X149240702Y-117566983D01*
X149243852Y-117558581D01*
X149244517Y-117549636D01*
X149244519Y-117549626D01*
X149247302Y-117512172D01*
X149248452Y-117502145D01*
X149250500Y-117488991D01*
X149250500Y-117473797D01*
X149250846Y-117464460D01*
X149253811Y-117424557D01*
X149254476Y-117415609D01*
X149252603Y-117406833D01*
X149251992Y-117397876D01*
X149251998Y-117397876D01*
X149250500Y-117383683D01*
X149250500Y-117373135D01*
X149270502Y-117305014D01*
X149324158Y-117258521D01*
X149358629Y-117248410D01*
X149435115Y-117237456D01*
X149518308Y-117213128D01*
X149522381Y-117211276D01*
X149522384Y-117211275D01*
X149644605Y-117155704D01*
X149648687Y-117153848D01*
X149721707Y-117107150D01*
X149789588Y-117048660D01*
X149826815Y-117016584D01*
X149826818Y-117016581D01*
X149830208Y-117013660D01*
X149833147Y-117010291D01*
X149833151Y-117010287D01*
X149884239Y-116951723D01*
X149887188Y-116948343D01*
X149920048Y-116897647D01*
X149962649Y-116831921D01*
X149962649Y-116831920D01*
X149965088Y-116828158D01*
X150001445Y-116749473D01*
X150042481Y-116612255D01*
X150055292Y-116526533D01*
X150055846Y-116435826D01*
X150056140Y-116387793D01*
X150056140Y-116387788D01*
X150056167Y-116383312D01*
X150055829Y-116380846D01*
X150055705Y-116377017D01*
X150055705Y-115950000D01*
X150055463Y-115944750D01*
X150054737Y-115929066D01*
X150054401Y-115921793D01*
X150030324Y-115837172D01*
X150030912Y-115767134D01*
X150035061Y-115760433D01*
X150053828Y-115660041D01*
X150054635Y-115655725D01*
X150054635Y-115655723D01*
X150055705Y-115650000D01*
X150055705Y-115159376D01*
X150055707Y-115158606D01*
X150056140Y-115087798D01*
X150056140Y-115087792D01*
X150056167Y-115083312D01*
X150052866Y-115059209D01*
X150045012Y-115001880D01*
X150044404Y-114997438D01*
X150041211Y-114986264D01*
X150006281Y-114864046D01*
X150006280Y-114864043D01*
X150005047Y-114859729D01*
X149969654Y-114780606D01*
X149893228Y-114659478D01*
X149837050Y-114593469D01*
X149820999Y-114579293D01*
X149733062Y-114501631D01*
X149733061Y-114501631D01*
X149729699Y-114498661D01*
X149657257Y-114451076D01*
X149653201Y-114449172D01*
X149653198Y-114449170D01*
X149531667Y-114392111D01*
X149527612Y-114390207D01*
X149523329Y-114388898D01*
X149523325Y-114388896D01*
X149449008Y-114366175D01*
X149444720Y-114364864D01*
X149407115Y-114359009D01*
X149342883Y-114328765D01*
X149305198Y-114268595D01*
X149300500Y-114234509D01*
X149300500Y-110926000D01*
X149320502Y-110857879D01*
X149374158Y-110811386D01*
X149426500Y-110800000D01*
X150300000Y-110800000D01*
X150209441Y-109441621D01*
X150200296Y-109304438D01*
X150200296Y-109304436D01*
X150200000Y-109300000D01*
X149800000Y-107400000D01*
X149794206Y-107400000D01*
X149790067Y-107392297D01*
X149757703Y-107359496D01*
X149751543Y-107346240D01*
X149737275Y-107310204D01*
X149737273Y-107310200D01*
X149734112Y-107302217D01*
X149642922Y-107182078D01*
X149522783Y-107090888D01*
X149382547Y-107035364D01*
X149374509Y-107034391D01*
X149374508Y-107034391D01*
X149338254Y-107030004D01*
X149292771Y-107024500D01*
X148787834Y-107024500D01*
X148282230Y-107024501D01*
X148278472Y-107024956D01*
X148278467Y-107024956D01*
X148200483Y-107034392D01*
X148200480Y-107034393D01*
X148192453Y-107035364D01*
X148052217Y-107090888D01*
X147932078Y-107182078D01*
X147840888Y-107302217D01*
X147837727Y-107310200D01*
X147837725Y-107310204D01*
X147833694Y-107320385D01*
X147790020Y-107376358D01*
X147716543Y-107400000D01*
X146883457Y-107400000D01*
X146815336Y-107379998D01*
X146766306Y-107320385D01*
X146762275Y-107310204D01*
X146762273Y-107310200D01*
X146759112Y-107302217D01*
X146667922Y-107182078D01*
X146547783Y-107090888D01*
X146407547Y-107035364D01*
X146399509Y-107034391D01*
X146399508Y-107034391D01*
X146363254Y-107030004D01*
X146317771Y-107024500D01*
X145812834Y-107024500D01*
X145307230Y-107024501D01*
X145303472Y-107024956D01*
X145303467Y-107024956D01*
X145225483Y-107034392D01*
X145225480Y-107034393D01*
X145217453Y-107035364D01*
X145077217Y-107090888D01*
X144957078Y-107182078D01*
X144865888Y-107302217D01*
X144862728Y-107310199D01*
X144862726Y-107310202D01*
X144853574Y-107333318D01*
X144809900Y-107389292D01*
X144746676Y-107412516D01*
X140522230Y-107757369D01*
X140018056Y-107798526D01*
X140000000Y-107800000D01*
X139687451Y-108581373D01*
X139062776Y-110143061D01*
X139000000Y-110300000D01*
X139000000Y-114800000D01*
X142800000Y-114900000D01*
X142874000Y-114900000D01*
X142942121Y-114920002D01*
X142988614Y-114973658D01*
X143000000Y-115026000D01*
X143000000Y-117800000D01*
X143006248Y-117800000D01*
X143042689Y-117856701D01*
X143042691Y-117927698D01*
X143010889Y-117981297D01*
X142944636Y-118047550D01*
X142882324Y-118081576D01*
X142811509Y-118076511D01*
X142804594Y-118073696D01*
X142753990Y-118051324D01*
X142745327Y-118047494D01*
X142719646Y-118044500D01*
X140430354Y-118044500D01*
X140426650Y-118044941D01*
X140426647Y-118044941D01*
X140419254Y-118045821D01*
X140404154Y-118047618D01*
X140395514Y-118051456D01*
X140395513Y-118051456D01*
X140345444Y-118073696D01*
X140301847Y-118093061D01*
X140293628Y-118101294D01*
X140293627Y-118101295D01*
X140268155Y-118126812D01*
X140222759Y-118172287D01*
X140218056Y-118182924D01*
X140218055Y-118182926D01*
X140202503Y-118218104D01*
X140177494Y-118274673D01*
X140174500Y-118300354D01*
X140174500Y-118318500D01*
X140154498Y-118386621D01*
X140100842Y-118433114D01*
X140048500Y-118444500D01*
X140020872Y-118444500D01*
X139952751Y-118424498D01*
X139903720Y-118364883D01*
X139902190Y-118361017D01*
X139859113Y-118252217D01*
X139767922Y-118132078D01*
X139647783Y-118040887D01*
X139578025Y-118013268D01*
X139515077Y-117988345D01*
X139515075Y-117988344D01*
X139507547Y-117985364D01*
X139417772Y-117974500D01*
X138382228Y-117974500D01*
X138292453Y-117985364D01*
X138284925Y-117988344D01*
X138284923Y-117988345D01*
X138221975Y-118013268D01*
X138152217Y-118040887D01*
X138032078Y-118132078D01*
X137940887Y-118252217D01*
X137937727Y-118260199D01*
X137928943Y-118282384D01*
X137885268Y-118338358D01*
X137811791Y-118362000D01*
X137735580Y-118362000D01*
X137667459Y-118341998D01*
X137620966Y-118288342D01*
X137615173Y-118271890D01*
X137614636Y-118267453D01*
X137559113Y-118127217D01*
X137467922Y-118007078D01*
X137347783Y-117915887D01*
X137243746Y-117874696D01*
X137215077Y-117863345D01*
X137215075Y-117863344D01*
X137207547Y-117860364D01*
X137117772Y-117849500D01*
X136207228Y-117849500D01*
X136117453Y-117860364D01*
X136109925Y-117863344D01*
X136109923Y-117863345D01*
X136081254Y-117874696D01*
X135977217Y-117915887D01*
X135857078Y-118007078D01*
X135765887Y-118127217D01*
X135762725Y-118135204D01*
X135715791Y-118253747D01*
X135710364Y-118267453D01*
X135699500Y-118357228D01*
X135699500Y-120642772D01*
X135710364Y-120732547D01*
X135765887Y-120872783D01*
X135857078Y-120992922D01*
X135863913Y-120998110D01*
X135977217Y-121084113D01*
X135975280Y-121086665D01*
X136014063Y-121126511D01*
X136028215Y-121196083D01*
X136002507Y-121262262D01*
X135949053Y-121302547D01*
X135852217Y-121340887D01*
X135732078Y-121432078D01*
X135640887Y-121552217D01*
X135634855Y-121567453D01*
X135628943Y-121582384D01*
X135585268Y-121638358D01*
X135511791Y-121662000D01*
X135148062Y-121662000D01*
X135079941Y-121641998D01*
X135047699Y-121612180D01*
X135014228Y-121568083D01*
X134967922Y-121507078D01*
X134847783Y-121415887D01*
X134784168Y-121390700D01*
X134715077Y-121363345D01*
X134715075Y-121363344D01*
X134707547Y-121360364D01*
X134617772Y-121349500D01*
X133707228Y-121349500D01*
X133617453Y-121360364D01*
X133609925Y-121363344D01*
X133609923Y-121363345D01*
X133540832Y-121390700D01*
X133477217Y-121415887D01*
X133357078Y-121507078D01*
X133351890Y-121513913D01*
X133351888Y-121513915D01*
X133350455Y-121515803D01*
X133348717Y-121517086D01*
X133345810Y-121519993D01*
X133345372Y-121519555D01*
X133293337Y-121557971D01*
X133222489Y-121562565D01*
X133160405Y-121528126D01*
X133126795Y-121465589D01*
X133124091Y-121439625D01*
X133124091Y-120960158D01*
X133121027Y-120950727D01*
X133121026Y-120950723D01*
X133117294Y-120939238D01*
X133112678Y-120920013D01*
X133110788Y-120908079D01*
X133110788Y-120908078D01*
X133109237Y-120898287D01*
X133104736Y-120889454D01*
X133104735Y-120889450D01*
X133099250Y-120878685D01*
X133091684Y-120860421D01*
X133088701Y-120851238D01*
X133084887Y-120839501D01*
X133079058Y-120831479D01*
X133079057Y-120831476D01*
X133071959Y-120821707D01*
X133061629Y-120804850D01*
X133056143Y-120794084D01*
X133056142Y-120794083D01*
X133051641Y-120785249D01*
X132849832Y-120583440D01*
X132737405Y-120471012D01*
X132703379Y-120408700D01*
X132700500Y-120381917D01*
X132700500Y-117936567D01*
X132697436Y-117927136D01*
X132697435Y-117927132D01*
X132693703Y-117915647D01*
X132689087Y-117896422D01*
X132687197Y-117884488D01*
X132687197Y-117884487D01*
X132685646Y-117874696D01*
X132681145Y-117865863D01*
X132681144Y-117865859D01*
X132675658Y-117855092D01*
X132668092Y-117836828D01*
X132667421Y-117834761D01*
X132661296Y-117815911D01*
X132648365Y-117798113D01*
X132638037Y-117781258D01*
X132632555Y-117770499D01*
X132632554Y-117770497D01*
X132628050Y-117761658D01*
X132605487Y-117739095D01*
X132605484Y-117739091D01*
X131760909Y-116894516D01*
X131760905Y-116894513D01*
X131738342Y-116871950D01*
X131718746Y-116861965D01*
X131701893Y-116851639D01*
X131684090Y-116838704D01*
X131663166Y-116831905D01*
X131644906Y-116824341D01*
X131634141Y-116818856D01*
X131634137Y-116818855D01*
X131625304Y-116814354D01*
X131615513Y-116812803D01*
X131615512Y-116812803D01*
X131603578Y-116810913D01*
X131584353Y-116806297D01*
X131572868Y-116802565D01*
X131572864Y-116802564D01*
X131563433Y-116799500D01*
X131174624Y-116799500D01*
X131106503Y-116779498D01*
X131097920Y-116773462D01*
X131065528Y-116748607D01*
X131027125Y-116719139D01*
X130893209Y-116663670D01*
X130749500Y-116644750D01*
X130605791Y-116663670D01*
X130471875Y-116719139D01*
X130356879Y-116807379D01*
X130268639Y-116922375D01*
X130213170Y-117056291D01*
X130206520Y-117106805D01*
X130200773Y-117150454D01*
X130172051Y-117215382D01*
X130112785Y-117254473D01*
X130092299Y-117258929D01*
X130056291Y-117263670D01*
X129922375Y-117319139D01*
X129807379Y-117407379D01*
X129719139Y-117522375D01*
X129663670Y-117656291D01*
X129644750Y-117800000D01*
X129663670Y-117943709D01*
X129719139Y-118077625D01*
X129763392Y-118135296D01*
X129788991Y-118201514D01*
X129782310Y-118253746D01*
X129776344Y-118270735D01*
X129750922Y-118343126D01*
X129747547Y-118352736D01*
X129744500Y-118384969D01*
X129744501Y-118815030D01*
X129747547Y-118847264D01*
X129793429Y-118977916D01*
X129799026Y-118985493D01*
X129799026Y-118985494D01*
X129822631Y-119017453D01*
X129875699Y-119089301D01*
X129883274Y-119094896D01*
X129904310Y-119110433D01*
X129987084Y-119171571D01*
X130047618Y-119192829D01*
X130110488Y-119214908D01*
X130110491Y-119214909D01*
X130117736Y-119217453D01*
X130125380Y-119218176D01*
X130125382Y-119218176D01*
X130134134Y-119219003D01*
X130149969Y-119220500D01*
X130402372Y-119220500D01*
X130655030Y-119220499D01*
X130657980Y-119220220D01*
X130657985Y-119220220D01*
X130679614Y-119218176D01*
X130679615Y-119218176D01*
X130687264Y-119217453D01*
X130694512Y-119214908D01*
X130694515Y-119214907D01*
X130766671Y-119189567D01*
X130817916Y-119171571D01*
X130925143Y-119092372D01*
X130991820Y-119067991D01*
X131061095Y-119083528D01*
X131074853Y-119092369D01*
X131145861Y-119144816D01*
X131188770Y-119201375D01*
X131197000Y-119246166D01*
X131197000Y-120760933D01*
X131200064Y-120770364D01*
X131200065Y-120770368D01*
X131203797Y-120781853D01*
X131208413Y-120801078D01*
X131209011Y-120804850D01*
X131211854Y-120822804D01*
X131216355Y-120831637D01*
X131216356Y-120831641D01*
X131221841Y-120842406D01*
X131229405Y-120860666D01*
X131236204Y-120881590D01*
X131249139Y-120899393D01*
X131259465Y-120916245D01*
X131269450Y-120935842D01*
X131292003Y-120958395D01*
X131292016Y-120958409D01*
X131552583Y-121218975D01*
X131812595Y-121478987D01*
X131846620Y-121541300D01*
X131849500Y-121568083D01*
X131849500Y-124713433D01*
X131852564Y-124722864D01*
X131852565Y-124722868D01*
X131856297Y-124734353D01*
X131860913Y-124753578D01*
X131864354Y-124775304D01*
X131868855Y-124784137D01*
X131868856Y-124784141D01*
X131874341Y-124794906D01*
X131881905Y-124813166D01*
X131888704Y-124834090D01*
X131901639Y-124851893D01*
X131911965Y-124868745D01*
X131921950Y-124888342D01*
X131944513Y-124910905D01*
X131944516Y-124910909D01*
X133139091Y-126105484D01*
X133139095Y-126105487D01*
X133161658Y-126128050D01*
X133170497Y-126132554D01*
X133170499Y-126132555D01*
X133181258Y-126138037D01*
X133198114Y-126148365D01*
X133215911Y-126161296D01*
X133236832Y-126168094D01*
X133255092Y-126175658D01*
X133265859Y-126181144D01*
X133265863Y-126181145D01*
X133274696Y-126185646D01*
X133284487Y-126187197D01*
X133284488Y-126187197D01*
X133296422Y-126189087D01*
X133315647Y-126193703D01*
X133327132Y-126197435D01*
X133327136Y-126197436D01*
X133336567Y-126200500D01*
X134881917Y-126200500D01*
X134950038Y-126220502D01*
X134971012Y-126237405D01*
X135612595Y-126878988D01*
X135646621Y-126941300D01*
X135649500Y-126968083D01*
X135649500Y-127360826D01*
X135629498Y-127428947D01*
X135575842Y-127475440D01*
X135562645Y-127480591D01*
X135523282Y-127493457D01*
X135466540Y-127512003D01*
X135247679Y-127625935D01*
X135243546Y-127629038D01*
X135243543Y-127629040D01*
X135057232Y-127768926D01*
X135050364Y-127774083D01*
X134879896Y-127952468D01*
X134876982Y-127956740D01*
X134876981Y-127956741D01*
X134857238Y-127985683D01*
X134740851Y-128156300D01*
X134636965Y-128380104D01*
X134571026Y-128617871D01*
X134544806Y-128863214D01*
X134559010Y-129109545D01*
X134560147Y-129114591D01*
X134560148Y-129114597D01*
X134582336Y-129213051D01*
X134613255Y-129350249D01*
X134706084Y-129578861D01*
X134835006Y-129789241D01*
X134996557Y-129975741D01*
X135186399Y-130133351D01*
X135205728Y-130144646D01*
X135394967Y-130255229D01*
X135394974Y-130255232D01*
X135399433Y-130257838D01*
X135404262Y-130259682D01*
X135405698Y-130260370D01*
X135458488Y-130307844D01*
X135477232Y-130376321D01*
X135455978Y-130444062D01*
X135401475Y-130489558D01*
X135351253Y-130500000D01*
X129738475Y-130500000D01*
X129670354Y-130479998D01*
X129623861Y-130426342D01*
X129613757Y-130356068D01*
X129643251Y-130291488D01*
X129683043Y-130260849D01*
X129816303Y-130195566D01*
X129816308Y-130195563D01*
X129820954Y-130193287D01*
X129825164Y-130190284D01*
X129825169Y-130190281D01*
X130017617Y-130053009D01*
X130017622Y-130053005D01*
X130021829Y-130050004D01*
X130196605Y-129875837D01*
X130340588Y-129675463D01*
X130449911Y-129454264D01*
X130505120Y-129272551D01*
X130520135Y-129223132D01*
X130520136Y-129223126D01*
X130521639Y-129218180D01*
X130553845Y-128973550D01*
X130555643Y-128900000D01*
X130542030Y-128734422D01*
X130535849Y-128659240D01*
X130535848Y-128659234D01*
X130535425Y-128654089D01*
X130475316Y-128414783D01*
X130376928Y-128188507D01*
X130242905Y-127981339D01*
X130216635Y-127952468D01*
X130190243Y-127923464D01*
X130076846Y-127798842D01*
X130072795Y-127795643D01*
X130072791Y-127795639D01*
X129887264Y-127649119D01*
X129887259Y-127649116D01*
X129883210Y-127645918D01*
X129878694Y-127643425D01*
X129878691Y-127643423D01*
X129671722Y-127529170D01*
X129671718Y-127529168D01*
X129667198Y-127526673D01*
X129662329Y-127524949D01*
X129662325Y-127524947D01*
X129439485Y-127446035D01*
X129439481Y-127446034D01*
X129434610Y-127444309D01*
X129429517Y-127443402D01*
X129429514Y-127443401D01*
X129196783Y-127401945D01*
X129196777Y-127401944D01*
X129191694Y-127401039D01*
X129112324Y-127400069D01*
X128950142Y-127398088D01*
X128950140Y-127398088D01*
X128944972Y-127398025D01*
X128701070Y-127435347D01*
X128466540Y-127512003D01*
X128247679Y-127625935D01*
X128243546Y-127629038D01*
X128243543Y-127629040D01*
X128057232Y-127768926D01*
X128050364Y-127774083D01*
X127879896Y-127952468D01*
X127876982Y-127956740D01*
X127876981Y-127956741D01*
X127857238Y-127985683D01*
X127740851Y-128156300D01*
X127636965Y-128380104D01*
X127571026Y-128617871D01*
X127544806Y-128863214D01*
X127559010Y-129109545D01*
X127560147Y-129114591D01*
X127560148Y-129114597D01*
X127582336Y-129213051D01*
X127613255Y-129350249D01*
X127706084Y-129578861D01*
X127835006Y-129789241D01*
X127996557Y-129975741D01*
X128186399Y-130133351D01*
X128205728Y-130144646D01*
X128394967Y-130255229D01*
X128394974Y-130255232D01*
X128399433Y-130257838D01*
X128404262Y-130259682D01*
X128405698Y-130260370D01*
X128458488Y-130307844D01*
X128477232Y-130376321D01*
X128455978Y-130444062D01*
X128401475Y-130489558D01*
X128351253Y-130500000D01*
X123826000Y-130500000D01*
X123757879Y-130479998D01*
X123711386Y-130426342D01*
X123700000Y-130374000D01*
X123700000Y-125326000D01*
X123720002Y-125257879D01*
X123773658Y-125211386D01*
X123826000Y-125200000D01*
X127200000Y-125200000D01*
X127289511Y-118218108D01*
X127299984Y-117401254D01*
X127299984Y-117401250D01*
X127300000Y-117400000D01*
X127299964Y-117398682D01*
X127294758Y-117211275D01*
X127293103Y-117151716D01*
X127296884Y-117125500D01*
X127295646Y-117125304D01*
X127305279Y-117064481D01*
X127310500Y-117031519D01*
X127310499Y-116768482D01*
X127303481Y-116724168D01*
X127297198Y-116684494D01*
X127297197Y-116684492D01*
X127295646Y-116674696D01*
X127291143Y-116665859D01*
X127288079Y-116656428D01*
X127289011Y-116656125D01*
X127278153Y-116613517D01*
X127276833Y-116565974D01*
X127200000Y-113800000D01*
X125794410Y-113800000D01*
X125726289Y-113779998D01*
X125679796Y-113726342D01*
X125669692Y-113656068D01*
X125679169Y-113623053D01*
X125683176Y-113613990D01*
X125687006Y-113605327D01*
X125690000Y-113579646D01*
X125690000Y-113190354D01*
X125689560Y-113186655D01*
X125689559Y-113186642D01*
X125688179Y-113175048D01*
X125688143Y-113145572D01*
X125690000Y-113129646D01*
X125690000Y-112740354D01*
X125689560Y-112736655D01*
X125689559Y-112736642D01*
X125688179Y-112725048D01*
X125688143Y-112695572D01*
X125690000Y-112679646D01*
X125690000Y-112361000D01*
X125710002Y-112292879D01*
X125763658Y-112246386D01*
X125816000Y-112235000D01*
X125883646Y-112235000D01*
X125887350Y-112234559D01*
X125887353Y-112234559D01*
X125894746Y-112233679D01*
X125909846Y-112231882D01*
X125931905Y-112222084D01*
X126001518Y-112191163D01*
X126012153Y-112186439D01*
X126020372Y-112178206D01*
X126020376Y-112178203D01*
X126049830Y-112148697D01*
X126112112Y-112114617D01*
X126182932Y-112119620D01*
X126228020Y-112148541D01*
X126266287Y-112186741D01*
X126276924Y-112191444D01*
X126276926Y-112191445D01*
X126309227Y-112205725D01*
X126368673Y-112232006D01*
X126394354Y-112235000D01*
X126783646Y-112235000D01*
X126787345Y-112234560D01*
X126787358Y-112234559D01*
X126798952Y-112233179D01*
X126828426Y-112233143D01*
X126844354Y-112235000D01*
X127233646Y-112235000D01*
X127237350Y-112234559D01*
X127237353Y-112234559D01*
X127244746Y-112233679D01*
X127259846Y-112231882D01*
X127281905Y-112222084D01*
X127311352Y-112209004D01*
X127381727Y-112199631D01*
X127445998Y-112229793D01*
X127483759Y-112289915D01*
X127488500Y-112324155D01*
X127488500Y-112858646D01*
X127491618Y-112884846D01*
X127495456Y-112893486D01*
X127495456Y-112893487D01*
X127508238Y-112922264D01*
X127537061Y-112987153D01*
X127616287Y-113066241D01*
X127626924Y-113070944D01*
X127626926Y-113070945D01*
X127649356Y-113080861D01*
X127718673Y-113111506D01*
X127744354Y-113114500D01*
X128090228Y-113114500D01*
X128158349Y-113134502D01*
X128204842Y-113188158D01*
X128216142Y-113235837D01*
X128239914Y-113877678D01*
X128240000Y-113882341D01*
X128240000Y-115178646D01*
X128243118Y-115204846D01*
X128246956Y-115213486D01*
X128246956Y-115213487D01*
X128283384Y-115295498D01*
X128294147Y-115341982D01*
X128299329Y-115481897D01*
X128299330Y-115481899D01*
X128300000Y-115500000D01*
X128643519Y-115500000D01*
X128691736Y-115509591D01*
X128748663Y-115533171D01*
X128748667Y-115533172D01*
X128756291Y-115536330D01*
X128900000Y-115555250D01*
X129043709Y-115536330D01*
X129051333Y-115533172D01*
X129051337Y-115533171D01*
X129108264Y-115509591D01*
X129156481Y-115500000D01*
X129558823Y-115500000D01*
X131171695Y-114615522D01*
X131232280Y-114600000D01*
X134700000Y-114600000D01*
X134700000Y-110000000D01*
X134686453Y-110000000D01*
X134673217Y-109997121D01*
X134674176Y-109992711D01*
X134630879Y-109979998D01*
X134584386Y-109926342D01*
X134573000Y-109874000D01*
X134573000Y-109505354D01*
X134569882Y-109479154D01*
X134553211Y-109441621D01*
X134529163Y-109387482D01*
X134524439Y-109376847D01*
X134511930Y-109364359D01*
X134475557Y-109328050D01*
X134445213Y-109297759D01*
X134434576Y-109293056D01*
X134434574Y-109293055D01*
X134351492Y-109256325D01*
X134351493Y-109256325D01*
X134342827Y-109252494D01*
X134317146Y-109249500D01*
X131052854Y-109249500D01*
X131049150Y-109249941D01*
X131049147Y-109249941D01*
X131045860Y-109250332D01*
X131026654Y-109252618D01*
X131023546Y-109253998D01*
X130955768Y-109252822D01*
X130914842Y-109229639D01*
X130914628Y-109229947D01*
X130911287Y-109227625D01*
X130909539Y-109226635D01*
X130902721Y-109220560D01*
X130752881Y-109141224D01*
X130588441Y-109099919D01*
X130580843Y-109099879D01*
X130580841Y-109099879D01*
X130509423Y-109099505D01*
X130418895Y-109099031D01*
X130411515Y-109100803D01*
X130411513Y-109100803D01*
X130384823Y-109107211D01*
X130309027Y-109101844D01*
X130292038Y-109095118D01*
X130204297Y-109084500D01*
X129862726Y-109084500D01*
X129520704Y-109084501D01*
X129516946Y-109084956D01*
X129516941Y-109084956D01*
X129443845Y-109093801D01*
X129432962Y-109095118D01*
X129425439Y-109098096D01*
X129425437Y-109098097D01*
X129402418Y-109107211D01*
X129295911Y-109149380D01*
X129178500Y-109238500D01*
X129089380Y-109355911D01*
X129077607Y-109385646D01*
X129040449Y-109479498D01*
X129035118Y-109492962D01*
X129024500Y-109580703D01*
X129024501Y-110139296D01*
X129024955Y-110143052D01*
X129024956Y-110143061D01*
X129032766Y-110207604D01*
X129021091Y-110277634D01*
X128996773Y-110311835D01*
X128836511Y-110472096D01*
X128774199Y-110506121D01*
X128747416Y-110509000D01*
X128042067Y-110509000D01*
X128032635Y-110512065D01*
X128032633Y-110512065D01*
X128021148Y-110515797D01*
X128001922Y-110520413D01*
X127980196Y-110523854D01*
X127971361Y-110528356D01*
X127971360Y-110528356D01*
X127960597Y-110533840D01*
X127942336Y-110541404D01*
X127921411Y-110548203D01*
X127913387Y-110554033D01*
X127903613Y-110561134D01*
X127886768Y-110571458D01*
X127883714Y-110573014D01*
X127813940Y-110586125D01*
X127748152Y-110559432D01*
X127707240Y-110501409D01*
X127700500Y-110460753D01*
X127700500Y-109526500D01*
X127720502Y-109458379D01*
X127774158Y-109411886D01*
X127826500Y-109400500D01*
X127957994Y-109400500D01*
X127967425Y-109397436D01*
X127967429Y-109397435D01*
X127978914Y-109393703D01*
X127998139Y-109389087D01*
X128010073Y-109387197D01*
X128010074Y-109387197D01*
X128019865Y-109385646D01*
X128028698Y-109381145D01*
X128028702Y-109381144D01*
X128039467Y-109375659D01*
X128057727Y-109368095D01*
X128078651Y-109361296D01*
X128096454Y-109348361D01*
X128113306Y-109338035D01*
X128124063Y-109332554D01*
X128132903Y-109328050D01*
X128155466Y-109305487D01*
X128155470Y-109305484D01*
X128471488Y-108989466D01*
X128533800Y-108955440D01*
X128560583Y-108952561D01*
X128798541Y-108952560D01*
X128815030Y-108952560D01*
X128817980Y-108952281D01*
X128817985Y-108952281D01*
X128839614Y-108950237D01*
X128839615Y-108950237D01*
X128847264Y-108949514D01*
X128854512Y-108946969D01*
X128854515Y-108946968D01*
X128898699Y-108931451D01*
X128977916Y-108903632D01*
X129026470Y-108867770D01*
X129081726Y-108826957D01*
X129089301Y-108821362D01*
X129146656Y-108743709D01*
X129165974Y-108717555D01*
X129165974Y-108717554D01*
X129171571Y-108709977D01*
X129200788Y-108626779D01*
X129214908Y-108586573D01*
X129214909Y-108586570D01*
X129217453Y-108579325D01*
X129220500Y-108547092D01*
X129220499Y-108117031D01*
X129217453Y-108084797D01*
X129171571Y-107954145D01*
X129153113Y-107929154D01*
X129094896Y-107850335D01*
X129089301Y-107842760D01*
X129068352Y-107827287D01*
X128985494Y-107766087D01*
X128985493Y-107766087D01*
X128977916Y-107760490D01*
X128883830Y-107727449D01*
X128854512Y-107717153D01*
X128854509Y-107717152D01*
X128847264Y-107714608D01*
X128839620Y-107713885D01*
X128839618Y-107713885D01*
X128830866Y-107713058D01*
X128815031Y-107711561D01*
X128562628Y-107711561D01*
X128309970Y-107711562D01*
X128307020Y-107711841D01*
X128307015Y-107711841D01*
X128285386Y-107713885D01*
X128285385Y-107713885D01*
X128277736Y-107714608D01*
X128270488Y-107717153D01*
X128270485Y-107717154D01*
X128241170Y-107727449D01*
X128147084Y-107760490D01*
X128039857Y-107839689D01*
X127973180Y-107864070D01*
X127903905Y-107848533D01*
X127890147Y-107839692D01*
X127782916Y-107760490D01*
X127688830Y-107727449D01*
X127659512Y-107717153D01*
X127659509Y-107717152D01*
X127652264Y-107714608D01*
X127644620Y-107713885D01*
X127644618Y-107713885D01*
X127635866Y-107713058D01*
X127620031Y-107711561D01*
X127367628Y-107711561D01*
X127114970Y-107711562D01*
X127112020Y-107711841D01*
X127112015Y-107711841D01*
X127090386Y-107713885D01*
X127090385Y-107713885D01*
X127082736Y-107714608D01*
X127075488Y-107717153D01*
X127075485Y-107717154D01*
X127046170Y-107727449D01*
X126952084Y-107760490D01*
X126944507Y-107766087D01*
X126944506Y-107766087D01*
X126899251Y-107799513D01*
X126832573Y-107823896D01*
X126763297Y-107808359D01*
X126754500Y-107803000D01*
X126610991Y-107707327D01*
X126565406Y-107652898D01*
X126556484Y-107582464D01*
X126563662Y-107561098D01*
X126562102Y-107560550D01*
X126604941Y-107438563D01*
X126607486Y-107431316D01*
X126610500Y-107399430D01*
X126610500Y-106865570D01*
X126607486Y-106833684D01*
X126562102Y-106704450D01*
X126556507Y-106696875D01*
X126552098Y-106688548D01*
X126554487Y-106687283D01*
X126535067Y-106634190D01*
X126550600Y-106564913D01*
X126601120Y-106515031D01*
X126660801Y-106500000D01*
X149653489Y-106500000D01*
X149721610Y-106520002D01*
G37*
%TD.AperFunction*%
%TA.AperFunction,Conductor*%
G36*
X137650038Y-125820502D02*
G01*
X137671012Y-125837405D01*
X139107126Y-127273519D01*
X139141152Y-127335831D01*
X139136087Y-127406646D01*
X139093540Y-127463482D01*
X139057177Y-127482379D01*
X138966540Y-127512003D01*
X138747679Y-127625935D01*
X138743546Y-127629038D01*
X138743543Y-127629040D01*
X138557232Y-127768926D01*
X138550364Y-127774083D01*
X138379896Y-127952468D01*
X138376982Y-127956740D01*
X138376981Y-127956741D01*
X138357238Y-127985683D01*
X138240851Y-128156300D01*
X138136965Y-128380104D01*
X138071026Y-128617871D01*
X138044806Y-128863214D01*
X138059010Y-129109545D01*
X138060147Y-129114591D01*
X138060148Y-129114597D01*
X138082336Y-129213051D01*
X138113255Y-129350249D01*
X138206084Y-129578861D01*
X138335006Y-129789241D01*
X138496557Y-129975741D01*
X138686399Y-130133351D01*
X138705728Y-130144646D01*
X138894967Y-130255229D01*
X138894974Y-130255232D01*
X138899433Y-130257838D01*
X138904262Y-130259682D01*
X138905698Y-130260370D01*
X138958488Y-130307844D01*
X138977232Y-130376321D01*
X138955978Y-130444062D01*
X138901475Y-130489558D01*
X138851253Y-130500000D01*
X136738475Y-130500000D01*
X136670354Y-130479998D01*
X136623861Y-130426342D01*
X136613757Y-130356068D01*
X136643251Y-130291488D01*
X136683043Y-130260849D01*
X136816303Y-130195566D01*
X136816308Y-130195563D01*
X136820954Y-130193287D01*
X136825164Y-130190284D01*
X136825169Y-130190281D01*
X137017617Y-130053009D01*
X137017622Y-130053005D01*
X137021829Y-130050004D01*
X137196605Y-129875837D01*
X137340588Y-129675463D01*
X137449911Y-129454264D01*
X137505120Y-129272551D01*
X137520135Y-129223132D01*
X137520136Y-129223126D01*
X137521639Y-129218180D01*
X137553845Y-128973550D01*
X137555643Y-128900000D01*
X137542030Y-128734422D01*
X137535849Y-128659240D01*
X137535848Y-128659234D01*
X137535425Y-128654089D01*
X137475316Y-128414783D01*
X137376928Y-128188507D01*
X137242905Y-127981339D01*
X137216635Y-127952468D01*
X137190243Y-127923464D01*
X137076846Y-127798842D01*
X137072795Y-127795643D01*
X137072791Y-127795639D01*
X136887264Y-127649119D01*
X136887259Y-127649116D01*
X136883210Y-127645918D01*
X136878694Y-127643425D01*
X136878691Y-127643423D01*
X136671722Y-127529170D01*
X136671718Y-127529168D01*
X136667198Y-127526673D01*
X136662329Y-127524949D01*
X136662325Y-127524947D01*
X136579509Y-127495621D01*
X136534439Y-127479661D01*
X136476904Y-127438067D01*
X136450988Y-127371969D01*
X136450500Y-127360888D01*
X136450500Y-126686567D01*
X136447436Y-126677136D01*
X136447435Y-126677132D01*
X136443703Y-126665647D01*
X136439087Y-126646422D01*
X136437197Y-126634488D01*
X136437197Y-126634487D01*
X136435646Y-126624696D01*
X136431145Y-126615863D01*
X136431144Y-126615859D01*
X136425659Y-126605094D01*
X136418093Y-126586830D01*
X136411296Y-126565910D01*
X136398361Y-126548107D01*
X136388035Y-126531255D01*
X136382554Y-126520498D01*
X136378050Y-126511658D01*
X136355487Y-126489095D01*
X136355484Y-126489091D01*
X135881988Y-126015595D01*
X135847962Y-125953283D01*
X135853027Y-125882468D01*
X135895574Y-125825632D01*
X135962094Y-125800821D01*
X135971083Y-125800500D01*
X137581917Y-125800500D01*
X137650038Y-125820502D01*
G37*
%TD.AperFunction*%
%TA.AperFunction,Conductor*%
G36*
X135579912Y-122683002D02*
G01*
X135628943Y-122742616D01*
X135640887Y-122772783D01*
X135732078Y-122892922D01*
X135852217Y-122984113D01*
X135903709Y-123004500D01*
X135984923Y-123036655D01*
X135984925Y-123036656D01*
X135992453Y-123039636D01*
X136082228Y-123050500D01*
X136727996Y-123050500D01*
X136796117Y-123070502D01*
X136817091Y-123087405D01*
X137538966Y-123809280D01*
X137546432Y-123818624D01*
X137546822Y-123818292D01*
X137552640Y-123825128D01*
X137557430Y-123832720D01*
X137564158Y-123838662D01*
X137564159Y-123838663D01*
X137597100Y-123867755D01*
X137602788Y-123873102D01*
X137614007Y-123884321D01*
X137617595Y-123887010D01*
X137617596Y-123887011D01*
X137622184Y-123890450D01*
X137630023Y-123896832D01*
X137664888Y-123927623D01*
X137673006Y-123931434D01*
X137676159Y-123933506D01*
X137689180Y-123941329D01*
X137692489Y-123943141D01*
X137699676Y-123948527D01*
X137708081Y-123951678D01*
X137708083Y-123951679D01*
X137743237Y-123964857D01*
X137752557Y-123968784D01*
X137794663Y-123988553D01*
X137803535Y-123989934D01*
X137807158Y-123991042D01*
X137821817Y-123994888D01*
X137825514Y-123995701D01*
X137833920Y-123998852D01*
X137880343Y-124002302D01*
X137890356Y-124003452D01*
X137903509Y-124005500D01*
X137918704Y-124005500D01*
X137928042Y-124005846D01*
X137976892Y-124009476D01*
X137985668Y-124007603D01*
X137994625Y-124006992D01*
X137994625Y-124006998D01*
X138008818Y-124005500D01*
X140048500Y-124005500D01*
X140116621Y-124025502D01*
X140163114Y-124079158D01*
X140174500Y-124131500D01*
X140174500Y-124149646D01*
X140177618Y-124175846D01*
X140181456Y-124184486D01*
X140181456Y-124184487D01*
X140206148Y-124240077D01*
X140223061Y-124278153D01*
X140231294Y-124286372D01*
X140231295Y-124286373D01*
X140262835Y-124317858D01*
X140302287Y-124357241D01*
X140312924Y-124361944D01*
X140312926Y-124361945D01*
X140352913Y-124379623D01*
X140404673Y-124402506D01*
X140430354Y-124405500D01*
X140948500Y-124405500D01*
X141016621Y-124425502D01*
X141063114Y-124479158D01*
X141074500Y-124531500D01*
X141074500Y-127354819D01*
X141073172Y-127366704D01*
X141073682Y-127366745D01*
X141072962Y-127375691D01*
X141070981Y-127384447D01*
X141072067Y-127401945D01*
X141074258Y-127437264D01*
X141074500Y-127445067D01*
X141074500Y-127460940D01*
X141075135Y-127465374D01*
X141075948Y-127471050D01*
X141076978Y-127481106D01*
X141079859Y-127527538D01*
X141082907Y-127535982D01*
X141083676Y-127539694D01*
X141087343Y-127554399D01*
X141088404Y-127558027D01*
X141089677Y-127566918D01*
X141108939Y-127609282D01*
X141112746Y-127618637D01*
X141125491Y-127653943D01*
X141125493Y-127653947D01*
X141128540Y-127662387D01*
X141133835Y-127669635D01*
X141135611Y-127672975D01*
X141143274Y-127686089D01*
X141145303Y-127689261D01*
X141149016Y-127697428D01*
X141154871Y-127704223D01*
X141154873Y-127704226D01*
X141179387Y-127732675D01*
X141185675Y-127740595D01*
X141193522Y-127751336D01*
X141204265Y-127762079D01*
X141210623Y-127768925D01*
X141242600Y-127806037D01*
X141250134Y-127810920D01*
X141256896Y-127816819D01*
X141256892Y-127816824D01*
X141267986Y-127825800D01*
X141633448Y-128191262D01*
X141667474Y-128253574D01*
X141662409Y-128324389D01*
X141658641Y-128333406D01*
X141639144Y-128375409D01*
X141636965Y-128380104D01*
X141571026Y-128617871D01*
X141544806Y-128863214D01*
X141559010Y-129109545D01*
X141560147Y-129114591D01*
X141560148Y-129114597D01*
X141582336Y-129213051D01*
X141613255Y-129350249D01*
X141706084Y-129578861D01*
X141835006Y-129789241D01*
X141996557Y-129975741D01*
X142186399Y-130133351D01*
X142205728Y-130144646D01*
X142394967Y-130255229D01*
X142394974Y-130255232D01*
X142399433Y-130257838D01*
X142404262Y-130259682D01*
X142405698Y-130260370D01*
X142458488Y-130307844D01*
X142477232Y-130376321D01*
X142455978Y-130444062D01*
X142401475Y-130489558D01*
X142351253Y-130500000D01*
X140238475Y-130500000D01*
X140170354Y-130479998D01*
X140123861Y-130426342D01*
X140113757Y-130356068D01*
X140143251Y-130291488D01*
X140183043Y-130260849D01*
X140316303Y-130195566D01*
X140316308Y-130195563D01*
X140320954Y-130193287D01*
X140325164Y-130190284D01*
X140325169Y-130190281D01*
X140517617Y-130053009D01*
X140517622Y-130053005D01*
X140521829Y-130050004D01*
X140696605Y-129875837D01*
X140840588Y-129675463D01*
X140949911Y-129454264D01*
X141005120Y-129272551D01*
X141020135Y-129223132D01*
X141020136Y-129223126D01*
X141021639Y-129218180D01*
X141053845Y-128973550D01*
X141055643Y-128900000D01*
X141042030Y-128734422D01*
X141035849Y-128659240D01*
X141035848Y-128659234D01*
X141035425Y-128654089D01*
X140975316Y-128414783D01*
X140876928Y-128188507D01*
X140742905Y-127981339D01*
X140716635Y-127952468D01*
X140690243Y-127923464D01*
X140576846Y-127798842D01*
X140572795Y-127795643D01*
X140572791Y-127795639D01*
X140387264Y-127649119D01*
X140387259Y-127649116D01*
X140383210Y-127645918D01*
X140378694Y-127643425D01*
X140378691Y-127643423D01*
X140171722Y-127529170D01*
X140171718Y-127529168D01*
X140167198Y-127526673D01*
X140162329Y-127524949D01*
X140162325Y-127524947D01*
X140079509Y-127495621D01*
X140034439Y-127479661D01*
X139976904Y-127438067D01*
X139950988Y-127371969D01*
X139950500Y-127360888D01*
X139950500Y-127086567D01*
X139947436Y-127077136D01*
X139947435Y-127077132D01*
X139943703Y-127065647D01*
X139939087Y-127046422D01*
X139937197Y-127034488D01*
X139937197Y-127034487D01*
X139935646Y-127024696D01*
X139931145Y-127015863D01*
X139931144Y-127015859D01*
X139925658Y-127005092D01*
X139918092Y-126986828D01*
X139914360Y-126975342D01*
X139911296Y-126965911D01*
X139898365Y-126948113D01*
X139888037Y-126931258D01*
X139882555Y-126920499D01*
X139882554Y-126920497D01*
X139878050Y-126911658D01*
X139855487Y-126889095D01*
X139855484Y-126889091D01*
X138060909Y-125094516D01*
X138060905Y-125094513D01*
X138038342Y-125071950D01*
X138018746Y-125061965D01*
X138001893Y-125051639D01*
X137984090Y-125038704D01*
X137963166Y-125031905D01*
X137944906Y-125024341D01*
X137934141Y-125018856D01*
X137934137Y-125018855D01*
X137925304Y-125014354D01*
X137915513Y-125012803D01*
X137915512Y-125012803D01*
X137903578Y-125010913D01*
X137884353Y-125006297D01*
X137872868Y-125002565D01*
X137872864Y-125002564D01*
X137863433Y-124999500D01*
X133918083Y-124999500D01*
X133849962Y-124979498D01*
X133828988Y-124962595D01*
X133731988Y-124865595D01*
X133697962Y-124803283D01*
X133703027Y-124732468D01*
X133745574Y-124675632D01*
X133812094Y-124650821D01*
X133821083Y-124650500D01*
X134617772Y-124650500D01*
X134707547Y-124639636D01*
X134715075Y-124636656D01*
X134715077Y-124636655D01*
X134784168Y-124609300D01*
X134847783Y-124584113D01*
X134967922Y-124492922D01*
X135059113Y-124372783D01*
X135093494Y-124285945D01*
X135111655Y-124240077D01*
X135111656Y-124240075D01*
X135114636Y-124232547D01*
X135125500Y-124142772D01*
X135125500Y-122797003D01*
X135145502Y-122728882D01*
X135162405Y-122707908D01*
X135170408Y-122699905D01*
X135232720Y-122665879D01*
X135259503Y-122663000D01*
X135511791Y-122663000D01*
X135579912Y-122683002D01*
G37*
%TD.AperFunction*%
%TA.AperFunction,Conductor*%
G36*
X123104707Y-106519976D02*
G01*
X123143913Y-106501505D01*
X123163327Y-106500000D01*
X125011422Y-106500000D01*
X125079543Y-106520002D01*
X125126036Y-106573658D01*
X125136140Y-106643932D01*
X125106646Y-106708512D01*
X125050897Y-106745476D01*
X125042196Y-106746854D01*
X125033359Y-106751357D01*
X125033355Y-106751358D01*
X125022594Y-106756841D01*
X125004334Y-106764405D01*
X124983410Y-106771204D01*
X124965607Y-106784139D01*
X124948754Y-106794465D01*
X124929158Y-106804450D01*
X124906595Y-106827013D01*
X124906591Y-106827016D01*
X124871012Y-106862595D01*
X124808700Y-106896621D01*
X124781917Y-106899500D01*
X123525124Y-106899500D01*
X123457003Y-106879498D01*
X123448420Y-106873462D01*
X123396580Y-106833684D01*
X123377625Y-106819139D01*
X123243709Y-106763670D01*
X123146880Y-106750922D01*
X123098920Y-106729705D01*
X123072171Y-106746896D01*
X123053120Y-106750922D01*
X122956291Y-106763670D01*
X122822375Y-106819139D01*
X122707379Y-106907379D01*
X122619139Y-107022375D01*
X122563670Y-107156291D01*
X122544750Y-107300000D01*
X122563670Y-107443709D01*
X122619139Y-107577625D01*
X122707379Y-107692621D01*
X122822375Y-107780861D01*
X122956291Y-107836330D01*
X123100000Y-107855250D01*
X123243709Y-107836330D01*
X123265541Y-107827287D01*
X123325283Y-107802542D01*
X123395873Y-107794953D01*
X123459359Y-107826733D01*
X123495586Y-107887791D01*
X123499500Y-107918951D01*
X123499500Y-108444646D01*
X123502618Y-108470846D01*
X123506456Y-108479486D01*
X123506456Y-108479487D01*
X123540571Y-108556291D01*
X123548061Y-108573153D01*
X123627287Y-108652241D01*
X123637924Y-108656944D01*
X123637926Y-108656945D01*
X123700790Y-108684737D01*
X123755006Y-108730576D01*
X123775833Y-108798449D01*
X123756658Y-108866807D01*
X123700990Y-108915128D01*
X123637481Y-108943337D01*
X123637479Y-108943339D01*
X123626847Y-108948061D01*
X123618628Y-108956294D01*
X123618627Y-108956295D01*
X123587142Y-108987835D01*
X123547759Y-109027287D01*
X123502494Y-109129673D01*
X123499500Y-109155354D01*
X123499500Y-109373500D01*
X123479498Y-109441621D01*
X123425842Y-109488114D01*
X123373500Y-109499500D01*
X122368083Y-109499500D01*
X122299962Y-109479498D01*
X122278988Y-109462595D01*
X122237405Y-109421012D01*
X122203379Y-109358700D01*
X122200500Y-109331917D01*
X122200500Y-107955354D01*
X122199508Y-107947014D01*
X122198499Y-107938541D01*
X122197382Y-107929154D01*
X122151939Y-107826847D01*
X122128051Y-107803000D01*
X122085466Y-107760490D01*
X122072713Y-107747759D01*
X122062076Y-107743056D01*
X122062074Y-107743055D01*
X121997728Y-107714608D01*
X121970327Y-107702494D01*
X121944646Y-107699500D01*
X120355354Y-107699500D01*
X120351650Y-107699941D01*
X120351647Y-107699941D01*
X120346951Y-107700500D01*
X120329154Y-107702618D01*
X120320514Y-107706456D01*
X120320513Y-107706456D01*
X120273251Y-107727449D01*
X120226847Y-107748061D01*
X120218628Y-107756294D01*
X120218627Y-107756295D01*
X120199124Y-107775832D01*
X120147759Y-107827287D01*
X120143056Y-107837924D01*
X120143055Y-107837926D01*
X120131497Y-107864070D01*
X120102494Y-107929673D01*
X120099500Y-107955354D01*
X120099500Y-109331917D01*
X120079498Y-109400038D01*
X120062595Y-109421012D01*
X119656012Y-109827595D01*
X119593700Y-109861621D01*
X119566917Y-109864500D01*
X119190570Y-109864500D01*
X119181726Y-109865336D01*
X119166329Y-109866791D01*
X119166326Y-109866792D01*
X119158684Y-109867514D01*
X119029450Y-109912898D01*
X118990829Y-109941424D01*
X118926852Y-109988678D01*
X118926850Y-109988680D01*
X118919275Y-109994275D01*
X118917511Y-109996663D01*
X118858189Y-110029058D01*
X118787373Y-110023996D01*
X118778517Y-110019823D01*
X118777625Y-110019139D01*
X118772987Y-110017218D01*
X118772983Y-110017216D01*
X118651340Y-109966831D01*
X118651341Y-109966831D01*
X118643709Y-109963670D01*
X118500000Y-109944750D01*
X118356291Y-109963670D01*
X118222375Y-110019139D01*
X118107379Y-110107379D01*
X118019139Y-110222375D01*
X117963670Y-110356291D01*
X117944750Y-110500000D01*
X117963670Y-110643709D01*
X118019139Y-110777625D01*
X118107379Y-110892621D01*
X118222375Y-110980861D01*
X118356291Y-111036330D01*
X118500000Y-111055250D01*
X118643709Y-111036330D01*
X118720610Y-111004477D01*
X118791199Y-110996888D01*
X118854686Y-111028667D01*
X118890913Y-111089725D01*
X118888379Y-111160677D01*
X118870179Y-111195745D01*
X118837898Y-111239450D01*
X118792514Y-111368684D01*
X118789500Y-111400570D01*
X118789500Y-111934430D01*
X118792514Y-111966316D01*
X118795059Y-111973563D01*
X118833907Y-112084184D01*
X118837898Y-112095550D01*
X118919275Y-112205725D01*
X119029450Y-112287102D01*
X119038336Y-112290223D01*
X119038337Y-112290223D01*
X119129892Y-112322375D01*
X119158684Y-112332486D01*
X119166326Y-112333208D01*
X119166329Y-112333209D01*
X119181283Y-112334622D01*
X119190570Y-112335500D01*
X119609430Y-112335500D01*
X119618717Y-112334622D01*
X119633671Y-112333209D01*
X119633674Y-112333208D01*
X119641316Y-112332486D01*
X119670108Y-112322375D01*
X119761663Y-112290223D01*
X119761664Y-112290223D01*
X119770550Y-112287102D01*
X119880725Y-112205725D01*
X119962102Y-112095550D01*
X119966094Y-112084184D01*
X120004941Y-111973563D01*
X120007486Y-111966316D01*
X120010500Y-111934430D01*
X120010500Y-111551550D01*
X120030502Y-111483429D01*
X120047405Y-111462455D01*
X120264405Y-111245455D01*
X120326717Y-111211429D01*
X120397532Y-111216494D01*
X120454368Y-111259041D01*
X120479179Y-111325561D01*
X120479500Y-111334550D01*
X120479501Y-111521738D01*
X120479501Y-111695030D01*
X120479780Y-111697980D01*
X120479780Y-111697985D01*
X120480598Y-111706643D01*
X120482547Y-111727264D01*
X120485092Y-111734512D01*
X120485093Y-111734515D01*
X120493867Y-111759499D01*
X120528429Y-111857916D01*
X120607628Y-111965143D01*
X120632009Y-112031820D01*
X120616472Y-112101095D01*
X120607631Y-112114853D01*
X120528429Y-112222084D01*
X120482547Y-112352736D01*
X120479500Y-112384969D01*
X120479501Y-112890030D01*
X120479780Y-112892980D01*
X120479780Y-112892985D01*
X120479937Y-112894646D01*
X120482547Y-112922264D01*
X120528429Y-113052916D01*
X120534026Y-113060493D01*
X120534026Y-113060494D01*
X120576111Y-113117472D01*
X120610699Y-113164301D01*
X120618273Y-113169895D01*
X120618778Y-113170268D01*
X120619193Y-113170815D01*
X120624935Y-113176557D01*
X120624147Y-113177345D01*
X120661688Y-113226830D01*
X120667207Y-113297612D01*
X120645270Y-113346474D01*
X120613429Y-113389584D01*
X120567547Y-113520236D01*
X120564500Y-113552469D01*
X120564501Y-114057530D01*
X120567547Y-114089764D01*
X120570092Y-114097012D01*
X120570093Y-114097015D01*
X120578284Y-114120338D01*
X120613429Y-114220416D01*
X120692628Y-114327643D01*
X120717009Y-114394320D01*
X120701472Y-114463595D01*
X120692631Y-114477353D01*
X120613429Y-114584584D01*
X120567547Y-114715236D01*
X120564500Y-114747469D01*
X120564501Y-115252530D01*
X120567547Y-115284764D01*
X120570092Y-115292012D01*
X120570093Y-115292015D01*
X120585610Y-115336199D01*
X120613429Y-115415416D01*
X120619026Y-115422993D01*
X120619026Y-115422994D01*
X120648423Y-115462794D01*
X120695699Y-115526801D01*
X120703274Y-115532396D01*
X120703277Y-115532399D01*
X120736022Y-115556584D01*
X120778934Y-115613144D01*
X120786099Y-115641594D01*
X120787980Y-115655979D01*
X120791597Y-115664199D01*
X120841800Y-115778293D01*
X120845720Y-115787203D01*
X120851497Y-115794076D01*
X120851498Y-115794077D01*
X120878504Y-115826205D01*
X120937970Y-115896948D01*
X120945447Y-115901925D01*
X121019874Y-115951468D01*
X121057313Y-115976390D01*
X121065888Y-115979069D01*
X121074284Y-115981692D01*
X121194157Y-116019142D01*
X121203129Y-116019306D01*
X121203132Y-116019307D01*
X121268463Y-116020504D01*
X121337499Y-116021770D01*
X121346533Y-116019307D01*
X121467155Y-115986422D01*
X121467158Y-115986421D01*
X121475817Y-115984060D01*
X121476051Y-115984919D01*
X121538924Y-115977160D01*
X121602902Y-116007939D01*
X121640083Y-116068422D01*
X121644501Y-116101492D01*
X121644501Y-116215030D01*
X121647547Y-116247264D01*
X121650092Y-116254512D01*
X121650093Y-116254515D01*
X121655938Y-116271158D01*
X121693429Y-116377916D01*
X121699026Y-116385493D01*
X121699026Y-116385494D01*
X121752708Y-116458174D01*
X121775699Y-116489301D01*
X121887084Y-116571571D01*
X121970282Y-116600788D01*
X122010488Y-116614908D01*
X122010491Y-116614909D01*
X122017736Y-116617453D01*
X122025380Y-116618176D01*
X122025382Y-116618176D01*
X122034134Y-116619003D01*
X122049969Y-116620500D01*
X122062214Y-116620500D01*
X122435785Y-116620499D01*
X122503904Y-116640501D01*
X122550397Y-116694156D01*
X122560502Y-116764430D01*
X122531009Y-116829011D01*
X122513176Y-116845930D01*
X122450744Y-116894524D01*
X122120679Y-117151431D01*
X122111336Y-117158703D01*
X122103836Y-117164110D01*
X120143992Y-118470672D01*
X120076217Y-118491816D01*
X120007770Y-118472962D01*
X119960382Y-118420095D01*
X119949266Y-118382933D01*
X119945013Y-118351881D01*
X119945012Y-118351876D01*
X119944404Y-118347438D01*
X119942850Y-118341998D01*
X119906281Y-118214046D01*
X119906280Y-118214043D01*
X119905047Y-118209729D01*
X119869654Y-118130606D01*
X119793228Y-118009478D01*
X119737050Y-117943469D01*
X119694913Y-117906255D01*
X119633062Y-117851631D01*
X119633061Y-117851631D01*
X119629699Y-117848661D01*
X119568084Y-117808188D01*
X119561007Y-117803539D01*
X119561004Y-117803537D01*
X119557257Y-117801076D01*
X119553201Y-117799172D01*
X119553198Y-117799170D01*
X119431667Y-117742111D01*
X119427612Y-117740207D01*
X119423329Y-117738898D01*
X119423325Y-117738896D01*
X119349008Y-117716175D01*
X119344720Y-117714864D01*
X119340297Y-117714175D01*
X119340291Y-117714174D01*
X119207623Y-117693518D01*
X119207618Y-117693518D01*
X119203202Y-117692830D01*
X119198736Y-117692775D01*
X119198731Y-117692775D01*
X119155580Y-117692248D01*
X119116534Y-117691771D01*
X119112092Y-117692352D01*
X119112089Y-117692352D01*
X119105369Y-117693231D01*
X119089032Y-117694295D01*
X118722167Y-117694295D01*
X118711677Y-117693858D01*
X118707633Y-117693520D01*
X118703201Y-117692830D01*
X118698721Y-117692775D01*
X118698717Y-117692775D01*
X118664045Y-117692352D01*
X118616534Y-117691772D01*
X118612093Y-117692353D01*
X118612088Y-117692353D01*
X118536846Y-117702192D01*
X118474520Y-117710342D01*
X118470204Y-117711547D01*
X118470199Y-117711548D01*
X118432777Y-117721996D01*
X118391034Y-117733651D01*
X118386929Y-117735457D01*
X118386927Y-117735458D01*
X118297278Y-117774905D01*
X118259941Y-117791334D01*
X118256136Y-117793702D01*
X118256133Y-117793704D01*
X118190172Y-117834761D01*
X118190168Y-117834764D01*
X118186357Y-117837136D01*
X118182925Y-117840021D01*
X118182918Y-117840026D01*
X118086494Y-117921079D01*
X118076722Y-117929293D01*
X118073734Y-117932635D01*
X118021941Y-117990562D01*
X118021938Y-117990567D01*
X118018949Y-117993909D01*
X118016464Y-117997642D01*
X118016461Y-117997646D01*
X117943252Y-118107627D01*
X117939586Y-118113134D01*
X117902270Y-118191368D01*
X117900933Y-118195647D01*
X117900932Y-118195650D01*
X117885396Y-118245377D01*
X117859560Y-118328074D01*
X117845702Y-118413634D01*
X117843077Y-118556833D01*
X117843631Y-118561283D01*
X117843868Y-118565755D01*
X117843758Y-118565761D01*
X117844295Y-118574425D01*
X117844295Y-119000000D01*
X117845599Y-119028207D01*
X117868995Y-119110433D01*
X117869676Y-119112827D01*
X117869088Y-119182866D01*
X117864939Y-119189567D01*
X117858806Y-119222375D01*
X117847425Y-119283259D01*
X117844295Y-119300000D01*
X117844295Y-119789226D01*
X117844274Y-119791534D01*
X117843077Y-119856833D01*
X117853791Y-119942848D01*
X117891464Y-120081028D01*
X117925887Y-120160574D01*
X118000827Y-120282626D01*
X118003690Y-120286074D01*
X118003691Y-120286076D01*
X118016682Y-120301723D01*
X118056192Y-120349314D01*
X118059512Y-120352319D01*
X118159060Y-120442427D01*
X118159064Y-120442430D01*
X118162376Y-120445428D01*
X118175417Y-120454224D01*
X118230516Y-120491389D01*
X118230524Y-120491394D01*
X118234237Y-120493898D01*
X118363129Y-120556345D01*
X118445701Y-120582697D01*
X118586939Y-120606459D01*
X118589362Y-120606676D01*
X118589367Y-120606677D01*
X118616174Y-120609081D01*
X118633918Y-120610673D01*
X118636342Y-120610703D01*
X118636349Y-120610703D01*
X118639495Y-120610741D01*
X118646260Y-120610824D01*
X118693338Y-120607759D01*
X118698793Y-120606978D01*
X118716654Y-120605705D01*
X119073740Y-120605705D01*
X119086931Y-120606550D01*
X119086939Y-120606459D01*
X119133918Y-120610673D01*
X119136342Y-120610703D01*
X119136349Y-120610703D01*
X119139559Y-120610742D01*
X119146260Y-120610824D01*
X119193338Y-120607760D01*
X119195765Y-120607412D01*
X119195769Y-120607412D01*
X119263935Y-120597650D01*
X119335115Y-120587456D01*
X119418308Y-120563128D01*
X119422381Y-120561276D01*
X119422384Y-120561275D01*
X119544605Y-120505704D01*
X119548687Y-120503848D01*
X119591852Y-120476243D01*
X119617931Y-120459565D01*
X119617933Y-120459564D01*
X119621707Y-120457150D01*
X119730208Y-120363660D01*
X119733147Y-120360291D01*
X119733151Y-120360287D01*
X119784239Y-120301723D01*
X119787188Y-120298343D01*
X119834296Y-120225665D01*
X119888128Y-120179384D01*
X119958441Y-120169553D01*
X120022906Y-120199297D01*
X120061058Y-120259171D01*
X120065953Y-120289955D01*
X120076654Y-120607412D01*
X120092830Y-121087275D01*
X120095610Y-121169755D01*
X120077915Y-121238511D01*
X120025856Y-121286785D01*
X119969682Y-121300000D01*
X119100000Y-121300000D01*
X119100000Y-129585092D01*
X119079998Y-129653213D01*
X119026342Y-129699706D01*
X118956068Y-129709810D01*
X118891488Y-129680316D01*
X118874815Y-129662799D01*
X118727449Y-129474701D01*
X118727447Y-129474698D01*
X118725096Y-129471698D01*
X118528302Y-129274904D01*
X118525299Y-129272551D01*
X118312213Y-129105608D01*
X118312210Y-129105606D01*
X118309222Y-129103265D01*
X118226050Y-129052986D01*
X118074311Y-128961256D01*
X118074307Y-128961254D01*
X118071050Y-128959285D01*
X117857590Y-128863214D01*
X117820736Y-128846627D01*
X117820730Y-128846625D01*
X117817260Y-128845063D01*
X117588515Y-128773784D01*
X117529429Y-128734422D01*
X117501004Y-128669364D01*
X117500000Y-128653489D01*
X117500000Y-115716688D01*
X118143833Y-115716688D01*
X118144442Y-115721131D01*
X118144442Y-115721137D01*
X118148253Y-115748958D01*
X118155596Y-115802562D01*
X118156827Y-115806869D01*
X118156828Y-115806874D01*
X118193719Y-115935954D01*
X118194953Y-115940271D01*
X118196786Y-115944368D01*
X118196786Y-115944369D01*
X118204938Y-115962593D01*
X118230346Y-116019394D01*
X118306772Y-116140522D01*
X118362950Y-116206531D01*
X118366314Y-116209502D01*
X118403720Y-116242537D01*
X118470301Y-116301339D01*
X118542743Y-116348924D01*
X118546799Y-116350828D01*
X118546802Y-116350830D01*
X118624610Y-116387361D01*
X118672388Y-116409793D01*
X118676671Y-116411102D01*
X118676675Y-116411104D01*
X118749237Y-116433289D01*
X118755280Y-116435136D01*
X118759703Y-116435825D01*
X118759709Y-116435826D01*
X118892377Y-116456482D01*
X118892382Y-116456482D01*
X118896798Y-116457170D01*
X118901264Y-116457225D01*
X118901269Y-116457225D01*
X118944420Y-116457752D01*
X118983466Y-116458229D01*
X118987908Y-116457648D01*
X118987911Y-116457648D01*
X118994631Y-116456769D01*
X119010968Y-116455705D01*
X119377833Y-116455705D01*
X119388323Y-116456142D01*
X119392367Y-116456480D01*
X119396799Y-116457170D01*
X119401279Y-116457225D01*
X119401283Y-116457225D01*
X119435353Y-116457641D01*
X119483466Y-116458228D01*
X119487907Y-116457647D01*
X119487912Y-116457647D01*
X119563154Y-116447808D01*
X119625480Y-116439658D01*
X119629796Y-116438453D01*
X119629801Y-116438452D01*
X119667223Y-116428003D01*
X119708966Y-116416349D01*
X119723866Y-116409793D01*
X119835957Y-116360471D01*
X119835958Y-116360471D01*
X119840059Y-116358666D01*
X119843875Y-116356291D01*
X119909828Y-116315239D01*
X119909832Y-116315236D01*
X119913643Y-116312864D01*
X119917075Y-116309979D01*
X119917082Y-116309974D01*
X120019846Y-116223592D01*
X120019847Y-116223591D01*
X120023278Y-116220707D01*
X120039009Y-116203113D01*
X120078059Y-116159438D01*
X120078062Y-116159433D01*
X120081051Y-116156091D01*
X120089144Y-116143934D01*
X120157932Y-116040595D01*
X120157933Y-116040593D01*
X120160414Y-116036866D01*
X120197730Y-115958632D01*
X120203467Y-115940271D01*
X120233936Y-115842743D01*
X120240440Y-115821926D01*
X120242735Y-115807760D01*
X120248194Y-115774053D01*
X120254298Y-115736366D01*
X120255776Y-115655725D01*
X120256841Y-115597648D01*
X120256841Y-115597646D01*
X120256923Y-115593167D01*
X120256369Y-115588717D01*
X120256132Y-115584245D01*
X120256242Y-115584239D01*
X120255705Y-115575575D01*
X120255705Y-115150000D01*
X120255441Y-115144275D01*
X120254737Y-115129066D01*
X120254401Y-115121793D01*
X120230324Y-115037172D01*
X120230912Y-114967134D01*
X120235061Y-114960433D01*
X120255705Y-114850000D01*
X120255705Y-114360774D01*
X120255726Y-114358465D01*
X120256841Y-114297640D01*
X120256923Y-114293167D01*
X120246209Y-114207152D01*
X120208536Y-114068972D01*
X120204864Y-114060485D01*
X120175894Y-113993541D01*
X120175892Y-113993538D01*
X120174113Y-113989426D01*
X120099173Y-113867374D01*
X120086125Y-113851657D01*
X120046670Y-113804133D01*
X120046668Y-113804131D01*
X120043808Y-113800686D01*
X119999795Y-113760847D01*
X119940940Y-113707573D01*
X119940936Y-113707570D01*
X119937624Y-113704572D01*
X119912259Y-113687464D01*
X119869484Y-113658611D01*
X119869476Y-113658606D01*
X119865763Y-113656102D01*
X119736871Y-113593655D01*
X119654299Y-113567303D01*
X119513061Y-113543541D01*
X119510638Y-113543324D01*
X119510633Y-113543323D01*
X119483826Y-113540919D01*
X119466082Y-113539327D01*
X119463658Y-113539297D01*
X119463651Y-113539297D01*
X119460505Y-113539259D01*
X119453740Y-113539176D01*
X119406662Y-113542241D01*
X119401207Y-113543022D01*
X119383346Y-113544295D01*
X119026260Y-113544295D01*
X119013069Y-113543450D01*
X119013061Y-113543541D01*
X118966082Y-113539327D01*
X118963658Y-113539297D01*
X118963651Y-113539297D01*
X118960441Y-113539258D01*
X118953740Y-113539176D01*
X118906662Y-113542240D01*
X118904235Y-113542588D01*
X118904231Y-113542588D01*
X118855821Y-113549521D01*
X118764885Y-113562544D01*
X118681692Y-113586872D01*
X118677619Y-113588724D01*
X118677616Y-113588725D01*
X118622049Y-113613990D01*
X118551313Y-113646152D01*
X118478293Y-113692850D01*
X118429401Y-113734978D01*
X118398218Y-113761847D01*
X118369792Y-113786340D01*
X118366853Y-113789709D01*
X118366849Y-113789713D01*
X118357277Y-113800686D01*
X118312812Y-113851657D01*
X118234912Y-113971842D01*
X118198555Y-114050527D01*
X118157519Y-114187745D01*
X118144708Y-114273467D01*
X118144492Y-114308891D01*
X118143920Y-114402500D01*
X118143833Y-114416688D01*
X118144171Y-114419154D01*
X118144295Y-114422983D01*
X118144295Y-114850000D01*
X118144362Y-114851442D01*
X118144362Y-114851457D01*
X118144745Y-114859729D01*
X118145599Y-114878207D01*
X118168995Y-114960433D01*
X118169676Y-114962827D01*
X118169088Y-115032866D01*
X118164939Y-115039567D01*
X118144295Y-115150000D01*
X118144295Y-115640624D01*
X118144293Y-115641394D01*
X118144113Y-115670934D01*
X118143833Y-115716688D01*
X117500000Y-115716688D01*
X117500000Y-108346511D01*
X117520002Y-108278390D01*
X117573658Y-108231897D01*
X117588515Y-108226216D01*
X117813624Y-108156070D01*
X117817260Y-108154937D01*
X117820730Y-108153375D01*
X117820736Y-108153373D01*
X117989215Y-108077546D01*
X118071050Y-108040715D01*
X118074307Y-108038746D01*
X118074311Y-108038744D01*
X118255594Y-107929154D01*
X118309222Y-107896735D01*
X118320639Y-107887791D01*
X118525299Y-107727449D01*
X118525302Y-107727447D01*
X118528302Y-107725096D01*
X118725096Y-107528302D01*
X118792355Y-107442453D01*
X118894392Y-107312213D01*
X118894394Y-107312210D01*
X118896735Y-107309222D01*
X119028723Y-107090888D01*
X119038744Y-107074311D01*
X119038746Y-107074307D01*
X119040715Y-107071050D01*
X119117924Y-106899500D01*
X119153373Y-106820736D01*
X119153375Y-106820730D01*
X119154937Y-106817260D01*
X119226216Y-106588515D01*
X119265578Y-106529429D01*
X119330636Y-106501004D01*
X119346511Y-106500000D01*
X123036673Y-106500000D01*
X123104707Y-106519976D01*
G37*
%TD.AperFunction*%
%TA.AperFunction,Conductor*%
G36*
X123514464Y-113805502D02*
G01*
X123560957Y-113859158D01*
X123571061Y-113929432D01*
X123568049Y-113944112D01*
X123566829Y-113948664D01*
X123563670Y-113956291D01*
X123562593Y-113964471D01*
X123562592Y-113964475D01*
X123547390Y-114079947D01*
X123518667Y-114144874D01*
X123459402Y-114183965D01*
X123422468Y-114189500D01*
X123200570Y-114189500D01*
X123191283Y-114190378D01*
X123176329Y-114191791D01*
X123176326Y-114191792D01*
X123168684Y-114192514D01*
X123161437Y-114195059D01*
X123067664Y-114227990D01*
X123039450Y-114237898D01*
X123031871Y-114243496D01*
X122974859Y-114285605D01*
X122908181Y-114309988D01*
X122838905Y-114294451D01*
X122825141Y-114285605D01*
X122768129Y-114243496D01*
X122760550Y-114237898D01*
X122732337Y-114227990D01*
X122638563Y-114195059D01*
X122631316Y-114192514D01*
X122623674Y-114191792D01*
X122623671Y-114191791D01*
X122608717Y-114190378D01*
X122599430Y-114189500D01*
X122065570Y-114189500D01*
X122056283Y-114190378D01*
X122041329Y-114191791D01*
X122041326Y-114191792D01*
X122033684Y-114192514D01*
X121970180Y-114214815D01*
X121899281Y-114218514D01*
X121837636Y-114183295D01*
X121804818Y-114120338D01*
X121802991Y-114084076D01*
X121804666Y-114066354D01*
X121805500Y-114057531D01*
X121805499Y-113911499D01*
X121825501Y-113843380D01*
X121879156Y-113796887D01*
X121931499Y-113785500D01*
X123446343Y-113785500D01*
X123514464Y-113805502D01*
G37*
%TD.AperFunction*%
%TA.AperFunction,Conductor*%
G36*
X121836228Y-110805875D02*
G01*
X121854806Y-110821199D01*
X122054644Y-111021037D01*
X122054648Y-111021040D01*
X122061658Y-111028050D01*
X122070494Y-111032552D01*
X122070495Y-111032553D01*
X122081259Y-111038038D01*
X122098116Y-111048368D01*
X122115910Y-111061296D01*
X122136832Y-111068094D01*
X122155093Y-111075658D01*
X122165861Y-111081145D01*
X122165865Y-111081146D01*
X122174696Y-111085646D01*
X122184485Y-111087197D01*
X122184493Y-111087199D01*
X122196427Y-111089089D01*
X122215647Y-111093703D01*
X122227133Y-111097435D01*
X122227140Y-111097436D01*
X122236567Y-111100499D01*
X122268477Y-111100499D01*
X122268481Y-111100500D01*
X122513500Y-111100500D01*
X122581621Y-111120502D01*
X122628114Y-111174158D01*
X122639500Y-111226500D01*
X122639501Y-111431433D01*
X122639501Y-111615030D01*
X122639780Y-111617978D01*
X122639780Y-111617987D01*
X122642016Y-111641648D01*
X122628511Y-111711348D01*
X122579467Y-111762683D01*
X122516576Y-111779501D01*
X122500583Y-111779501D01*
X122432463Y-111759499D01*
X122411490Y-111742597D01*
X122383408Y-111714515D01*
X122383395Y-111714503D01*
X122360842Y-111691950D01*
X122341246Y-111681965D01*
X122324393Y-111671639D01*
X122306590Y-111658704D01*
X122285666Y-111651905D01*
X122267406Y-111644341D01*
X122256641Y-111638856D01*
X122256637Y-111638855D01*
X122247804Y-111634354D01*
X122238013Y-111632803D01*
X122238012Y-111632803D01*
X122226078Y-111630913D01*
X122206853Y-111626297D01*
X122195368Y-111622565D01*
X122195364Y-111622564D01*
X122185933Y-111619500D01*
X121895583Y-111619500D01*
X121827462Y-111599498D01*
X121806487Y-111582595D01*
X121757404Y-111533511D01*
X121723379Y-111471198D01*
X121720500Y-111444416D01*
X121720499Y-111192936D01*
X121720499Y-111189970D01*
X121720027Y-111184969D01*
X121718176Y-111165386D01*
X121718176Y-111165385D01*
X121717453Y-111157736D01*
X121671571Y-111027084D01*
X121654948Y-111004578D01*
X121630565Y-110937903D01*
X121642906Y-110874784D01*
X121652320Y-110855354D01*
X121700022Y-110802772D01*
X121768581Y-110784327D01*
X121836228Y-110805875D01*
G37*
%TD.AperFunction*%
%TD*%
%TA.AperFunction,Conductor*%
%TO.N,Net-(F1-Pad1)*%
G36*
X149562409Y-107620002D02*
G01*
X149608902Y-107673658D01*
X149618371Y-107704103D01*
X149898083Y-109289137D01*
X149900000Y-109311034D01*
X149900000Y-110198500D01*
X149879998Y-110266621D01*
X149826342Y-110313114D01*
X149774000Y-110324500D01*
X149458447Y-110324501D01*
X149452624Y-110324501D01*
X149449230Y-110324870D01*
X149449224Y-110324870D01*
X149399278Y-110330295D01*
X149399274Y-110330296D01*
X149391420Y-110331149D01*
X149257176Y-110381474D01*
X149249997Y-110386854D01*
X149249994Y-110386856D01*
X149149635Y-110462072D01*
X149142454Y-110467454D01*
X149141924Y-110466747D01*
X149086300Y-110497121D01*
X149059517Y-110500000D01*
X148540483Y-110500000D01*
X148472362Y-110479998D01*
X148458689Y-110468979D01*
X148457546Y-110467454D01*
X148450365Y-110462072D01*
X148350006Y-110386856D01*
X148350003Y-110386854D01*
X148342824Y-110381474D01*
X148227997Y-110338428D01*
X148215975Y-110333921D01*
X148215973Y-110333921D01*
X148208580Y-110331149D01*
X148200730Y-110330296D01*
X148200729Y-110330296D01*
X148150774Y-110324869D01*
X148150773Y-110324869D01*
X148147377Y-110324500D01*
X148138433Y-110324500D01*
X147668194Y-110324501D01*
X147600074Y-110304499D01*
X147553581Y-110250844D01*
X147544642Y-110223211D01*
X147500769Y-110003846D01*
X147500000Y-110000000D01*
X147406466Y-109719398D01*
X147400000Y-109679553D01*
X147400000Y-107726000D01*
X147420002Y-107657879D01*
X147473658Y-107611386D01*
X147526000Y-107600000D01*
X149494288Y-107600000D01*
X149562409Y-107620002D01*
G37*
%TD.AperFunction*%
%TD*%
%TA.AperFunction,Conductor*%
%TO.N,/Vreg*%
G36*
X147135872Y-107723753D02*
G01*
X147185392Y-107774628D01*
X147200000Y-107833516D01*
X147200000Y-110400000D01*
X148196540Y-110581189D01*
X148259983Y-110613055D01*
X148296128Y-110674162D01*
X148300000Y-110705157D01*
X148300000Y-114176270D01*
X148279998Y-114244391D01*
X148226342Y-114290884D01*
X148176291Y-114302249D01*
X142801155Y-114399979D01*
X142798864Y-114400000D01*
X139526000Y-114400000D01*
X139457879Y-114379998D01*
X139411386Y-114326342D01*
X139400000Y-114274000D01*
X139400000Y-110423775D01*
X139408663Y-110377861D01*
X140270574Y-108175200D01*
X140314023Y-108119052D01*
X140380616Y-108095327D01*
X147066708Y-107707727D01*
X147135872Y-107723753D01*
G37*
%TD.AperFunction*%
%TD*%
%TA.AperFunction,Conductor*%
%TO.N,/+20V*%
G36*
X126649538Y-114131002D02*
G01*
X126696031Y-114184658D01*
X126707223Y-114230011D01*
X126739306Y-114807502D01*
X126739500Y-114814491D01*
X126739500Y-115304146D01*
X126742618Y-115330346D01*
X126756724Y-115362102D01*
X126762658Y-115375462D01*
X126773313Y-115419620D01*
X126774171Y-115435059D01*
X126800113Y-115902021D01*
X126800307Y-115909046D01*
X126800020Y-116649476D01*
X126800000Y-116700000D01*
X126800000Y-118695159D01*
X126799629Y-118704823D01*
X126700000Y-120000000D01*
X126700000Y-124674000D01*
X126679998Y-124742121D01*
X126626342Y-124788614D01*
X126574000Y-124800000D01*
X123534899Y-124800000D01*
X123470074Y-124782045D01*
X123061173Y-124536704D01*
X123013051Y-124484505D01*
X123000000Y-124428660D01*
X123000000Y-120900000D01*
X120720403Y-120900000D01*
X120652282Y-120879998D01*
X120605789Y-120826342D01*
X120594533Y-120779721D01*
X120504005Y-118788107D01*
X120520893Y-118719149D01*
X120572382Y-118670267D01*
X120581413Y-118666078D01*
X121691343Y-118203607D01*
X121700000Y-118200000D01*
X123571322Y-116649476D01*
X123636538Y-116621416D01*
X123651709Y-116620499D01*
X123750030Y-116620499D01*
X123752980Y-116620220D01*
X123752985Y-116620220D01*
X123774614Y-116618176D01*
X123774615Y-116618176D01*
X123782264Y-116617453D01*
X123789512Y-116614908D01*
X123789515Y-116614907D01*
X123833699Y-116599390D01*
X123912916Y-116571571D01*
X124024301Y-116489301D01*
X124106571Y-116377916D01*
X124109692Y-116369028D01*
X124114099Y-116360705D01*
X124116725Y-116362096D01*
X124149184Y-116316955D01*
X124187680Y-116296521D01*
X124196353Y-116293703D01*
X124215578Y-116289087D01*
X124227512Y-116287197D01*
X124227513Y-116287197D01*
X124237304Y-116285646D01*
X124246137Y-116281145D01*
X124246141Y-116281144D01*
X124256906Y-116275659D01*
X124275166Y-116268095D01*
X124296090Y-116261296D01*
X124313893Y-116248361D01*
X124330745Y-116238035D01*
X124341502Y-116232554D01*
X124350342Y-116228050D01*
X124372895Y-116205497D01*
X124372910Y-116205483D01*
X125105987Y-115472405D01*
X125168300Y-115438380D01*
X125195083Y-115435500D01*
X125434146Y-115435500D01*
X125437850Y-115435059D01*
X125437853Y-115435059D01*
X125445246Y-115434179D01*
X125460346Y-115432382D01*
X125469246Y-115428429D01*
X125552018Y-115391663D01*
X125562653Y-115386939D01*
X125610525Y-115338984D01*
X125613226Y-115336278D01*
X125666900Y-115304400D01*
X125681884Y-115300000D01*
X125700000Y-115300000D01*
X125700000Y-114237000D01*
X125720002Y-114168879D01*
X125773658Y-114122386D01*
X125826000Y-114111000D01*
X126581417Y-114111000D01*
X126649538Y-114131002D01*
G37*
%TD.AperFunction*%
%TD*%
M02*
