%TF.GenerationSoftware,KiCad,Pcbnew,6.0.11+dfsg-1~bpo11+1*%
%TF.CreationDate,2023-10-14T14:13:14-05:00*%
%TF.ProjectId,Gauntl33tVoltageRegulator,4761756e-746c-4333-9374-566f6c746167,rev?*%
%TF.SameCoordinates,Original*%
%TF.FileFunction,Legend,Bot*%
%TF.FilePolarity,Positive*%
%FSLAX46Y46*%
G04 Gerber Fmt 4.6, Leading zero omitted, Abs format (unit mm)*
G04 Created by KiCad (PCBNEW 6.0.11+dfsg-1~bpo11+1) date 2023-10-14 14:13:14*
%MOMM*%
%LPD*%
G01*
G04 APERTURE LIST*
%ADD10C,0.150000*%
G04 APERTURE END LIST*
D10*
X138100000Y-125300000D02*
X137800000Y-128200000D01*
X148600000Y-125300000D02*
X118100000Y-125200000D01*
X134200000Y-125200001D02*
X134300000Y-128100000D01*
X141300000Y-125300000D02*
X141300000Y-128200000D01*
X144800000Y-125300000D02*
X144800000Y-128200000D01*
X127200000Y-125200000D02*
X127300000Y-128100000D01*
X148600000Y-125300000D02*
X148600000Y-130500000D01*
X123900000Y-125200000D02*
X123800000Y-127800000D01*
X131000000Y-125200000D02*
X130800000Y-128100000D01*
X118100000Y-125200000D02*
X117700000Y-127000000D01*
X123400000Y-121400000D02*
X123500000Y-120900000D01*
X124000000Y-121900000D02*
X124200000Y-122300000D01*
X123400000Y-121900000D02*
X123700000Y-122500000D01*
X124700000Y-122300000D02*
X124800000Y-121800000D01*
X124500000Y-122000000D02*
X124700000Y-122300000D01*
X123700000Y-122500000D02*
X124000000Y-121900000D01*
X122800000Y-121500000D02*
X122900000Y-121900000D01*
X124300000Y-121500000D02*
X124300000Y-121100000D01*
X124200000Y-122300000D02*
X124500000Y-122000000D01*
X123200000Y-122300000D02*
X123400000Y-121900000D01*
X122900000Y-121900000D02*
X123200000Y-122300000D01*
X136813720Y-126652380D02*
X137087529Y-126176190D01*
X137385148Y-126652380D02*
X137260148Y-125652380D01*
X136879196Y-125652380D01*
X136789910Y-125700000D01*
X136748244Y-125747619D01*
X136712529Y-125842857D01*
X136730386Y-125985714D01*
X136789910Y-126080952D01*
X136843482Y-126128571D01*
X136944672Y-126176190D01*
X137325625Y-126176190D01*
X136385148Y-126652380D02*
X136260148Y-125652380D01*
X136022053Y-125652380D01*
X135885148Y-125700000D01*
X135801815Y-125795238D01*
X135766101Y-125890476D01*
X135742291Y-126080952D01*
X135760148Y-126223809D01*
X135831577Y-126414285D01*
X135891101Y-126509523D01*
X135998244Y-126604761D01*
X136147053Y-126652380D01*
X136385148Y-126652380D01*
X135135148Y-126176190D02*
X135194672Y-126652380D01*
X135403005Y-125652380D02*
X135135148Y-126176190D01*
X134736339Y-125652380D01*
X150052380Y-113608571D02*
X149719047Y-113608571D01*
X149576190Y-114132380D02*
X150052380Y-114132380D01*
X150052380Y-113132380D01*
X149576190Y-113132380D01*
X149004761Y-114132380D02*
X149100000Y-114084761D01*
X149147619Y-113989523D01*
X149147619Y-113132380D01*
X148242857Y-114084761D02*
X148338095Y-114132380D01*
X148528571Y-114132380D01*
X148623809Y-114084761D01*
X148671428Y-113989523D01*
X148671428Y-113608571D01*
X148623809Y-113513333D01*
X148528571Y-113465714D01*
X148338095Y-113465714D01*
X148242857Y-113513333D01*
X148195238Y-113608571D01*
X148195238Y-113703809D01*
X148671428Y-113799047D01*
X147338095Y-114084761D02*
X147433333Y-114132380D01*
X147623809Y-114132380D01*
X147719047Y-114084761D01*
X147766666Y-114037142D01*
X147814285Y-113941904D01*
X147814285Y-113656190D01*
X147766666Y-113560952D01*
X147719047Y-113513333D01*
X147623809Y-113465714D01*
X147433333Y-113465714D01*
X147338095Y-113513333D01*
X147052380Y-113465714D02*
X146671428Y-113465714D01*
X146909523Y-113132380D02*
X146909523Y-113989523D01*
X146861904Y-114084761D01*
X146766666Y-114132380D01*
X146671428Y-114132380D01*
X146338095Y-114132380D02*
X146338095Y-113465714D01*
X146338095Y-113656190D02*
X146290476Y-113560952D01*
X146242857Y-113513333D01*
X146147619Y-113465714D01*
X146052380Y-113465714D01*
X145719047Y-114132380D02*
X145719047Y-113465714D01*
X145719047Y-113132380D02*
X145766666Y-113180000D01*
X145719047Y-113227619D01*
X145671428Y-113180000D01*
X145719047Y-113132380D01*
X145719047Y-113227619D01*
X144814285Y-114084761D02*
X144909523Y-114132380D01*
X145100000Y-114132380D01*
X145195238Y-114084761D01*
X145242857Y-114037142D01*
X145290476Y-113941904D01*
X145290476Y-113656190D01*
X145242857Y-113560952D01*
X145195238Y-113513333D01*
X145100000Y-113465714D01*
X144909523Y-113465714D01*
X144814285Y-113513333D01*
X143957142Y-114132380D02*
X143957142Y-113608571D01*
X144004761Y-113513333D01*
X144100000Y-113465714D01*
X144290476Y-113465714D01*
X144385714Y-113513333D01*
X143957142Y-114084761D02*
X144052380Y-114132380D01*
X144290476Y-114132380D01*
X144385714Y-114084761D01*
X144433333Y-113989523D01*
X144433333Y-113894285D01*
X144385714Y-113799047D01*
X144290476Y-113751428D01*
X144052380Y-113751428D01*
X143957142Y-113703809D01*
X143338095Y-114132380D02*
X143433333Y-114084761D01*
X143480952Y-113989523D01*
X143480952Y-113132380D01*
X142195238Y-114132380D02*
X142195238Y-113132380D01*
X141957142Y-113132380D01*
X141814285Y-113180000D01*
X141719047Y-113275238D01*
X141671428Y-113370476D01*
X141623809Y-113560952D01*
X141623809Y-113703809D01*
X141671428Y-113894285D01*
X141719047Y-113989523D01*
X141814285Y-114084761D01*
X141957142Y-114132380D01*
X142195238Y-114132380D01*
X140814285Y-114084761D02*
X140909523Y-114132380D01*
X141100000Y-114132380D01*
X141195238Y-114084761D01*
X141242857Y-113989523D01*
X141242857Y-113608571D01*
X141195238Y-113513333D01*
X141100000Y-113465714D01*
X140909523Y-113465714D01*
X140814285Y-113513333D01*
X140766666Y-113608571D01*
X140766666Y-113703809D01*
X141242857Y-113799047D01*
X140385714Y-114084761D02*
X140290476Y-114132380D01*
X140100000Y-114132380D01*
X140004761Y-114084761D01*
X139957142Y-113989523D01*
X139957142Y-113941904D01*
X140004761Y-113846666D01*
X140100000Y-113799047D01*
X140242857Y-113799047D01*
X140338095Y-113751428D01*
X140385714Y-113656190D01*
X140385714Y-113608571D01*
X140338095Y-113513333D01*
X140242857Y-113465714D01*
X140100000Y-113465714D01*
X140004761Y-113513333D01*
X139528571Y-114132380D02*
X139528571Y-113465714D01*
X139528571Y-113132380D02*
X139576190Y-113180000D01*
X139528571Y-113227619D01*
X139480952Y-113180000D01*
X139528571Y-113132380D01*
X139528571Y-113227619D01*
X138623809Y-113465714D02*
X138623809Y-114275238D01*
X138671428Y-114370476D01*
X138719047Y-114418095D01*
X138814285Y-114465714D01*
X138957142Y-114465714D01*
X139052380Y-114418095D01*
X138623809Y-114084761D02*
X138719047Y-114132380D01*
X138909523Y-114132380D01*
X139004761Y-114084761D01*
X139052380Y-114037142D01*
X139100000Y-113941904D01*
X139100000Y-113656190D01*
X139052380Y-113560952D01*
X139004761Y-113513333D01*
X138909523Y-113465714D01*
X138719047Y-113465714D01*
X138623809Y-113513333D01*
X138147619Y-113465714D02*
X138147619Y-114132380D01*
X138147619Y-113560952D02*
X138100000Y-113513333D01*
X138004761Y-113465714D01*
X137861904Y-113465714D01*
X137766666Y-113513333D01*
X137719047Y-113608571D01*
X137719047Y-114132380D01*
X136480952Y-114132380D02*
X136480952Y-113132380D01*
X136480952Y-113513333D02*
X136385714Y-113465714D01*
X136195238Y-113465714D01*
X136100000Y-113513333D01*
X136052380Y-113560952D01*
X136004761Y-113656190D01*
X136004761Y-113941904D01*
X136052380Y-114037142D01*
X136100000Y-114084761D01*
X136195238Y-114132380D01*
X136385714Y-114132380D01*
X136480952Y-114084761D01*
X135671428Y-113465714D02*
X135433333Y-114132380D01*
X135195238Y-113465714D02*
X135433333Y-114132380D01*
X135528571Y-114370476D01*
X135576190Y-114418095D01*
X135671428Y-114465714D01*
X134052380Y-114132380D02*
X134052380Y-113132380D01*
X133671428Y-113132380D01*
X133576190Y-113180000D01*
X133528571Y-113227619D01*
X133480952Y-113322857D01*
X133480952Y-113465714D01*
X133528571Y-113560952D01*
X133576190Y-113608571D01*
X133671428Y-113656190D01*
X134052380Y-113656190D01*
X132671428Y-114084761D02*
X132766666Y-114132380D01*
X132957142Y-114132380D01*
X133052380Y-114084761D01*
X133100000Y-113989523D01*
X133100000Y-113608571D01*
X133052380Y-113513333D01*
X132957142Y-113465714D01*
X132766666Y-113465714D01*
X132671428Y-113513333D01*
X132623809Y-113608571D01*
X132623809Y-113703809D01*
X133100000Y-113799047D01*
X132338095Y-113465714D02*
X131957142Y-113465714D01*
X132195238Y-113132380D02*
X132195238Y-113989523D01*
X132147619Y-114084761D01*
X132052380Y-114132380D01*
X131957142Y-114132380D01*
X131242857Y-114084761D02*
X131338095Y-114132380D01*
X131528571Y-114132380D01*
X131623809Y-114084761D01*
X131671428Y-113989523D01*
X131671428Y-113608571D01*
X131623809Y-113513333D01*
X131528571Y-113465714D01*
X131338095Y-113465714D01*
X131242857Y-113513333D01*
X131195238Y-113608571D01*
X131195238Y-113703809D01*
X131671428Y-113799047D01*
X130766666Y-114132380D02*
X130766666Y-113465714D01*
X130766666Y-113656190D02*
X130719047Y-113560952D01*
X130671428Y-113513333D01*
X130576190Y-113465714D01*
X130480952Y-113465714D01*
X129433333Y-114084761D02*
X129290476Y-114132380D01*
X129052380Y-114132380D01*
X128957142Y-114084761D01*
X128909523Y-114037142D01*
X128861904Y-113941904D01*
X128861904Y-113846666D01*
X128909523Y-113751428D01*
X128957142Y-113703809D01*
X129052380Y-113656190D01*
X129242857Y-113608571D01*
X129338095Y-113560952D01*
X129385714Y-113513333D01*
X129433333Y-113418095D01*
X129433333Y-113322857D01*
X129385714Y-113227619D01*
X129338095Y-113180000D01*
X129242857Y-113132380D01*
X129004761Y-113132380D01*
X128861904Y-113180000D01*
X128004761Y-114132380D02*
X128004761Y-113608571D01*
X128052380Y-113513333D01*
X128147619Y-113465714D01*
X128338095Y-113465714D01*
X128433333Y-113513333D01*
X128004761Y-114084761D02*
X128100000Y-114132380D01*
X128338095Y-114132380D01*
X128433333Y-114084761D01*
X128480952Y-113989523D01*
X128480952Y-113894285D01*
X128433333Y-113799047D01*
X128338095Y-113751428D01*
X128100000Y-113751428D01*
X128004761Y-113703809D01*
X127576190Y-114084761D02*
X127480952Y-114132380D01*
X127290476Y-114132380D01*
X127195238Y-114084761D01*
X127147619Y-113989523D01*
X127147619Y-113941904D01*
X127195238Y-113846666D01*
X127290476Y-113799047D01*
X127433333Y-113799047D01*
X127528571Y-113751428D01*
X127576190Y-113656190D01*
X127576190Y-113608571D01*
X127528571Y-113513333D01*
X127433333Y-113465714D01*
X127290476Y-113465714D01*
X127195238Y-113513333D01*
X126290476Y-114132380D02*
X126290476Y-113608571D01*
X126338095Y-113513333D01*
X126433333Y-113465714D01*
X126623809Y-113465714D01*
X126719047Y-113513333D01*
X126290476Y-114084761D02*
X126385714Y-114132380D01*
X126623809Y-114132380D01*
X126719047Y-114084761D01*
X126766666Y-113989523D01*
X126766666Y-113894285D01*
X126719047Y-113799047D01*
X126623809Y-113751428D01*
X126385714Y-113751428D01*
X126290476Y-113703809D01*
X125814285Y-114132380D02*
X125814285Y-113465714D01*
X125814285Y-113560952D02*
X125766666Y-113513333D01*
X125671428Y-113465714D01*
X125528571Y-113465714D01*
X125433333Y-113513333D01*
X125385714Y-113608571D01*
X125385714Y-114132380D01*
X125385714Y-113608571D02*
X125338095Y-113513333D01*
X125242857Y-113465714D01*
X125100000Y-113465714D01*
X125004761Y-113513333D01*
X124957142Y-113608571D01*
X124957142Y-114132380D01*
X124052380Y-114132380D02*
X124052380Y-113608571D01*
X124100000Y-113513333D01*
X124195238Y-113465714D01*
X124385714Y-113465714D01*
X124480952Y-113513333D01*
X124052380Y-114084761D02*
X124147619Y-114132380D01*
X124385714Y-114132380D01*
X124480952Y-114084761D01*
X124528571Y-113989523D01*
X124528571Y-113894285D01*
X124480952Y-113799047D01*
X124385714Y-113751428D01*
X124147619Y-113751428D01*
X124052380Y-113703809D01*
X123576190Y-113465714D02*
X123576190Y-114132380D01*
X123576190Y-113560952D02*
X123528571Y-113513333D01*
X123433333Y-113465714D01*
X123290476Y-113465714D01*
X123195238Y-113513333D01*
X123147619Y-113608571D01*
X123147619Y-114132380D01*
X149933333Y-115218571D02*
X149790476Y-115266190D01*
X149742857Y-115313809D01*
X149695238Y-115409047D01*
X149695238Y-115551904D01*
X149742857Y-115647142D01*
X149790476Y-115694761D01*
X149885714Y-115742380D01*
X150266666Y-115742380D01*
X150266666Y-114742380D01*
X149933333Y-114742380D01*
X149838095Y-114790000D01*
X149790476Y-114837619D01*
X149742857Y-114932857D01*
X149742857Y-115028095D01*
X149790476Y-115123333D01*
X149838095Y-115170952D01*
X149933333Y-115218571D01*
X150266666Y-115218571D01*
X149123809Y-115742380D02*
X149219047Y-115694761D01*
X149266666Y-115647142D01*
X149314285Y-115551904D01*
X149314285Y-115266190D01*
X149266666Y-115170952D01*
X149219047Y-115123333D01*
X149123809Y-115075714D01*
X148980952Y-115075714D01*
X148885714Y-115123333D01*
X148838095Y-115170952D01*
X148790476Y-115266190D01*
X148790476Y-115551904D01*
X148838095Y-115647142D01*
X148885714Y-115694761D01*
X148980952Y-115742380D01*
X149123809Y-115742380D01*
X147933333Y-115742380D02*
X147933333Y-115218571D01*
X147980952Y-115123333D01*
X148076190Y-115075714D01*
X148266666Y-115075714D01*
X148361904Y-115123333D01*
X147933333Y-115694761D02*
X148028571Y-115742380D01*
X148266666Y-115742380D01*
X148361904Y-115694761D01*
X148409523Y-115599523D01*
X148409523Y-115504285D01*
X148361904Y-115409047D01*
X148266666Y-115361428D01*
X148028571Y-115361428D01*
X147933333Y-115313809D01*
X147457142Y-115742380D02*
X147457142Y-115075714D01*
X147457142Y-115266190D02*
X147409523Y-115170952D01*
X147361904Y-115123333D01*
X147266666Y-115075714D01*
X147171428Y-115075714D01*
X146409523Y-115742380D02*
X146409523Y-114742380D01*
X146409523Y-115694761D02*
X146504761Y-115742380D01*
X146695238Y-115742380D01*
X146790476Y-115694761D01*
X146838095Y-115647142D01*
X146885714Y-115551904D01*
X146885714Y-115266190D01*
X146838095Y-115170952D01*
X146790476Y-115123333D01*
X146695238Y-115075714D01*
X146504761Y-115075714D01*
X146409523Y-115123333D01*
X145171428Y-115742380D02*
X145171428Y-114742380D01*
X144933333Y-114742380D01*
X144790476Y-114790000D01*
X144695238Y-114885238D01*
X144647619Y-114980476D01*
X144600000Y-115170952D01*
X144600000Y-115313809D01*
X144647619Y-115504285D01*
X144695238Y-115599523D01*
X144790476Y-115694761D01*
X144933333Y-115742380D01*
X145171428Y-115742380D01*
X143790476Y-115694761D02*
X143885714Y-115742380D01*
X144076190Y-115742380D01*
X144171428Y-115694761D01*
X144219047Y-115599523D01*
X144219047Y-115218571D01*
X144171428Y-115123333D01*
X144076190Y-115075714D01*
X143885714Y-115075714D01*
X143790476Y-115123333D01*
X143742857Y-115218571D01*
X143742857Y-115313809D01*
X144219047Y-115409047D01*
X143361904Y-115694761D02*
X143266666Y-115742380D01*
X143076190Y-115742380D01*
X142980952Y-115694761D01*
X142933333Y-115599523D01*
X142933333Y-115551904D01*
X142980952Y-115456666D01*
X143076190Y-115409047D01*
X143219047Y-115409047D01*
X143314285Y-115361428D01*
X143361904Y-115266190D01*
X143361904Y-115218571D01*
X143314285Y-115123333D01*
X143219047Y-115075714D01*
X143076190Y-115075714D01*
X142980952Y-115123333D01*
X142504761Y-115742380D02*
X142504761Y-115075714D01*
X142504761Y-114742380D02*
X142552380Y-114790000D01*
X142504761Y-114837619D01*
X142457142Y-114790000D01*
X142504761Y-114742380D01*
X142504761Y-114837619D01*
X141600000Y-115075714D02*
X141600000Y-115885238D01*
X141647619Y-115980476D01*
X141695238Y-116028095D01*
X141790476Y-116075714D01*
X141933333Y-116075714D01*
X142028571Y-116028095D01*
X141600000Y-115694761D02*
X141695238Y-115742380D01*
X141885714Y-115742380D01*
X141980952Y-115694761D01*
X142028571Y-115647142D01*
X142076190Y-115551904D01*
X142076190Y-115266190D01*
X142028571Y-115170952D01*
X141980952Y-115123333D01*
X141885714Y-115075714D01*
X141695238Y-115075714D01*
X141600000Y-115123333D01*
X141123809Y-115075714D02*
X141123809Y-115742380D01*
X141123809Y-115170952D02*
X141076190Y-115123333D01*
X140980952Y-115075714D01*
X140838095Y-115075714D01*
X140742857Y-115123333D01*
X140695238Y-115218571D01*
X140695238Y-115742380D01*
X139838095Y-115694761D02*
X139933333Y-115742380D01*
X140123809Y-115742380D01*
X140219047Y-115694761D01*
X140266666Y-115599523D01*
X140266666Y-115218571D01*
X140219047Y-115123333D01*
X140123809Y-115075714D01*
X139933333Y-115075714D01*
X139838095Y-115123333D01*
X139790476Y-115218571D01*
X139790476Y-115313809D01*
X140266666Y-115409047D01*
X138933333Y-115742380D02*
X138933333Y-114742380D01*
X138933333Y-115694761D02*
X139028571Y-115742380D01*
X139219047Y-115742380D01*
X139314285Y-115694761D01*
X139361904Y-115647142D01*
X139409523Y-115551904D01*
X139409523Y-115266190D01*
X139361904Y-115170952D01*
X139314285Y-115123333D01*
X139219047Y-115075714D01*
X139028571Y-115075714D01*
X138933333Y-115123333D01*
X137361904Y-115218571D02*
X137219047Y-115266190D01*
X137171428Y-115313809D01*
X137123809Y-115409047D01*
X137123809Y-115551904D01*
X137171428Y-115647142D01*
X137219047Y-115694761D01*
X137314285Y-115742380D01*
X137695238Y-115742380D01*
X137695238Y-114742380D01*
X137361904Y-114742380D01*
X137266666Y-114790000D01*
X137219047Y-114837619D01*
X137171428Y-114932857D01*
X137171428Y-115028095D01*
X137219047Y-115123333D01*
X137266666Y-115170952D01*
X137361904Y-115218571D01*
X137695238Y-115218571D01*
X136790476Y-115075714D02*
X136552380Y-115742380D01*
X136314285Y-115075714D02*
X136552380Y-115742380D01*
X136647619Y-115980476D01*
X136695238Y-116028095D01*
X136790476Y-116075714D01*
X134885714Y-114742380D02*
X134885714Y-115456666D01*
X134933333Y-115599523D01*
X135028571Y-115694761D01*
X135171428Y-115742380D01*
X135266666Y-115742380D01*
X133980952Y-115742380D02*
X133980952Y-115218571D01*
X134028571Y-115123333D01*
X134123809Y-115075714D01*
X134314285Y-115075714D01*
X134409523Y-115123333D01*
X133980952Y-115694761D02*
X134076190Y-115742380D01*
X134314285Y-115742380D01*
X134409523Y-115694761D01*
X134457142Y-115599523D01*
X134457142Y-115504285D01*
X134409523Y-115409047D01*
X134314285Y-115361428D01*
X134076190Y-115361428D01*
X133980952Y-115313809D01*
X133504761Y-115742380D02*
X133504761Y-115075714D01*
X133504761Y-115266190D02*
X133457142Y-115170952D01*
X133409523Y-115123333D01*
X133314285Y-115075714D01*
X133219047Y-115075714D01*
X132885714Y-115742380D02*
X132885714Y-115075714D01*
X132885714Y-115266190D02*
X132838095Y-115170952D01*
X132790476Y-115123333D01*
X132695238Y-115075714D01*
X132600000Y-115075714D01*
X131885714Y-115694761D02*
X131980952Y-115742380D01*
X132171428Y-115742380D01*
X132266666Y-115694761D01*
X132314285Y-115599523D01*
X132314285Y-115218571D01*
X132266666Y-115123333D01*
X132171428Y-115075714D01*
X131980952Y-115075714D01*
X131885714Y-115123333D01*
X131838095Y-115218571D01*
X131838095Y-115313809D01*
X132314285Y-115409047D01*
X131552380Y-115075714D02*
X131171428Y-115075714D01*
X131409523Y-114742380D02*
X131409523Y-115599523D01*
X131361904Y-115694761D01*
X131266666Y-115742380D01*
X131171428Y-115742380D01*
X130980952Y-115075714D02*
X130600000Y-115075714D01*
X130838095Y-114742380D02*
X130838095Y-115599523D01*
X130790476Y-115694761D01*
X130695238Y-115742380D01*
X130600000Y-115742380D01*
X128933333Y-115647142D02*
X128980952Y-115694761D01*
X129123809Y-115742380D01*
X129219047Y-115742380D01*
X129361904Y-115694761D01*
X129457142Y-115599523D01*
X129504761Y-115504285D01*
X129552380Y-115313809D01*
X129552380Y-115170952D01*
X129504761Y-114980476D01*
X129457142Y-114885238D01*
X129361904Y-114790000D01*
X129219047Y-114742380D01*
X129123809Y-114742380D01*
X128980952Y-114790000D01*
X128933333Y-114837619D01*
X128504761Y-115742380D02*
X128504761Y-115075714D01*
X128504761Y-114742380D02*
X128552380Y-114790000D01*
X128504761Y-114837619D01*
X128457142Y-114790000D01*
X128504761Y-114742380D01*
X128504761Y-114837619D01*
X127600000Y-115075714D02*
X127600000Y-115885238D01*
X127647619Y-115980476D01*
X127695238Y-116028095D01*
X127790476Y-116075714D01*
X127933333Y-116075714D01*
X128028571Y-116028095D01*
X127600000Y-115694761D02*
X127695238Y-115742380D01*
X127885714Y-115742380D01*
X127980952Y-115694761D01*
X128028571Y-115647142D01*
X128076190Y-115551904D01*
X128076190Y-115266190D01*
X128028571Y-115170952D01*
X127980952Y-115123333D01*
X127885714Y-115075714D01*
X127695238Y-115075714D01*
X127600000Y-115123333D01*
X126695238Y-115742380D02*
X126695238Y-115218571D01*
X126742857Y-115123333D01*
X126838095Y-115075714D01*
X127028571Y-115075714D01*
X127123809Y-115123333D01*
X126695238Y-115694761D02*
X126790476Y-115742380D01*
X127028571Y-115742380D01*
X127123809Y-115694761D01*
X127171428Y-115599523D01*
X127171428Y-115504285D01*
X127123809Y-115409047D01*
X127028571Y-115361428D01*
X126790476Y-115361428D01*
X126695238Y-115313809D01*
X126219047Y-115742380D02*
X126219047Y-115075714D01*
X126219047Y-114742380D02*
X126266666Y-114790000D01*
X126219047Y-114837619D01*
X126171428Y-114790000D01*
X126219047Y-114742380D01*
X126219047Y-114837619D01*
X125742857Y-115075714D02*
X125742857Y-115742380D01*
X125742857Y-115170952D02*
X125695238Y-115123333D01*
X125600000Y-115075714D01*
X125457142Y-115075714D01*
X125361904Y-115123333D01*
X125314285Y-115218571D01*
X125314285Y-115742380D01*
X124457142Y-115694761D02*
X124552380Y-115742380D01*
X124742857Y-115742380D01*
X124838095Y-115694761D01*
X124885714Y-115599523D01*
X124885714Y-115218571D01*
X124838095Y-115123333D01*
X124742857Y-115075714D01*
X124552380Y-115075714D01*
X124457142Y-115123333D01*
X124409523Y-115218571D01*
X124409523Y-115313809D01*
X124885714Y-115409047D01*
X123980952Y-115742380D02*
X123980952Y-115075714D01*
X123980952Y-115266190D02*
X123933333Y-115170952D01*
X123885714Y-115123333D01*
X123790476Y-115075714D01*
X123695238Y-115075714D01*
X123219047Y-115742380D02*
X123314285Y-115694761D01*
X123361904Y-115647142D01*
X123409523Y-115551904D01*
X123409523Y-115266190D01*
X123361904Y-115170952D01*
X123314285Y-115123333D01*
X123219047Y-115075714D01*
X123076190Y-115075714D01*
X122980952Y-115123333D01*
X122933333Y-115170952D01*
X122885714Y-115266190D01*
X122885714Y-115551904D01*
X122933333Y-115647142D01*
X122980952Y-115694761D01*
X123076190Y-115742380D01*
X123219047Y-115742380D01*
X142242857Y-116352380D02*
X142052380Y-116352380D01*
X141957142Y-116400000D01*
X141861904Y-116495238D01*
X141814285Y-116685714D01*
X141814285Y-117019047D01*
X141861904Y-117209523D01*
X141957142Y-117304761D01*
X142052380Y-117352380D01*
X142242857Y-117352380D01*
X142338095Y-117304761D01*
X142433333Y-117209523D01*
X142480952Y-117019047D01*
X142480952Y-116685714D01*
X142433333Y-116495238D01*
X142338095Y-116400000D01*
X142242857Y-116352380D01*
X140957142Y-117304761D02*
X141052380Y-117352380D01*
X141242857Y-117352380D01*
X141338095Y-117304761D01*
X141385714Y-117257142D01*
X141433333Y-117161904D01*
X141433333Y-116876190D01*
X141385714Y-116780952D01*
X141338095Y-116733333D01*
X141242857Y-116685714D01*
X141052380Y-116685714D01*
X140957142Y-116733333D01*
X140671428Y-116685714D02*
X140290476Y-116685714D01*
X140528571Y-116352380D02*
X140528571Y-117209523D01*
X140480952Y-117304761D01*
X140385714Y-117352380D01*
X140290476Y-117352380D01*
X139957142Y-117257142D02*
X139909523Y-117304761D01*
X139957142Y-117352380D01*
X140004761Y-117304761D01*
X139957142Y-117257142D01*
X139957142Y-117352380D01*
X138195238Y-117352380D02*
X138766666Y-117352380D01*
X138480952Y-117352380D02*
X138480952Y-116352380D01*
X138576190Y-116495238D01*
X138671428Y-116590476D01*
X138766666Y-116638095D01*
X137338095Y-116685714D02*
X137338095Y-117352380D01*
X137576190Y-116304761D02*
X137814285Y-117019047D01*
X137195238Y-117019047D01*
X136957142Y-116685714D02*
X136576190Y-116685714D01*
X136814285Y-116352380D02*
X136814285Y-117209523D01*
X136766666Y-117304761D01*
X136671428Y-117352380D01*
X136576190Y-117352380D01*
X136242857Y-117352380D02*
X136242857Y-116352380D01*
X135814285Y-117352380D02*
X135814285Y-116828571D01*
X135861904Y-116733333D01*
X135957142Y-116685714D01*
X136100000Y-116685714D01*
X136195238Y-116733333D01*
X136242857Y-116780952D01*
X135290476Y-117304761D02*
X135290476Y-117352380D01*
X135338095Y-117447619D01*
X135385714Y-117495238D01*
X134147619Y-116447619D02*
X134100000Y-116400000D01*
X134004761Y-116352380D01*
X133766666Y-116352380D01*
X133671428Y-116400000D01*
X133623809Y-116447619D01*
X133576190Y-116542857D01*
X133576190Y-116638095D01*
X133623809Y-116780952D01*
X134195238Y-117352380D01*
X133576190Y-117352380D01*
X132957142Y-116352380D02*
X132861904Y-116352380D01*
X132766666Y-116400000D01*
X132719047Y-116447619D01*
X132671428Y-116542857D01*
X132623809Y-116733333D01*
X132623809Y-116971428D01*
X132671428Y-117161904D01*
X132719047Y-117257142D01*
X132766666Y-117304761D01*
X132861904Y-117352380D01*
X132957142Y-117352380D01*
X133052380Y-117304761D01*
X133100000Y-117257142D01*
X133147619Y-117161904D01*
X133195238Y-116971428D01*
X133195238Y-116733333D01*
X133147619Y-116542857D01*
X133100000Y-116447619D01*
X133052380Y-116400000D01*
X132957142Y-116352380D01*
X132242857Y-116447619D02*
X132195238Y-116400000D01*
X132100000Y-116352380D01*
X131861904Y-116352380D01*
X131766666Y-116400000D01*
X131719047Y-116447619D01*
X131671428Y-116542857D01*
X131671428Y-116638095D01*
X131719047Y-116780952D01*
X132290476Y-117352380D01*
X131671428Y-117352380D01*
X131338095Y-116352380D02*
X130719047Y-116352380D01*
X131052380Y-116733333D01*
X130909523Y-116733333D01*
X130814285Y-116780952D01*
X130766666Y-116828571D01*
X130719047Y-116923809D01*
X130719047Y-117161904D01*
X130766666Y-117257142D01*
X130814285Y-117304761D01*
X130909523Y-117352380D01*
X131195238Y-117352380D01*
X131290476Y-117304761D01*
X131338095Y-117257142D01*
X144338095Y-120572380D02*
X144338095Y-119572380D01*
X144338095Y-120048571D02*
X143766666Y-120048571D01*
X143766666Y-120572380D02*
X143766666Y-119572380D01*
X142861904Y-120572380D02*
X142861904Y-120048571D01*
X142909523Y-119953333D01*
X143004761Y-119905714D01*
X143195238Y-119905714D01*
X143290476Y-119953333D01*
X142861904Y-120524761D02*
X142957142Y-120572380D01*
X143195238Y-120572380D01*
X143290476Y-120524761D01*
X143338095Y-120429523D01*
X143338095Y-120334285D01*
X143290476Y-120239047D01*
X143195238Y-120191428D01*
X142957142Y-120191428D01*
X142861904Y-120143809D01*
X142385714Y-119905714D02*
X142385714Y-120905714D01*
X142385714Y-119953333D02*
X142290476Y-119905714D01*
X142100000Y-119905714D01*
X142004761Y-119953333D01*
X141957142Y-120000952D01*
X141909523Y-120096190D01*
X141909523Y-120381904D01*
X141957142Y-120477142D01*
X142004761Y-120524761D01*
X142100000Y-120572380D01*
X142290476Y-120572380D01*
X142385714Y-120524761D01*
X141623809Y-119905714D02*
X141242857Y-119905714D01*
X141480952Y-119572380D02*
X141480952Y-120429523D01*
X141433333Y-120524761D01*
X141338095Y-120572380D01*
X141242857Y-120572380D01*
X140909523Y-120572380D02*
X140909523Y-119905714D01*
X140909523Y-119572380D02*
X140957142Y-119620000D01*
X140909523Y-119667619D01*
X140861904Y-119620000D01*
X140909523Y-119572380D01*
X140909523Y-119667619D01*
X140004761Y-120524761D02*
X140100000Y-120572380D01*
X140290476Y-120572380D01*
X140385714Y-120524761D01*
X140433333Y-120477142D01*
X140480952Y-120381904D01*
X140480952Y-120096190D01*
X140433333Y-120000952D01*
X140385714Y-119953333D01*
X140290476Y-119905714D01*
X140100000Y-119905714D01*
X140004761Y-119953333D01*
X138861904Y-120524761D02*
X138719047Y-120572380D01*
X138480952Y-120572380D01*
X138385714Y-120524761D01*
X138338095Y-120477142D01*
X138290476Y-120381904D01*
X138290476Y-120286666D01*
X138338095Y-120191428D01*
X138385714Y-120143809D01*
X138480952Y-120096190D01*
X138671428Y-120048571D01*
X138766666Y-120000952D01*
X138814285Y-119953333D01*
X138861904Y-119858095D01*
X138861904Y-119762857D01*
X138814285Y-119667619D01*
X138766666Y-119620000D01*
X138671428Y-119572380D01*
X138433333Y-119572380D01*
X138290476Y-119620000D01*
X137719047Y-120572380D02*
X137814285Y-120524761D01*
X137861904Y-120477142D01*
X137909523Y-120381904D01*
X137909523Y-120096190D01*
X137861904Y-120000952D01*
X137814285Y-119953333D01*
X137719047Y-119905714D01*
X137576190Y-119905714D01*
X137480952Y-119953333D01*
X137433333Y-120000952D01*
X137385714Y-120096190D01*
X137385714Y-120381904D01*
X137433333Y-120477142D01*
X137480952Y-120524761D01*
X137576190Y-120572380D01*
X137719047Y-120572380D01*
X136814285Y-120572380D02*
X136909523Y-120524761D01*
X136957142Y-120429523D01*
X136957142Y-119572380D01*
X136004761Y-119905714D02*
X136004761Y-120572380D01*
X136433333Y-119905714D02*
X136433333Y-120429523D01*
X136385714Y-120524761D01*
X136290476Y-120572380D01*
X136147619Y-120572380D01*
X136052380Y-120524761D01*
X136004761Y-120477142D01*
X135671428Y-119905714D02*
X135290476Y-119905714D01*
X135528571Y-119572380D02*
X135528571Y-120429523D01*
X135480952Y-120524761D01*
X135385714Y-120572380D01*
X135290476Y-120572380D01*
X134957142Y-120572380D02*
X134957142Y-119905714D01*
X134957142Y-119572380D02*
X135004761Y-119620000D01*
X134957142Y-119667619D01*
X134909523Y-119620000D01*
X134957142Y-119572380D01*
X134957142Y-119667619D01*
X134338095Y-120572380D02*
X134433333Y-120524761D01*
X134480952Y-120477142D01*
X134528571Y-120381904D01*
X134528571Y-120096190D01*
X134480952Y-120000952D01*
X134433333Y-119953333D01*
X134338095Y-119905714D01*
X134195238Y-119905714D01*
X134100000Y-119953333D01*
X134052380Y-120000952D01*
X134004761Y-120096190D01*
X134004761Y-120381904D01*
X134052380Y-120477142D01*
X134100000Y-120524761D01*
X134195238Y-120572380D01*
X134338095Y-120572380D01*
X133576190Y-119905714D02*
X133576190Y-120572380D01*
X133576190Y-120000952D02*
X133528571Y-119953333D01*
X133433333Y-119905714D01*
X133290476Y-119905714D01*
X133195238Y-119953333D01*
X133147619Y-120048571D01*
X133147619Y-120572380D01*
X132719047Y-120524761D02*
X132623809Y-120572380D01*
X132433333Y-120572380D01*
X132338095Y-120524761D01*
X132290476Y-120429523D01*
X132290476Y-120381904D01*
X132338095Y-120286666D01*
X132433333Y-120239047D01*
X132576190Y-120239047D01*
X132671428Y-120191428D01*
X132719047Y-120096190D01*
X132719047Y-120048571D01*
X132671428Y-119953333D01*
X132576190Y-119905714D01*
X132433333Y-119905714D01*
X132338095Y-119953333D01*
X131100000Y-120572380D02*
X131100000Y-119572380D01*
X130623809Y-119905714D02*
X130623809Y-120572380D01*
X130623809Y-120000952D02*
X130576190Y-119953333D01*
X130480952Y-119905714D01*
X130338095Y-119905714D01*
X130242857Y-119953333D01*
X130195238Y-120048571D01*
X130195238Y-120572380D01*
X129290476Y-120524761D02*
X129385714Y-120572380D01*
X129576190Y-120572380D01*
X129671428Y-120524761D01*
X129719047Y-120477142D01*
X129766666Y-120381904D01*
X129766666Y-120096190D01*
X129719047Y-120000952D01*
X129671428Y-119953333D01*
X129576190Y-119905714D01*
X129385714Y-119905714D01*
X129290476Y-119953333D01*
X128861904Y-120477142D02*
X128814285Y-120524761D01*
X128861904Y-120572380D01*
X128909523Y-120524761D01*
X128861904Y-120477142D01*
X128861904Y-120572380D01*
X132238095Y-125700000D02*
X132333333Y-125652380D01*
X132476190Y-125652380D01*
X132619047Y-125700000D01*
X132714285Y-125795238D01*
X132761904Y-125890476D01*
X132809523Y-126080952D01*
X132809523Y-126223809D01*
X132761904Y-126414285D01*
X132714285Y-126509523D01*
X132619047Y-126604761D01*
X132476190Y-126652380D01*
X132380952Y-126652380D01*
X132238095Y-126604761D01*
X132190476Y-126557142D01*
X132190476Y-126223809D01*
X132380952Y-126223809D01*
X125038095Y-125700000D02*
X125133333Y-125652380D01*
X125276190Y-125652380D01*
X125419047Y-125700000D01*
X125514285Y-125795238D01*
X125561904Y-125890476D01*
X125609523Y-126080952D01*
X125609523Y-126223809D01*
X125561904Y-126414285D01*
X125514285Y-126509523D01*
X125419047Y-126604761D01*
X125276190Y-126652380D01*
X125180952Y-126652380D01*
X125038095Y-126604761D01*
X124990476Y-126557142D01*
X124990476Y-126223809D01*
X125180952Y-126223809D01*
X146138095Y-125700000D02*
X146233333Y-125652380D01*
X146376190Y-125652380D01*
X146519047Y-125700000D01*
X146614285Y-125795238D01*
X146661904Y-125890476D01*
X146709523Y-126080952D01*
X146709523Y-126223809D01*
X146661904Y-126414285D01*
X146614285Y-126509523D01*
X146519047Y-126604761D01*
X146376190Y-126652380D01*
X146280952Y-126652380D01*
X146138095Y-126604761D01*
X146090476Y-126557142D01*
X146090476Y-126223809D01*
X146280952Y-126223809D01*
X139938095Y-126128571D02*
X139604761Y-126128571D01*
X139461904Y-126652380D02*
X139938095Y-126652380D01*
X139938095Y-125652380D01*
X139461904Y-125652380D01*
X139033333Y-126652380D02*
X139033333Y-125652380D01*
X138461904Y-126652380D01*
X138461904Y-125652380D01*
X143837529Y-126647380D02*
X144313720Y-126647380D01*
X144188720Y-125647380D01*
X143522053Y-125647380D02*
X143313720Y-126647380D01*
X142855386Y-125647380D01*
X142331577Y-125647380D02*
X142141101Y-125647380D01*
X142051815Y-125695000D01*
X141968482Y-125790238D01*
X141944672Y-125980714D01*
X141986339Y-126314047D01*
X142057767Y-126504523D01*
X142164910Y-126599761D01*
X142266101Y-126647380D01*
X142456577Y-126647380D01*
X142545863Y-126599761D01*
X142629196Y-126504523D01*
X142653005Y-126314047D01*
X142611339Y-125980714D01*
X142539910Y-125790238D01*
X142432767Y-125695000D01*
X142331577Y-125647380D01*
X122745863Y-125752380D02*
X122537529Y-126752380D01*
X122079196Y-125752380D01*
X122120863Y-126847619D02*
X121358958Y-126847619D01*
X121108958Y-126752380D02*
X120983958Y-125752380D01*
X120632767Y-126752380D02*
X120507767Y-125752380D01*
X120061339Y-126752380D01*
X119936339Y-125752380D01*
X130593482Y-125652380D02*
X130385148Y-126652380D01*
X129926815Y-125652380D01*
X129575625Y-126652380D02*
X129664910Y-126604761D01*
X129706577Y-126557142D01*
X129742291Y-126461904D01*
X129706577Y-126176190D01*
X129647053Y-126080952D01*
X129593482Y-126033333D01*
X129492291Y-125985714D01*
X129349434Y-125985714D01*
X129260148Y-126033333D01*
X129218482Y-126080952D01*
X129182767Y-126176190D01*
X129218482Y-126461904D01*
X129278005Y-126557142D01*
X129331577Y-126604761D01*
X129432767Y-126652380D01*
X129575625Y-126652380D01*
X128301815Y-125985714D02*
X128385148Y-126652380D01*
X128730386Y-125985714D02*
X128795863Y-126509523D01*
X128760148Y-126604761D01*
X128670863Y-126652380D01*
X128528005Y-126652380D01*
X128426815Y-126604761D01*
X128373244Y-126557142D01*
X127968482Y-125985714D02*
X127587529Y-125985714D01*
X127783958Y-125652380D02*
X127891101Y-126509523D01*
X127855386Y-126604761D01*
X127766101Y-126652380D01*
X127670863Y-126652380D01*
M02*
