M48
; DRILL file {KiCad 6.0.11+dfsg-1~bpo11+1} date Sat 14 Oct 2023 02:13:12 PM CDT
; FORMAT={-:-/ absolute / inch / decimal}
; #@! TF.CreationDate,2023-10-14T14:13:12-05:00
; #@! TF.GenerationSoftware,Kicad,Pcbnew,6.0.11+dfsg-1~bpo11+1
; #@! TF.FileFunction,Plated,1,4,PTH
FMAT,2
INCH
; #@! TA.AperFunction,Plated,PTH,ViaDrill
T1C0.0118
; #@! TA.AperFunction,Plated,PTH,ViaDrill
T2C0.0157
; #@! TA.AperFunction,Plated,PTH,ComponentDrill
T3C0.0472
%
G90
G05
T1
X4.6654Y-4.3504
X4.6772Y-4.3031
X4.6811Y-4.6575
X4.6811Y-4.7205
X4.6929Y-4.4921
X4.6929Y-4.5591
X4.7283Y-4.4606
X4.7283Y-4.8071
X4.7283Y-4.8346
X4.7559Y-4.8071
X4.7559Y-4.8346
X4.7559Y-4.8622
X4.7722Y-4.3547
X4.7746Y-4.548
X4.7756Y-4.7087
X4.7835Y-4.8071
X4.7835Y-4.8346
X4.7835Y-4.8622
X4.7874Y-4.689
X4.7953Y-4.6024
X4.8026Y-4.7089
X4.8031Y-4.3819
X4.811Y-4.4882
X4.811Y-4.8071
X4.811Y-4.8346
X4.811Y-4.8622
X4.815Y-4.689
X4.8268Y-4.248
X4.8465Y-4.2244
X4.874Y-4.4213
X4.874Y-5.1299
X4.8858Y-4.4921
X4.8898Y-4.2047
X4.8916Y-4.3801
X4.8976Y-4.622
X4.8976Y-4.6496
X4.8976Y-4.6772
X4.8976Y-4.7047
X4.9055Y-5.0
X4.9252Y-4.622
X4.9252Y-4.6496
X4.9252Y-4.6772
X4.9252Y-4.7047
X4.9317Y-4.5565
X4.9567Y-4.4291
X4.9567Y-4.4488
X4.9567Y-4.4685
X4.9567Y-4.5039
X4.9567Y-4.5276
X4.9567Y-4.5551
X4.9803Y-4.4291
X4.9803Y-4.4488
X4.9803Y-4.4685
X4.9803Y-4.5039
X4.9803Y-4.5276
X4.9803Y-4.5551
X4.9803Y-5.0
X5.0048Y-4.3512
X5.0079Y-5.126
X5.0103Y-4.4394
X5.0118Y-4.4646
X5.0118Y-4.4882
X5.0118Y-4.5118
X5.0118Y-4.5354
X5.0145Y-4.265
X5.0354Y-4.4646
X5.0354Y-4.4882
X5.0354Y-4.5118
X5.0354Y-4.5354
X5.0394Y-4.6693
X5.0394Y-4.6969
X5.0394Y-4.7244
X5.0394Y-4.752
X5.0394Y-4.7913
X5.0394Y-4.8189
X5.0394Y-4.8465
X5.063Y-4.3386
X5.0669Y-4.6693
X5.0669Y-4.6969
X5.0669Y-4.7244
X5.0669Y-4.752
X5.0669Y-4.7913
X5.0669Y-4.8189
X5.0669Y-4.8465
X5.0748Y-4.4567
X5.0748Y-4.4803
X5.0748Y-4.5039
X5.0748Y-4.5276
X5.0945Y-4.6693
X5.0945Y-4.6969
X5.0945Y-4.7244
X5.0945Y-4.752
X5.0945Y-4.7913
X5.0945Y-4.8189
X5.0945Y-4.8465
X5.126Y-4.6378
X5.1457Y-4.8189
X5.1457Y-4.8465
X5.1476Y-4.6142
X5.1496Y-5.126
X5.1575Y-5.0197
X5.1732Y-4.378
X5.1732Y-4.4094
X5.1732Y-4.4409
X5.1732Y-4.4724
X5.1732Y-4.8189
X5.1732Y-4.8465
X5.1811Y-4.5433
X5.1811Y-4.5669
X5.2047Y-4.378
X5.2047Y-4.4094
X5.2047Y-4.4409
X5.2047Y-4.4724
X5.2047Y-4.5433
X5.2047Y-4.5669
X5.2283Y-4.5433
X5.2283Y-4.5669
X5.2362Y-4.378
X5.2362Y-4.4094
X5.2362Y-4.4409
X5.2362Y-4.4724
X5.252Y-4.5433
X5.252Y-4.5669
X5.2677Y-4.378
X5.2677Y-4.4094
X5.2677Y-4.4409
X5.2677Y-4.4724
X5.2756Y-4.5433
X5.2756Y-4.5669
X5.2874Y-5.0236
X5.2874Y-5.126
X5.2992Y-4.5433
X5.2992Y-4.5669
X5.3031Y-4.6654
X5.3031Y-4.6929
X5.3031Y-4.7205
X5.3031Y-4.748
X5.3228Y-4.2362
X5.3228Y-4.2598
X5.3228Y-4.3307
X5.3228Y-4.3543
X5.3228Y-4.378
X5.3228Y-4.4016
X5.3228Y-4.4252
X5.3228Y-4.4488
X5.3228Y-4.4724
X5.3228Y-4.4961
X5.3228Y-4.5197
X5.3228Y-4.5433
X5.3228Y-4.5669
X5.3465Y-4.2362
X5.3465Y-4.2598
X5.3465Y-4.3307
X5.3465Y-4.3543
X5.3465Y-4.378
X5.3465Y-4.4016
X5.3465Y-4.4252
X5.3465Y-4.4488
X5.3465Y-4.4724
X5.3465Y-4.4961
X5.3465Y-4.5197
X5.3465Y-4.5433
X5.3465Y-4.5669
X5.3543Y-4.8504
X5.3543Y-4.874
X5.3701Y-4.2362
X5.3701Y-4.2598
X5.3701Y-4.3307
X5.3701Y-4.3543
X5.3701Y-4.378
X5.3701Y-4.4016
X5.3701Y-4.4252
X5.3701Y-4.4488
X5.3701Y-4.4724
X5.3701Y-4.4961
X5.3701Y-4.5197
X5.3701Y-4.5433
X5.3701Y-4.5669
X5.378Y-4.8504
X5.378Y-4.874
X5.3937Y-4.2362
X5.3937Y-4.2598
X5.3937Y-4.3307
X5.3937Y-4.3543
X5.3937Y-4.378
X5.3937Y-4.4016
X5.3937Y-4.4252
X5.3937Y-4.4488
X5.3937Y-4.4724
X5.3937Y-4.4961
X5.3937Y-4.5197
X5.3937Y-4.5433
X5.3937Y-4.5669
X5.4016Y-4.874
X5.4173Y-4.2362
X5.4173Y-4.2598
X5.4173Y-4.3307
X5.4173Y-4.3543
X5.4173Y-4.378
X5.4173Y-4.4016
X5.4173Y-4.4252
X5.4173Y-4.4488
X5.4173Y-4.4724
X5.4173Y-4.4961
X5.4173Y-4.5197
X5.4173Y-4.5433
X5.4173Y-4.5669
X5.4213Y-5.126
X5.4252Y-5.0157
X5.4409Y-4.2362
X5.4409Y-4.2598
X5.4409Y-4.3307
X5.4409Y-4.3543
X5.4409Y-4.378
X5.4409Y-4.4016
X5.4409Y-4.4252
X5.4409Y-4.4488
X5.4409Y-4.4724
X5.4409Y-4.4961
X5.4409Y-4.5197
X5.4409Y-4.5433
X5.4409Y-4.5669
X5.4646Y-4.5433
X5.4646Y-4.5669
X5.4882Y-4.5433
X5.5118Y-4.3228
X5.5118Y-4.3504
X5.5118Y-4.378
X5.5118Y-4.4055
X5.5118Y-4.4331
X5.5118Y-4.5433
X5.5118Y-4.7283
X5.5118Y-4.7559
X5.5118Y-4.7835
X5.5118Y-4.811
X5.5354Y-4.5433
X5.5394Y-4.3228
X5.5394Y-4.3504
X5.5394Y-4.378
X5.5394Y-4.4055
X5.5394Y-4.4331
X5.5433Y-5.0236
X5.5472Y-5.126
X5.5591Y-4.5433
X5.5709Y-4.3228
X5.5709Y-4.3504
X5.5709Y-4.378
X5.5709Y-4.4055
X5.5709Y-4.4331
X5.5748Y-5.126
X5.5827Y-4.5433
X5.5984Y-4.3228
X5.5984Y-4.3504
X5.5984Y-4.378
X5.5984Y-4.4055
X5.5984Y-4.4331
X5.6299Y-4.3228
X5.6299Y-4.3504
X5.6299Y-4.378
X5.6299Y-4.4055
X5.6299Y-4.4331
X5.6339Y-4.8976
X5.6575Y-4.3228
X5.6575Y-4.3504
X5.6575Y-4.378
X5.6575Y-4.4055
X5.6575Y-4.4331
X5.6654Y-4.5866
X5.685Y-4.3228
X5.685Y-4.3504
X5.685Y-4.378
X5.685Y-4.4055
X5.685Y-4.4331
X5.6929Y-4.2047
X5.7008Y-5.0236
X5.7008Y-5.126
X5.7087Y-4.6693
X5.7087Y-4.6929
X5.7087Y-4.7165
X5.7087Y-4.7402
X5.7087Y-4.7638
X5.7087Y-4.7874
X5.7087Y-4.811
X5.7087Y-4.8346
X5.7087Y-4.8583
X5.7126Y-4.3228
X5.7126Y-4.3504
X5.7126Y-4.378
X5.7126Y-4.4055
X5.7126Y-4.4331
X5.7205Y-4.2047
X5.7323Y-4.6693
X5.7323Y-4.6929
X5.7323Y-4.7165
X5.7323Y-4.7402
X5.7323Y-4.7638
X5.7323Y-4.7874
X5.7323Y-4.811
X5.7323Y-4.8346
X5.7323Y-4.8583
X5.7362Y-4.2559
X5.7362Y-4.2795
X5.748Y-4.2047
X5.7559Y-4.6693
X5.7559Y-4.6929
X5.7559Y-4.7165
X5.7559Y-4.7402
X5.7559Y-4.7638
X5.7559Y-4.7874
X5.7559Y-4.811
X5.7559Y-4.8346
X5.7559Y-4.8583
X5.7598Y-4.2559
X5.7598Y-4.2795
X5.7756Y-4.2047
X5.7795Y-4.6693
X5.7795Y-4.6929
X5.7795Y-4.7165
X5.7795Y-4.7402
X5.7795Y-4.7638
X5.7795Y-4.7874
X5.7795Y-4.811
X5.7795Y-4.8346
X5.7795Y-4.8583
X5.7835Y-4.3622
X5.7835Y-4.3858
X5.7835Y-4.4094
X5.7835Y-4.4331
X5.7835Y-4.4567
X5.7835Y-4.4803
X5.8346Y-4.2756
X5.8346Y-4.2992
X5.8346Y-4.3228
X5.8386Y-5.126
X5.8583Y-4.2756
X5.8583Y-4.2992
X5.8583Y-4.3228
X5.8661Y-5.126
X5.8819Y-4.2756
X5.8819Y-4.2992
X5.8819Y-4.3228
X5.9094Y-4.8346
X5.9094Y-4.8583
X5.9291Y-4.2638
X5.9291Y-4.2913
X5.9291Y-4.3189
X5.9291Y-4.3425
X5.9291Y-4.3661
X5.9291Y-4.3898
X5.9291Y-4.4134
X5.9291Y-4.4409
X5.9291Y-4.4685
X5.9291Y-4.4961
X5.9291Y-4.5236
X5.9331Y-4.6693
X5.9331Y-4.6929
X5.9331Y-4.7165
X5.9331Y-4.7402
X5.9331Y-4.7638
X5.9331Y-4.7874
X5.9331Y-4.811
X5.9331Y-4.8346
X5.9331Y-4.8583
X5.9567Y-4.2913
X5.9567Y-4.3189
X5.9567Y-4.3425
X5.9567Y-4.3661
X5.9567Y-4.3898
X5.9567Y-4.4134
X5.9567Y-4.4409
X5.9567Y-4.4685
X5.9567Y-4.4961
X5.9567Y-4.5236
T2
X4.6457Y-5.0394
X4.685Y-5.0787
X4.874Y-4.8858
X5.1378Y-4.3228
X5.2835Y-4.8819
T3
X4.8051Y-5.0748
X4.9429Y-5.0748
X5.0807Y-5.0748
X5.2185Y-5.0748
X5.3563Y-5.0748
X5.4941Y-5.0748
X5.6319Y-5.0748
X5.7697Y-5.0748
T0
M30
