%TF.GenerationSoftware,KiCad,Pcbnew,6.0.11+dfsg-1~bpo11+1*%
%TF.CreationDate,2023-09-12T21:00:17-05:00*%
%TF.ProjectId,Gauntl33tVoltageRegulator,4761756e-746c-4333-9374-566f6c746167,rev?*%
%TF.SameCoordinates,Original*%
%TF.FileFunction,Legend,Top*%
%TF.FilePolarity,Positive*%
%FSLAX46Y46*%
G04 Gerber Fmt 4.6, Leading zero omitted, Abs format (unit mm)*
G04 Created by KiCad (PCBNEW 6.0.11+dfsg-1~bpo11+1) date 2023-09-12 21:00:17*
%MOMM*%
%LPD*%
G01*
G04 APERTURE LIST*
%ADD10C,0.150000*%
%ADD11C,0.125000*%
%ADD12C,0.120000*%
%ADD13C,0.200000*%
G04 APERTURE END LIST*
D10*
X119700000Y-121400000D02*
X119600000Y-122700000D01*
X120400000Y-120800000D02*
X119700000Y-121400000D01*
X120400000Y-118700000D02*
X120400000Y-120800000D01*
X128600000Y-116300000D02*
X128100000Y-116800000D01*
X120400000Y-118700000D02*
X122500000Y-116700000D01*
X120100000Y-116500000D02*
X120700000Y-115600000D01*
X150050000Y-110900000D02*
X150150000Y-111400000D01*
X144800000Y-125300000D02*
X144800000Y-128200000D01*
X148600000Y-125300000D02*
X118100000Y-125200000D01*
X149350000Y-112300000D02*
X149550000Y-111900000D01*
X141300000Y-125300000D02*
X141300000Y-128200000D01*
X123900000Y-125200000D02*
X123800000Y-127800000D01*
X149850000Y-112500000D02*
X150150000Y-111900000D01*
X148750000Y-111800000D02*
X148850000Y-112300000D01*
X127600000Y-110600000D02*
X127200000Y-109900000D01*
X148850000Y-112300000D02*
X149050000Y-112000000D01*
X149550000Y-111900000D02*
X149850000Y-112500000D01*
X138100000Y-125300000D02*
X137800000Y-128200000D01*
X129400000Y-110900000D02*
X127600000Y-110600000D01*
X150650000Y-111900000D02*
X150750000Y-111500000D01*
X118100000Y-125200000D02*
X117700000Y-127000000D01*
X131000000Y-125200000D02*
X130800000Y-128100000D01*
X127200000Y-125200000D02*
X127300000Y-128100000D01*
X149250000Y-111100000D02*
X149250000Y-111500000D01*
X149050000Y-112000000D02*
X149350000Y-112300000D01*
X134200000Y-125200001D02*
X134300000Y-128100000D01*
X148600000Y-125300000D02*
X148600000Y-130500000D01*
X127200000Y-109900000D02*
X126900000Y-109700000D01*
X150150000Y-111900000D02*
X150350000Y-112300000D01*
X150350000Y-112300000D02*
X150650000Y-111900000D01*
X125561904Y-125700000D02*
X125466666Y-125652380D01*
X125323809Y-125652380D01*
X125180952Y-125700000D01*
X125085714Y-125795238D01*
X125038095Y-125890476D01*
X124990476Y-126080952D01*
X124990476Y-126223809D01*
X125038095Y-126414285D01*
X125085714Y-126509523D01*
X125180952Y-126604761D01*
X125323809Y-126652380D01*
X125419047Y-126652380D01*
X125561904Y-126604761D01*
X125609523Y-126557142D01*
X125609523Y-126223809D01*
X125419047Y-126223809D01*
X139461904Y-125700000D02*
X139366666Y-125652380D01*
X139223809Y-125652380D01*
X139080952Y-125700000D01*
X138985714Y-125795238D01*
X138938095Y-125890476D01*
X138890476Y-126080952D01*
X138890476Y-126223809D01*
X138938095Y-126414285D01*
X138985714Y-126509523D01*
X139080952Y-126604761D01*
X139223809Y-126652380D01*
X139319047Y-126652380D01*
X139461904Y-126604761D01*
X139509523Y-126557142D01*
X139509523Y-126223809D01*
X139319047Y-126223809D01*
X135386279Y-126652380D02*
X135112470Y-126176190D01*
X134814851Y-126652380D02*
X134939851Y-125652380D01*
X135320803Y-125652380D01*
X135410089Y-125700000D01*
X135451755Y-125747619D01*
X135487470Y-125842857D01*
X135469613Y-125985714D01*
X135410089Y-126080952D01*
X135356517Y-126128571D01*
X135255327Y-126176190D01*
X134874375Y-126176190D01*
X135814851Y-126652380D02*
X135939851Y-125652380D01*
X136177946Y-125652380D01*
X136314851Y-125700000D01*
X136398184Y-125795238D01*
X136433898Y-125890476D01*
X136457708Y-126080952D01*
X136439851Y-126223809D01*
X136368422Y-126414285D01*
X136308898Y-126509523D01*
X136201755Y-126604761D01*
X136052946Y-126652380D01*
X135814851Y-126652380D01*
X137064851Y-126176190D02*
X137005327Y-126652380D01*
X136796994Y-125652380D02*
X137064851Y-126176190D01*
X137463660Y-125652380D01*
X146661904Y-125700000D02*
X146566666Y-125652380D01*
X146423809Y-125652380D01*
X146280952Y-125700000D01*
X146185714Y-125795238D01*
X146138095Y-125890476D01*
X146090476Y-126080952D01*
X146090476Y-126223809D01*
X146138095Y-126414285D01*
X146185714Y-126509523D01*
X146280952Y-126604761D01*
X146423809Y-126652380D01*
X146519047Y-126652380D01*
X146661904Y-126604761D01*
X146709523Y-126557142D01*
X146709523Y-126223809D01*
X146519047Y-126223809D01*
X127606517Y-125652380D02*
X127814851Y-126652380D01*
X128273184Y-125652380D01*
X128624375Y-126652380D02*
X128535089Y-126604761D01*
X128493422Y-126557142D01*
X128457708Y-126461904D01*
X128493422Y-126176190D01*
X128552946Y-126080952D01*
X128606517Y-126033333D01*
X128707708Y-125985714D01*
X128850565Y-125985714D01*
X128939851Y-126033333D01*
X128981517Y-126080952D01*
X129017232Y-126176190D01*
X128981517Y-126461904D01*
X128921994Y-126557142D01*
X128868422Y-126604761D01*
X128767232Y-126652380D01*
X128624375Y-126652380D01*
X129898184Y-125985714D02*
X129814851Y-126652380D01*
X129469613Y-125985714D02*
X129404136Y-126509523D01*
X129439851Y-126604761D01*
X129529136Y-126652380D01*
X129671994Y-126652380D01*
X129773184Y-126604761D01*
X129826755Y-126557142D01*
X130231517Y-125985714D02*
X130612470Y-125985714D01*
X130416041Y-125652380D02*
X130308898Y-126509523D01*
X130344613Y-126604761D01*
X130433898Y-126652380D01*
X130529136Y-126652380D01*
X132761904Y-125700000D02*
X132666666Y-125652380D01*
X132523809Y-125652380D01*
X132380952Y-125700000D01*
X132285714Y-125795238D01*
X132238095Y-125890476D01*
X132190476Y-126080952D01*
X132190476Y-126223809D01*
X132238095Y-126414285D01*
X132285714Y-126509523D01*
X132380952Y-126604761D01*
X132523809Y-126652380D01*
X132619047Y-126652380D01*
X132761904Y-126604761D01*
X132809523Y-126557142D01*
X132809523Y-126223809D01*
X132619047Y-126223809D01*
X119854136Y-125752380D02*
X120062470Y-126752380D01*
X120520803Y-125752380D01*
X120479136Y-126847619D02*
X121241041Y-126847619D01*
X121491041Y-126752380D02*
X121616041Y-125752380D01*
X121967232Y-126752380D02*
X122092232Y-125752380D01*
X122538660Y-126752380D01*
X122663660Y-125752380D01*
X142362470Y-126647380D02*
X141886279Y-126647380D01*
X142011279Y-125647380D01*
X142677946Y-125647380D02*
X142886279Y-126647380D01*
X143344613Y-125647380D01*
X143868422Y-125647380D02*
X144058898Y-125647380D01*
X144148184Y-125695000D01*
X144231517Y-125790238D01*
X144255327Y-125980714D01*
X144213660Y-126314047D01*
X144142232Y-126504523D01*
X144035089Y-126599761D01*
X143933898Y-126647380D01*
X143743422Y-126647380D01*
X143654136Y-126599761D01*
X143570803Y-126504523D01*
X143546994Y-126314047D01*
X143588660Y-125980714D01*
X143660089Y-125790238D01*
X143767232Y-125695000D01*
X143868422Y-125647380D01*
D11*
%TO.C,JP4*%
X146383333Y-115426190D02*
X146383333Y-115783333D01*
X146359523Y-115854761D01*
X146311904Y-115902380D01*
X146240476Y-115926190D01*
X146192857Y-115926190D01*
X146621428Y-115926190D02*
X146621428Y-115426190D01*
X146811904Y-115426190D01*
X146859523Y-115450000D01*
X146883333Y-115473809D01*
X146907142Y-115521428D01*
X146907142Y-115592857D01*
X146883333Y-115640476D01*
X146859523Y-115664285D01*
X146811904Y-115688095D01*
X146621428Y-115688095D01*
X147335714Y-115592857D02*
X147335714Y-115926190D01*
X147216666Y-115402380D02*
X147097619Y-115759523D01*
X147407142Y-115759523D01*
%TO.C,JP3*%
X150026190Y-116816666D02*
X150383333Y-116816666D01*
X150454761Y-116840476D01*
X150502380Y-116888095D01*
X150526190Y-116959523D01*
X150526190Y-117007142D01*
X150526190Y-116578571D02*
X150026190Y-116578571D01*
X150026190Y-116388095D01*
X150050000Y-116340476D01*
X150073809Y-116316666D01*
X150121428Y-116292857D01*
X150192857Y-116292857D01*
X150240476Y-116316666D01*
X150264285Y-116340476D01*
X150288095Y-116388095D01*
X150288095Y-116578571D01*
X150026190Y-116126190D02*
X150026190Y-115816666D01*
X150216666Y-115983333D01*
X150216666Y-115911904D01*
X150240476Y-115864285D01*
X150264285Y-115840476D01*
X150311904Y-115816666D01*
X150430952Y-115816666D01*
X150478571Y-115840476D01*
X150502380Y-115864285D01*
X150526190Y-115911904D01*
X150526190Y-116054761D01*
X150502380Y-116102380D01*
X150478571Y-116126190D01*
%TO.C,JP2*%
X117526190Y-121516666D02*
X117883333Y-121516666D01*
X117954761Y-121540476D01*
X118002380Y-121588095D01*
X118026190Y-121659523D01*
X118026190Y-121707142D01*
X118026190Y-121278571D02*
X117526190Y-121278571D01*
X117526190Y-121088095D01*
X117550000Y-121040476D01*
X117573809Y-121016666D01*
X117621428Y-120992857D01*
X117692857Y-120992857D01*
X117740476Y-121016666D01*
X117764285Y-121040476D01*
X117788095Y-121088095D01*
X117788095Y-121278571D01*
X117573809Y-120802380D02*
X117550000Y-120778571D01*
X117526190Y-120730952D01*
X117526190Y-120611904D01*
X117550000Y-120564285D01*
X117573809Y-120540476D01*
X117621428Y-120516666D01*
X117669047Y-120516666D01*
X117740476Y-120540476D01*
X118026190Y-120826190D01*
X118026190Y-120516666D01*
%TO.C,JP1*%
X117526190Y-117016666D02*
X117883333Y-117016666D01*
X117954761Y-117040476D01*
X118002380Y-117088095D01*
X118026190Y-117159523D01*
X118026190Y-117207142D01*
X118026190Y-116778571D02*
X117526190Y-116778571D01*
X117526190Y-116588095D01*
X117550000Y-116540476D01*
X117573809Y-116516666D01*
X117621428Y-116492857D01*
X117692857Y-116492857D01*
X117740476Y-116516666D01*
X117764285Y-116540476D01*
X117788095Y-116588095D01*
X117788095Y-116778571D01*
X118026190Y-116016666D02*
X118026190Y-116302380D01*
X118026190Y-116159523D02*
X117526190Y-116159523D01*
X117597619Y-116207142D01*
X117645238Y-116254761D01*
X117669047Y-116302380D01*
%TO.C,L1*%
X143116666Y-107526190D02*
X142878571Y-107526190D01*
X142878571Y-107026190D01*
X143545238Y-107526190D02*
X143259523Y-107526190D01*
X143402380Y-107526190D02*
X143402380Y-107026190D01*
X143354761Y-107097619D01*
X143307142Y-107145238D01*
X143259523Y-107169047D01*
D10*
%TO.C,C1*%
X129100000Y-117514285D02*
X129071428Y-117542857D01*
X128985714Y-117571428D01*
X128928571Y-117571428D01*
X128842857Y-117542857D01*
X128785714Y-117485714D01*
X128757142Y-117428571D01*
X128728571Y-117314285D01*
X128728571Y-117228571D01*
X128757142Y-117114285D01*
X128785714Y-117057142D01*
X128842857Y-117000000D01*
X128928571Y-116971428D01*
X128985714Y-116971428D01*
X129071428Y-117000000D01*
X129100000Y-117028571D01*
X129671428Y-117571428D02*
X129328571Y-117571428D01*
X129500000Y-117571428D02*
X129500000Y-116971428D01*
X129442857Y-117057142D01*
X129385714Y-117114285D01*
X129328571Y-117142857D01*
D11*
%TO.C,C11*%
X130278571Y-121178571D02*
X130254761Y-121202380D01*
X130183333Y-121226190D01*
X130135714Y-121226190D01*
X130064285Y-121202380D01*
X130016666Y-121154761D01*
X129992857Y-121107142D01*
X129969047Y-121011904D01*
X129969047Y-120940476D01*
X129992857Y-120845238D01*
X130016666Y-120797619D01*
X130064285Y-120750000D01*
X130135714Y-120726190D01*
X130183333Y-120726190D01*
X130254761Y-120750000D01*
X130278571Y-120773809D01*
X130754761Y-121226190D02*
X130469047Y-121226190D01*
X130611904Y-121226190D02*
X130611904Y-120726190D01*
X130564285Y-120797619D01*
X130516666Y-120845238D01*
X130469047Y-120869047D01*
X131230952Y-121226190D02*
X130945238Y-121226190D01*
X131088095Y-121226190D02*
X131088095Y-120726190D01*
X131040476Y-120797619D01*
X130992857Y-120845238D01*
X130945238Y-120869047D01*
%TO.C,R7*%
X130116666Y-119926190D02*
X129950000Y-119688095D01*
X129830952Y-119926190D02*
X129830952Y-119426190D01*
X130021428Y-119426190D01*
X130069047Y-119450000D01*
X130092857Y-119473809D01*
X130116666Y-119521428D01*
X130116666Y-119592857D01*
X130092857Y-119640476D01*
X130069047Y-119664285D01*
X130021428Y-119688095D01*
X129830952Y-119688095D01*
X130283333Y-119426190D02*
X130616666Y-119426190D01*
X130402380Y-119926190D01*
%TO.C,F2*%
X119964285Y-123966666D02*
X119964285Y-124133333D01*
X120226190Y-124133333D02*
X119726190Y-124133333D01*
X119726190Y-123895238D01*
X119773809Y-123728571D02*
X119750000Y-123704761D01*
X119726190Y-123657142D01*
X119726190Y-123538095D01*
X119750000Y-123490476D01*
X119773809Y-123466666D01*
X119821428Y-123442857D01*
X119869047Y-123442857D01*
X119940476Y-123466666D01*
X120226190Y-123752380D01*
X120226190Y-123442857D01*
%TO.C,IC1*%
X120411904Y-117226190D02*
X120411904Y-116726190D01*
X120935714Y-117178571D02*
X120911904Y-117202380D01*
X120840476Y-117226190D01*
X120792857Y-117226190D01*
X120721428Y-117202380D01*
X120673809Y-117154761D01*
X120650000Y-117107142D01*
X120626190Y-117011904D01*
X120626190Y-116940476D01*
X120650000Y-116845238D01*
X120673809Y-116797619D01*
X120721428Y-116750000D01*
X120792857Y-116726190D01*
X120840476Y-116726190D01*
X120911904Y-116750000D01*
X120935714Y-116773809D01*
X121411904Y-117226190D02*
X121126190Y-117226190D01*
X121269047Y-117226190D02*
X121269047Y-116726190D01*
X121221428Y-116797619D01*
X121173809Y-116845238D01*
X121126190Y-116869047D01*
%TO.C,C0*%
X130216666Y-108878571D02*
X130192857Y-108902380D01*
X130121428Y-108926190D01*
X130073809Y-108926190D01*
X130002380Y-108902380D01*
X129954761Y-108854761D01*
X129930952Y-108807142D01*
X129907142Y-108711904D01*
X129907142Y-108640476D01*
X129930952Y-108545238D01*
X129954761Y-108497619D01*
X130002380Y-108450000D01*
X130073809Y-108426190D01*
X130121428Y-108426190D01*
X130192857Y-108450000D01*
X130216666Y-108473809D01*
X130526190Y-108426190D02*
X130573809Y-108426190D01*
X130621428Y-108450000D01*
X130645238Y-108473809D01*
X130669047Y-108521428D01*
X130692857Y-108616666D01*
X130692857Y-108735714D01*
X130669047Y-108830952D01*
X130645238Y-108878571D01*
X130621428Y-108902380D01*
X130573809Y-108926190D01*
X130526190Y-108926190D01*
X130478571Y-108902380D01*
X130454761Y-108878571D01*
X130430952Y-108830952D01*
X130407142Y-108735714D01*
X130407142Y-108616666D01*
X130430952Y-108521428D01*
X130454761Y-108473809D01*
X130478571Y-108450000D01*
X130526190Y-108426190D01*
D10*
%TO.C,R3*%
X120671428Y-112200000D02*
X120385714Y-112400000D01*
X120671428Y-112542857D02*
X120071428Y-112542857D01*
X120071428Y-112314285D01*
X120100000Y-112257142D01*
X120128571Y-112228571D01*
X120185714Y-112200000D01*
X120271428Y-112200000D01*
X120328571Y-112228571D01*
X120357142Y-112257142D01*
X120385714Y-112314285D01*
X120385714Y-112542857D01*
X120071428Y-112000000D02*
X120071428Y-111628571D01*
X120300000Y-111828571D01*
X120300000Y-111742857D01*
X120328571Y-111685714D01*
X120357142Y-111657142D01*
X120414285Y-111628571D01*
X120557142Y-111628571D01*
X120614285Y-111657142D01*
X120642857Y-111685714D01*
X120671428Y-111742857D01*
X120671428Y-111914285D01*
X120642857Y-111971428D01*
X120614285Y-112000000D01*
%TO.C,R1*%
X118900000Y-122871428D02*
X118700000Y-122585714D01*
X118557142Y-122871428D02*
X118557142Y-122271428D01*
X118785714Y-122271428D01*
X118842857Y-122300000D01*
X118871428Y-122328571D01*
X118900000Y-122385714D01*
X118900000Y-122471428D01*
X118871428Y-122528571D01*
X118842857Y-122557142D01*
X118785714Y-122585714D01*
X118557142Y-122585714D01*
X119471428Y-122871428D02*
X119128571Y-122871428D01*
X119300000Y-122871428D02*
X119300000Y-122271428D01*
X119242857Y-122357142D01*
X119185714Y-122414285D01*
X119128571Y-122442857D01*
%TO.C,U1*%
X149138095Y-124752380D02*
X149138095Y-125561904D01*
X149185714Y-125657142D01*
X149233333Y-125704761D01*
X149328571Y-125752380D01*
X149519047Y-125752380D01*
X149614285Y-125704761D01*
X149661904Y-125657142D01*
X149709523Y-125561904D01*
X149709523Y-124752380D01*
X150709523Y-125752380D02*
X150138095Y-125752380D01*
X150423809Y-125752380D02*
X150423809Y-124752380D01*
X150328571Y-124895238D01*
X150233333Y-124990476D01*
X150138095Y-125038095D01*
%TO.C,J1*%
X149466666Y-127452380D02*
X149466666Y-128166666D01*
X149419047Y-128309523D01*
X149323809Y-128404761D01*
X149180952Y-128452380D01*
X149085714Y-128452380D01*
X150466666Y-128452380D02*
X149895238Y-128452380D01*
X150180952Y-128452380D02*
X150180952Y-127452380D01*
X150085714Y-127595238D01*
X149990476Y-127690476D01*
X149895238Y-127738095D01*
D11*
%TO.C,C3*%
X123716666Y-122678571D02*
X123692857Y-122702380D01*
X123621428Y-122726190D01*
X123573809Y-122726190D01*
X123502380Y-122702380D01*
X123454761Y-122654761D01*
X123430952Y-122607142D01*
X123407142Y-122511904D01*
X123407142Y-122440476D01*
X123430952Y-122345238D01*
X123454761Y-122297619D01*
X123502380Y-122250000D01*
X123573809Y-122226190D01*
X123621428Y-122226190D01*
X123692857Y-122250000D01*
X123716666Y-122273809D01*
X123883333Y-122226190D02*
X124192857Y-122226190D01*
X124026190Y-122416666D01*
X124097619Y-122416666D01*
X124145238Y-122440476D01*
X124169047Y-122464285D01*
X124192857Y-122511904D01*
X124192857Y-122630952D01*
X124169047Y-122678571D01*
X124145238Y-122702380D01*
X124097619Y-122726190D01*
X123954761Y-122726190D01*
X123907142Y-122702380D01*
X123883333Y-122678571D01*
D10*
%TO.C,200K1*%
X119328571Y-109628571D02*
X119300000Y-109600000D01*
X119271428Y-109542857D01*
X119271428Y-109400000D01*
X119300000Y-109342857D01*
X119328571Y-109314285D01*
X119385714Y-109285714D01*
X119442857Y-109285714D01*
X119528571Y-109314285D01*
X119871428Y-109657142D01*
X119871428Y-109285714D01*
X119271428Y-108914285D02*
X119271428Y-108857142D01*
X119300000Y-108800000D01*
X119328571Y-108771428D01*
X119385714Y-108742857D01*
X119500000Y-108714285D01*
X119642857Y-108714285D01*
X119757142Y-108742857D01*
X119814285Y-108771428D01*
X119842857Y-108800000D01*
X119871428Y-108857142D01*
X119871428Y-108914285D01*
X119842857Y-108971428D01*
X119814285Y-109000000D01*
X119757142Y-109028571D01*
X119642857Y-109057142D01*
X119500000Y-109057142D01*
X119385714Y-109028571D01*
X119328571Y-109000000D01*
X119300000Y-108971428D01*
X119271428Y-108914285D01*
X119271428Y-108342857D02*
X119271428Y-108285714D01*
X119300000Y-108228571D01*
X119328571Y-108200000D01*
X119385714Y-108171428D01*
X119500000Y-108142857D01*
X119642857Y-108142857D01*
X119757142Y-108171428D01*
X119814285Y-108200000D01*
X119842857Y-108228571D01*
X119871428Y-108285714D01*
X119871428Y-108342857D01*
X119842857Y-108400000D01*
X119814285Y-108428571D01*
X119757142Y-108457142D01*
X119642857Y-108485714D01*
X119500000Y-108485714D01*
X119385714Y-108457142D01*
X119328571Y-108428571D01*
X119300000Y-108400000D01*
X119271428Y-108342857D01*
X119871428Y-107885714D02*
X119271428Y-107885714D01*
X119871428Y-107542857D02*
X119528571Y-107800000D01*
X119271428Y-107542857D02*
X119614285Y-107885714D01*
X119871428Y-106971428D02*
X119871428Y-107314285D01*
X119871428Y-107142857D02*
X119271428Y-107142857D01*
X119357142Y-107200000D01*
X119414285Y-107257142D01*
X119442857Y-107314285D01*
D11*
%TO.C,C8*%
X131916666Y-120678571D02*
X131892857Y-120702380D01*
X131821428Y-120726190D01*
X131773809Y-120726190D01*
X131702380Y-120702380D01*
X131654761Y-120654761D01*
X131630952Y-120607142D01*
X131607142Y-120511904D01*
X131607142Y-120440476D01*
X131630952Y-120345238D01*
X131654761Y-120297619D01*
X131702380Y-120250000D01*
X131773809Y-120226190D01*
X131821428Y-120226190D01*
X131892857Y-120250000D01*
X131916666Y-120273809D01*
X132202380Y-120440476D02*
X132154761Y-120416666D01*
X132130952Y-120392857D01*
X132107142Y-120345238D01*
X132107142Y-120321428D01*
X132130952Y-120273809D01*
X132154761Y-120250000D01*
X132202380Y-120226190D01*
X132297619Y-120226190D01*
X132345238Y-120250000D01*
X132369047Y-120273809D01*
X132392857Y-120321428D01*
X132392857Y-120345238D01*
X132369047Y-120392857D01*
X132345238Y-120416666D01*
X132297619Y-120440476D01*
X132202380Y-120440476D01*
X132154761Y-120464285D01*
X132130952Y-120488095D01*
X132107142Y-120535714D01*
X132107142Y-120630952D01*
X132130952Y-120678571D01*
X132154761Y-120702380D01*
X132202380Y-120726190D01*
X132297619Y-120726190D01*
X132345238Y-120702380D01*
X132369047Y-120678571D01*
X132392857Y-120630952D01*
X132392857Y-120535714D01*
X132369047Y-120488095D01*
X132345238Y-120464285D01*
X132297619Y-120440476D01*
D10*
%TO.C,R2*%
X129500000Y-107771428D02*
X129300000Y-107485714D01*
X129157142Y-107771428D02*
X129157142Y-107171428D01*
X129385714Y-107171428D01*
X129442857Y-107200000D01*
X129471428Y-107228571D01*
X129500000Y-107285714D01*
X129500000Y-107371428D01*
X129471428Y-107428571D01*
X129442857Y-107457142D01*
X129385714Y-107485714D01*
X129157142Y-107485714D01*
X129728571Y-107228571D02*
X129757142Y-107200000D01*
X129814285Y-107171428D01*
X129957142Y-107171428D01*
X130014285Y-107200000D01*
X130042857Y-107228571D01*
X130071428Y-107285714D01*
X130071428Y-107342857D01*
X130042857Y-107428571D01*
X129700000Y-107771428D01*
X130071428Y-107771428D01*
%TO.C,R4*%
X119971428Y-117200000D02*
X119685714Y-117400000D01*
X119971428Y-117542857D02*
X119371428Y-117542857D01*
X119371428Y-117314285D01*
X119400000Y-117257142D01*
X119428571Y-117228571D01*
X119485714Y-117200000D01*
X119571428Y-117200000D01*
X119628571Y-117228571D01*
X119657142Y-117257142D01*
X119685714Y-117314285D01*
X119685714Y-117542857D01*
X119571428Y-116685714D02*
X119971428Y-116685714D01*
X119342857Y-116828571D02*
X119771428Y-116971428D01*
X119771428Y-116600000D01*
%TO.C,C2*%
X118900000Y-121814285D02*
X118871428Y-121842857D01*
X118785714Y-121871428D01*
X118728571Y-121871428D01*
X118642857Y-121842857D01*
X118585714Y-121785714D01*
X118557142Y-121728571D01*
X118528571Y-121614285D01*
X118528571Y-121528571D01*
X118557142Y-121414285D01*
X118585714Y-121357142D01*
X118642857Y-121300000D01*
X118728571Y-121271428D01*
X118785714Y-121271428D01*
X118871428Y-121300000D01*
X118900000Y-121328571D01*
X119128571Y-121328571D02*
X119157142Y-121300000D01*
X119214285Y-121271428D01*
X119357142Y-121271428D01*
X119414285Y-121300000D01*
X119442857Y-121328571D01*
X119471428Y-121385714D01*
X119471428Y-121442857D01*
X119442857Y-121528571D01*
X119100000Y-121871428D01*
X119471428Y-121871428D01*
%TO.C,C4*%
X129100000Y-116514285D02*
X129071428Y-116542857D01*
X128985714Y-116571428D01*
X128928571Y-116571428D01*
X128842857Y-116542857D01*
X128785714Y-116485714D01*
X128757142Y-116428571D01*
X128728571Y-116314285D01*
X128728571Y-116228571D01*
X128757142Y-116114285D01*
X128785714Y-116057142D01*
X128842857Y-116000000D01*
X128928571Y-115971428D01*
X128985714Y-115971428D01*
X129071428Y-116000000D01*
X129100000Y-116028571D01*
X129614285Y-116171428D02*
X129614285Y-116571428D01*
X129471428Y-115942857D02*
X129328571Y-116371428D01*
X129700000Y-116371428D01*
D11*
%TO.C,C6*%
X147416666Y-112278571D02*
X147392857Y-112302380D01*
X147321428Y-112326190D01*
X147273809Y-112326190D01*
X147202380Y-112302380D01*
X147154761Y-112254761D01*
X147130952Y-112207142D01*
X147107142Y-112111904D01*
X147107142Y-112040476D01*
X147130952Y-111945238D01*
X147154761Y-111897619D01*
X147202380Y-111850000D01*
X147273809Y-111826190D01*
X147321428Y-111826190D01*
X147392857Y-111850000D01*
X147416666Y-111873809D01*
X147845238Y-111826190D02*
X147750000Y-111826190D01*
X147702380Y-111850000D01*
X147678571Y-111873809D01*
X147630952Y-111945238D01*
X147607142Y-112040476D01*
X147607142Y-112230952D01*
X147630952Y-112278571D01*
X147654761Y-112302380D01*
X147702380Y-112326190D01*
X147797619Y-112326190D01*
X147845238Y-112302380D01*
X147869047Y-112278571D01*
X147892857Y-112230952D01*
X147892857Y-112111904D01*
X147869047Y-112064285D01*
X147845238Y-112040476D01*
X147797619Y-112016666D01*
X147702380Y-112016666D01*
X147654761Y-112040476D01*
X147630952Y-112064285D01*
X147607142Y-112111904D01*
%TO.C,C9*%
X139778571Y-122783333D02*
X139802380Y-122807142D01*
X139826190Y-122878571D01*
X139826190Y-122926190D01*
X139802380Y-122997619D01*
X139754761Y-123045238D01*
X139707142Y-123069047D01*
X139611904Y-123092857D01*
X139540476Y-123092857D01*
X139445238Y-123069047D01*
X139397619Y-123045238D01*
X139350000Y-122997619D01*
X139326190Y-122926190D01*
X139326190Y-122878571D01*
X139350000Y-122807142D01*
X139373809Y-122783333D01*
X139826190Y-122545238D02*
X139826190Y-122450000D01*
X139802380Y-122402380D01*
X139778571Y-122378571D01*
X139707142Y-122330952D01*
X139611904Y-122307142D01*
X139421428Y-122307142D01*
X139373809Y-122330952D01*
X139350000Y-122354761D01*
X139326190Y-122402380D01*
X139326190Y-122497619D01*
X139350000Y-122545238D01*
X139373809Y-122569047D01*
X139421428Y-122592857D01*
X139540476Y-122592857D01*
X139588095Y-122569047D01*
X139611904Y-122545238D01*
X139635714Y-122497619D01*
X139635714Y-122402380D01*
X139611904Y-122354761D01*
X139588095Y-122330952D01*
X139540476Y-122307142D01*
%TO.C,F1*%
X145633333Y-107464285D02*
X145466666Y-107464285D01*
X145466666Y-107726190D02*
X145466666Y-107226190D01*
X145704761Y-107226190D01*
X146157142Y-107726190D02*
X145871428Y-107726190D01*
X146014285Y-107726190D02*
X146014285Y-107226190D01*
X145966666Y-107297619D01*
X145919047Y-107345238D01*
X145871428Y-107369047D01*
D10*
%TO.C,R9*%
X123000000Y-113571428D02*
X122800000Y-113285714D01*
X122657142Y-113571428D02*
X122657142Y-112971428D01*
X122885714Y-112971428D01*
X122942857Y-113000000D01*
X122971428Y-113028571D01*
X123000000Y-113085714D01*
X123000000Y-113171428D01*
X122971428Y-113228571D01*
X122942857Y-113257142D01*
X122885714Y-113285714D01*
X122657142Y-113285714D01*
X123285714Y-113571428D02*
X123400000Y-113571428D01*
X123457142Y-113542857D01*
X123485714Y-113514285D01*
X123542857Y-113428571D01*
X123571428Y-113314285D01*
X123571428Y-113085714D01*
X123542857Y-113028571D01*
X123514285Y-113000000D01*
X123457142Y-112971428D01*
X123342857Y-112971428D01*
X123285714Y-113000000D01*
X123257142Y-113028571D01*
X123228571Y-113085714D01*
X123228571Y-113228571D01*
X123257142Y-113285714D01*
X123285714Y-113314285D01*
X123342857Y-113342857D01*
X123457142Y-113342857D01*
X123514285Y-113314285D01*
X123542857Y-113285714D01*
X123571428Y-113228571D01*
D11*
%TO.C,C5*%
X147716666Y-113778571D02*
X147692857Y-113802380D01*
X147621428Y-113826190D01*
X147573809Y-113826190D01*
X147502380Y-113802380D01*
X147454761Y-113754761D01*
X147430952Y-113707142D01*
X147407142Y-113611904D01*
X147407142Y-113540476D01*
X147430952Y-113445238D01*
X147454761Y-113397619D01*
X147502380Y-113350000D01*
X147573809Y-113326190D01*
X147621428Y-113326190D01*
X147692857Y-113350000D01*
X147716666Y-113373809D01*
X148169047Y-113326190D02*
X147930952Y-113326190D01*
X147907142Y-113564285D01*
X147930952Y-113540476D01*
X147978571Y-113516666D01*
X148097619Y-113516666D01*
X148145238Y-113540476D01*
X148169047Y-113564285D01*
X148192857Y-113611904D01*
X148192857Y-113730952D01*
X148169047Y-113778571D01*
X148145238Y-113802380D01*
X148097619Y-113826190D01*
X147978571Y-113826190D01*
X147930952Y-113802380D01*
X147907142Y-113778571D01*
D10*
%TO.C,C7*%
X130214285Y-111100000D02*
X130242857Y-111128571D01*
X130271428Y-111214285D01*
X130271428Y-111271428D01*
X130242857Y-111357142D01*
X130185714Y-111414285D01*
X130128571Y-111442857D01*
X130014285Y-111471428D01*
X129928571Y-111471428D01*
X129814285Y-111442857D01*
X129757142Y-111414285D01*
X129700000Y-111357142D01*
X129671428Y-111271428D01*
X129671428Y-111214285D01*
X129700000Y-111128571D01*
X129728571Y-111100000D01*
X129671428Y-110900000D02*
X129671428Y-110500000D01*
X130271428Y-110757142D01*
%TO.C,R5*%
X118671428Y-111600000D02*
X118385714Y-111800000D01*
X118671428Y-111942857D02*
X118071428Y-111942857D01*
X118071428Y-111714285D01*
X118100000Y-111657142D01*
X118128571Y-111628571D01*
X118185714Y-111600000D01*
X118271428Y-111600000D01*
X118328571Y-111628571D01*
X118357142Y-111657142D01*
X118385714Y-111714285D01*
X118385714Y-111942857D01*
X118071428Y-111057142D02*
X118071428Y-111342857D01*
X118357142Y-111371428D01*
X118328571Y-111342857D01*
X118300000Y-111285714D01*
X118300000Y-111142857D01*
X118328571Y-111085714D01*
X118357142Y-111057142D01*
X118414285Y-111028571D01*
X118557142Y-111028571D01*
X118614285Y-111057142D01*
X118642857Y-111085714D01*
X118671428Y-111142857D01*
X118671428Y-111285714D01*
X118642857Y-111342857D01*
X118614285Y-111371428D01*
%TO.C,R6*%
X127471428Y-107200000D02*
X127185714Y-107400000D01*
X127471428Y-107542857D02*
X126871428Y-107542857D01*
X126871428Y-107314285D01*
X126900000Y-107257142D01*
X126928571Y-107228571D01*
X126985714Y-107200000D01*
X127071428Y-107200000D01*
X127128571Y-107228571D01*
X127157142Y-107257142D01*
X127185714Y-107314285D01*
X127185714Y-107542857D01*
X126871428Y-106685714D02*
X126871428Y-106800000D01*
X126900000Y-106857142D01*
X126928571Y-106885714D01*
X127014285Y-106942857D01*
X127128571Y-106971428D01*
X127357142Y-106971428D01*
X127414285Y-106942857D01*
X127442857Y-106914285D01*
X127471428Y-106857142D01*
X127471428Y-106742857D01*
X127442857Y-106685714D01*
X127414285Y-106657142D01*
X127357142Y-106628571D01*
X127214285Y-106628571D01*
X127157142Y-106657142D01*
X127128571Y-106685714D01*
X127100000Y-106742857D01*
X127100000Y-106857142D01*
X127128571Y-106914285D01*
X127157142Y-106942857D01*
X127214285Y-106971428D01*
D11*
%TO.C,C10*%
X138278571Y-124321428D02*
X138302380Y-124345238D01*
X138326190Y-124416666D01*
X138326190Y-124464285D01*
X138302380Y-124535714D01*
X138254761Y-124583333D01*
X138207142Y-124607142D01*
X138111904Y-124630952D01*
X138040476Y-124630952D01*
X137945238Y-124607142D01*
X137897619Y-124583333D01*
X137850000Y-124535714D01*
X137826190Y-124464285D01*
X137826190Y-124416666D01*
X137850000Y-124345238D01*
X137873809Y-124321428D01*
X138326190Y-123845238D02*
X138326190Y-124130952D01*
X138326190Y-123988095D02*
X137826190Y-123988095D01*
X137897619Y-124035714D01*
X137945238Y-124083333D01*
X137969047Y-124130952D01*
X137826190Y-123535714D02*
X137826190Y-123488095D01*
X137850000Y-123440476D01*
X137873809Y-123416666D01*
X137921428Y-123392857D01*
X138016666Y-123369047D01*
X138135714Y-123369047D01*
X138230952Y-123392857D01*
X138278571Y-123416666D01*
X138302380Y-123440476D01*
X138326190Y-123488095D01*
X138326190Y-123535714D01*
X138302380Y-123583333D01*
X138278571Y-123607142D01*
X138230952Y-123630952D01*
X138135714Y-123654761D01*
X138016666Y-123654761D01*
X137921428Y-123630952D01*
X137873809Y-123607142D01*
X137850000Y-123583333D01*
X137826190Y-123535714D01*
D12*
%TO.C,JP4*%
X143900000Y-115500000D02*
X145300000Y-115500000D01*
X145300000Y-117500000D02*
X143900000Y-117500000D01*
X146000000Y-116200000D02*
X146000000Y-116800000D01*
X143200000Y-116800000D02*
X143200000Y-116200000D01*
X146000000Y-116200000D02*
G75*
G03*
X145300000Y-115500000I-700000J0D01*
G01*
X143900000Y-115500000D02*
G75*
G03*
X143200000Y-116200000I-1J-699999D01*
G01*
X143200000Y-116800000D02*
G75*
G03*
X143900000Y-117500000I699999J-1D01*
G01*
X145300000Y-117500000D02*
G75*
G03*
X146000000Y-116800000I0J700000D01*
G01*
%TO.C,JP3*%
X149800000Y-115100000D02*
X149800000Y-116500000D01*
X147800000Y-116500000D02*
X147800000Y-115100000D01*
X149100000Y-117200000D02*
X148500000Y-117200000D01*
X148500000Y-114400000D02*
X149100000Y-114400000D01*
X149100000Y-117200000D02*
G75*
G03*
X149800000Y-116500000I0J700000D01*
G01*
X149800000Y-115100000D02*
G75*
G03*
X149100000Y-114400000I-699999J1D01*
G01*
X148500000Y-114400000D02*
G75*
G03*
X147800000Y-115100000I-1J-699999D01*
G01*
X147800000Y-116500000D02*
G75*
G03*
X148500000Y-117200000I700000J0D01*
G01*
%TO.C,JP2*%
X119900000Y-118450000D02*
X119900000Y-119850000D01*
X117900000Y-119850000D02*
X117900000Y-118450000D01*
X119200000Y-120550000D02*
X118600000Y-120550000D01*
X118600000Y-117750000D02*
X119200000Y-117750000D01*
X119200000Y-120550000D02*
G75*
G03*
X119900000Y-119850000I0J700000D01*
G01*
X119900000Y-118450000D02*
G75*
G03*
X119200000Y-117750000I-699999J1D01*
G01*
X118600000Y-117750000D02*
G75*
G03*
X117900000Y-118450000I-1J-699999D01*
G01*
X117900000Y-119850000D02*
G75*
G03*
X118600000Y-120550000I700000J0D01*
G01*
%TO.C,JP1*%
X118200000Y-115700000D02*
X118200000Y-114300000D01*
X120200000Y-114300000D02*
X120200000Y-115700000D01*
X118900000Y-113600000D02*
X119500000Y-113600000D01*
X119500000Y-116400000D02*
X118900000Y-116400000D01*
X118900000Y-113600000D02*
G75*
G03*
X118200000Y-114300000I0J-700000D01*
G01*
X118200000Y-115700000D02*
G75*
G03*
X118900000Y-116400000I699999J-1D01*
G01*
X119500000Y-116400000D02*
G75*
G03*
X120200000Y-115700000I1J699999D01*
G01*
X120200000Y-114300000D02*
G75*
G03*
X119500000Y-113600000I-700000J0D01*
G01*
%TO.C,L1*%
X131300000Y-110160000D02*
X131300000Y-106960000D01*
X141900000Y-114360000D02*
X141900000Y-117560000D01*
X141900000Y-106960000D02*
X141900000Y-110160000D01*
X131300000Y-106960000D02*
X141900000Y-106960000D01*
X141900000Y-117560000D02*
X131300000Y-117560000D01*
X131300000Y-117560000D02*
X131300000Y-114360000D01*
%TO.C,C1*%
X126188748Y-117940000D02*
X127611252Y-117940000D01*
X126188748Y-120660000D02*
X127611252Y-120660000D01*
%TO.C,C11*%
X133311252Y-124360000D02*
X131888748Y-124360000D01*
X133311252Y-121640000D02*
X131888748Y-121640000D01*
%TO.C,R7*%
X130832379Y-118220000D02*
X131167621Y-118220000D01*
X130832379Y-118980000D02*
X131167621Y-118980000D01*
%TO.C,F2*%
X122510000Y-121702064D02*
X122510000Y-120497936D01*
X120690000Y-121702064D02*
X120690000Y-120497936D01*
%TO.C,C0*%
X129146267Y-109350000D02*
X128853733Y-109350000D01*
X129146267Y-110370000D02*
X128853733Y-110370000D01*
%TO.C,R3*%
X121555000Y-112207621D02*
X121555000Y-111872379D01*
X120795000Y-112207621D02*
X120795000Y-111872379D01*
%TO.C,R1*%
X123067621Y-115620000D02*
X122732379Y-115620000D01*
X123067621Y-116380000D02*
X122732379Y-116380000D01*
%TO.C,U1*%
X143305000Y-118045000D02*
X140475000Y-118045000D01*
X143305000Y-124675000D02*
X143305000Y-124405000D01*
X144805000Y-117775000D02*
X143305000Y-117775000D01*
X143305000Y-117775000D02*
X143305000Y-118045000D01*
X143305000Y-124405000D02*
X142205000Y-124405000D01*
X144805000Y-124675000D02*
X143305000Y-124675000D01*
%TO.C,J1*%
X126620000Y-127625000D02*
X126526000Y-127719000D01*
X144325000Y-127831000D02*
X144196000Y-127959000D01*
X140825000Y-127831000D02*
X140696000Y-127959000D01*
X137325000Y-127831000D02*
X137196000Y-127959000D01*
X126825000Y-127831000D02*
X126696000Y-127959000D01*
X145575000Y-130081000D02*
X145481000Y-130174000D01*
X135075000Y-130081000D02*
X134981000Y-130174000D01*
X147825000Y-127831000D02*
X147696000Y-127959000D01*
X128075000Y-130081000D02*
X127981000Y-130174000D01*
X130120000Y-127625000D02*
X130026000Y-127719000D01*
X142075000Y-130081000D02*
X141981000Y-130174000D01*
X124575000Y-130081000D02*
X124481000Y-130174000D01*
X140620000Y-127625000D02*
X140526000Y-127719000D01*
X147620000Y-127625000D02*
X147526000Y-127719000D01*
X133825000Y-127831000D02*
X133696000Y-127959000D01*
X124405000Y-129841000D02*
X124276000Y-129969000D01*
X130325000Y-127831000D02*
X130196000Y-127959000D01*
X141905000Y-129841000D02*
X141776000Y-129969000D01*
X137120000Y-127625000D02*
X137026000Y-127719000D01*
X127905000Y-129841000D02*
X127776000Y-129969000D01*
X138575000Y-130081000D02*
X138481000Y-130174000D01*
X131575000Y-130081000D02*
X131481000Y-130174000D01*
X133620000Y-127625000D02*
X133526000Y-127719000D01*
X138405000Y-129841000D02*
X138276000Y-129969000D01*
X131405000Y-129841000D02*
X131276000Y-129969000D01*
X144120000Y-127625000D02*
X144026000Y-127719000D01*
X145405000Y-129841000D02*
X145276000Y-129969000D01*
X134905000Y-129841000D02*
X134776000Y-129969000D01*
X122916000Y-127459999D02*
G75*
G03*
X121160106Y-127474642I-866000J-1439999D01*
G01*
X123475000Y-129791000D02*
G75*
G03*
X123475504Y-128009807I-1425003J891000D01*
G01*
X120609999Y-128034000D02*
G75*
G03*
X120624642Y-129789894I1439999J-866000D01*
G01*
X121184000Y-130340000D02*
G75*
G03*
X122078674Y-130580099I866003J1440014D01*
G01*
X122050000Y-130580000D02*
G75*
G03*
X122940264Y-130324721I3J1679990D01*
G01*
X148230000Y-128900000D02*
G75*
G03*
X148230000Y-128900000I-1680000J0D01*
G01*
X137730000Y-128900000D02*
G75*
G03*
X137730000Y-128900000I-1680000J0D01*
G01*
X141230000Y-128900000D02*
G75*
G03*
X141230000Y-128900000I-1680000J0D01*
G01*
X134230000Y-128900000D02*
G75*
G03*
X134230000Y-128900000I-1680000J0D01*
G01*
X130730000Y-128900000D02*
G75*
G03*
X130730000Y-128900000I-1680000J0D01*
G01*
X144730000Y-128900000D02*
G75*
G03*
X144730000Y-128900000I-1680000J0D01*
G01*
X127230000Y-128900000D02*
G75*
G03*
X127230000Y-128900000I-1680000J0D01*
G01*
%TO.C,C3*%
X126188748Y-121440000D02*
X127611252Y-121440000D01*
X126188748Y-124160000D02*
X127611252Y-124160000D01*
%TO.C,200K1*%
X123600000Y-110500000D02*
X120700000Y-110500000D01*
X123600000Y-107300000D02*
X120700000Y-107300000D01*
X120700000Y-110500000D02*
X120700000Y-109900000D01*
X120700000Y-107300000D02*
X120700000Y-107900000D01*
X124700000Y-109100000D02*
X124700000Y-108700000D01*
X124500000Y-110700000D02*
X125200000Y-110700000D01*
X125200000Y-110700000D02*
X125200000Y-110000000D01*
%TO.C,C8*%
X135811252Y-118140000D02*
X134388748Y-118140000D01*
X135811252Y-120860000D02*
X134388748Y-120860000D01*
%TO.C,R2*%
X128132621Y-107952061D02*
X127797379Y-107952061D01*
X128132621Y-108712061D02*
X127797379Y-108712061D01*
%TO.C,R4*%
X121565000Y-114234879D02*
X121565000Y-114570121D01*
X120805000Y-114234879D02*
X120805000Y-114570121D01*
%TO.C,C2*%
X122784165Y-114440000D02*
X123015835Y-114440000D01*
X122784165Y-115160000D02*
X123015835Y-115160000D01*
%TO.C,C6*%
X144738748Y-112035000D02*
X145261252Y-112035000D01*
X144738748Y-110565000D02*
X145261252Y-110565000D01*
%TO.C,C9*%
X139635000Y-119638748D02*
X139635000Y-120161252D01*
X138165000Y-119638748D02*
X138165000Y-120161252D01*
%TO.C,F1*%
X146102064Y-108090000D02*
X144897936Y-108090000D01*
X146102064Y-109910000D02*
X144897936Y-109910000D01*
%TO.C,R9*%
X123292621Y-111900000D02*
X122957379Y-111900000D01*
X123292621Y-112660000D02*
X122957379Y-112660000D01*
D13*
%TO.C,C5*%
X145100000Y-114600000D02*
X145100000Y-113200000D01*
D12*
%TO.C,R5*%
X119040000Y-111215835D02*
X119040000Y-110984165D01*
X119760000Y-111215835D02*
X119760000Y-110984165D01*
%TO.C,R6*%
X125640000Y-107815835D02*
X125640000Y-107584165D01*
X126360000Y-107815835D02*
X126360000Y-107584165D01*
%TO.C,C10*%
X137335000Y-122938748D02*
X137335000Y-123461252D01*
X135865000Y-122938748D02*
X135865000Y-123461252D01*
%TD*%
M02*
