%TF.GenerationSoftware,KiCad,Pcbnew,6.0.11+dfsg-1~bpo11+1*%
%TF.CreationDate,2023-10-14T14:13:14-05:00*%
%TF.ProjectId,Gauntl33tVoltageRegulator,4761756e-746c-4333-9374-566f6c746167,rev?*%
%TF.SameCoordinates,Original*%
%TF.FileFunction,Copper,L2,Inr*%
%TF.FilePolarity,Positive*%
%FSLAX46Y46*%
G04 Gerber Fmt 4.6, Leading zero omitted, Abs format (unit mm)*
G04 Created by KiCad (PCBNEW 6.0.11+dfsg-1~bpo11+1) date 2023-10-14 14:13:14*
%MOMM*%
%LPD*%
G01*
G04 APERTURE LIST*
%TA.AperFunction,ComponentPad*%
%ADD10R,2.400000X2.400000*%
%TD*%
%TA.AperFunction,ComponentPad*%
%ADD11C,2.400000*%
%TD*%
%TA.AperFunction,ViaPad*%
%ADD12C,0.500000*%
%TD*%
%TA.AperFunction,ViaPad*%
%ADD13C,0.650000*%
%TD*%
%TA.AperFunction,ViaPad*%
%ADD14C,0.800000*%
%TD*%
%TA.AperFunction,ViaPad*%
%ADD15C,0.400000*%
%TD*%
G04 APERTURE END LIST*
D10*
%TO.N,Net-(F2-Pad1)*%
%TO.C,J1*%
X122050000Y-128900000D03*
D11*
%TO.N,GND*%
X125550000Y-128900000D03*
%TO.N,Net-(F1-Pad1)*%
X129050000Y-128900000D03*
%TO.N,GND*%
X132550000Y-128900000D03*
%TO.N,Net-(J1-Pad5)*%
X136050000Y-128900000D03*
%TO.N,/EN*%
X139550000Y-128900000D03*
%TO.N,/5V*%
X143050000Y-128900000D03*
%TO.N,GND*%
X146550000Y-128900000D03*
%TD*%
D12*
%TO.N,GND*%
X134700000Y-120600000D03*
X134700000Y-119900000D03*
X146800000Y-123400000D03*
X146200000Y-123400000D03*
X145600000Y-123400000D03*
X146800000Y-119200000D03*
X146800000Y-121600000D03*
X146800000Y-122800000D03*
X146800000Y-118600000D03*
X146800000Y-119800000D03*
X146800000Y-120400000D03*
X146800000Y-122200000D03*
X146800000Y-121000000D03*
X146200000Y-119200000D03*
X146200000Y-121600000D03*
X146200000Y-122800000D03*
X146200000Y-118600000D03*
X146200000Y-119800000D03*
X146200000Y-120400000D03*
X146200000Y-122200000D03*
X146200000Y-121000000D03*
X140000000Y-122200000D03*
X140000000Y-121500000D03*
X140000000Y-120800000D03*
X124600000Y-127000000D03*
X126500000Y-127000000D03*
X131000000Y-127500000D03*
X134300000Y-127600000D03*
X144800000Y-127600000D03*
X149000000Y-130200000D03*
X148300000Y-130200000D03*
X144800000Y-130200000D03*
X137800000Y-127400000D03*
X137700000Y-130200000D03*
X123800000Y-130300000D03*
X127200000Y-130200000D03*
X130800000Y-130200000D03*
X134300000Y-130200000D03*
X140800000Y-127600000D03*
X141600000Y-130200000D03*
X140900000Y-130200000D03*
X137200000Y-123800000D03*
X136600000Y-123800000D03*
X136600000Y-123200000D03*
X136000000Y-123800000D03*
%TO.N,/Vreg*%
X140000000Y-111900000D03*
X140700000Y-111200000D03*
X140700000Y-112600000D03*
X140000000Y-110500000D03*
X140700000Y-110500000D03*
X140000000Y-109800000D03*
X140700000Y-109800000D03*
X140700000Y-111900000D03*
X140000000Y-111200000D03*
X140000000Y-112600000D03*
X141500000Y-111900000D03*
X142200000Y-111200000D03*
X142200000Y-112600000D03*
X141500000Y-110500000D03*
X142200000Y-110500000D03*
X141500000Y-109800000D03*
X142200000Y-109800000D03*
X142200000Y-111900000D03*
X141500000Y-111200000D03*
X141500000Y-112600000D03*
%TO.N,Net-(F2-Pad1)*%
X122200000Y-123500000D03*
X121500000Y-123500000D03*
X120800000Y-123500000D03*
X122200000Y-122800000D03*
X121500000Y-122800000D03*
X120100000Y-122800000D03*
X120800000Y-122800000D03*
X122200000Y-122100000D03*
X121500000Y-122100000D03*
X120800000Y-122100000D03*
X120100000Y-122100000D03*
%TO.N,GND*%
X130700000Y-122400000D03*
X131400000Y-122400000D03*
X131400000Y-123100000D03*
X130700000Y-123100000D03*
%TO.N,/EN*%
X130749500Y-117200000D03*
X123800000Y-112300000D03*
%TO.N,GND*%
X122000000Y-111300000D03*
%TO.N,/+20V*%
X122300000Y-119100000D03*
X121600000Y-119100000D03*
X121987162Y-119604940D03*
X121300000Y-119600000D03*
%TO.N,GND*%
X150600000Y-108300000D03*
X151300000Y-109000000D03*
X150600000Y-109000000D03*
X145300000Y-106800000D03*
X146000000Y-106800000D03*
X144600000Y-106800000D03*
X146700000Y-106800000D03*
%TO.N,Net-(F1-Pad1)*%
X149400000Y-109200000D03*
X149400000Y-108600000D03*
X148800000Y-108600000D03*
%TO.N,GND*%
X138800000Y-116000000D03*
X138200000Y-116000000D03*
X136400000Y-116000000D03*
X135200000Y-116000000D03*
X137000000Y-116000000D03*
X135800000Y-116000000D03*
X137600000Y-116000000D03*
X134600000Y-116000000D03*
X132800000Y-116000000D03*
X131600000Y-116000000D03*
X133400000Y-116000000D03*
X132200000Y-116000000D03*
X134000000Y-116000000D03*
X134600000Y-115400000D03*
X132800000Y-115400000D03*
X131600000Y-115400000D03*
X133400000Y-115400000D03*
X132200000Y-115400000D03*
X134000000Y-115400000D03*
X141800000Y-115400000D03*
X140000000Y-115400000D03*
X138800000Y-115400000D03*
X140600000Y-115400000D03*
X139400000Y-115400000D03*
X141200000Y-115400000D03*
X138200000Y-115400000D03*
X136400000Y-115400000D03*
X135200000Y-115400000D03*
X137000000Y-115400000D03*
X135800000Y-115400000D03*
X137600000Y-115400000D03*
X138200000Y-114800000D03*
X136400000Y-114800000D03*
X135200000Y-114800000D03*
X137000000Y-114800000D03*
X135800000Y-114800000D03*
X137600000Y-114800000D03*
X138200000Y-114200000D03*
X136400000Y-114200000D03*
X135200000Y-114200000D03*
X137000000Y-114200000D03*
X135800000Y-114200000D03*
X137600000Y-114200000D03*
X138200000Y-113600000D03*
X136400000Y-113600000D03*
X135200000Y-113600000D03*
X137000000Y-113600000D03*
X135800000Y-113600000D03*
X137600000Y-113600000D03*
X138200000Y-107600000D03*
X136400000Y-107600000D03*
X135200000Y-107600000D03*
X137000000Y-107600000D03*
X135800000Y-107600000D03*
X137600000Y-107600000D03*
X138200000Y-108200000D03*
X136400000Y-108200000D03*
X135200000Y-108200000D03*
X137000000Y-108200000D03*
X135800000Y-108200000D03*
X137600000Y-108200000D03*
X138200000Y-113000000D03*
X136400000Y-113000000D03*
X135200000Y-113000000D03*
X137000000Y-113000000D03*
X135800000Y-113000000D03*
X137600000Y-113000000D03*
X138200000Y-112400000D03*
X136400000Y-112400000D03*
X135200000Y-112400000D03*
X137000000Y-112400000D03*
X135800000Y-112400000D03*
X137600000Y-112400000D03*
X138200000Y-111800000D03*
X136400000Y-111800000D03*
X135200000Y-111800000D03*
X137000000Y-111800000D03*
X135800000Y-111800000D03*
X137600000Y-111800000D03*
X138200000Y-111200000D03*
X136400000Y-111200000D03*
X135200000Y-111200000D03*
X137000000Y-111200000D03*
X135800000Y-111200000D03*
X137600000Y-111200000D03*
X138200000Y-110600000D03*
X136400000Y-110600000D03*
X135200000Y-110600000D03*
X137000000Y-110600000D03*
X135800000Y-110600000D03*
X137600000Y-110600000D03*
X138200000Y-110000000D03*
X137600000Y-110000000D03*
X137000000Y-110000000D03*
X136400000Y-110000000D03*
X135800000Y-110000000D03*
X135200000Y-110000000D03*
%TO.N,/Vreg*%
X146900000Y-113800000D03*
X146900000Y-113200000D03*
X146900000Y-112600000D03*
X146900000Y-112000000D03*
X146900000Y-111400000D03*
X146900000Y-110800000D03*
X145700000Y-108700000D03*
X146300000Y-108700000D03*
X146300000Y-108100000D03*
X145700000Y-108100000D03*
%TO.N,/+20V*%
X125900000Y-115700000D03*
X126500000Y-115700000D03*
X125100000Y-119500000D03*
X125100000Y-118800000D03*
X125100000Y-118100000D03*
X125100000Y-117400000D03*
X124400000Y-117400000D03*
X124400000Y-118100000D03*
X124400000Y-118800000D03*
X124400000Y-119500000D03*
%TO.N,Net-(IC1-Pad5)*%
X131400000Y-111200000D03*
X132200000Y-111200000D03*
X133000000Y-111200000D03*
X133800000Y-111200000D03*
X133800000Y-112000000D03*
X133000000Y-112000000D03*
X132200000Y-112000000D03*
X131400000Y-112000000D03*
X131400000Y-112800000D03*
X132200000Y-112800000D03*
X133000000Y-112800000D03*
X133800000Y-112800000D03*
X133800000Y-113600000D03*
X133000000Y-113600000D03*
X132200000Y-113600000D03*
X128900000Y-113200000D03*
X128900000Y-113800000D03*
X128900000Y-114400000D03*
X128900000Y-115000000D03*
X131400000Y-113600000D03*
%TO.N,/+20V*%
X126500000Y-114400000D03*
D13*
X123800000Y-124100000D03*
D12*
X143900000Y-116500000D03*
X125265498Y-115734502D03*
X126500000Y-115000000D03*
X125900000Y-115000000D03*
X125900000Y-114400000D03*
X124100000Y-114100000D03*
%TO.N,GND*%
X134700000Y-118500000D03*
X150100000Y-122800000D03*
X126500000Y-112500000D03*
X128000000Y-122400000D03*
X150600000Y-112100000D03*
X128700000Y-121700000D03*
X150100000Y-123400000D03*
X145000000Y-121600000D03*
X128000000Y-118600000D03*
X128700000Y-120000000D03*
X151300000Y-114200000D03*
X151300000Y-110900000D03*
X127262000Y-112760000D03*
X150700000Y-121600000D03*
X150700000Y-122800000D03*
X118800000Y-109300000D03*
X127900000Y-113400000D03*
X150600000Y-114200000D03*
X151300000Y-110300000D03*
X126500000Y-113500000D03*
X145600000Y-121000000D03*
X145000000Y-122200000D03*
X145000000Y-119800000D03*
X129400000Y-122400000D03*
X129400000Y-120700000D03*
X129400000Y-120000000D03*
X125900000Y-112500000D03*
X127900000Y-114600000D03*
X151300000Y-114900000D03*
X150600000Y-113500000D03*
X150700000Y-123400000D03*
X127900000Y-115200000D03*
X140000000Y-120100000D03*
X128600000Y-110200000D03*
X125900000Y-113500000D03*
X150600000Y-110900000D03*
X128700000Y-122400000D03*
X145600000Y-122200000D03*
X129400000Y-119300000D03*
X129400000Y-121700000D03*
X145600000Y-120400000D03*
X150700000Y-118600000D03*
X120100000Y-113300000D03*
X145000000Y-121000000D03*
X134700000Y-119200000D03*
X145600000Y-119800000D03*
X128000000Y-121700000D03*
X125900000Y-113000000D03*
X128700000Y-120700000D03*
X145000000Y-119200000D03*
X127900000Y-114000000D03*
X128000000Y-120000000D03*
X129400000Y-118600000D03*
X151300000Y-111500000D03*
X151300000Y-113500000D03*
X128000000Y-120700000D03*
X136000000Y-123200000D03*
X150600000Y-112800000D03*
X145000000Y-118600000D03*
X150700000Y-119200000D03*
X128000000Y-123100000D03*
X151300000Y-112100000D03*
X143100000Y-124400000D03*
X128700000Y-118600000D03*
X124200000Y-106800000D03*
X150600000Y-111500000D03*
X127300000Y-114000000D03*
X151300000Y-112800000D03*
X145000000Y-120400000D03*
X150700000Y-120400000D03*
X145600000Y-118600000D03*
X127300000Y-115200000D03*
D14*
X119000000Y-129000000D03*
D12*
X129400000Y-123100000D03*
X128700000Y-123100000D03*
X145600000Y-122800000D03*
X150600000Y-110300000D03*
X145000000Y-123400000D03*
X150600000Y-114900000D03*
X150600000Y-109700000D03*
X122600000Y-107900000D03*
D14*
X118000000Y-128000000D03*
D12*
X127300000Y-114600000D03*
X122200000Y-114000000D03*
X128700000Y-119300000D03*
X128000000Y-119300000D03*
X151300000Y-109700000D03*
X150700000Y-122200000D03*
X150700000Y-121000000D03*
X121800000Y-116900000D03*
X150700000Y-119800000D03*
X127300000Y-113400000D03*
X145600000Y-121600000D03*
X145600000Y-119200000D03*
X126500000Y-113000000D03*
X145000000Y-122800000D03*
%TO.N,Net-(200K1-Pad3)*%
X123100000Y-107300000D03*
X119200000Y-115800000D03*
%TO.N,/PGOOD*%
X130200000Y-117800000D03*
X127121588Y-110521588D03*
D13*
%TO.N,/5V*%
X134200000Y-124000000D03*
D12*
X118900000Y-119900000D03*
%TO.N,/Vreg*%
X144400000Y-112600000D03*
X143000000Y-112600000D03*
X143000000Y-111200000D03*
X145100000Y-112600000D03*
X143700000Y-111900000D03*
X143700000Y-109800000D03*
X145100000Y-109800000D03*
X143000000Y-109800000D03*
X145100000Y-111900000D03*
X143700000Y-110500000D03*
X145100000Y-111200000D03*
X144400000Y-110500000D03*
X143000000Y-110500000D03*
X143700000Y-112600000D03*
X124246000Y-111254000D03*
X143700000Y-111200000D03*
X144400000Y-109800000D03*
X143000000Y-111900000D03*
X144400000Y-111900000D03*
X144400000Y-111200000D03*
X145100000Y-110500000D03*
%TO.N,Net-(200K1-Pad1)*%
X119200000Y-114100000D03*
X118500000Y-110500000D03*
D15*
%TO.N,+5VP*%
X121215000Y-110610000D03*
X121275000Y-115520000D03*
D12*
X127367500Y-108332061D03*
D14*
X130500000Y-109800000D03*
D12*
X118900000Y-118300000D03*
%TO.N,Net-(F1-Pad1)*%
X148200000Y-109800000D03*
X148200000Y-108600000D03*
X149400000Y-109800000D03*
X148800000Y-109800000D03*
X148200000Y-109200000D03*
X148800000Y-109200000D03*
%TD*%
%TA.AperFunction,Conductor*%
%TO.N,GND*%
G36*
X123104707Y-106519976D02*
G01*
X123143913Y-106501505D01*
X123163327Y-106500000D01*
X149653489Y-106500000D01*
X149721610Y-106520002D01*
X149768103Y-106573658D01*
X149773784Y-106588515D01*
X149845063Y-106817260D01*
X149959285Y-107071050D01*
X150103265Y-107309222D01*
X150105606Y-107312210D01*
X150105608Y-107312213D01*
X150208629Y-107443709D01*
X150274904Y-107528302D01*
X150471698Y-107725096D01*
X150474698Y-107727447D01*
X150474701Y-107727449D01*
X150637827Y-107855250D01*
X150690778Y-107896735D01*
X150694032Y-107898702D01*
X150925689Y-108038744D01*
X150925693Y-108038746D01*
X150928950Y-108040715D01*
X151055845Y-108097826D01*
X151179264Y-108153373D01*
X151179270Y-108153375D01*
X151182740Y-108154937D01*
X151186376Y-108156070D01*
X151411485Y-108226216D01*
X151470571Y-108265578D01*
X151498996Y-108330636D01*
X151500000Y-108346511D01*
X151500000Y-128653489D01*
X151479998Y-128721610D01*
X151426342Y-128768103D01*
X151411485Y-128773784D01*
X151182740Y-128845063D01*
X151179270Y-128846625D01*
X151179264Y-128846627D01*
X151142410Y-128863214D01*
X150928950Y-128959285D01*
X150925693Y-128961254D01*
X150925689Y-128961256D01*
X150773950Y-129052986D01*
X150690778Y-129103265D01*
X150687790Y-129105606D01*
X150687787Y-129105608D01*
X150474701Y-129272551D01*
X150471698Y-129274904D01*
X150274904Y-129471698D01*
X150272553Y-129474698D01*
X150272551Y-129474701D01*
X150115264Y-129675463D01*
X150103265Y-129690778D01*
X150101298Y-129694032D01*
X149989188Y-129879485D01*
X149959285Y-129928950D01*
X149906446Y-130046353D01*
X149846750Y-130178992D01*
X149845063Y-130182740D01*
X149814461Y-130280945D01*
X149773784Y-130411485D01*
X149734422Y-130470571D01*
X149669364Y-130498996D01*
X149653489Y-130500000D01*
X143738475Y-130500000D01*
X143670354Y-130479998D01*
X143623861Y-130426342D01*
X143613757Y-130356068D01*
X143643251Y-130291488D01*
X143683043Y-130260849D01*
X143816303Y-130195566D01*
X143816308Y-130195563D01*
X143820954Y-130193287D01*
X143825164Y-130190284D01*
X143825169Y-130190281D01*
X144017617Y-130053009D01*
X144017622Y-130053005D01*
X144021829Y-130050004D01*
X144196605Y-129875837D01*
X144340588Y-129675463D01*
X144449911Y-129454264D01*
X144505120Y-129272551D01*
X144520135Y-129223132D01*
X144520136Y-129223126D01*
X144521639Y-129218180D01*
X144553845Y-128973550D01*
X144555643Y-128900000D01*
X144542030Y-128734422D01*
X144535849Y-128659240D01*
X144535848Y-128659234D01*
X144535425Y-128654089D01*
X144475316Y-128414783D01*
X144376928Y-128188507D01*
X144242905Y-127981339D01*
X144216635Y-127952468D01*
X144190243Y-127923464D01*
X144076846Y-127798842D01*
X144072795Y-127795643D01*
X144072791Y-127795639D01*
X143887264Y-127649119D01*
X143887259Y-127649116D01*
X143883210Y-127645918D01*
X143878694Y-127643425D01*
X143878691Y-127643423D01*
X143671722Y-127529170D01*
X143671718Y-127529168D01*
X143667198Y-127526673D01*
X143662329Y-127524949D01*
X143662325Y-127524947D01*
X143439485Y-127446035D01*
X143439481Y-127446034D01*
X143434610Y-127444309D01*
X143429517Y-127443402D01*
X143429514Y-127443401D01*
X143196783Y-127401945D01*
X143196777Y-127401944D01*
X143191694Y-127401039D01*
X143112324Y-127400069D01*
X142950142Y-127398088D01*
X142950140Y-127398088D01*
X142944972Y-127398025D01*
X142701070Y-127435347D01*
X142466540Y-127512003D01*
X142380153Y-127556973D01*
X142257144Y-127621008D01*
X142247679Y-127625935D01*
X142243546Y-127629038D01*
X142243543Y-127629040D01*
X142054499Y-127770978D01*
X142050364Y-127774083D01*
X141879896Y-127952468D01*
X141876982Y-127956740D01*
X141876981Y-127956741D01*
X141857238Y-127985683D01*
X141740851Y-128156300D01*
X141636965Y-128380104D01*
X141571026Y-128617871D01*
X141544806Y-128863214D01*
X141559010Y-129109545D01*
X141560147Y-129114591D01*
X141560148Y-129114597D01*
X141582336Y-129213051D01*
X141613255Y-129350249D01*
X141706084Y-129578861D01*
X141835006Y-129789241D01*
X141996557Y-129975741D01*
X142186399Y-130133351D01*
X142199342Y-130140914D01*
X142394967Y-130255229D01*
X142394974Y-130255232D01*
X142399433Y-130257838D01*
X142404262Y-130259682D01*
X142405698Y-130260370D01*
X142458488Y-130307844D01*
X142477232Y-130376321D01*
X142455978Y-130444062D01*
X142401475Y-130489558D01*
X142351253Y-130500000D01*
X140238475Y-130500000D01*
X140170354Y-130479998D01*
X140123861Y-130426342D01*
X140113757Y-130356068D01*
X140143251Y-130291488D01*
X140183043Y-130260849D01*
X140316303Y-130195566D01*
X140316308Y-130195563D01*
X140320954Y-130193287D01*
X140325164Y-130190284D01*
X140325169Y-130190281D01*
X140517617Y-130053009D01*
X140517622Y-130053005D01*
X140521829Y-130050004D01*
X140696605Y-129875837D01*
X140840588Y-129675463D01*
X140949911Y-129454264D01*
X141005120Y-129272551D01*
X141020135Y-129223132D01*
X141020136Y-129223126D01*
X141021639Y-129218180D01*
X141053845Y-128973550D01*
X141055643Y-128900000D01*
X141042030Y-128734422D01*
X141035849Y-128659240D01*
X141035848Y-128659234D01*
X141035425Y-128654089D01*
X140975316Y-128414783D01*
X140876928Y-128188507D01*
X140742905Y-127981339D01*
X140716635Y-127952468D01*
X140690243Y-127923464D01*
X140576846Y-127798842D01*
X140572795Y-127795643D01*
X140572791Y-127795639D01*
X140387264Y-127649119D01*
X140387259Y-127649116D01*
X140383210Y-127645918D01*
X140378694Y-127643425D01*
X140378691Y-127643423D01*
X140171722Y-127529170D01*
X140171718Y-127529168D01*
X140167198Y-127526673D01*
X140162329Y-127524949D01*
X140162325Y-127524947D01*
X139939485Y-127446035D01*
X139939481Y-127446034D01*
X139934610Y-127444309D01*
X139929517Y-127443402D01*
X139929514Y-127443401D01*
X139696783Y-127401945D01*
X139696777Y-127401944D01*
X139691694Y-127401039D01*
X139612324Y-127400069D01*
X139450142Y-127398088D01*
X139450140Y-127398088D01*
X139444972Y-127398025D01*
X139201070Y-127435347D01*
X138966540Y-127512003D01*
X138880153Y-127556973D01*
X138757144Y-127621008D01*
X138747679Y-127625935D01*
X138743546Y-127629038D01*
X138743543Y-127629040D01*
X138554499Y-127770978D01*
X138550364Y-127774083D01*
X138379896Y-127952468D01*
X138376982Y-127956740D01*
X138376981Y-127956741D01*
X138357238Y-127985683D01*
X138240851Y-128156300D01*
X138136965Y-128380104D01*
X138071026Y-128617871D01*
X138044806Y-128863214D01*
X138059010Y-129109545D01*
X138060147Y-129114591D01*
X138060148Y-129114597D01*
X138082336Y-129213051D01*
X138113255Y-129350249D01*
X138206084Y-129578861D01*
X138335006Y-129789241D01*
X138496557Y-129975741D01*
X138686399Y-130133351D01*
X138699342Y-130140914D01*
X138894967Y-130255229D01*
X138894974Y-130255232D01*
X138899433Y-130257838D01*
X138904262Y-130259682D01*
X138905698Y-130260370D01*
X138958488Y-130307844D01*
X138977232Y-130376321D01*
X138955978Y-130444062D01*
X138901475Y-130489558D01*
X138851253Y-130500000D01*
X136738475Y-130500000D01*
X136670354Y-130479998D01*
X136623861Y-130426342D01*
X136613757Y-130356068D01*
X136643251Y-130291488D01*
X136683043Y-130260849D01*
X136816303Y-130195566D01*
X136816308Y-130195563D01*
X136820954Y-130193287D01*
X136825164Y-130190284D01*
X136825169Y-130190281D01*
X137017617Y-130053009D01*
X137017622Y-130053005D01*
X137021829Y-130050004D01*
X137196605Y-129875837D01*
X137340588Y-129675463D01*
X137449911Y-129454264D01*
X137505120Y-129272551D01*
X137520135Y-129223132D01*
X137520136Y-129223126D01*
X137521639Y-129218180D01*
X137553845Y-128973550D01*
X137555643Y-128900000D01*
X137542030Y-128734422D01*
X137535849Y-128659240D01*
X137535848Y-128659234D01*
X137535425Y-128654089D01*
X137475316Y-128414783D01*
X137376928Y-128188507D01*
X137242905Y-127981339D01*
X137216635Y-127952468D01*
X137190243Y-127923464D01*
X137076846Y-127798842D01*
X137072795Y-127795643D01*
X137072791Y-127795639D01*
X136887264Y-127649119D01*
X136887259Y-127649116D01*
X136883210Y-127645918D01*
X136878694Y-127643425D01*
X136878691Y-127643423D01*
X136671722Y-127529170D01*
X136671718Y-127529168D01*
X136667198Y-127526673D01*
X136662329Y-127524949D01*
X136662325Y-127524947D01*
X136439485Y-127446035D01*
X136439481Y-127446034D01*
X136434610Y-127444309D01*
X136429517Y-127443402D01*
X136429514Y-127443401D01*
X136196783Y-127401945D01*
X136196777Y-127401944D01*
X136191694Y-127401039D01*
X136112324Y-127400069D01*
X135950142Y-127398088D01*
X135950140Y-127398088D01*
X135944972Y-127398025D01*
X135701070Y-127435347D01*
X135466540Y-127512003D01*
X135380153Y-127556973D01*
X135257144Y-127621008D01*
X135247679Y-127625935D01*
X135243546Y-127629038D01*
X135243543Y-127629040D01*
X135054499Y-127770978D01*
X135050364Y-127774083D01*
X134879896Y-127952468D01*
X134876982Y-127956740D01*
X134876981Y-127956741D01*
X134857238Y-127985683D01*
X134740851Y-128156300D01*
X134636965Y-128380104D01*
X134571026Y-128617871D01*
X134544806Y-128863214D01*
X134559010Y-129109545D01*
X134560147Y-129114591D01*
X134560148Y-129114597D01*
X134582336Y-129213051D01*
X134613255Y-129350249D01*
X134706084Y-129578861D01*
X134835006Y-129789241D01*
X134996557Y-129975741D01*
X135186399Y-130133351D01*
X135199342Y-130140914D01*
X135394967Y-130255229D01*
X135394974Y-130255232D01*
X135399433Y-130257838D01*
X135404262Y-130259682D01*
X135405698Y-130260370D01*
X135458488Y-130307844D01*
X135477232Y-130376321D01*
X135455978Y-130444062D01*
X135401475Y-130489558D01*
X135351253Y-130500000D01*
X129738475Y-130500000D01*
X129670354Y-130479998D01*
X129623861Y-130426342D01*
X129613757Y-130356068D01*
X129643251Y-130291488D01*
X129683043Y-130260849D01*
X129816303Y-130195566D01*
X129816308Y-130195563D01*
X129820954Y-130193287D01*
X129825164Y-130190284D01*
X129825169Y-130190281D01*
X130017617Y-130053009D01*
X130017622Y-130053005D01*
X130021829Y-130050004D01*
X130196605Y-129875837D01*
X130340588Y-129675463D01*
X130449911Y-129454264D01*
X130505120Y-129272551D01*
X130520135Y-129223132D01*
X130520136Y-129223126D01*
X130521639Y-129218180D01*
X130553845Y-128973550D01*
X130555643Y-128900000D01*
X130542030Y-128734422D01*
X130535849Y-128659240D01*
X130535848Y-128659234D01*
X130535425Y-128654089D01*
X130475316Y-128414783D01*
X130376928Y-128188507D01*
X130242905Y-127981339D01*
X130216635Y-127952468D01*
X130190243Y-127923464D01*
X130076846Y-127798842D01*
X130072795Y-127795643D01*
X130072791Y-127795639D01*
X129887264Y-127649119D01*
X129887259Y-127649116D01*
X129883210Y-127645918D01*
X129878694Y-127643425D01*
X129878691Y-127643423D01*
X129671722Y-127529170D01*
X129671718Y-127529168D01*
X129667198Y-127526673D01*
X129662329Y-127524949D01*
X129662325Y-127524947D01*
X129439485Y-127446035D01*
X129439481Y-127446034D01*
X129434610Y-127444309D01*
X129429517Y-127443402D01*
X129429514Y-127443401D01*
X129196783Y-127401945D01*
X129196777Y-127401944D01*
X129191694Y-127401039D01*
X129112324Y-127400069D01*
X128950142Y-127398088D01*
X128950140Y-127398088D01*
X128944972Y-127398025D01*
X128701070Y-127435347D01*
X128466540Y-127512003D01*
X128380153Y-127556973D01*
X128257144Y-127621008D01*
X128247679Y-127625935D01*
X128243546Y-127629038D01*
X128243543Y-127629040D01*
X128054499Y-127770978D01*
X128050364Y-127774083D01*
X127879896Y-127952468D01*
X127876982Y-127956740D01*
X127876981Y-127956741D01*
X127857238Y-127985683D01*
X127740851Y-128156300D01*
X127636965Y-128380104D01*
X127571026Y-128617871D01*
X127544806Y-128863214D01*
X127559010Y-129109545D01*
X127560147Y-129114591D01*
X127560148Y-129114597D01*
X127582336Y-129213051D01*
X127613255Y-129350249D01*
X127706084Y-129578861D01*
X127835006Y-129789241D01*
X127996557Y-129975741D01*
X128186399Y-130133351D01*
X128199342Y-130140914D01*
X128394967Y-130255229D01*
X128394974Y-130255232D01*
X128399433Y-130257838D01*
X128404262Y-130259682D01*
X128405698Y-130260370D01*
X128458488Y-130307844D01*
X128477232Y-130376321D01*
X128455978Y-130444062D01*
X128401475Y-130489558D01*
X128351253Y-130500000D01*
X123579166Y-130500000D01*
X123511045Y-130479998D01*
X123464552Y-130426342D01*
X123454448Y-130356068D01*
X123483942Y-130291488D01*
X123489994Y-130284981D01*
X123494024Y-130280945D01*
X123494025Y-130280943D01*
X123502241Y-130272713D01*
X123507487Y-130260849D01*
X123543675Y-130178992D01*
X123547506Y-130170327D01*
X123550500Y-130144646D01*
X123550500Y-127655354D01*
X123547382Y-127629154D01*
X123501939Y-127526847D01*
X123489464Y-127514393D01*
X123430945Y-127455977D01*
X123422713Y-127447759D01*
X123412076Y-127443056D01*
X123412074Y-127443055D01*
X123352538Y-127416735D01*
X123320327Y-127402494D01*
X123294646Y-127399500D01*
X120805354Y-127399500D01*
X120801650Y-127399941D01*
X120801647Y-127399941D01*
X120794254Y-127400821D01*
X120779154Y-127402618D01*
X120676847Y-127448061D01*
X120597759Y-127527287D01*
X120552494Y-127629673D01*
X120549500Y-127655354D01*
X120549500Y-130144646D01*
X120552618Y-130170846D01*
X120598061Y-130273153D01*
X120606295Y-130281373D01*
X120606296Y-130281374D01*
X120609756Y-130284828D01*
X120643835Y-130347111D01*
X120638830Y-130417931D01*
X120596332Y-130474804D01*
X120529833Y-130499671D01*
X120520737Y-130500000D01*
X119346511Y-130500000D01*
X119278390Y-130479998D01*
X119231897Y-130426342D01*
X119226216Y-130411485D01*
X119185539Y-130280945D01*
X119154937Y-130182740D01*
X119153251Y-130178992D01*
X119093554Y-130046353D01*
X119040715Y-129928950D01*
X119010813Y-129879485D01*
X118898702Y-129694032D01*
X118896735Y-129690778D01*
X118884737Y-129675463D01*
X118727449Y-129474701D01*
X118727447Y-129474698D01*
X118725096Y-129471698D01*
X118528302Y-129274904D01*
X118525299Y-129272551D01*
X118312213Y-129105608D01*
X118312210Y-129105606D01*
X118309222Y-129103265D01*
X118226050Y-129052986D01*
X118074311Y-128961256D01*
X118074307Y-128961254D01*
X118071050Y-128959285D01*
X117857590Y-128863214D01*
X117820736Y-128846627D01*
X117820730Y-128846625D01*
X117817260Y-128845063D01*
X117588515Y-128773784D01*
X117529429Y-128734422D01*
X117501004Y-128669364D01*
X117500000Y-128653489D01*
X117500000Y-124093402D01*
X123169941Y-124093402D01*
X123186554Y-124243883D01*
X123238582Y-124386057D01*
X123242819Y-124392363D01*
X123242821Y-124392366D01*
X123255824Y-124411716D01*
X123323022Y-124511716D01*
X123434998Y-124613607D01*
X123441675Y-124617232D01*
X123441676Y-124617233D01*
X123561370Y-124682222D01*
X123561372Y-124682223D01*
X123568047Y-124685847D01*
X123575396Y-124687775D01*
X123707136Y-124722336D01*
X123707138Y-124722336D01*
X123714486Y-124724264D01*
X123794562Y-124725522D01*
X123858266Y-124726523D01*
X123858269Y-124726523D01*
X123865863Y-124726642D01*
X124013437Y-124692843D01*
X124080731Y-124658998D01*
X124141906Y-124628231D01*
X124141909Y-124628229D01*
X124148689Y-124624819D01*
X124263810Y-124526495D01*
X124352156Y-124403550D01*
X124408624Y-124263080D01*
X124429956Y-124113196D01*
X124430094Y-124100000D01*
X124417194Y-123993402D01*
X133569941Y-123993402D01*
X133586554Y-124143883D01*
X133638582Y-124286057D01*
X133642819Y-124292363D01*
X133642821Y-124292366D01*
X133681412Y-124349794D01*
X133723022Y-124411716D01*
X133834998Y-124513607D01*
X133841675Y-124517232D01*
X133841676Y-124517233D01*
X133961370Y-124582222D01*
X133961372Y-124582223D01*
X133968047Y-124585847D01*
X133975396Y-124587775D01*
X134107136Y-124622336D01*
X134107138Y-124622336D01*
X134114486Y-124624264D01*
X134194562Y-124625522D01*
X134258266Y-124626523D01*
X134258269Y-124626523D01*
X134265863Y-124626642D01*
X134413437Y-124592843D01*
X134480731Y-124558998D01*
X134541906Y-124528231D01*
X134541909Y-124528229D01*
X134548689Y-124524819D01*
X134663810Y-124426495D01*
X134752156Y-124303550D01*
X134808624Y-124163080D01*
X134829956Y-124013196D01*
X134830094Y-124000000D01*
X134828161Y-123984021D01*
X134812818Y-123857241D01*
X134811906Y-123849701D01*
X134798862Y-123815182D01*
X134761076Y-123715182D01*
X134761075Y-123715179D01*
X134758392Y-123708080D01*
X134672640Y-123583311D01*
X134579134Y-123500000D01*
X134565270Y-123487648D01*
X134565269Y-123487648D01*
X134559603Y-123482599D01*
X134552897Y-123479048D01*
X134552895Y-123479047D01*
X134492704Y-123447178D01*
X134425805Y-123411757D01*
X134278972Y-123374874D01*
X134271374Y-123374834D01*
X134271372Y-123374834D01*
X134206775Y-123374496D01*
X134127579Y-123374082D01*
X134120200Y-123375854D01*
X134120196Y-123375854D01*
X133987746Y-123407652D01*
X133987742Y-123407653D01*
X133980367Y-123409424D01*
X133973622Y-123412905D01*
X133973623Y-123412905D01*
X133853560Y-123474874D01*
X133845835Y-123478861D01*
X133840113Y-123483853D01*
X133840111Y-123483854D01*
X133737474Y-123573390D01*
X133737471Y-123573393D01*
X133731749Y-123578385D01*
X133727382Y-123584599D01*
X133653610Y-123689566D01*
X133644696Y-123702249D01*
X133589702Y-123843302D01*
X133588711Y-123850831D01*
X133574702Y-123957241D01*
X133569941Y-123993402D01*
X124417194Y-123993402D01*
X124411906Y-123949701D01*
X124402695Y-123925325D01*
X124361076Y-123815182D01*
X124361075Y-123815179D01*
X124358392Y-123808080D01*
X124315516Y-123745695D01*
X124276939Y-123689566D01*
X124272640Y-123683311D01*
X124159603Y-123582599D01*
X124152897Y-123579048D01*
X124152895Y-123579047D01*
X124092704Y-123547178D01*
X124025805Y-123511757D01*
X123878972Y-123474874D01*
X123871374Y-123474834D01*
X123871372Y-123474834D01*
X123806775Y-123474496D01*
X123727579Y-123474082D01*
X123720200Y-123475854D01*
X123720196Y-123475854D01*
X123587746Y-123507652D01*
X123587742Y-123507653D01*
X123580367Y-123509424D01*
X123445835Y-123578861D01*
X123440113Y-123583853D01*
X123440111Y-123583854D01*
X123337474Y-123673390D01*
X123337471Y-123673393D01*
X123331749Y-123678385D01*
X123315275Y-123701825D01*
X123257397Y-123784178D01*
X123244696Y-123802249D01*
X123189702Y-123943302D01*
X123188711Y-123950831D01*
X123174964Y-124055250D01*
X123169941Y-124093402D01*
X117500000Y-124093402D01*
X117500000Y-122800000D01*
X119544750Y-122800000D01*
X119563670Y-122943709D01*
X119619139Y-123077625D01*
X119707379Y-123192621D01*
X119822375Y-123280861D01*
X119956291Y-123336330D01*
X120049945Y-123348660D01*
X120091812Y-123354172D01*
X120100000Y-123355250D01*
X120108188Y-123354172D01*
X120116447Y-123354172D01*
X120116447Y-123356696D01*
X120174034Y-123365672D01*
X120227136Y-123412795D01*
X120246332Y-123481147D01*
X120245828Y-123488198D01*
X120245828Y-123491812D01*
X120244750Y-123500000D01*
X120263670Y-123643709D01*
X120319139Y-123777625D01*
X120407379Y-123892621D01*
X120522375Y-123980861D01*
X120656291Y-124036330D01*
X120800000Y-124055250D01*
X120943709Y-124036330D01*
X121077625Y-123980861D01*
X121084175Y-123975835D01*
X121087000Y-123974204D01*
X121155996Y-123957466D01*
X121213000Y-123974204D01*
X121215825Y-123975835D01*
X121222375Y-123980861D01*
X121356291Y-124036330D01*
X121500000Y-124055250D01*
X121643709Y-124036330D01*
X121777625Y-123980861D01*
X121784175Y-123975835D01*
X121787000Y-123974204D01*
X121855996Y-123957466D01*
X121913000Y-123974204D01*
X121915825Y-123975835D01*
X121922375Y-123980861D01*
X122056291Y-124036330D01*
X122200000Y-124055250D01*
X122343709Y-124036330D01*
X122477625Y-123980861D01*
X122592621Y-123892621D01*
X122680861Y-123777625D01*
X122736330Y-123643709D01*
X122755250Y-123500000D01*
X122736330Y-123356291D01*
X122680861Y-123222375D01*
X122675835Y-123215825D01*
X122674204Y-123213000D01*
X122657466Y-123144004D01*
X122674204Y-123087000D01*
X122675835Y-123084175D01*
X122680861Y-123077625D01*
X122736330Y-122943709D01*
X122755250Y-122800000D01*
X122736330Y-122656291D01*
X122680861Y-122522375D01*
X122675835Y-122515825D01*
X122674204Y-122513000D01*
X122657466Y-122444004D01*
X122674204Y-122387000D01*
X122675835Y-122384175D01*
X122680861Y-122377625D01*
X122736330Y-122243709D01*
X122755250Y-122100000D01*
X122736330Y-121956291D01*
X122680861Y-121822375D01*
X122592621Y-121707379D01*
X122477625Y-121619139D01*
X122343709Y-121563670D01*
X122200000Y-121544750D01*
X122056291Y-121563670D01*
X121922375Y-121619139D01*
X121915825Y-121624165D01*
X121913000Y-121625796D01*
X121844004Y-121642534D01*
X121787000Y-121625796D01*
X121784175Y-121624165D01*
X121777625Y-121619139D01*
X121643709Y-121563670D01*
X121500000Y-121544750D01*
X121356291Y-121563670D01*
X121222375Y-121619139D01*
X121215825Y-121624165D01*
X121213000Y-121625796D01*
X121144004Y-121642534D01*
X121087000Y-121625796D01*
X121084175Y-121624165D01*
X121077625Y-121619139D01*
X120943709Y-121563670D01*
X120800000Y-121544750D01*
X120656291Y-121563670D01*
X120522375Y-121619139D01*
X120515825Y-121624165D01*
X120513000Y-121625796D01*
X120444004Y-121642534D01*
X120387000Y-121625796D01*
X120384175Y-121624165D01*
X120377625Y-121619139D01*
X120243709Y-121563670D01*
X120100000Y-121544750D01*
X119956291Y-121563670D01*
X119822375Y-121619139D01*
X119707379Y-121707379D01*
X119619139Y-121822375D01*
X119563670Y-121956291D01*
X119544750Y-122100000D01*
X119563670Y-122243709D01*
X119619139Y-122377625D01*
X119624165Y-122384175D01*
X119625796Y-122387000D01*
X119642534Y-122455996D01*
X119625796Y-122513000D01*
X119624165Y-122515825D01*
X119619139Y-122522375D01*
X119563670Y-122656291D01*
X119544750Y-122800000D01*
X117500000Y-122800000D01*
X117500000Y-119900000D01*
X118344750Y-119900000D01*
X118363670Y-120043709D01*
X118419139Y-120177625D01*
X118507379Y-120292621D01*
X118622375Y-120380861D01*
X118756291Y-120436330D01*
X118900000Y-120455250D01*
X119043709Y-120436330D01*
X119177625Y-120380861D01*
X119292621Y-120292621D01*
X119380861Y-120177625D01*
X119436330Y-120043709D01*
X119455250Y-119900000D01*
X119436330Y-119756291D01*
X119380861Y-119622375D01*
X119363692Y-119600000D01*
X120744750Y-119600000D01*
X120763670Y-119743709D01*
X120819139Y-119877625D01*
X120907379Y-119992621D01*
X121022375Y-120080861D01*
X121156291Y-120136330D01*
X121300000Y-120155250D01*
X121443709Y-120136330D01*
X121577625Y-120080861D01*
X121579154Y-120079688D01*
X121645299Y-120063642D01*
X121702303Y-120080380D01*
X121702986Y-120080775D01*
X121709537Y-120085801D01*
X121843453Y-120141270D01*
X121987162Y-120160190D01*
X122130871Y-120141270D01*
X122264787Y-120085801D01*
X122379783Y-119997561D01*
X122468023Y-119882565D01*
X122523492Y-119748649D01*
X122535169Y-119659955D01*
X122563892Y-119595028D01*
X122583387Y-119576440D01*
X122683005Y-119500000D01*
X123844750Y-119500000D01*
X123863670Y-119643709D01*
X123919139Y-119777625D01*
X124007379Y-119892621D01*
X124122375Y-119980861D01*
X124256291Y-120036330D01*
X124400000Y-120055250D01*
X124543709Y-120036330D01*
X124677625Y-119980861D01*
X124684175Y-119975835D01*
X124687000Y-119974204D01*
X124755996Y-119957466D01*
X124813000Y-119974204D01*
X124815825Y-119975835D01*
X124822375Y-119980861D01*
X124956291Y-120036330D01*
X125100000Y-120055250D01*
X125243709Y-120036330D01*
X125377625Y-119980861D01*
X125492621Y-119892621D01*
X125580861Y-119777625D01*
X125636330Y-119643709D01*
X125655250Y-119500000D01*
X125636330Y-119356291D01*
X125580861Y-119222375D01*
X125575835Y-119215825D01*
X125574204Y-119213000D01*
X125557466Y-119144004D01*
X125574204Y-119087000D01*
X125575835Y-119084175D01*
X125580861Y-119077625D01*
X125636330Y-118943709D01*
X125655250Y-118800000D01*
X125636330Y-118656291D01*
X125580861Y-118522375D01*
X125575835Y-118515825D01*
X125574204Y-118513000D01*
X125557466Y-118444004D01*
X125574204Y-118387000D01*
X125575835Y-118384175D01*
X125580861Y-118377625D01*
X125636330Y-118243709D01*
X125655250Y-118100000D01*
X125636330Y-117956291D01*
X125580861Y-117822375D01*
X125575835Y-117815825D01*
X125574204Y-117813000D01*
X125571050Y-117800000D01*
X129644750Y-117800000D01*
X129663670Y-117943709D01*
X129719139Y-118077625D01*
X129807379Y-118192621D01*
X129922375Y-118280861D01*
X130056291Y-118336330D01*
X130200000Y-118355250D01*
X130343709Y-118336330D01*
X130477625Y-118280861D01*
X130592621Y-118192621D01*
X130680861Y-118077625D01*
X130736330Y-117943709D01*
X130748727Y-117849546D01*
X130777449Y-117784618D01*
X130836715Y-117745527D01*
X130857201Y-117741071D01*
X130893209Y-117736330D01*
X131027125Y-117680861D01*
X131142121Y-117592621D01*
X131230361Y-117477625D01*
X131285830Y-117343709D01*
X131304750Y-117200000D01*
X131285830Y-117056291D01*
X131230361Y-116922375D01*
X131142121Y-116807379D01*
X131027125Y-116719139D01*
X130893209Y-116663670D01*
X130749500Y-116644750D01*
X130605791Y-116663670D01*
X130471875Y-116719139D01*
X130356879Y-116807379D01*
X130268639Y-116922375D01*
X130213170Y-117056291D01*
X130204470Y-117122375D01*
X130200773Y-117150454D01*
X130172051Y-117215382D01*
X130112785Y-117254473D01*
X130092299Y-117258929D01*
X130056291Y-117263670D01*
X129922375Y-117319139D01*
X129807379Y-117407379D01*
X129719139Y-117522375D01*
X129663670Y-117656291D01*
X129644750Y-117800000D01*
X125571050Y-117800000D01*
X125557466Y-117744004D01*
X125574204Y-117687000D01*
X125575835Y-117684175D01*
X125580861Y-117677625D01*
X125636330Y-117543709D01*
X125655250Y-117400000D01*
X125636330Y-117256291D01*
X125580861Y-117122375D01*
X125492621Y-117007379D01*
X125377625Y-116919139D01*
X125243709Y-116863670D01*
X125100000Y-116844750D01*
X124956291Y-116863670D01*
X124822375Y-116919139D01*
X124815825Y-116924165D01*
X124813000Y-116925796D01*
X124744004Y-116942534D01*
X124687000Y-116925796D01*
X124684175Y-116924165D01*
X124677625Y-116919139D01*
X124543709Y-116863670D01*
X124400000Y-116844750D01*
X124256291Y-116863670D01*
X124122375Y-116919139D01*
X124007379Y-117007379D01*
X123919139Y-117122375D01*
X123863670Y-117256291D01*
X123844750Y-117400000D01*
X123863670Y-117543709D01*
X123919139Y-117677625D01*
X123924165Y-117684175D01*
X123925796Y-117687000D01*
X123942534Y-117755996D01*
X123925796Y-117813000D01*
X123924165Y-117815825D01*
X123919139Y-117822375D01*
X123863670Y-117956291D01*
X123844750Y-118100000D01*
X123863670Y-118243709D01*
X123919139Y-118377625D01*
X123924165Y-118384175D01*
X123925796Y-118387000D01*
X123942534Y-118455996D01*
X123925796Y-118513000D01*
X123924165Y-118515825D01*
X123919139Y-118522375D01*
X123863670Y-118656291D01*
X123844750Y-118800000D01*
X123863670Y-118943709D01*
X123919139Y-119077625D01*
X123924165Y-119084175D01*
X123925796Y-119087000D01*
X123942534Y-119155996D01*
X123925796Y-119213000D01*
X123924165Y-119215825D01*
X123919139Y-119222375D01*
X123863670Y-119356291D01*
X123844750Y-119500000D01*
X122683005Y-119500000D01*
X122686071Y-119497647D01*
X122692621Y-119492621D01*
X122780861Y-119377625D01*
X122836330Y-119243709D01*
X122855250Y-119100000D01*
X122836330Y-118956291D01*
X122780861Y-118822375D01*
X122692621Y-118707379D01*
X122577625Y-118619139D01*
X122443709Y-118563670D01*
X122300000Y-118544750D01*
X122156291Y-118563670D01*
X122022375Y-118619139D01*
X122015825Y-118624165D01*
X122013000Y-118625796D01*
X121944004Y-118642534D01*
X121887000Y-118625796D01*
X121884175Y-118624165D01*
X121877625Y-118619139D01*
X121743709Y-118563670D01*
X121600000Y-118544750D01*
X121456291Y-118563670D01*
X121322375Y-118619139D01*
X121207379Y-118707379D01*
X121119139Y-118822375D01*
X121063670Y-118956291D01*
X121062592Y-118964480D01*
X121062592Y-118964481D01*
X121051274Y-119050447D01*
X121022552Y-119115374D01*
X121003056Y-119133963D01*
X120907379Y-119207379D01*
X120819139Y-119322375D01*
X120763670Y-119456291D01*
X120744750Y-119600000D01*
X119363692Y-119600000D01*
X119292621Y-119507379D01*
X119177625Y-119419139D01*
X119043709Y-119363670D01*
X118900000Y-119344750D01*
X118756291Y-119363670D01*
X118622375Y-119419139D01*
X118507379Y-119507379D01*
X118419139Y-119622375D01*
X118363670Y-119756291D01*
X118344750Y-119900000D01*
X117500000Y-119900000D01*
X117500000Y-118300000D01*
X118344750Y-118300000D01*
X118363670Y-118443709D01*
X118419139Y-118577625D01*
X118507379Y-118692621D01*
X118622375Y-118780861D01*
X118756291Y-118836330D01*
X118900000Y-118855250D01*
X119043709Y-118836330D01*
X119177625Y-118780861D01*
X119292621Y-118692621D01*
X119380861Y-118577625D01*
X119436330Y-118443709D01*
X119455250Y-118300000D01*
X119436330Y-118156291D01*
X119380861Y-118022375D01*
X119292621Y-117907379D01*
X119177625Y-117819139D01*
X119043709Y-117763670D01*
X118900000Y-117744750D01*
X118756291Y-117763670D01*
X118622375Y-117819139D01*
X118507379Y-117907379D01*
X118419139Y-118022375D01*
X118363670Y-118156291D01*
X118344750Y-118300000D01*
X117500000Y-118300000D01*
X117500000Y-116500000D01*
X143344750Y-116500000D01*
X143363670Y-116643709D01*
X143419139Y-116777625D01*
X143507379Y-116892621D01*
X143622375Y-116980861D01*
X143756291Y-117036330D01*
X143900000Y-117055250D01*
X144043709Y-117036330D01*
X144177625Y-116980861D01*
X144292621Y-116892621D01*
X144380861Y-116777625D01*
X144436330Y-116643709D01*
X144455250Y-116500000D01*
X144436330Y-116356291D01*
X144380861Y-116222375D01*
X144292621Y-116107379D01*
X144177625Y-116019139D01*
X144043709Y-115963670D01*
X143900000Y-115944750D01*
X143756291Y-115963670D01*
X143622375Y-116019139D01*
X143507379Y-116107379D01*
X143419139Y-116222375D01*
X143363670Y-116356291D01*
X143344750Y-116500000D01*
X117500000Y-116500000D01*
X117500000Y-115800000D01*
X118644750Y-115800000D01*
X118663670Y-115943709D01*
X118719139Y-116077625D01*
X118807379Y-116192621D01*
X118922375Y-116280861D01*
X119056291Y-116336330D01*
X119200000Y-116355250D01*
X119343709Y-116336330D01*
X119477625Y-116280861D01*
X119592621Y-116192621D01*
X119680861Y-116077625D01*
X119736330Y-115943709D01*
X119755250Y-115800000D01*
X119736330Y-115656291D01*
X119680861Y-115522375D01*
X119674299Y-115513823D01*
X120769391Y-115513823D01*
X120770555Y-115522725D01*
X120770555Y-115522728D01*
X120772334Y-115536330D01*
X120787980Y-115655979D01*
X120845720Y-115787203D01*
X120851497Y-115794076D01*
X120851498Y-115794077D01*
X120915336Y-115870022D01*
X120937970Y-115896948D01*
X120945447Y-115901925D01*
X121047708Y-115969996D01*
X121057313Y-115976390D01*
X121194157Y-116019142D01*
X121203129Y-116019306D01*
X121203132Y-116019307D01*
X121268463Y-116020504D01*
X121337499Y-116021770D01*
X121346533Y-116019307D01*
X121467158Y-115986421D01*
X121467160Y-115986420D01*
X121475817Y-115984060D01*
X121597991Y-115909045D01*
X121694200Y-115802754D01*
X121727268Y-115734502D01*
X124710248Y-115734502D01*
X124729168Y-115878211D01*
X124784637Y-116012127D01*
X124872877Y-116127123D01*
X124987873Y-116215363D01*
X125121789Y-116270832D01*
X125265498Y-116289752D01*
X125409207Y-116270832D01*
X125543123Y-116215363D01*
X125549675Y-116210335D01*
X125555960Y-116206707D01*
X125624955Y-116189970D01*
X125667175Y-116199418D01*
X125756291Y-116236330D01*
X125900000Y-116255250D01*
X126043709Y-116236330D01*
X126151783Y-116191565D01*
X126222372Y-116183976D01*
X126248215Y-116191564D01*
X126356291Y-116236330D01*
X126500000Y-116255250D01*
X126643709Y-116236330D01*
X126777625Y-116180861D01*
X126892621Y-116092621D01*
X126980861Y-115977625D01*
X127036330Y-115843709D01*
X127055250Y-115700000D01*
X127036330Y-115556291D01*
X126980861Y-115422375D01*
X126975835Y-115415825D01*
X126974204Y-115413000D01*
X126957466Y-115344004D01*
X126974204Y-115287000D01*
X126975835Y-115284175D01*
X126980861Y-115277625D01*
X127036330Y-115143709D01*
X127055250Y-115000000D01*
X128344750Y-115000000D01*
X128363670Y-115143709D01*
X128419139Y-115277625D01*
X128507379Y-115392621D01*
X128622375Y-115480861D01*
X128756291Y-115536330D01*
X128900000Y-115555250D01*
X129043709Y-115536330D01*
X129177625Y-115480861D01*
X129292621Y-115392621D01*
X129380861Y-115277625D01*
X129436330Y-115143709D01*
X129455250Y-115000000D01*
X129436330Y-114856291D01*
X129391565Y-114748217D01*
X129383976Y-114677628D01*
X129391565Y-114651782D01*
X129397966Y-114636330D01*
X129436330Y-114543709D01*
X129455250Y-114400000D01*
X129436330Y-114256291D01*
X129391565Y-114148217D01*
X129383976Y-114077628D01*
X129391565Y-114051782D01*
X129394037Y-114045816D01*
X129436330Y-113943709D01*
X129455250Y-113800000D01*
X129436330Y-113656291D01*
X129413014Y-113600000D01*
X130844750Y-113600000D01*
X130863670Y-113743709D01*
X130919139Y-113877625D01*
X131007379Y-113992621D01*
X131122375Y-114080861D01*
X131256291Y-114136330D01*
X131400000Y-114155250D01*
X131543709Y-114136330D01*
X131677625Y-114080861D01*
X131723298Y-114045815D01*
X131789516Y-114020215D01*
X131859065Y-114034479D01*
X131876697Y-114045811D01*
X131922375Y-114080861D01*
X132056291Y-114136330D01*
X132200000Y-114155250D01*
X132343709Y-114136330D01*
X132477625Y-114080861D01*
X132523298Y-114045815D01*
X132589516Y-114020215D01*
X132659065Y-114034479D01*
X132676697Y-114045811D01*
X132722375Y-114080861D01*
X132856291Y-114136330D01*
X133000000Y-114155250D01*
X133143709Y-114136330D01*
X133277625Y-114080861D01*
X133323298Y-114045815D01*
X133389516Y-114020215D01*
X133459065Y-114034479D01*
X133476697Y-114045811D01*
X133522375Y-114080861D01*
X133656291Y-114136330D01*
X133800000Y-114155250D01*
X133943709Y-114136330D01*
X134077625Y-114080861D01*
X134192621Y-113992621D01*
X134280861Y-113877625D01*
X134313014Y-113800000D01*
X146344750Y-113800000D01*
X146363670Y-113943709D01*
X146419139Y-114077625D01*
X146507379Y-114192621D01*
X146622375Y-114280861D01*
X146756291Y-114336330D01*
X146900000Y-114355250D01*
X147043709Y-114336330D01*
X147177625Y-114280861D01*
X147292621Y-114192621D01*
X147380861Y-114077625D01*
X147436330Y-113943709D01*
X147455250Y-113800000D01*
X147436330Y-113656291D01*
X147391565Y-113548217D01*
X147383976Y-113477628D01*
X147391565Y-113451782D01*
X147392859Y-113448660D01*
X147436330Y-113343709D01*
X147455250Y-113200000D01*
X147436330Y-113056291D01*
X147391565Y-112948217D01*
X147383976Y-112877628D01*
X147391565Y-112851782D01*
X147397966Y-112836330D01*
X147436330Y-112743709D01*
X147455250Y-112600000D01*
X147436330Y-112456291D01*
X147391565Y-112348217D01*
X147383976Y-112277628D01*
X147391565Y-112251782D01*
X147418399Y-112187000D01*
X147436330Y-112143709D01*
X147455250Y-112000000D01*
X147436330Y-111856291D01*
X147391565Y-111748217D01*
X147383976Y-111677628D01*
X147391565Y-111651782D01*
X147403717Y-111622446D01*
X147436330Y-111543709D01*
X147455250Y-111400000D01*
X147436330Y-111256291D01*
X147391565Y-111148217D01*
X147383976Y-111077628D01*
X147391565Y-111051782D01*
X147392859Y-111048660D01*
X147436330Y-110943709D01*
X147455250Y-110800000D01*
X147436330Y-110656291D01*
X147380861Y-110522375D01*
X147292621Y-110407379D01*
X147177625Y-110319139D01*
X147043709Y-110263670D01*
X146900000Y-110244750D01*
X146756291Y-110263670D01*
X146622375Y-110319139D01*
X146507379Y-110407379D01*
X146419139Y-110522375D01*
X146363670Y-110656291D01*
X146344750Y-110800000D01*
X146363670Y-110943709D01*
X146407142Y-111048660D01*
X146408435Y-111051782D01*
X146416024Y-111122372D01*
X146408436Y-111148215D01*
X146363670Y-111256291D01*
X146344750Y-111400000D01*
X146363670Y-111543709D01*
X146396284Y-111622446D01*
X146408435Y-111651782D01*
X146416024Y-111722372D01*
X146408436Y-111748215D01*
X146363670Y-111856291D01*
X146344750Y-112000000D01*
X146363670Y-112143709D01*
X146381602Y-112187000D01*
X146408435Y-112251782D01*
X146416024Y-112322372D01*
X146408436Y-112348215D01*
X146363670Y-112456291D01*
X146344750Y-112600000D01*
X146363670Y-112743709D01*
X146402035Y-112836330D01*
X146408435Y-112851782D01*
X146416024Y-112922372D01*
X146408436Y-112948215D01*
X146363670Y-113056291D01*
X146344750Y-113200000D01*
X146363670Y-113343709D01*
X146407142Y-113448660D01*
X146408435Y-113451782D01*
X146416024Y-113522372D01*
X146408436Y-113548215D01*
X146363670Y-113656291D01*
X146344750Y-113800000D01*
X134313014Y-113800000D01*
X134336330Y-113743709D01*
X134355250Y-113600000D01*
X134336330Y-113456291D01*
X134280861Y-113322375D01*
X134245815Y-113276702D01*
X134220215Y-113210484D01*
X134234479Y-113140935D01*
X134245811Y-113123303D01*
X134280861Y-113077625D01*
X134336330Y-112943709D01*
X134355250Y-112800000D01*
X134336330Y-112656291D01*
X134313014Y-112600000D01*
X139444750Y-112600000D01*
X139463670Y-112743709D01*
X139519139Y-112877625D01*
X139607379Y-112992621D01*
X139722375Y-113080861D01*
X139856291Y-113136330D01*
X140000000Y-113155250D01*
X140143709Y-113136330D01*
X140277625Y-113080861D01*
X140284175Y-113075835D01*
X140287000Y-113074204D01*
X140355996Y-113057466D01*
X140413000Y-113074204D01*
X140415825Y-113075835D01*
X140422375Y-113080861D01*
X140556291Y-113136330D01*
X140700000Y-113155250D01*
X140843709Y-113136330D01*
X140977625Y-113080861D01*
X141023298Y-113045815D01*
X141089516Y-113020215D01*
X141159065Y-113034479D01*
X141176697Y-113045811D01*
X141222375Y-113080861D01*
X141356291Y-113136330D01*
X141500000Y-113155250D01*
X141643709Y-113136330D01*
X141777625Y-113080861D01*
X141784175Y-113075835D01*
X141787000Y-113074204D01*
X141855996Y-113057466D01*
X141913000Y-113074204D01*
X141915825Y-113075835D01*
X141922375Y-113080861D01*
X142056291Y-113136330D01*
X142200000Y-113155250D01*
X142343709Y-113136330D01*
X142477625Y-113080861D01*
X142523298Y-113045815D01*
X142589516Y-113020215D01*
X142659065Y-113034479D01*
X142676697Y-113045811D01*
X142722375Y-113080861D01*
X142856291Y-113136330D01*
X143000000Y-113155250D01*
X143143709Y-113136330D01*
X143277625Y-113080861D01*
X143284175Y-113075835D01*
X143287000Y-113074204D01*
X143355996Y-113057466D01*
X143413000Y-113074204D01*
X143415825Y-113075835D01*
X143422375Y-113080861D01*
X143556291Y-113136330D01*
X143700000Y-113155250D01*
X143843709Y-113136330D01*
X143977625Y-113080861D01*
X143984175Y-113075835D01*
X143987000Y-113074204D01*
X144055996Y-113057466D01*
X144113000Y-113074204D01*
X144115825Y-113075835D01*
X144122375Y-113080861D01*
X144256291Y-113136330D01*
X144400000Y-113155250D01*
X144543709Y-113136330D01*
X144677625Y-113080861D01*
X144684175Y-113075835D01*
X144687000Y-113074204D01*
X144755996Y-113057466D01*
X144813000Y-113074204D01*
X144815825Y-113075835D01*
X144822375Y-113080861D01*
X144956291Y-113136330D01*
X145100000Y-113155250D01*
X145243709Y-113136330D01*
X145377625Y-113080861D01*
X145492621Y-112992621D01*
X145580861Y-112877625D01*
X145636330Y-112743709D01*
X145655250Y-112600000D01*
X145636330Y-112456291D01*
X145580861Y-112322375D01*
X145575835Y-112315825D01*
X145574204Y-112313000D01*
X145557466Y-112244004D01*
X145574204Y-112187000D01*
X145575835Y-112184175D01*
X145580861Y-112177625D01*
X145636330Y-112043709D01*
X145655250Y-111900000D01*
X145636330Y-111756291D01*
X145580861Y-111622375D01*
X145575835Y-111615825D01*
X145574204Y-111613000D01*
X145557466Y-111544004D01*
X145574204Y-111487000D01*
X145575835Y-111484175D01*
X145580861Y-111477625D01*
X145636330Y-111343709D01*
X145655250Y-111200000D01*
X145636330Y-111056291D01*
X145580861Y-110922375D01*
X145575833Y-110915822D01*
X145574204Y-110913000D01*
X145557466Y-110844004D01*
X145574204Y-110787000D01*
X145575835Y-110784175D01*
X145580861Y-110777625D01*
X145636330Y-110643709D01*
X145655250Y-110500000D01*
X145636330Y-110356291D01*
X145580861Y-110222375D01*
X145575833Y-110215822D01*
X145574204Y-110213000D01*
X145557466Y-110144004D01*
X145574204Y-110087000D01*
X145575835Y-110084175D01*
X145580861Y-110077625D01*
X145636330Y-109943709D01*
X145655250Y-109800000D01*
X147644750Y-109800000D01*
X147663670Y-109943709D01*
X147719139Y-110077625D01*
X147807379Y-110192621D01*
X147922375Y-110280861D01*
X148056291Y-110336330D01*
X148200000Y-110355250D01*
X148343709Y-110336330D01*
X148451783Y-110291565D01*
X148522372Y-110283976D01*
X148548215Y-110291564D01*
X148656291Y-110336330D01*
X148800000Y-110355250D01*
X148943709Y-110336330D01*
X149051783Y-110291565D01*
X149122372Y-110283976D01*
X149148215Y-110291564D01*
X149256291Y-110336330D01*
X149400000Y-110355250D01*
X149543709Y-110336330D01*
X149677625Y-110280861D01*
X149792621Y-110192621D01*
X149880861Y-110077625D01*
X149936330Y-109943709D01*
X149955250Y-109800000D01*
X149936330Y-109656291D01*
X149891565Y-109548217D01*
X149883976Y-109477628D01*
X149891565Y-109451782D01*
X149892670Y-109449116D01*
X149936330Y-109343709D01*
X149955250Y-109200000D01*
X149936330Y-109056291D01*
X149891565Y-108948217D01*
X149883976Y-108877628D01*
X149891565Y-108851782D01*
X149906353Y-108816082D01*
X149936330Y-108743709D01*
X149955250Y-108600000D01*
X149936330Y-108456291D01*
X149880861Y-108322375D01*
X149792621Y-108207379D01*
X149677625Y-108119139D01*
X149543709Y-108063670D01*
X149400000Y-108044750D01*
X149256291Y-108063670D01*
X149148217Y-108108435D01*
X149077628Y-108116024D01*
X149051785Y-108108436D01*
X148943709Y-108063670D01*
X148800000Y-108044750D01*
X148656291Y-108063670D01*
X148548217Y-108108435D01*
X148477628Y-108116024D01*
X148451785Y-108108436D01*
X148343709Y-108063670D01*
X148200000Y-108044750D01*
X148056291Y-108063670D01*
X147922375Y-108119139D01*
X147807379Y-108207379D01*
X147719139Y-108322375D01*
X147663670Y-108456291D01*
X147644750Y-108600000D01*
X147663670Y-108743709D01*
X147693648Y-108816082D01*
X147708435Y-108851782D01*
X147716024Y-108922372D01*
X147708436Y-108948215D01*
X147663670Y-109056291D01*
X147644750Y-109200000D01*
X147663670Y-109343709D01*
X147707331Y-109449116D01*
X147708435Y-109451782D01*
X147716024Y-109522372D01*
X147708436Y-109548215D01*
X147663670Y-109656291D01*
X147644750Y-109800000D01*
X145655250Y-109800000D01*
X145636330Y-109656291D01*
X145580861Y-109522375D01*
X145524647Y-109449116D01*
X145499046Y-109382896D01*
X145513311Y-109313347D01*
X145562912Y-109262551D01*
X145632101Y-109246635D01*
X145641055Y-109247490D01*
X145691811Y-109254172D01*
X145691812Y-109254172D01*
X145700000Y-109255250D01*
X145843709Y-109236330D01*
X145951783Y-109191565D01*
X146022372Y-109183976D01*
X146048215Y-109191564D01*
X146156291Y-109236330D01*
X146300000Y-109255250D01*
X146443709Y-109236330D01*
X146577625Y-109180861D01*
X146692621Y-109092621D01*
X146780861Y-108977625D01*
X146836330Y-108843709D01*
X146855250Y-108700000D01*
X146836330Y-108556291D01*
X146791565Y-108448217D01*
X146783976Y-108377628D01*
X146791565Y-108351782D01*
X146793749Y-108346511D01*
X146836330Y-108243709D01*
X146855250Y-108100000D01*
X146836330Y-107956291D01*
X146780861Y-107822375D01*
X146692621Y-107707379D01*
X146577625Y-107619139D01*
X146443709Y-107563670D01*
X146300000Y-107544750D01*
X146156291Y-107563670D01*
X146048217Y-107608435D01*
X145977628Y-107616024D01*
X145951785Y-107608436D01*
X145843709Y-107563670D01*
X145700000Y-107544750D01*
X145556291Y-107563670D01*
X145422375Y-107619139D01*
X145307379Y-107707379D01*
X145219139Y-107822375D01*
X145163670Y-107956291D01*
X145144750Y-108100000D01*
X145163670Y-108243709D01*
X145206252Y-108346511D01*
X145208435Y-108351782D01*
X145216024Y-108422372D01*
X145208436Y-108448215D01*
X145163670Y-108556291D01*
X145144750Y-108700000D01*
X145163670Y-108843709D01*
X145219139Y-108977625D01*
X145273646Y-109048660D01*
X145275353Y-109050884D01*
X145300954Y-109117104D01*
X145286689Y-109186653D01*
X145237088Y-109237449D01*
X145167899Y-109253365D01*
X145158945Y-109252510D01*
X145108189Y-109245828D01*
X145108188Y-109245828D01*
X145100000Y-109244750D01*
X144956291Y-109263670D01*
X144822375Y-109319139D01*
X144815825Y-109324165D01*
X144813000Y-109325796D01*
X144744004Y-109342534D01*
X144687000Y-109325796D01*
X144684175Y-109324165D01*
X144677625Y-109319139D01*
X144543709Y-109263670D01*
X144400000Y-109244750D01*
X144256291Y-109263670D01*
X144122375Y-109319139D01*
X144115825Y-109324165D01*
X144113000Y-109325796D01*
X144044004Y-109342534D01*
X143987000Y-109325796D01*
X143984175Y-109324165D01*
X143977625Y-109319139D01*
X143843709Y-109263670D01*
X143700000Y-109244750D01*
X143556291Y-109263670D01*
X143422375Y-109319139D01*
X143415825Y-109324165D01*
X143413000Y-109325796D01*
X143344004Y-109342534D01*
X143287000Y-109325796D01*
X143284175Y-109324165D01*
X143277625Y-109319139D01*
X143143709Y-109263670D01*
X143000000Y-109244750D01*
X142856291Y-109263670D01*
X142722375Y-109319139D01*
X142676702Y-109354185D01*
X142610484Y-109379785D01*
X142540935Y-109365521D01*
X142523303Y-109354189D01*
X142477625Y-109319139D01*
X142343709Y-109263670D01*
X142200000Y-109244750D01*
X142056291Y-109263670D01*
X141922375Y-109319139D01*
X141915825Y-109324165D01*
X141913000Y-109325796D01*
X141844004Y-109342534D01*
X141787000Y-109325796D01*
X141784175Y-109324165D01*
X141777625Y-109319139D01*
X141643709Y-109263670D01*
X141500000Y-109244750D01*
X141356291Y-109263670D01*
X141222375Y-109319139D01*
X141176702Y-109354185D01*
X141110484Y-109379785D01*
X141040935Y-109365521D01*
X141023303Y-109354189D01*
X140977625Y-109319139D01*
X140843709Y-109263670D01*
X140700000Y-109244750D01*
X140556291Y-109263670D01*
X140422375Y-109319139D01*
X140415825Y-109324165D01*
X140413000Y-109325796D01*
X140344004Y-109342534D01*
X140287000Y-109325796D01*
X140284175Y-109324165D01*
X140277625Y-109319139D01*
X140143709Y-109263670D01*
X140000000Y-109244750D01*
X139856291Y-109263670D01*
X139722375Y-109319139D01*
X139607379Y-109407379D01*
X139519139Y-109522375D01*
X139463670Y-109656291D01*
X139444750Y-109800000D01*
X139463670Y-109943709D01*
X139519139Y-110077625D01*
X139524165Y-110084175D01*
X139525796Y-110087000D01*
X139542534Y-110155996D01*
X139525796Y-110213000D01*
X139524167Y-110215822D01*
X139519139Y-110222375D01*
X139463670Y-110356291D01*
X139444750Y-110500000D01*
X139463670Y-110643709D01*
X139519139Y-110777625D01*
X139524165Y-110784175D01*
X139525796Y-110787000D01*
X139542534Y-110855996D01*
X139525796Y-110913000D01*
X139524167Y-110915822D01*
X139519139Y-110922375D01*
X139463670Y-111056291D01*
X139444750Y-111200000D01*
X139463670Y-111343709D01*
X139519139Y-111477625D01*
X139524165Y-111484175D01*
X139525796Y-111487000D01*
X139542534Y-111555996D01*
X139525796Y-111613000D01*
X139524165Y-111615825D01*
X139519139Y-111622375D01*
X139463670Y-111756291D01*
X139444750Y-111900000D01*
X139463670Y-112043709D01*
X139519139Y-112177625D01*
X139524165Y-112184175D01*
X139525796Y-112187000D01*
X139542534Y-112255996D01*
X139525796Y-112313000D01*
X139524165Y-112315825D01*
X139519139Y-112322375D01*
X139463670Y-112456291D01*
X139444750Y-112600000D01*
X134313014Y-112600000D01*
X134280861Y-112522375D01*
X134245815Y-112476702D01*
X134220215Y-112410484D01*
X134234479Y-112340935D01*
X134245811Y-112323303D01*
X134280861Y-112277625D01*
X134336330Y-112143709D01*
X134355250Y-112000000D01*
X134336330Y-111856291D01*
X134280861Y-111722375D01*
X134245815Y-111676702D01*
X134220215Y-111610484D01*
X134234479Y-111540935D01*
X134245811Y-111523303D01*
X134280861Y-111477625D01*
X134336330Y-111343709D01*
X134355250Y-111200000D01*
X134336330Y-111056291D01*
X134280861Y-110922375D01*
X134192621Y-110807379D01*
X134077625Y-110719139D01*
X133943709Y-110663670D01*
X133800000Y-110644750D01*
X133656291Y-110663670D01*
X133522375Y-110719139D01*
X133476702Y-110754185D01*
X133410484Y-110779785D01*
X133340935Y-110765521D01*
X133323303Y-110754189D01*
X133277625Y-110719139D01*
X133143709Y-110663670D01*
X133000000Y-110644750D01*
X132856291Y-110663670D01*
X132722375Y-110719139D01*
X132676702Y-110754185D01*
X132610484Y-110779785D01*
X132540935Y-110765521D01*
X132523303Y-110754189D01*
X132477625Y-110719139D01*
X132343709Y-110663670D01*
X132200000Y-110644750D01*
X132056291Y-110663670D01*
X131922375Y-110719139D01*
X131876702Y-110754185D01*
X131810484Y-110779785D01*
X131740935Y-110765521D01*
X131723303Y-110754189D01*
X131677625Y-110719139D01*
X131543709Y-110663670D01*
X131400000Y-110644750D01*
X131256291Y-110663670D01*
X131122375Y-110719139D01*
X131007379Y-110807379D01*
X130919139Y-110922375D01*
X130863670Y-111056291D01*
X130844750Y-111200000D01*
X130863670Y-111343709D01*
X130919139Y-111477625D01*
X130954185Y-111523298D01*
X130979785Y-111589516D01*
X130965521Y-111659065D01*
X130954189Y-111676697D01*
X130919139Y-111722375D01*
X130863670Y-111856291D01*
X130844750Y-112000000D01*
X130863670Y-112143709D01*
X130919139Y-112277625D01*
X130954185Y-112323298D01*
X130979785Y-112389516D01*
X130965521Y-112459065D01*
X130954189Y-112476697D01*
X130919139Y-112522375D01*
X130863670Y-112656291D01*
X130844750Y-112800000D01*
X130863670Y-112943709D01*
X130919139Y-113077625D01*
X130954185Y-113123298D01*
X130979785Y-113189516D01*
X130965521Y-113259065D01*
X130954189Y-113276697D01*
X130919139Y-113322375D01*
X130863670Y-113456291D01*
X130844750Y-113600000D01*
X129413014Y-113600000D01*
X129391565Y-113548217D01*
X129383976Y-113477628D01*
X129391565Y-113451782D01*
X129392859Y-113448660D01*
X129436330Y-113343709D01*
X129455250Y-113200000D01*
X129436330Y-113056291D01*
X129380861Y-112922375D01*
X129292621Y-112807379D01*
X129177625Y-112719139D01*
X129043709Y-112663670D01*
X128900000Y-112644750D01*
X128756291Y-112663670D01*
X128622375Y-112719139D01*
X128507379Y-112807379D01*
X128419139Y-112922375D01*
X128363670Y-113056291D01*
X128344750Y-113200000D01*
X128363670Y-113343709D01*
X128407142Y-113448660D01*
X128408435Y-113451782D01*
X128416024Y-113522372D01*
X128408436Y-113548215D01*
X128363670Y-113656291D01*
X128344750Y-113800000D01*
X128363670Y-113943709D01*
X128405964Y-114045816D01*
X128408435Y-114051782D01*
X128416024Y-114122372D01*
X128408436Y-114148215D01*
X128363670Y-114256291D01*
X128344750Y-114400000D01*
X128363670Y-114543709D01*
X128402035Y-114636330D01*
X128408435Y-114651782D01*
X128416024Y-114722372D01*
X128408436Y-114748215D01*
X128363670Y-114856291D01*
X128344750Y-115000000D01*
X127055250Y-115000000D01*
X127036330Y-114856291D01*
X126991565Y-114748217D01*
X126983976Y-114677628D01*
X126991565Y-114651782D01*
X126997966Y-114636330D01*
X127036330Y-114543709D01*
X127055250Y-114400000D01*
X127036330Y-114256291D01*
X126980861Y-114122375D01*
X126892621Y-114007379D01*
X126777625Y-113919139D01*
X126643709Y-113863670D01*
X126500000Y-113844750D01*
X126356291Y-113863670D01*
X126248217Y-113908435D01*
X126177628Y-113916024D01*
X126151785Y-113908436D01*
X126043709Y-113863670D01*
X125900000Y-113844750D01*
X125756291Y-113863670D01*
X125622375Y-113919139D01*
X125507379Y-114007379D01*
X125419139Y-114122375D01*
X125363670Y-114256291D01*
X125344750Y-114400000D01*
X125363670Y-114543709D01*
X125402035Y-114636330D01*
X125408435Y-114651782D01*
X125416024Y-114722372D01*
X125408436Y-114748215D01*
X125363670Y-114856291D01*
X125344750Y-115000000D01*
X125345828Y-115008188D01*
X125345828Y-115008190D01*
X125350150Y-115041020D01*
X125339210Y-115111169D01*
X125292082Y-115164267D01*
X125241675Y-115182388D01*
X125155373Y-115193750D01*
X125121789Y-115198172D01*
X124987873Y-115253641D01*
X124872877Y-115341881D01*
X124784637Y-115456877D01*
X124729168Y-115590793D01*
X124710248Y-115734502D01*
X121727268Y-115734502D01*
X121756710Y-115673733D01*
X121780496Y-115532354D01*
X121780647Y-115520000D01*
X121763125Y-115397647D01*
X121761596Y-115386968D01*
X121761595Y-115386965D01*
X121760323Y-115378082D01*
X121743864Y-115341881D01*
X121732087Y-115315979D01*
X121700984Y-115247572D01*
X121644818Y-115182388D01*
X121613260Y-115145763D01*
X121613257Y-115145760D01*
X121607400Y-115138963D01*
X121487095Y-115060985D01*
X121349739Y-115019907D01*
X121340763Y-115019852D01*
X121340762Y-115019852D01*
X121280555Y-115019484D01*
X121206376Y-115019031D01*
X121068529Y-115058428D01*
X120947280Y-115134930D01*
X120852377Y-115242388D01*
X120791447Y-115372163D01*
X120790066Y-115381035D01*
X120779278Y-115450324D01*
X120769391Y-115513823D01*
X119674299Y-115513823D01*
X119592621Y-115407379D01*
X119477625Y-115319139D01*
X119343709Y-115263670D01*
X119200000Y-115244750D01*
X119056291Y-115263670D01*
X118922375Y-115319139D01*
X118807379Y-115407379D01*
X118719139Y-115522375D01*
X118663670Y-115656291D01*
X118644750Y-115800000D01*
X117500000Y-115800000D01*
X117500000Y-114100000D01*
X118644750Y-114100000D01*
X118663670Y-114243709D01*
X118719139Y-114377625D01*
X118807379Y-114492621D01*
X118922375Y-114580861D01*
X119056291Y-114636330D01*
X119200000Y-114655250D01*
X119343709Y-114636330D01*
X119477625Y-114580861D01*
X119592621Y-114492621D01*
X119680861Y-114377625D01*
X119736330Y-114243709D01*
X119755250Y-114100000D01*
X123544750Y-114100000D01*
X123563670Y-114243709D01*
X123619139Y-114377625D01*
X123707379Y-114492621D01*
X123822375Y-114580861D01*
X123956291Y-114636330D01*
X124100000Y-114655250D01*
X124243709Y-114636330D01*
X124377625Y-114580861D01*
X124492621Y-114492621D01*
X124580861Y-114377625D01*
X124636330Y-114243709D01*
X124655250Y-114100000D01*
X124636330Y-113956291D01*
X124580861Y-113822375D01*
X124492621Y-113707379D01*
X124377625Y-113619139D01*
X124243709Y-113563670D01*
X124100000Y-113544750D01*
X123956291Y-113563670D01*
X123822375Y-113619139D01*
X123707379Y-113707379D01*
X123619139Y-113822375D01*
X123563670Y-113956291D01*
X123544750Y-114100000D01*
X119755250Y-114100000D01*
X119736330Y-113956291D01*
X119680861Y-113822375D01*
X119592621Y-113707379D01*
X119477625Y-113619139D01*
X119343709Y-113563670D01*
X119200000Y-113544750D01*
X119056291Y-113563670D01*
X118922375Y-113619139D01*
X118807379Y-113707379D01*
X118719139Y-113822375D01*
X118663670Y-113956291D01*
X118644750Y-114100000D01*
X117500000Y-114100000D01*
X117500000Y-112300000D01*
X123244750Y-112300000D01*
X123263670Y-112443709D01*
X123319139Y-112577625D01*
X123407379Y-112692621D01*
X123522375Y-112780861D01*
X123656291Y-112836330D01*
X123800000Y-112855250D01*
X123943709Y-112836330D01*
X124077625Y-112780861D01*
X124192621Y-112692621D01*
X124280861Y-112577625D01*
X124336330Y-112443709D01*
X124355250Y-112300000D01*
X124336330Y-112156291D01*
X124280861Y-112022375D01*
X124261985Y-111997775D01*
X124236385Y-111931554D01*
X124250650Y-111862006D01*
X124300252Y-111811210D01*
X124345502Y-111796150D01*
X124389709Y-111790330D01*
X124523625Y-111734861D01*
X124638621Y-111646621D01*
X124726861Y-111531625D01*
X124782330Y-111397709D01*
X124801250Y-111254000D01*
X124782330Y-111110291D01*
X124726861Y-110976375D01*
X124638621Y-110861379D01*
X124523625Y-110773139D01*
X124389709Y-110717670D01*
X124246000Y-110698750D01*
X124102291Y-110717670D01*
X123968375Y-110773139D01*
X123853379Y-110861379D01*
X123765139Y-110976375D01*
X123709670Y-111110291D01*
X123690750Y-111254000D01*
X123709670Y-111397709D01*
X123765139Y-111531625D01*
X123770166Y-111538176D01*
X123770167Y-111538178D01*
X123784015Y-111556225D01*
X123809615Y-111622446D01*
X123795350Y-111691994D01*
X123745748Y-111742790D01*
X123700498Y-111757850D01*
X123656291Y-111763670D01*
X123522375Y-111819139D01*
X123407379Y-111907379D01*
X123319139Y-112022375D01*
X123263670Y-112156291D01*
X123244750Y-112300000D01*
X117500000Y-112300000D01*
X117500000Y-110500000D01*
X117944750Y-110500000D01*
X117963670Y-110643709D01*
X118019139Y-110777625D01*
X118107379Y-110892621D01*
X118222375Y-110980861D01*
X118356291Y-111036330D01*
X118500000Y-111055250D01*
X118643709Y-111036330D01*
X118777625Y-110980861D01*
X118892621Y-110892621D01*
X118980861Y-110777625D01*
X119036330Y-110643709D01*
X119041581Y-110603823D01*
X120709391Y-110603823D01*
X120710555Y-110612725D01*
X120710555Y-110612728D01*
X120718685Y-110674901D01*
X120727980Y-110745979D01*
X120785720Y-110877203D01*
X120791497Y-110884076D01*
X120791498Y-110884077D01*
X120821051Y-110919235D01*
X120877970Y-110986948D01*
X120885447Y-110991925D01*
X120982142Y-111056291D01*
X120997313Y-111066390D01*
X121134157Y-111109142D01*
X121143129Y-111109306D01*
X121143132Y-111109307D01*
X121208463Y-111110504D01*
X121277499Y-111111770D01*
X121286533Y-111109307D01*
X121407158Y-111076421D01*
X121407160Y-111076420D01*
X121415817Y-111074060D01*
X121537991Y-110999045D01*
X121634200Y-110892754D01*
X121689716Y-110778168D01*
X121692795Y-110771814D01*
X121692795Y-110771813D01*
X121696710Y-110763733D01*
X121720496Y-110622354D01*
X121720647Y-110610000D01*
X121707986Y-110521588D01*
X126566338Y-110521588D01*
X126585258Y-110665297D01*
X126640727Y-110799213D01*
X126728967Y-110914209D01*
X126843963Y-111002449D01*
X126977879Y-111057918D01*
X127121588Y-111076838D01*
X127265297Y-111057918D01*
X127399213Y-111002449D01*
X127514209Y-110914209D01*
X127602449Y-110799213D01*
X127657918Y-110665297D01*
X127676838Y-110521588D01*
X127657918Y-110377879D01*
X127602449Y-110243963D01*
X127514209Y-110128967D01*
X127399213Y-110040727D01*
X127265297Y-109985258D01*
X127121588Y-109966338D01*
X126977879Y-109985258D01*
X126843963Y-110040727D01*
X126728967Y-110128967D01*
X126640727Y-110243963D01*
X126585258Y-110377879D01*
X126566338Y-110521588D01*
X121707986Y-110521588D01*
X121704894Y-110500000D01*
X121701596Y-110476968D01*
X121701595Y-110476965D01*
X121700323Y-110468082D01*
X121640984Y-110337572D01*
X121601342Y-110291565D01*
X121553260Y-110235763D01*
X121553257Y-110235760D01*
X121547400Y-110228963D01*
X121427095Y-110150985D01*
X121289739Y-110109907D01*
X121280763Y-110109852D01*
X121280762Y-110109852D01*
X121220555Y-110109484D01*
X121146376Y-110109031D01*
X121008529Y-110148428D01*
X120887280Y-110224930D01*
X120792377Y-110332388D01*
X120731447Y-110462163D01*
X120709391Y-110603823D01*
X119041581Y-110603823D01*
X119055250Y-110500000D01*
X119036330Y-110356291D01*
X118980861Y-110222375D01*
X118892621Y-110107379D01*
X118777625Y-110019139D01*
X118643709Y-109963670D01*
X118500000Y-109944750D01*
X118356291Y-109963670D01*
X118222375Y-110019139D01*
X118107379Y-110107379D01*
X118019139Y-110222375D01*
X117963670Y-110356291D01*
X117944750Y-110500000D01*
X117500000Y-110500000D01*
X117500000Y-109792611D01*
X129794394Y-109792611D01*
X129812999Y-109961135D01*
X129821827Y-109985258D01*
X129868384Y-110112480D01*
X129871266Y-110120356D01*
X129875502Y-110126659D01*
X129875502Y-110126660D01*
X129887157Y-110144004D01*
X129965830Y-110261083D01*
X129971442Y-110266190D01*
X129971445Y-110266193D01*
X130085612Y-110370077D01*
X130085616Y-110370080D01*
X130091233Y-110375191D01*
X130097906Y-110378814D01*
X130097910Y-110378817D01*
X130233558Y-110452467D01*
X130233560Y-110452468D01*
X130240235Y-110456092D01*
X130247584Y-110458020D01*
X130396883Y-110497188D01*
X130396885Y-110497188D01*
X130404233Y-110499116D01*
X130490609Y-110500473D01*
X130566161Y-110501660D01*
X130566164Y-110501660D01*
X130573760Y-110501779D01*
X130581165Y-110500083D01*
X130581166Y-110500083D01*
X130682092Y-110476968D01*
X130739029Y-110463928D01*
X130890498Y-110387747D01*
X131019423Y-110277634D01*
X131118361Y-110139947D01*
X131123702Y-110126660D01*
X131178766Y-109989687D01*
X131178767Y-109989685D01*
X131181601Y-109982634D01*
X131205490Y-109814778D01*
X131205645Y-109800000D01*
X131203840Y-109785080D01*
X131188254Y-109656291D01*
X131185276Y-109631680D01*
X131125345Y-109473077D01*
X131086801Y-109416995D01*
X131033614Y-109339608D01*
X131033613Y-109339607D01*
X131029312Y-109333349D01*
X131019008Y-109324168D01*
X130908392Y-109225612D01*
X130908388Y-109225610D01*
X130902721Y-109220560D01*
X130879355Y-109208188D01*
X130818244Y-109175832D01*
X130752881Y-109141224D01*
X130588441Y-109099919D01*
X130580843Y-109099879D01*
X130580841Y-109099879D01*
X130503668Y-109099475D01*
X130418895Y-109099031D01*
X130411508Y-109100805D01*
X130411504Y-109100805D01*
X130268162Y-109135220D01*
X130254032Y-109138612D01*
X130247288Y-109142093D01*
X130247285Y-109142094D01*
X130160954Y-109186653D01*
X130103369Y-109216375D01*
X130097647Y-109221367D01*
X130097645Y-109221368D01*
X130050436Y-109262551D01*
X129975604Y-109327831D01*
X129971237Y-109334045D01*
X129890364Y-109449116D01*
X129878113Y-109466547D01*
X129816524Y-109624513D01*
X129794394Y-109792611D01*
X117500000Y-109792611D01*
X117500000Y-108346511D01*
X117504243Y-108332061D01*
X126812250Y-108332061D01*
X126831170Y-108475770D01*
X126886639Y-108609686D01*
X126974879Y-108724682D01*
X127089875Y-108812922D01*
X127223791Y-108868391D01*
X127367500Y-108887311D01*
X127511209Y-108868391D01*
X127645125Y-108812922D01*
X127760121Y-108724682D01*
X127848361Y-108609686D01*
X127903830Y-108475770D01*
X127922750Y-108332061D01*
X127903830Y-108188352D01*
X127848361Y-108054436D01*
X127760121Y-107939440D01*
X127645125Y-107851200D01*
X127511209Y-107795731D01*
X127367500Y-107776811D01*
X127223791Y-107795731D01*
X127089875Y-107851200D01*
X126974879Y-107939440D01*
X126886639Y-108054436D01*
X126831170Y-108188352D01*
X126812250Y-108332061D01*
X117504243Y-108332061D01*
X117520002Y-108278390D01*
X117573658Y-108231897D01*
X117588515Y-108226216D01*
X117813624Y-108156070D01*
X117817260Y-108154937D01*
X117820730Y-108153375D01*
X117820736Y-108153373D01*
X117944155Y-108097826D01*
X118071050Y-108040715D01*
X118074307Y-108038746D01*
X118074311Y-108038744D01*
X118305968Y-107898702D01*
X118309222Y-107896735D01*
X118362174Y-107855250D01*
X118525299Y-107727449D01*
X118525302Y-107727447D01*
X118528302Y-107725096D01*
X118725096Y-107528302D01*
X118791371Y-107443709D01*
X118894392Y-107312213D01*
X118894394Y-107312210D01*
X118896735Y-107309222D01*
X118902310Y-107300000D01*
X122544750Y-107300000D01*
X122563670Y-107443709D01*
X122619139Y-107577625D01*
X122707379Y-107692621D01*
X122822375Y-107780861D01*
X122956291Y-107836330D01*
X123100000Y-107855250D01*
X123243709Y-107836330D01*
X123377625Y-107780861D01*
X123492621Y-107692621D01*
X123580861Y-107577625D01*
X123636330Y-107443709D01*
X123655250Y-107300000D01*
X123636330Y-107156291D01*
X123580861Y-107022375D01*
X123492621Y-106907379D01*
X123377625Y-106819139D01*
X123243709Y-106763670D01*
X123146880Y-106750922D01*
X123098920Y-106729705D01*
X123072171Y-106746896D01*
X123053120Y-106750922D01*
X122956291Y-106763670D01*
X122822375Y-106819139D01*
X122707379Y-106907379D01*
X122619139Y-107022375D01*
X122563670Y-107156291D01*
X122544750Y-107300000D01*
X118902310Y-107300000D01*
X119040715Y-107071050D01*
X119154937Y-106817260D01*
X119226216Y-106588515D01*
X119265578Y-106529429D01*
X119330636Y-106501004D01*
X119346511Y-106500000D01*
X123036673Y-106500000D01*
X123104707Y-106519976D01*
G37*
%TD.AperFunction*%
%TD*%
M02*
